<svg width="124" height="12" viewBox="0 0 124 12" fill="none" xmlns="http://www.w3.org/2000/svg">
<path d="M0.240619 7.8018C0.320826 7.81081 0.409703 7.82207 0.500748 7.83333L1.08604 8.5473C1.17925 8.55856 1.26813 8.56982 1.3505 8.58108C1.39819 8.63063 1.43938 8.67342 1.48057 8.71847C1.60196 8.72748 1.72335 8.73874 1.84258 8.74775C1.82524 8.57883 1.78405 8.52477 1.67783 8.3964C1.56728 8.26351 1.53043 8.21847 1.52392 8.0518C1.55427 8.05405 1.58462 8.05631 1.62797 8.06081L1.97048 8.47973C2.06369 8.49324 2.15257 8.50676 2.24361 8.52027C2.28046 8.56081 2.32165 8.60585 2.36284 8.65315C2.3585 8.74324 2.35417 8.83784 2.34983 8.92793L2.46689 9.06982C2.59045 9.08108 2.71185 9.09009 2.83324 9.10135C2.86142 8.95496 2.90044 8.81081 2.85058 8.66441C2.78988 8.59009 2.62514 8.45946 2.65982 8.33784C2.688 8.23423 2.77471 8.29279 2.8289 8.34459C2.87876 8.39415 2.97848 8.51802 3.03701 8.39414C3.07819 8.30856 2.97414 8.23874 2.93079 8.17793C2.95969 8.02177 3.04857 7.93919 3.19742 7.93018C3.19742 8.01802 3.19525 8.10585 3.19308 8.19369C3.36434 8.16892 3.48573 8.24324 3.58328 8.3491C3.67866 8.36937 3.76537 8.38514 3.83474 8.4009C3.95179 8.56757 4.10354 8.68018 4.1664 8.86937C4.15339 8.98649 4.14039 9.10811 4.12955 9.2027C4.00165 9.32883 3.72635 9.51351 3.71117 9.7027C3.79788 9.73649 3.85208 9.68018 3.92578 9.64865C4.02333 9.60586 4.11654 9.61487 4.22059 9.60586C4.23143 9.53829 4.24444 9.45496 4.25961 9.36487C4.29646 9.32883 4.33982 9.28604 4.38751 9.23874C4.40052 9.10811 4.38751 8.99324 4.45905 8.87387C4.39401 8.73649 4.51541 8.63288 4.55876 8.75225C4.58261 8.81757 4.52408 8.90991 4.48506 8.90541C4.55659 8.99324 4.61295 9.06081 4.69533 9.16442C4.66715 9.30856 4.63246 9.49099 4.60212 9.64414C4.68016 9.72072 4.72351 9.76126 4.76686 9.8018C4.91861 9.81531 5.06818 9.82658 5.2351 9.84009L5.47138 10.1284C5.82039 10.1577 6.17806 10.1869 6.50539 10.214C6.68748 10.3716 6.73517 10.6329 6.99097 10.6577L7.28145 10.4009C7.28145 10.2973 7.28361 10.1712 7.28578 10.027C7.15788 10.0068 7.02348 10.0158 6.96062 9.88063C6.91293 9.77703 6.95195 9.67117 7.05383 9.61937C7.13621 9.57658 7.24459 9.6509 7.31396 9.59459C7.42018 9.50676 7.27277 9.4009 7.22292 9.34009C7.1297 9.32658 7.04299 9.31532 6.95412 9.3018C6.86524 9.18469 6.77636 9.06982 6.68748 8.9527C6.60077 8.84009 6.50106 8.75901 6.5119 8.61261C6.59861 8.61486 6.68315 8.61937 6.77419 8.62162L6.90859 8.50225C7.12103 8.52027 7.3313 8.53829 7.54591 8.55631L7.78653 8.8491C7.89925 8.8536 8.02065 8.85811 8.16805 8.86261C8.26777 8.78378 8.40867 8.60135 8.54524 8.64414C8.71649 8.6982 8.69265 8.87387 8.69048 9.02252C8.82921 9.04955 8.94844 9.07207 9.04599 9.09234C9.11535 9.03829 9.16304 9 9.20857 8.96396C9.32996 8.97297 9.44919 8.98423 9.56841 8.99324C9.63344 9.04054 9.66163 9.12613 9.74617 9.14189C9.82204 9.15541 9.89141 9.10586 9.9456 9.05631C10.0757 8.93919 10.1645 8.75676 10.3661 8.7973C10.364 8.88964 10.3596 8.98198 10.3575 9.04955C10.4702 9.18694 10.6349 9.48649 10.8127 9.50225C10.8192 9.37387 10.8127 9.33784 10.7325 9.23649C10.6501 9.13288 10.6371 9.08559 10.6154 8.95496C10.6783 8.90766 10.7455 8.78153 10.8387 8.84009C10.9233 8.89414 10.8582 8.99775 10.8647 9.07658C10.9796 9.14189 11.1357 9.12838 11.2658 9.13964C11.4283 9.15315 11.5887 9.16667 11.7513 9.18018L12.0418 8.92342C12.2326 8.9527 12.4407 8.98649 12.6791 9.02252C12.7507 9.11937 12.8851 9.16667 13.039 9.15315C13.0997 9.19369 13.1278 9.28153 13.2015 9.29955C13.2731 9.31757 13.3468 9.26126 13.3988 9.21847C13.492 9.14189 13.6936 8.96622 13.531 8.85811L13.3338 9.03153C13.2081 9.0518 13.039 8.93694 13.0802 8.78829C13.1192 8.64865 13.2514 8.64865 13.362 8.6509L13.531 8.85586C13.8085 8.66667 13.828 9.01802 13.8367 9.20496C13.9082 9.21622 13.9906 9.22748 14.0817 9.24324L14.19 9.37613C14.2833 9.38739 14.3721 9.39865 14.4588 9.40991C14.5217 9.47297 14.5564 9.57658 14.6713 9.55631C14.6886 9.47297 14.7038 9.38964 14.7211 9.30631C14.8642 9.30631 15.0094 9.28378 15.1417 9.36487L15.3303 9.59459C15.4343 9.61036 15.5405 9.6036 15.6294 9.66892C15.714 9.73198 15.7335 9.80405 15.844 9.75901C15.8614 9.66667 15.8765 9.57658 15.8895 9.4955C15.9936 9.41216 16.0868 9.33784 16.1627 9.27703C16.3426 9.29279 16.4943 9.30405 16.6461 9.31757C16.6938 9.28153 16.7415 9.24324 16.7935 9.2027C16.9669 9.21171 17.1468 9.22297 17.3268 9.23423L17.5977 8.9955C18.0573 9.03378 18.5125 9.07207 18.9677 9.11036C19.0653 9.15766 19.1173 9.30631 19.2647 9.25451C19.3254 9.19595 19.4121 9.1509 19.3948 9.03378C19.3493 8.96847 19.178 8.73649 19.3688 8.73198C19.4945 8.72973 19.4815 8.91892 19.6397 8.89414C19.7438 8.81982 19.863 8.73649 19.9757 8.65541C20.1058 8.66892 20.2229 8.68243 20.3291 8.69369C20.3746 8.74099 20.405 8.8018 20.4678 8.82883C20.5155 8.8491 20.6022 8.85135 20.6542 8.86036C20.7865 8.88063 20.9187 8.89414 21.0509 8.91216C21.1658 8.81982 21.2244 8.73423 21.3458 8.77703L21.6861 9.19144C21.7793 9.20495 21.8682 9.21622 21.9549 9.22748C21.9527 9.31532 21.9506 9.40541 21.9462 9.49775C21.9939 9.55631 22.0893 9.62613 22.0568 9.71171C22.0286 9.78829 21.9636 9.77252 21.9094 9.73649C21.7381 9.62838 21.6666 9.33333 21.4541 9.31532C21.3588 9.47748 21.6081 9.56532 21.5343 9.72523L21.3544 9.88513C21.2157 9.85586 21.0401 9.81757 20.91 9.79054C20.8103 9.85811 20.7626 9.89189 20.7626 9.89189C20.5068 9.89189 20.2966 9.88964 20.1101 9.88739C20.0538 9.80631 20.0213 9.75676 19.9931 9.71396C19.9931 9.62387 19.9909 9.54054 19.9887 9.45946C19.9085 9.4527 19.8478 9.4482 19.7871 9.44369C19.6874 9.40541 19.6441 9.24775 19.5053 9.3018C19.4923 9.38739 19.4793 9.47072 19.4663 9.5518C19.4013 9.5473 19.2799 9.50451 19.23 9.56532C19.1758 9.63288 19.2387 9.69595 19.2777 9.74324C19.4251 9.93018 19.2279 9.93469 19.0805 9.92117C19.0328 9.95721 18.9851 9.9955 18.9374 10.0315C18.5797 10.036 18.2242 9.9527 17.8752 9.97523C17.7083 10.1622 17.5305 10.0338 17.3614 10.0293C17.1945 9.85135 17.1902 9.85135 16.9973 10.009C16.9127 10.0045 16.8238 10 16.7306 9.99549L16.5247 10.1779L16.761 10.4662C16.8867 10.3874 16.9062 10.3896 17.0168 10.4887C17.136 10.3829 17.3354 10.4482 17.4872 10.4617C17.4503 10.6712 17.4135 10.8829 17.3636 11.1622L17.11 11.3874C16.9843 11.3604 16.8087 11.3243 16.6699 11.295L16.2819 11.6374C16.3968 11.777 16.5009 11.9932 16.6829 12C16.7892 11.9257 16.9084 11.8423 17.0168 11.7658C17.0926 11.7725 17.1533 11.777 17.227 11.7838L17.5067 11.536C17.5154 11.4685 17.5284 11.3784 17.5414 11.2815C17.6237 11.2838 17.7083 11.2883 17.7972 11.2905L18.1397 10.9865C18.0638 10.8941 17.9901 10.8041 17.9142 10.7117C17.8644 10.6486 17.7321 10.5383 17.7278 10.4505C17.7191 10.286 18.0096 10.3626 18.1093 10.3671L18.2979 10.5968L18.6447 10.2905C18.764 10.3018 18.8854 10.3108 19.0068 10.3221C19.0479 10.3626 19.0891 10.4054 19.1325 10.4482C19.2214 10.4752 19.3081 10.4797 19.4013 10.4887L19.514 10.6261C19.7741 10.6126 19.7763 10.6126 19.8088 10.2838C19.9714 10.2658 20.0625 10.2725 20.1947 10.1644C20.3399 10.1734 20.4895 10.1441 20.6239 10.2252C20.7431 10.3649 20.8363 10.5405 21.0596 10.4932C21.1463 10.5631 21.2157 10.7252 21.3132 10.7703C21.4086 10.8131 21.5192 10.7275 21.5994 10.6824C21.7338 10.6892 21.8552 10.6937 21.9679 10.7005C22.0113 10.7545 22.176 10.982 22.228 10.7995C22.2627 10.6734 22.0785 10.6014 22.1218 10.4595C22.2042 10.4617 22.2887 10.464 22.3733 10.4662C22.3841 10.3806 22.3949 10.2928 22.4058 10.2027C22.7439 10.232 23.0756 10.259 23.4073 10.286C23.455 10.25 23.5027 10.2117 23.5352 10.1869C23.8798 10.2162 24.2093 10.2432 24.4608 10.2635C24.58 10.2387 24.6797 10.1441 24.799 10.1306C24.9269 10.1171 25.0938 10.1577 25.2238 10.1689C25.2715 10.1329 25.3192 10.0946 25.3734 10.0541C25.5447 10.0631 25.7246 10.0743 25.9002 10.0856C25.9522 10.045 25.9977 10.0068 26.0454 9.97072C26.4985 10.009 26.9515 10.0473 27.4046 10.0833C27.5043 10.1216 27.5498 10.2793 27.6864 10.2275C27.6994 10.1419 27.7124 10.0586 27.7254 9.97297C27.8967 10.0383 28.0224 9.95496 28.1481 9.87838C28.2999 9.89189 28.4516 9.90315 28.6034 9.91667C28.651 9.88063 28.6987 9.84234 28.7703 9.78829C28.9567 9.81532 29.167 9.84234 29.3881 9.87387C29.3881 9.93469 29.3881 10.0203 29.3859 10.1081C29.6612 10.1689 29.7154 9.82207 29.943 9.76802C29.9972 9.75451 30.0471 9.77928 30.1013 9.77703C30.1815 9.77478 30.1966 9.74099 30.2617 9.7027C30.3592 9.6464 30.4546 9.67568 30.5587 9.67568C30.6063 9.63964 30.654 9.6036 30.7147 9.55631C30.9684 9.57658 31.2372 9.5991 31.4865 9.61937C31.5732 9.53604 31.6404 9.47748 31.7487 9.50901L31.8571 9.63964C31.9569 9.67568 32.0176 9.61261 32.1043 9.57658C32.1975 9.53829 32.2972 9.5518 32.3969 9.54279L32.6289 9.33784C32.8088 9.32883 32.9172 9.34234 33.0602 9.22072C33.2315 9.22973 33.4114 9.24099 33.587 9.25225C33.6369 9.21171 33.6845 9.17342 33.7322 9.13739C33.858 9.14865 34.0184 9.18694 34.1419 9.17568C34.2373 9.16892 34.3045 9.09009 34.3934 9.06757C34.4996 9.04279 34.5972 9.06757 34.699 9.01577C34.8183 8.95496 34.879 8.97072 35.0155 8.96622C35.0524 8.93919 35.1001 8.90315 35.1629 8.8536C35.4166 8.87387 35.6832 8.8964 35.926 8.91667C36.0647 8.81982 36.1167 8.79955 36.2858 8.81081C36.4267 8.81982 36.5676 8.83559 36.7085 8.84685C36.8256 8.96622 36.8668 9.03829 37.0099 8.9482C37.0944 8.8964 37.1529 8.86487 37.244 8.92117C37.3242 8.97072 37.361 9.05631 37.4716 9.04279L37.6147 8.91667C37.8033 8.93469 37.9897 8.94369 38.1783 8.96847C38.3604 8.99324 38.4406 8.9009 38.6097 8.85135C38.8936 8.88063 39.2253 8.91442 39.5483 8.9482C39.6046 8.90315 39.6502 8.86712 39.6979 8.82883C40.3547 8.88288 41.0137 8.93694 41.6705 8.99324C41.9935 9.02027 42.3165 9.0473 42.6395 9.07658C42.8021 9.09009 42.9777 9.12613 43.1424 9.12162C43.266 9.11712 43.344 9.03829 43.4589 9.00901C43.8079 9.03829 44.1547 9.06757 44.5037 9.09685C44.6837 9.11036 44.8636 9.12613 45.0413 9.13964C45.2018 9.1509 45.2321 9.12387 45.36 9.03604C45.696 9.06306 46.032 9.09234 46.368 9.12162C46.5306 9.13513 46.6932 9.1509 46.8557 9.16216C46.9338 9.16892 47.0595 9.20045 47.1354 9.18018C47.2004 9.16216 47.2373 9.10586 47.2915 9.06532C48.0588 9.13063 48.8414 9.19595 49.5936 9.25901C49.6911 9.19369 49.7193 9.1464 49.8386 9.14865C49.9665 9.15315 50.0965 9.16667 50.2244 9.17793C50.4889 9.1982 50.7533 9.22297 51.0178 9.2455C51.1089 9.17568 51.1522 9.12162 51.2649 9.13063C51.4557 9.30631 51.4644 9.30631 51.77 9.12613C52.2166 9.16441 52.726 9.20721 53.2571 9.25C53.3004 9.20496 53.372 9.1509 53.476 9.18243L53.5822 9.31306C53.708 9.37387 53.7643 9.25901 53.8706 9.22748C54.0093 9.18694 54.2174 9.24324 54.3605 9.25451C54.4082 9.21847 54.4558 9.18018 54.5079 9.13964C54.5924 9.14415 54.6813 9.14865 54.7745 9.15315L54.9804 8.97072C54.9024 8.87387 54.8222 8.77928 54.7138 8.70946C54.5816 8.77703 54.4819 8.6509 54.5967 8.60586C54.6553 8.58333 54.7355 8.63514 54.7442 8.67342C54.9176 8.50901 55.1994 8.87162 54.9804 8.97072L55.1582 9.18694C55.3685 9.20496 55.5787 9.22072 55.7955 9.23874L55.9256 9.12387C56.1965 9.14189 56.4653 9.15766 56.719 9.17568C56.8837 8.97973 57.068 9.10811 57.2371 9.1036C57.2978 9.16892 57.3368 9.26577 57.4517 9.2455C57.4972 9.21171 57.5449 9.17793 57.6424 9.11036C57.7747 9.13739 57.9502 9.17342 58.0912 9.2027L58.2928 9.02477C58.8737 9.07432 59.4742 9.12387 60.0941 9.17568C60.2025 9.11486 60.2632 8.93018 60.4692 8.96396C60.5754 9.09459 60.6946 9.33558 60.8854 9.22297C61.0068 9.1509 61.0653 8.97973 61.2344 9.02928L61.3449 9.16442C61.4381 9.17568 61.527 9.18694 61.6181 9.1982L61.733 9.33784C61.9822 9.30631 61.9866 9.30631 62.0169 8.97748C62.121 8.85135 62.2337 8.79279 62.3486 8.92568C62.4136 9 62.4722 9.08108 62.5372 9.15766C62.6087 9.23874 62.6673 9.25676 62.7626 9.29054L62.897 9.17117C62.9902 9.17568 63.0791 9.17793 63.1723 9.18243L63.3046 9.06532L63.6861 9.09685C63.749 9.17342 63.8508 9.37162 63.9549 9.39189C64.0199 9.40541 64.1565 9.30631 64.1738 9.29955C64.3429 9.29955 64.4643 9.29955 64.564 9.29955C64.6226 9.36487 64.6637 9.40991 64.6963 9.44369C64.9174 9.46622 65.1276 9.48874 65.3336 9.50901L65.4745 9.38288C65.598 9.39415 65.7194 9.40315 65.8387 9.41442C66.0034 9.54054 66.0793 9.76802 66.2917 9.86036C66.4088 9.77928 66.528 9.69595 66.6169 9.63513C66.7664 9.63513 66.8878 9.63739 66.9984 9.63964L67.122 9.79054C67.2672 9.83559 67.3041 9.68919 67.4298 9.68468C67.5425 9.68018 67.588 9.80856 67.6877 9.84009C67.8091 9.87838 67.8763 9.84009 67.9717 9.9527C68.0541 10.0496 68.1061 10.1689 68.2514 10.1554C68.2969 10.1149 68.3446 10.0743 68.3879 10.036C68.3988 9.94369 68.4096 9.85586 68.4204 9.76802C68.5635 9.7455 68.6177 9.92342 68.7434 9.93018C68.8496 9.93469 68.9949 9.75 69.0643 9.68694C69.3504 9.71171 69.7233 9.68243 69.9899 9.79279C70.0354 9.87162 70.1026 9.92568 70.2067 9.91667L70.4776 9.67793C70.599 9.65991 70.638 9.75225 70.7291 9.80405C70.8396 9.86486 71.0022 9.84685 71.1258 9.85135C71.1843 9.81081 71.232 9.77477 71.2797 9.74099C71.6114 9.76802 71.943 9.7973 72.279 9.82432L72.4069 9.71171C72.4915 9.68694 72.5478 9.73874 72.6085 9.78604C72.6844 9.84459 72.7126 9.8536 72.8014 9.86712C72.886 9.87838 72.9142 9.89865 72.9814 9.95495C73.0421 10.0045 73.0898 10.0518 73.17 10.0113C73.1786 9.88739 73.1743 9.74549 73.2935 9.67342C73.4019 9.60811 73.5775 9.6464 73.6967 9.6464L74.0739 10.1059C74.1996 10.1171 74.321 10.1261 74.4446 10.1374C74.4554 10.0496 74.4663 9.95946 74.4771 9.87162C74.5682 9.90315 74.6354 9.93468 74.7221 9.98423C74.7524 10.0023 74.7871 10.0293 74.8218 10.027C74.9302 10.0225 75.0516 9.85586 75.1253 9.79054L75.5068 9.82207L75.6217 9.96171C75.8905 9.98649 76.1571 10.0135 76.3934 10.036C76.4779 10.1126 76.6145 10.2838 76.7121 10.1239C76.6405 10.009 76.6383 9.93919 76.7077 9.92342C76.7749 9.90766 76.8226 9.93469 76.8508 10.0023C76.9505 9.91442 77.0567 9.9482 77.1824 9.95721C77.2561 9.89865 77.3125 9.81306 77.4317 9.8536C77.4317 9.93694 77.4296 10.0225 77.4274 10.1194L77.5488 10.268C77.655 10.2725 77.7742 10.2748 77.9065 10.2793C78.0387 10.1306 77.7439 10.0495 77.8284 9.89865C77.8718 9.85585 77.913 9.81306 77.9563 9.77027C78.2035 9.80631 78.2165 9.82207 78.197 10.1419C78.3552 10.2342 78.533 10.1914 78.7042 10.2252L78.8148 10.3604C78.9318 10.3784 78.9752 10.3401 79.0792 10.2928C79.1768 10.2477 79.2613 10.268 79.3654 10.2793C79.6168 10.3086 79.8683 10.3198 80.1197 10.3423C80.1566 10.1577 80.1067 9.97297 80.2065 9.81081C80.356 9.83784 80.4471 9.76351 80.5815 9.72072C80.7159 9.67793 80.8589 9.72973 80.9847 9.77252L81.1516 9.97748C81.4226 10.027 81.6307 10.0653 81.8193 10.0991C81.9385 9.88288 82.1184 10.0225 82.2593 9.94369C82.3352 9.87162 82.4197 9.78829 82.4956 9.71396C82.4934 9.48198 82.5433 9.36261 82.7752 9.37613C82.7666 9.5 82.7362 9.63964 82.8424 9.72973C82.94 9.81306 83.1199 9.8018 83.2391 9.82207L83.5426 9.55405C83.7269 9.55631 83.9046 9.61261 84.0824 9.56757C84.1539 9.45946 84.2601 9.49549 84.3663 9.48874C84.5116 9.47973 84.6091 9.3491 84.7154 9.25676C84.9646 9.27477 85.2334 9.29279 85.5044 9.31081L85.6301 9.20045C85.732 9.20045 85.8209 9.1982 85.9098 9.19595C85.9922 9.06982 86.1005 9.12613 86.2176 9.11036C86.352 9.09234 86.4929 8.9482 86.6035 8.86937C86.7422 8.93468 86.8614 8.82883 86.9872 8.78153C87.0652 8.75225 87.1302 8.79279 87.1974 8.77703C87.2581 8.76351 87.2971 8.70721 87.347 8.66892C87.5161 8.67793 87.696 8.68919 87.8781 8.70045L88.1339 8.47297C88.2683 8.47297 88.4027 8.47748 88.5371 8.47748C88.6758 8.47748 88.7213 8.45496 88.8341 8.38514C88.9858 8.39865 89.1354 8.40991 89.2871 8.42342C89.3348 8.38739 89.3825 8.35135 89.4389 8.31081C89.5212 8.31306 89.6101 8.31757 89.7055 8.31982L89.8399 8.20045C90.0177 8.21622 90.1976 8.22072 90.3753 8.24324C90.5618 8.26802 90.6203 8.2027 90.785 8.14415L91.5177 8.20496L91.6521 8.08784C91.7453 8.09234 91.8342 8.09459 91.9274 8.0991L92.0597 7.98198C92.2873 8 92.5517 8.07207 92.7468 7.90541C92.8661 7.92117 92.9853 7.94144 93.0742 7.82658C93.2823 7.83108 93.4904 7.83333 93.7006 7.85135C93.77 7.9009 93.8394 7.9527 93.9087 8.00225C94.0822 8.00676 94.2664 8.08559 94.4095 7.90991C94.5699 7.91667 94.6414 7.88513 94.7845 7.82432C94.8864 7.78153 94.9883 7.81306 95.0923 7.83108C95.4088 7.88288 95.7405 7.88739 96.0613 7.91441C96.1307 7.86486 96.1784 7.82883 96.2261 7.79505C96.3691 7.80631 96.5512 7.77928 96.6488 7.8964L96.8569 7.71171C97.3706 7.7545 97.8822 7.7973 98.396 7.84234L98.5781 7.68243C98.7168 7.71171 98.8924 7.75 99.042 7.78153C99.1373 7.67342 99.2089 7.62387 99.3086 7.6509C99.3064 7.74099 99.3021 7.83333 99.2999 7.91892L99.4148 8.05856C99.521 8.09009 99.5904 8.03378 99.6554 7.96847C100.007 7.97748 100.028 7.98198 100.178 8.09459C100.34 8.12387 100.46 8.1464 100.555 8.16441C100.627 8.10811 100.674 8.07207 100.715 8.04054C100.809 8.04054 100.898 8.04279 100.993 8.04504L101.533 7.56757C101.88 7.59685 102.211 7.62387 102.545 7.65315C102.591 7.61261 102.638 7.57207 102.684 7.53153C102.805 7.54054 102.924 7.5518 103.046 7.56081C103.087 7.6036 103.13 7.6464 103.182 7.70045C103.289 7.71171 103.408 7.72523 103.523 7.73874C103.802 7.54279 104.091 7.66441 104.362 7.68919C104.485 7.79504 104.524 7.98649 104.715 7.97072C104.854 7.8491 104.992 7.72522 105.172 7.56757C105.311 7.59685 105.487 7.63513 105.617 7.66216C105.716 7.59459 105.764 7.56081 105.812 7.52703C106.055 7.5473 106.295 7.56757 106.538 7.58784C106.586 7.5518 106.633 7.51351 106.727 7.44144C106.9 7.46847 107.076 7.50225 107.251 7.51351C107.396 7.52252 107.544 7.56757 107.685 7.52027C107.839 7.46847 107.947 7.43694 108.114 7.44595C108.285 7.45495 108.456 7.48198 108.626 7.49775C108.673 7.45496 108.719 7.41441 108.766 7.37387C108.888 7.38513 109.009 7.39414 109.133 7.4054C109.189 7.46171 109.252 7.5473 109.334 7.55631C109.434 7.56532 109.499 7.46171 109.592 7.45045C109.733 7.43243 109.803 7.44369 109.924 7.34459C110.032 7.25676 110.069 7.24099 110.206 7.22973L110.319 7.36937L110.691 7.4009L110.969 7.15541C111.233 7.17793 111.502 7.1982 111.743 7.21847C111.827 7.15991 111.873 7.10811 111.977 7.10135C112.07 7.09459 112.168 7.10811 112.261 7.11261L112.525 7.43469C112.673 7.37613 112.807 7.29504 112.972 7.30856C113.134 7.32207 113.254 7.42342 113.39 7.50676L113.509 7.4009C113.65 7.33784 113.694 7.45045 113.8 7.50676C113.937 7.57883 114.151 7.55405 114.301 7.56757L114.424 7.71847C114.537 7.72297 114.658 7.72523 114.823 7.73198C115.016 7.56081 115.198 7.37387 115.426 7.25676C115.538 7.27027 115.656 7.28604 115.775 7.29955L115.979 7.54955C116.139 7.57658 116.258 7.59685 116.358 7.61486C116.427 7.56081 116.473 7.52252 116.52 7.48649C116.711 7.5991 116.843 7.35586 117.026 7.3964L117.134 7.52928C117.299 7.61486 117.39 7.36487 117.541 7.44144L117.656 7.58108C117.654 7.68018 117.65 7.77252 117.648 7.85811C117.711 7.93468 117.76 8.01802 117.882 7.99775L118.129 7.77928C118.571 7.81532 118.992 7.85135 119.371 7.88288C119.492 7.82207 119.568 7.78378 119.644 7.7455C119.794 7.75901 119.946 7.77027 120.097 7.78378L120.234 7.66216C121.17 7.74099 122.107 7.81982 123.041 7.89865C123.091 7.85811 123.139 7.82207 123.191 7.78153C123.275 7.78604 123.364 7.79054 123.457 7.79505L123.592 7.67793C123.683 7.68243 123.774 7.68694 123.858 7.69144C123.912 7.63739 124.01 7.56531 123.999 7.47748C123.986 7.36937 123.834 7.24099 123.774 7.16667C123.694 7.15541 123.605 7.14414 123.509 7.13063L123.405 7.0045C123.29 6.9482 123.227 7.04505 123.13 7.08108C123.011 7.12387 122.859 7.07658 122.735 7.06532C122.616 6.94369 122.601 6.92568 122.425 6.90766C122.278 6.89189 122.131 6.88288 121.983 6.87162C121.968 6.97748 121.955 7.06757 121.944 7.14865C121.868 7.22297 121.799 7.28153 121.693 7.24775L121.582 7.11261C121.404 7.09234 121.233 7.07207 121.066 7.05405C121.066 6.95721 121.064 6.87613 121.062 6.84234C120.832 6.79955 120.624 6.75901 120.464 6.72973C120.401 6.77252 120.312 6.87613 120.225 6.86487C120.141 6.8536 120.123 6.75901 120.056 6.72072C119.969 6.67117 119.887 6.73649 119.922 6.83784C119.952 6.93243 120.065 6.95721 120.024 7.07883C119.88 7.13964 119.599 7.11486 119.547 6.93919C119.516 6.84234 119.557 6.7027 119.503 6.61261C119.458 6.53829 119.358 6.53378 119.282 6.52252C119.239 6.56532 119.195 6.60811 119.159 6.64414C119.143 6.73423 119.13 6.81757 119.117 6.9009C118.901 6.87162 118.693 6.88739 118.493 6.82658C118.502 6.6982 118.513 6.57432 118.521 6.4482L118.729 6.26351C118.628 6.13739 118.396 6.17117 118.242 6.15766C118.064 6.14189 117.886 6.12613 117.706 6.11261C117.342 6.08108 116.978 6.0518 116.614 6.02027C116.542 5.92342 116.484 5.8536 116.373 5.86937L116.111 6.10135C115.799 6.07432 115.497 6.04955 115.185 6.02478L115.079 5.89414C115.083 5.66441 115.265 5.60811 115.417 5.52027C115.478 5.52478 115.538 5.53153 115.61 5.53604L115.881 5.29504C116.007 5.30405 116.174 5.28153 116.286 5.34234C116.375 5.39189 116.423 5.50225 116.542 5.47072L116.67 5.35811C116.763 5.36261 116.854 5.36487 116.937 5.36937C116.991 5.32883 117.039 5.29279 117.086 5.25676C117.29 5.27478 117.494 5.29054 117.698 5.30856C117.877 5.32432 118.092 5.30856 118.257 5.38964C118.3 5.47072 118.372 5.51351 118.469 5.5045C118.478 5.38063 118.489 5.2545 118.497 5.12838C118.454 5.06531 118.318 4.92568 118.411 4.84459C118.504 4.76577 118.586 4.92342 118.634 4.98198C118.805 5 118.979 5.01577 119.143 5.03378C119.165 5.17117 119.074 5.21396 119.009 5.27928C118.922 5.27478 118.833 5.27027 118.745 5.26802C118.721 5.49099 118.885 5.58333 119.024 5.69144C119.225 5.70495 119.392 5.67417 119.525 5.5991C119.766 5.61937 120.008 5.63964 120.249 5.65991C120.297 5.62162 120.344 5.58559 120.364 5.56757C120.492 5.37838 120.229 5.29054 120.308 5.12613C120.516 5.14414 120.728 5.16216 120.943 5.18018L121.175 5.46396C121.32 5.45721 121.474 5.54279 121.612 5.46396C121.717 5.40315 121.732 5.38288 121.864 5.39189C121.983 5.4009 122.1 5.41216 122.219 5.42117C122.198 5.25225 122.159 5.21847 122.063 5.08333C121.981 4.96847 122.005 4.86712 122.016 4.73198C121.953 4.65541 121.779 4.51351 121.782 4.4009C121.784 4.26802 121.957 4.20946 121.935 4.05856L121.821 3.91892C121.738 3.90766 121.652 3.8964 121.563 3.88514C121.513 3.71847 121.782 3.67793 121.701 3.5C121.55 3.48649 121.4 3.47523 121.248 3.46171C121.14 3.3964 121.261 3.28378 121.313 3.23198C121.404 3.14414 121.493 3.1036 121.502 2.97072C121.322 2.90991 121.153 2.89865 120.988 3.0045C120.821 3.01126 120.7 3.01351 120.611 3.01802L119.887 2.13513C119.887 1.98649 119.896 1.90991 119.831 1.77703C119.783 1.68243 119.805 1.61487 119.794 1.51126C119.785 1.41216 119.703 1.36937 119.692 1.27928C119.681 1.1982 119.75 1.10811 119.659 1.0518C119.59 1.04505 119.529 1.04054 119.469 1.03604C119.401 0.86036 119.659 0.813063 119.614 0.646397C119.462 0.572072 119.378 0.831081 119.224 0.734234C119.224 0.63964 119.226 0.547297 119.228 0.468468C119.165 0.380631 119.104 0.313063 118.994 0.328829L118.443 0.815315C118.432 0.900901 118.422 0.993244 118.411 1.08108C118.322 1.07883 118.233 1.07432 118.151 1.07207C118.094 1.11261 118.047 1.14865 117.999 1.18468C117.667 1.15766 117.336 1.12838 116.997 1.10135L116.731 1.33784C116.605 1.36036 116.57 1.27252 116.475 1.22072C116.364 1.15766 116.206 1.17793 116.085 1.17117C116.078 1.26351 116.085 1.34685 116.031 1.42342C115.97 1.41892 115.909 1.41441 115.829 1.40541C115.807 1.54279 115.814 1.71171 115.664 1.77027C115.556 1.81306 115.426 1.73423 115.406 1.61036C115.385 1.47297 115.549 1.43018 115.558 1.30405C115.569 1.15766 115.421 1.12838 115.32 1.0991C115.309 1.18694 115.296 1.27478 115.285 1.36036C115.157 1.3491 115.036 1.34009 114.912 1.32883L114.797 1.18919C114.637 1.11036 114.548 1.36036 114.381 1.27252L114.273 1.13964C114.147 1.12838 114.025 1.11937 113.893 1.10811C113.819 1.17342 113.676 1.36261 113.564 1.34685C113.475 1.33559 113.345 1.2027 113.265 1.15315C112.913 1.12387 112.493 1.08784 112.057 1.0518C112.016 1 111.962 0.921171 111.849 0.936937C111.838 1.02252 111.827 1.11261 111.816 1.20045C111.697 1.19144 111.578 1.18018 111.457 1.17117C111.415 1.12838 111.372 1.08559 111.322 1.03378C111.153 1.01577 110.975 0.995495 110.8 0.975225C110.737 0.912162 110.702 0.808559 110.585 0.831081C110.518 1 110.581 1.25 110.485 1.46847C110.488 1.50676 110.472 1.5473 110.459 1.52252C110.446 1.68919 110.388 1.56982 110.388 1.56982C110.377 1.53378 110.381 1.46622 110.412 1.44144C110.262 1.19369 110.119 1.02027 109.978 0.846847C109.879 0.934685 109.894 1.0518 109.881 1.18243C109.807 1.24099 109.751 1.32432 109.627 1.28153L109.399 1.0045C109.246 0.988739 109.016 0.907658 108.901 1.05405C108.751 1.24324 109.022 1.29505 108.959 1.47072C108.63 1.48874 108.61 1.47523 108.415 1.32207C108.264 1.30856 108.114 1.2973 107.964 1.28378C107.876 1.23649 107.839 1.06982 107.693 1.15991C107.687 1.2455 107.717 1.38288 107.605 1.38739C107.509 1.39189 107.477 1.26126 107.394 1.23423C107.29 1.20045 107.223 1.3018 107.149 1.36486C107.034 1.46171 107 1.45045 106.863 1.43919C106.818 1.30405 106.627 1.2455 106.668 1.0473C106.755 1.04955 106.841 1.05405 106.93 1.05631L107.06 0.941442C107.151 0.943694 107.236 0.945946 107.301 0.948198C107.327 0.720721 107.353 0.502252 107.377 0.297297C107.323 0.238739 107.282 0.193694 107.279 0.191442C106.939 0.153153 106.638 0.117117 106.334 0.0833333L106.068 0.31982L105.695 0.288288L105.458 0C105.313 0.0202703 105.27 0.0472973 105.155 0.141892C105.04 0.238739 104.945 0.225225 104.806 0.211712L104.409 0.563063C104.249 0.567568 104.101 0.581081 103.976 0.518018C103.887 0.418919 103.807 0.331081 103.737 0.254505C103.599 0.247748 103.484 0.240991 103.371 0.236487C103.36 0.367117 103.369 0.515766 103.234 0.587838C103.156 0.628379 103.072 0.599099 102.989 0.610361C102.879 0.626126 102.836 0.709459 102.721 0.707207C102.584 0.707207 102.445 0.686937 102.309 0.675676L102.166 0.801802C102.051 0.788288 101.932 0.772523 101.786 0.756757C101.719 0.725225 101.678 0.563063 101.535 0.63964C101.522 0.795045 101.511 0.952703 101.498 1.11036C101.39 1.16892 101.227 1.11937 101.108 1.10811C101.023 1.02027 100.976 0.943694 101.004 0.837838L101.138 0.718469C101.158 0.529279 101.023 0.358108 100.846 0.481982C100.728 0.563063 100.62 0.675676 100.514 0.77027C100.44 0.837838 100.36 0.950451 100.247 0.907658C100.184 0.844595 99.9936 0.56982 99.8874 0.612612C99.7486 0.668919 99.9589 0.851351 99.9567 0.932432C99.9567 0.990991 99.9437 1.00901 99.8852 1.01577C99.7877 1.02703 99.7898 0.939189 99.7335 0.887388C99.5839 0.75 99.5644 1 99.5579 1.0991C99.4148 1.15991 99.3715 1.00225 99.2739 0.961712C99.1222 0.948198 98.9726 0.936937 98.797 0.921171C98.7363 0.846847 98.6062 0.608108 98.4935 0.628379C98.3483 0.657658 98.4523 0.77027 98.4935 0.84009C98.6583 1.10811 98.2681 1.00676 98.1445 0.97973C98.151 0.894144 98.203 0.743243 98.0882 0.718469C97.9949 0.700451 97.8866 0.853604 97.828 0.905406L98.0036 1.11937C97.9993 1.21396 97.9949 1.30856 97.9906 1.41216C98.1315 1.58559 98.2746 1.75901 98.4155 1.93243C98.4567 1.98423 98.5867 2.09685 98.5781 2.16892C98.5672 2.25225 98.513 2.23649 98.4567 2.21622C98.3916 2.19144 98.3396 2.13063 98.2767 2.10135C98.2052 2.06757 98.1358 2.08559 98.0665 2.06081C97.9147 2.00225 97.9538 1.79955 97.9624 1.67342L97.5939 1.22523C97.427 1.21171 97.1474 1.2455 97.0368 1.11036L96.8309 1.29279C96.6661 1.33784 96.6163 1.08108 96.4407 1.13739L96.3128 1.25225C96.1394 1.25225 95.9703 1.19144 95.799 1.24324L95.7838 1.42793C95.6928 1.50901 95.5064 1.45045 95.3937 1.43919C95.3178 1.35811 95.2614 1.26351 95.1509 1.30405C95.0967 1.32432 95.062 1.38964 95.0035 1.40315C94.9341 1.41667 94.8799 1.37162 94.8235 1.33333C94.7542 1.28829 94.6935 1.2455 94.6111 1.23198C94.5266 1.21847 94.4984 1.22297 94.4377 1.15315C94.3596 1.06306 94.1927 0.810811 94.0778 0.997748L94.2578 1.21622C94.2469 1.33333 94.2339 1.45721 94.2209 1.58559C94.1797 1.58559 94.1125 1.60811 94.0865 1.58333C93.9998 1.5 93.9304 1.4009 93.8611 1.31532L93.4882 1.28378C93.3784 1.36637 93.2866 1.39114 93.2129 1.35811C93.2324 1.03829 93.2281 1.03829 92.981 0.97973L92.8466 1.0991C92.8205 1.27703 92.8465 1.45946 92.7772 1.62838C92.5387 1.60811 92.3003 1.58333 92.0597 1.57432C92.0141 1.57432 91.9643 1.63739 91.9166 1.67117C91.8776 1.81757 91.8602 1.96622 91.8862 2.11486C91.9426 2.19144 92.0011 2.25676 92.0813 2.2455C92.1724 2.19144 92.2461 2.1509 92.3003 2.11937C92.439 2.15991 92.4845 2.31757 92.6298 2.28378C92.7165 2.20721 92.8075 2.12613 92.8986 2.04505C92.9875 2.04955 93.0763 2.05405 93.1652 2.05856C93.2801 1.95721 93.3928 1.85811 93.4817 1.72297C93.4167 1.58559 93.5381 1.48198 93.5814 1.60135C93.6053 1.66667 93.5467 1.75901 93.5077 1.7545C93.5792 1.84234 93.6356 1.90991 93.7202 2.01351C93.8611 2.00676 94.041 2 94.1732 1.9955C94.2296 2.0473 94.2773 2.12387 94.3466 2.15541C94.4464 2.20045 94.5807 2.19144 94.687 2.20496L94.8084 2.09685C95.14 2.12387 95.437 2.14865 95.7817 2.17568C95.5324 2.37387 95.9031 2.48423 95.8185 2.69144C95.7058 2.67568 95.5866 2.65766 95.4435 2.63739C95.3503 2.56982 95.2918 2.41216 95.179 2.37162C95.0793 2.33559 94.9991 2.43468 94.9341 2.50225C94.9254 2.62613 94.9298 2.76577 94.8105 2.83784C94.7086 2.89865 94.5526 2.86712 94.4398 2.86937C94.2686 2.73198 94.2361 2.54054 94.0497 2.53829C93.9803 2.58784 93.8871 2.63288 93.8871 2.72973C93.8871 2.86036 94.0236 2.93018 93.9803 3.07883C93.8654 3.06081 93.7483 3.04505 93.6009 3.02252C93.5229 2.96396 93.447 2.86487 93.3473 2.89865C93.2042 2.94595 93.0503 3.15315 92.9376 3.25225C92.6731 3.22973 92.4325 3.20946 92.1897 3.18919C91.9751 3.33108 91.9643 3.32883 91.8039 3.19595C91.5416 3.15315 91.3335 3.11712 91.1535 3.08784C91.0755 3.15766 90.952 3.31081 90.8479 3.33784C90.7482 3.36261 90.6832 3.26577 90.6203 3.1982C90.4469 3.18018 90.2691 3.15991 90.0957 3.14189C90.0307 3.06982 89.9873 2.97748 89.8702 2.99775C89.803 3.04504 89.725 3.12387 89.6361 3.11036C89.5733 3.0991 89.5538 3.04955 89.5082 3.01126C89.4605 2.96847 89.4128 2.9527 89.3522 2.92793C89.2676 2.89414 89.1852 2.86261 89.1137 2.8018C89.0075 2.71622 88.9728 2.68018 88.8406 2.6464L88.5523 2.9009C88.459 2.84459 88.3637 2.78604 88.2661 2.72523C88.1057 2.71171 87.8607 2.7455 87.7545 2.61487C87.6852 2.67568 87.618 2.73649 87.5486 2.7973C87.4597 2.79279 87.3708 2.78829 87.2798 2.78153L87.1497 2.8964C87.0544 2.89189 86.9676 2.88964 86.8853 2.88739C86.8116 2.9482 86.753 3.02703 86.6186 2.98198C86.5493 2.89865 86.3845 2.76351 86.3954 2.63739C86.4062 2.51126 86.5861 2.40766 86.6685 2.33333C86.8072 2.31081 86.8528 2.39865 86.92 2.47523C87.0413 2.48649 87.1953 2.53604 87.3145 2.49099C87.4077 2.45721 87.4706 2.35586 87.5811 2.40541L87.7524 2.61487C87.8499 2.52928 87.8347 2.41667 87.8477 2.28829C88.0125 2.24324 88.058 2.50901 88.2379 2.43919L88.3615 2.33108C88.5306 2.34459 88.704 2.34685 88.8709 2.36712C89.0248 2.38514 89.0703 2.39189 89.2069 2.32207C89.3175 2.26577 89.3933 2.31306 89.5039 2.28153C89.6058 2.25225 89.673 2.13739 89.7922 2.18694L89.9049 2.32432C90.0046 2.3536 90.0805 2.27477 90.1672 2.2455C90.2648 2.21396 90.3667 2.22072 90.4664 2.20721C90.5618 2.09234 90.7439 2.0518 90.7157 1.8536L90.5422 1.64189L90.3602 1.8018C90.1672 1.88063 90.1239 1.61036 89.9505 1.66667C89.8941 1.71622 89.803 1.83784 89.7185 1.76802C89.6665 1.72297 89.6925 1.59234 89.6795 1.52477C89.6535 1.38739 89.5971 1.37613 89.467 1.36937C89.454 1.45946 89.441 1.5473 89.4324 1.61712L89.1549 1.86261L88.7842 1.83108L88.6433 1.65766C88.5241 1.65991 88.4287 1.69144 88.3485 1.59234C88.1989 1.72523 88.0493 1.86036 87.8954 1.99099C87.8391 2.03829 87.761 2.13063 87.6808 2.13288C87.6006 2.13513 87.5421 2.0518 87.4922 1.99775C87.3773 1.86937 87.2841 1.83784 87.115 1.82432C87.115 1.73874 87.115 1.65541 87.115 1.56306C87.0825 1.52027 87.0478 1.47072 87.0153 1.42568C86.8788 1.3536 86.8029 1.49099 86.701 1.52027L86.2458 1.48198C86.1547 1.54054 86.0377 1.58333 86.1027 1.73874C86.2393 1.75 86.4495 1.72523 86.5731 1.78829C86.7032 1.85586 86.6815 1.95045 86.675 2.07658C86.5146 1.97973 86.3932 2.07432 86.2718 2.15541C85.9358 2.12613 85.6041 2.0991 85.2746 2.06982C85.2269 2.11036 85.1814 2.15315 85.1359 2.19369C84.9733 2.24099 84.93 1.97297 84.7609 2.04279C84.7435 2.20646 84.6958 2.28679 84.6178 2.28378L84.3837 1.99775C84.3859 1.90991 84.3902 1.81982 84.3924 1.74324C84.2775 1.66892 84.2211 1.79505 84.1236 1.82658C83.987 1.87162 83.7637 1.80856 83.6206 1.7973C83.6033 1.97523 83.5838 2.15315 83.5665 2.32883C83.4104 2.31532 82.8446 2.18468 82.9205 2.53153C82.9421 2.63514 83.0744 2.73423 83.1416 2.81532C83.2218 2.91667 83.2651 3.0045 83.406 2.97523C83.5643 2.83559 83.742 2.60586 83.9328 2.51802C84.1106 2.43468 84.1409 2.68468 84.3122 2.65991C84.3598 2.62162 84.4075 2.58559 84.4747 2.53153C84.5723 2.54955 84.6915 2.56982 84.8649 2.5991C85.0427 2.75901 85.2421 2.73649 85.4697 2.75676C85.4394 2.90315 85.4155 2.98649 85.2595 3.0045C85.1186 3.02252 84.9581 2.98198 84.8172 2.97072C84.7414 3.03604 84.62 3.2027 84.5116 3.20721C84.4682 3.20721 84.4292 3.17342 84.3945 3.15315C84.3187 3.11036 84.2515 3.07883 84.1691 3.04955L84.0347 3.16892C83.8526 3.15766 83.6748 3.14865 83.5058 3.13739C83.3042 3.29279 83.302 3.29279 83.1286 3.0991C82.9768 3.11036 82.8208 3.02252 82.682 3.11712C82.5606 3.20045 82.4956 3.35135 82.3243 3.28829L82.216 3.15541C82.0902 3.14414 81.9688 3.13514 81.8496 3.12387C81.8019 3.16216 81.7564 3.1982 81.687 3.25225C81.4963 3.22748 81.2882 3.20045 81.054 3.16892C80.8763 2.99099 80.8806 2.95495 81.1147 2.79504C81.2665 2.80856 81.4161 2.81982 81.5678 2.83333C81.6155 2.8018 81.6653 2.76802 81.7456 2.71396C81.9797 2.73198 82.2441 2.7545 82.5086 2.77477C82.5498 2.57432 82.372 2.50676 82.2918 2.35586C82.1227 2.34234 81.8258 2.37838 81.713 2.23874C81.6133 2.29505 81.5656 2.44369 81.4052 2.41441C81.3098 2.31982 81.2058 2.21622 81.1061 2.11937C80.9803 2.11261 80.8676 2.10586 80.7592 2.0991C80.744 2.20045 80.731 2.29054 80.7224 2.35586L80.4471 2.5991C80.3018 2.58784 80.1111 2.61712 80.0135 2.49775C79.9138 2.65991 79.7577 2.48198 79.6819 2.38964C79.5648 2.24775 79.5128 2.15766 79.335 2.11486C79.3242 2.20495 79.3133 2.2973 79.3025 2.38288C79.1074 2.53604 79.1052 2.53604 78.934 2.35135C78.8061 2.33559 78.6674 2.2973 78.5416 2.33784C78.4528 2.36712 78.3769 2.43018 78.2815 2.43468C78.1818 2.43919 78.0756 2.40541 78.0214 2.53153C77.9758 2.63739 78.0626 2.7455 78.1146 2.82883C78.1059 2.9527 78.0951 3.07883 78.0842 3.22297C77.9693 3.2027 77.8523 3.18243 77.7222 3.15991C77.6615 3.04505 77.7309 2.78604 77.7417 2.65541L77.6138 2.5C77.5141 2.5 77.3927 2.49775 77.254 2.4955C77.2431 2.55631 77.2301 2.63739 77.215 2.71847C77.1174 2.71171 77.1022 2.72523 77.0242 2.65315C76.9592 2.59459 76.9093 2.51351 76.8551 2.44595C76.7077 2.43243 76.5885 2.42117 76.4693 2.41216C76.4866 2.53829 76.5018 2.59685 76.582 2.69369C76.6644 2.7973 76.6709 2.82883 76.6752 2.96171C76.5928 2.96171 76.5105 2.96171 76.4281 2.95946C76.4129 3.1509 76.3847 3.36261 76.1441 3.32432C76.1484 3.23198 76.1528 3.13964 76.1571 3.05405L75.923 2.76802C75.7994 2.75676 75.6802 2.74775 75.5588 2.73649C75.4418 2.81306 75.3485 2.8964 75.2315 2.79504C75.0906 2.67342 74.9909 2.41892 74.8001 2.40315C74.7893 2.49324 74.7806 2.58108 74.7698 2.67342L74.566 2.8536C74.644 2.9482 74.8066 3.07883 74.8413 3.1982C74.8651 3.27928 74.8413 3.36036 74.7589 3.34009C74.6223 3.31081 74.3666 2.94369 74.566 2.85135L74.3904 2.63739C74.2994 2.62613 74.2105 2.61712 74.1281 2.60586C74.0631 2.53829 74.024 2.43919 73.9113 2.46171C73.8463 2.63063 73.8701 2.81532 73.842 2.99099C73.688 2.94144 73.6382 2.88964 73.5341 2.75901C73.4301 2.63063 73.3932 2.58108 73.2415 2.5518C73.1895 2.65991 73.2697 2.72072 73.3304 2.80405C73.3282 2.89189 73.3672 3.16667 73.2697 3.20946C73.1526 3.26126 73.0009 2.98423 72.9423 2.91216C72.7256 2.8964 72.5001 2.89414 72.2834 2.86036C72.1511 2.84009 72.0557 2.66667 71.9213 2.70045L71.7891 2.81757C71.6677 2.80856 71.5485 2.7973 71.4271 2.78829C71.3859 2.7455 71.3426 2.70495 71.3014 2.66216C70.9654 2.6036 70.935 2.61261 70.7204 2.72973C70.4798 2.70946 70.2392 2.68919 69.9942 2.66892L69.862 2.78604C69.6799 2.77478 69.5021 2.76577 69.3222 2.7545L68.919 3.11036C68.8171 3.11036 68.7304 3.10811 68.6567 3.10586C68.518 3.18694 68.453 3.36937 68.2644 3.32883L68.1538 3.19369C67.898 3.20496 67.8937 3.20946 67.8568 3.52703C67.7398 3.68919 67.3387 3.08108 67.2607 2.98649C67.1588 2.96847 67.0569 2.97523 66.9659 2.91667C66.8943 2.87162 66.8553 2.79054 66.7578 2.80405C66.7448 2.93243 66.7578 3.04279 66.6602 3.12838C66.7448 3.23198 66.8813 3.21396 67.0114 3.22523C67.1241 3.23423 67.2759 3.20946 67.2217 3.37387L67.0656 3.51126C66.825 3.48649 66.5172 3.39865 66.283 3.45946C66.218 3.52928 66.1443 3.57207 66.0446 3.54504L65.9275 3.4009C65.7346 3.38514 65.6522 3.61261 65.4766 3.61937C65.3487 3.62387 65.2317 3.41892 65.1493 3.34234C65.0561 3.32883 64.9694 3.31532 64.874 3.3018L64.6594 3.04054C64.5142 3.02252 64.3949 3.00901 64.2801 2.99324L64.1413 3.11712C64.0459 3.11486 63.9571 3.11036 63.8725 3.10811C63.8118 3.17342 63.7533 3.20721 63.7359 3.29955C63.7273 3.34459 63.749 3.40315 63.7208 3.44595C63.6297 3.57883 63.5495 3.40315 63.4888 3.34685C63.1788 3.31532 62.8775 3.28604 62.5784 3.25676C62.5675 3.38739 62.6174 3.8491 62.4093 3.78153L62.2944 3.64189C62.2034 3.63063 62.1145 3.61937 62.0299 3.61036C61.9671 3.54054 61.9237 3.44595 61.8002 3.46847C61.7893 3.54955 61.7763 3.63514 61.7633 3.72072C61.6029 3.68468 61.5465 3.60811 61.4425 3.47973C61.3406 3.3536 61.2994 3.32207 61.1498 3.28153L61.0154 3.4009C60.79 3.38288 60.519 3.30631 60.3304 3.47748C60.1743 3.45946 60.092 3.51802 59.9532 3.56757C59.8275 3.61261 59.6953 3.56081 59.5717 3.53153C59.5262 3.48649 59.498 3.43468 59.4395 3.40766C59.3788 3.38063 59.2769 3.38964 59.2097 3.38288C59.045 3.36712 58.8802 3.35586 58.7155 3.34234C58.6569 3.28829 58.5854 3.1464 58.4878 3.2027C58.4033 3.25 58.4553 3.35811 58.4206 3.43468C58.3556 3.43468 58.2776 3.43919 58.1779 3.44144L57.9221 3.66892C57.8289 3.66667 57.74 3.66441 57.6403 3.66216L57.521 3.76577C57.378 3.81081 57.3238 3.68468 57.3671 3.68468C57.0896 3.62613 56.9726 3.60135 56.8859 3.58333C56.8078 3.64189 56.7602 3.67793 56.7125 3.71396C56.5911 3.70495 56.4718 3.69369 56.3483 3.68243L56.2529 3.56532C56.073 3.45495 55.9863 3.72297 55.8194 3.62162C55.7868 3.58333 55.7457 3.53829 55.7045 3.49324C55.5831 3.48423 55.4638 3.47297 55.3403 3.46171C55.3294 3.54955 55.3186 3.63964 55.3078 3.72748C55.1864 3.71847 55.0672 3.70721 54.9262 3.69595C54.8547 3.60811 54.7485 3.40766 54.6228 3.4009C54.4949 3.39414 54.3648 3.58333 54.2846 3.66216C54.2716 3.83333 54.2586 3.99099 54.2477 4.1464C54.0808 4.42117 53.9638 4.20496 53.7513 4.14189C53.6299 4.10586 53.5866 4.0518 53.4804 3.99775C53.3655 3.93919 53.2202 3.95946 53.0967 3.95045C53.0186 4.01577 52.9579 4.09459 52.8387 4.05405L52.6154 3.78153C52.5352 3.77252 52.2968 3.69595 52.2252 3.75901C52.1342 3.84009 52.2599 3.92342 52.2968 3.97973C52.3661 4.08559 52.2881 4.12838 52.2317 4.21847C52.1732 4.31081 52.1407 4.40991 52.1559 4.52252C52.1082 4.56982 52.0648 4.61036 52.0215 4.65315C51.9066 4.63063 51.8806 4.61036 51.7808 4.54504C51.692 4.48649 51.5728 4.47522 51.4709 4.44144C51.4253 4.36486 51.3473 4.31306 51.3061 4.23198C51.2628 4.14414 51.2844 4.04955 51.2909 3.9527C51.2086 3.91892 51.1284 3.91667 51.0395 3.90991L50.9246 3.77027C50.7555 3.78529 50.658 3.90015 50.6319 4.11486C50.4564 4.22973 50.426 3.92117 50.2678 3.97973C50.2461 4.06757 50.2418 4.15541 50.2374 4.24775C50.0756 4.1967 49.9982 4.05931 50.0055 3.83559L49.767 3.54504C49.6716 3.53378 49.4093 3.44369 49.3768 3.57658C49.3443 3.71396 49.5351 3.73874 49.4787 3.89865C49.4028 3.89865 49.3205 3.89865 49.2338 3.89865C49.2229 3.98198 49.2121 4.06982 49.2012 4.16216C48.8869 4.08108 48.8154 3.71171 48.5379 3.56081C48.4339 3.56081 48.3146 3.56081 48.1976 3.56081C48.1087 3.71622 47.9331 3.6036 47.8226 3.68018C47.8095 3.84685 47.7965 4.00225 47.7857 4.16667C47.699 4.16441 47.6145 4.15991 47.5256 4.15766C47.4692 4.20721 47.4107 4.26126 47.3565 4.37613C47.363 4.41667 47.3456 4.46847 47.3305 4.43919C47.3175 4.60586 47.2589 4.48649 47.2589 4.48649C47.2481 4.4527 47.2524 4.38739 47.2806 4.36036C47.1961 4.16667 47.4519 4.01577 47.415 3.87613C47.298 3.86712 47.1809 3.85586 47.0508 3.84459C47.0378 3.92793 47.027 4.01126 47.0118 4.10811L46.7409 4.34685C46.6693 4.34685 46.5826 4.34234 46.4851 4.34009L46.2293 4.56757C46.0168 4.58559 45.8196 4.57883 45.6678 4.40315C45.4944 4.43243 45.2408 4.11261 45.1302 4.29054C45.3427 4.43243 44.9546 4.77703 44.8527 4.53604C44.7747 4.66441 44.6837 4.58108 44.61 4.50451C44.4994 4.38964 44.4517 4.33108 44.2956 4.30405C44.2826 4.38739 44.2696 4.47072 44.2566 4.55405C44.0008 4.53378 43.7602 4.51351 43.5109 4.49099C43.5001 4.57883 43.4892 4.66667 43.4784 4.75676C43.318 4.8018 43.2681 4.53829 43.0969 4.60135C43.0275 4.65541 42.9733 4.74324 42.8628 4.70496C42.6113 4.42267 42.4466 4.28378 42.3685 4.28829C42.323 4.36261 42.3859 4.46622 42.2948 4.52478C42.2341 4.52027 42.1756 4.51577 42.0975 4.50901L41.8266 4.74775C41.7117 4.74099 41.5881 4.7545 41.4754 4.71847C41.3692 4.68468 41.2825 4.60811 41.1893 4.54955C41.0765 4.64865 40.9595 4.80856 40.8077 4.80405C40.7232 4.76577 40.6755 4.68243 40.617 4.61486C40.5433 4.52928 40.4913 4.53153 40.3915 4.50676L40.1206 4.7455C39.9948 4.73423 39.8756 4.72522 39.7477 4.71396L39.5179 4.43243C39.4182 4.42117 39.325 4.42793 39.2491 4.38288C39.273 4.09009 39.2903 3.85135 39.3098 3.61487C39.2556 3.61712 39.1841 3.59685 39.1538 3.62613C39.0497 3.72523 38.8828 3.77928 38.8958 3.97297L39.1884 4.33108C39.0909 4.41892 38.9803 4.38288 38.8568 4.37613C38.8091 4.42117 38.7679 4.46396 38.7245 4.50676C38.7058 4.67492 38.6602 4.75601 38.588 4.75C38.5468 4.70496 38.5078 4.65991 38.4666 4.61486C38.3083 4.52703 38.2195 4.77703 38.0634 4.70496C38.0721 4.57883 38.0829 4.45495 38.0916 4.32883C38.1327 4.28604 38.1739 4.24099 38.2195 4.19144C38.3018 4.19369 38.3907 4.19595 38.4796 4.1982C38.5251 3.9527 38.3192 3.86712 38.1523 4.00225C37.9008 4.20495 37.6645 4.43243 37.4239 4.6464C37.335 4.64189 37.2483 4.63964 37.1638 4.63514C37.1551 4.76126 37.1833 4.94144 37.012 4.87838C36.9405 4.79054 36.4116 4.26577 36.5915 4.17568C36.6955 4.18468 36.8473 4.21171 36.8039 4.04279C36.7432 3.81081 36.5395 3.9527 36.4311 4.02928C36.2511 4.01351 36.0712 4 35.8913 3.98649C35.7331 3.97297 35.5683 3.93243 35.4101 3.97297C35.3841 4.0518 35.4339 4.1509 35.345 4.20721C35.1391 4.18018 34.9267 4.19595 34.7207 4.12838C34.673 4.0473 34.6058 3.9955 34.5061 4.0045C34.4953 4.09234 34.4844 4.18018 34.4736 4.27027C34.2308 4.25 33.9902 4.22973 33.7474 4.20946C33.6607 4.26577 33.5458 4.36712 33.4374 4.30405C33.3377 4.2455 33.3485 4.14189 33.2033 4.16892L32.928 4.41216C32.9193 4.48198 32.9063 4.57207 32.889 4.7027C32.5747 4.57883 32.4945 4.16441 32.178 4.07207L32.0327 4.20045C32.0045 4.37613 32.0284 4.56081 31.9655 4.72973C31.8441 4.72072 31.7227 4.71396 31.6057 4.70496L31.3087 4.34234L31.17 4.46396C31.2372 4.59234 31.4127 4.65766 31.3109 4.82658C31.2155 4.98198 31.0789 5.03153 30.9207 5.04054L30.6931 4.76351C30.5478 4.71622 30.4373 4.91216 30.305 4.85135C30.1511 4.77928 30.1446 4.5473 29.9322 4.56757C29.8346 4.65315 29.7393 4.74099 29.6417 4.82432C29.5702 4.88739 29.4791 5.00225 29.3924 5.03604C29.232 5.09685 29.1648 4.86937 29.0066 4.88964L28.7378 5.12613C28.5643 5.18018 28.5145 4.92117 28.3432 4.97297L28.0723 5.21171C27.9465 5.20045 27.8923 5.1036 27.7774 5.07432C27.6907 5.0518 27.6214 5.11486 27.552 5.16441C27.4566 5.16441 27.3699 5.16441 27.2745 5.16216L27.0664 5.34685C26.7911 5.35135 26.5809 5.3536 26.4053 5.35586C26.2188 5.18694 26.1646 4.93694 25.9132 4.89865C25.9023 4.98649 25.8893 5.07207 25.8785 5.16667L25.7484 5.28153C25.6335 5.31532 25.5859 5.2027 25.5013 5.15315C25.3908 5.09009 25.2325 5.11261 25.1111 5.1036C25.0483 5.14865 25.0006 5.18468 24.9529 5.22072C24.799 5.17117 24.6667 5.22072 24.5453 5.31982C24.4174 5.30856 24.2852 5.28604 24.1573 5.28829C24.0403 5.28829 23.9947 5.35135 23.9015 5.41667C23.7693 5.38964 23.5937 5.3536 23.4528 5.32432L23.2057 5.54279C23.3487 5.63739 23.2165 5.75901 23.1363 5.84234C23.0301 5.9527 22.9889 5.96622 22.8437 5.97297L22.6161 5.69369C22.6161 5.59685 22.6182 5.51126 22.6204 5.42568C22.4903 5.41441 22.3689 5.40541 22.2497 5.39414C22.2605 5.48198 22.2584 5.54054 22.3082 5.61712C22.3473 5.67568 22.4058 5.71847 22.4383 5.78153C22.5098 5.91441 22.46 5.98198 22.3256 5.92568C22.254 5.83784 22.0243 5.44144 21.8812 5.51126C21.7381 5.58108 22.0373 5.77027 21.9137 5.90541C21.5842 5.87613 21.2547 5.8491 20.9252 5.81982C20.8082 5.89414 20.6456 5.98874 20.5177 5.85586C20.4722 5.80856 20.4657 5.70946 20.431 5.6509C20.3724 5.54955 20.2901 5.48874 20.1708 5.4955L20.0386 5.61261C20.0256 5.70721 20.0126 5.79279 19.9996 5.87838C19.8674 5.86712 19.7481 5.85811 19.6289 5.84685C19.6332 5.7545 19.6376 5.66216 19.6419 5.57207C19.5986 5.52477 19.5574 5.47973 19.5249 5.44144C19.3081 5.42117 19.0978 5.39865 18.8897 5.38063C18.7813 5.47748 18.6751 5.56982 18.5797 5.74099C18.5797 5.77703 18.5667 5.81532 18.5537 5.79054C18.5407 5.95721 18.4822 5.83784 18.4822 5.83784C18.4713 5.80405 18.4757 5.7455 18.4995 5.71622C18.3348 5.5473 18.0139 5.57883 17.847 5.56532L17.7039 5.69144C17.5891 5.67793 17.4698 5.66216 17.3354 5.64414C17.3051 5.61486 17.2639 5.57432 17.2205 5.53378C16.878 5.48423 16.852 5.48649 16.6396 5.59685C16.4878 5.58333 16.3383 5.57207 16.1865 5.55856C16.1388 5.59459 16.0911 5.63063 16.0326 5.67342C15.8635 5.66441 15.6836 5.65315 15.5015 5.64189L15.3715 5.75676C15.2587 5.77252 15.2024 5.70045 15.1634 5.64865C14.5759 5.5991 14.0058 5.5518 13.414 5.50225C13.3923 5.51802 13.3425 5.5518 13.2948 5.58559C12.6293 5.52928 11.9638 5.47522 11.3004 5.41892C11.2289 5.45495 11.127 5.54505 11.0425 5.52478C10.9341 5.5 10.9037 5.3536 10.7715 5.37387C10.7238 5.40991 10.6761 5.4482 10.6414 5.47522C10.2079 5.43919 9.78735 5.40315 9.4015 5.36937C9.31912 5.41216 9.2129 5.52027 9.11752 5.50225C8.98962 5.48198 8.97879 5.32207 8.82488 5.34459L8.58859 5.55405C8.07484 5.51126 7.59577 5.47072 7.09719 5.43018C7.05817 5.37613 7.00181 5.30405 6.89342 5.31757C6.88258 5.40541 6.87174 5.49324 6.85874 5.59009C6.34715 5.54505 5.83339 5.49775 5.32181 5.4527L5.18307 5.57432C5.04 5.56306 4.89476 5.54955 4.75169 5.53829C4.62379 5.52703 4.4959 5.49775 4.37667 5.54505C4.33115 5.6036 4.25528 5.67568 4.27045 5.75676C4.28996 5.85586 4.43954 5.97748 4.50023 6.0518C4.58694 6.06757 4.69316 6.04955 4.76903 6.0991C4.86008 6.15766 4.88175 6.20946 4.99448 6.23198C5.25244 6.28604 5.19391 6.3491 5.23943 6.58333C5.26328 6.70496 5.44754 6.92793 5.22426 6.91892C5.15923 6.91667 5.08119 6.89865 5.06601 6.99324C5.05301 7.07658 5.15056 7.12613 5.18524 7.18694C5.34132 7.25901 5.43236 7.00676 5.59277 7.0991C5.64697 7.17117 5.72717 7.22973 5.68815 7.35135C5.60795 7.35135 5.52557 7.3491 5.43236 7.34685L5.30446 7.45946C5.21125 7.45496 5.12237 7.4527 5.02916 7.4482L4.62379 7.80631C4.52625 7.80405 4.43737 7.8018 4.35933 7.79955C4.17507 7.91441 4.08619 8.15991 3.8304 8.14865L3.48139 7.72297C3.2993 7.7027 3.12155 7.68468 2.9503 7.66441C2.90477 7.61486 2.86359 7.56982 2.82023 7.52478C2.66199 7.54279 2.53192 7.48649 2.44521 7.37387C2.31081 7.3536 2.19159 7.33784 2.09187 7.32432C1.94446 7.4054 1.88377 7.59009 1.67133 7.56306C1.56728 7.43469 1.46323 7.30631 1.35917 7.18018C1.25079 7.0518 1.23128 7.01126 1.0752 7.00225C1.06003 7.08333 1.04702 7.16441 1.03835 7.21396C0.89311 7.21847 0.773884 7.22072 0.672 7.22297C0.619974 7.14865 0.583123 7.0991 0.548439 7.04955C0.563613 6.85586 0.563613 6.6509 0.325161 6.6464L0.0411871 6.8964C0.0281806 7.10811 0.0151742 7.32658 0 7.56081L0.227613 7.84009L0.240619 7.8018ZM19.6441 9.89865C19.5162 9.74775 19.6593 9.62613 19.7871 9.78153C19.9367 9.88063 19.7871 10.0653 19.6441 9.89865ZM21.2721 10.3784C21.2005 10.3649 21.2265 10.3401 21.2309 10.2793C21.2634 10.1982 21.4151 10.2297 21.3544 10.3333C21.3349 10.3671 21.3132 10.3851 21.2721 10.3761V10.3784ZM118.541 2.94595C118.656 2.95495 118.773 2.96622 118.894 2.97523C118.911 3.12387 118.892 3.13288 118.777 3.23423C118.662 3.22523 118.545 3.21396 118.424 3.20495C118.406 3.05631 118.426 3.0473 118.541 2.94595ZM117.925 2.63288C118.001 2.72748 118.079 2.81982 118.155 2.91441C118.146 3.01577 118.125 3.07432 118.01 3.02928L117.78 2.74775C117.789 2.6464 117.81 2.58784 117.925 2.63288ZM117.457 2.93468C117.524 2.98649 117.552 2.99099 117.635 3.0045C117.845 3.03829 117.732 3.16441 117.613 3.27027C117.524 3.27928 117.476 3.22523 117.414 3.17568C117.346 3.12387 117.318 3.11937 117.236 3.10586C117.026 3.07207 117.138 2.94595 117.258 2.84009C117.346 2.83108 117.394 2.88514 117.457 2.93468ZM114.168 5.39414C114.24 5.40766 114.214 5.43243 114.21 5.49324C114.177 5.57432 114.025 5.54279 114.086 5.43919C114.106 5.40541 114.127 5.38739 114.168 5.3964V5.39414ZM111.318 6.63964C111.387 6.61487 111.485 6.68694 111.446 6.74099C111.268 6.7545 111.231 6.67342 111.318 6.63964ZM111.472 6.73649C111.426 6.64865 111.615 6.67568 111.66 6.69369C111.587 6.71847 111.524 6.72973 111.472 6.73649ZM111.608 6.77928C111.574 6.79054 111.513 6.78604 111.487 6.75676C111.702 6.72973 111.608 6.77928 111.608 6.77928ZM115.606 2.43243L115.729 2.58333C115.718 2.65991 115.705 2.75225 115.69 2.85811C115.838 2.81306 115.968 2.77252 116.093 2.73423L116.217 2.88288C116.23 3.19369 115.898 3.13288 115.701 3.12838L115.335 2.68018C115.38 2.45495 115.382 2.45496 115.606 2.43018V2.43243ZM114.795 2.35811C114.927 2.37162 115.014 2.64189 114.875 2.70721L114.992 2.85135C115.118 2.77928 115.239 2.78153 115.294 2.94595C115.32 3.02252 115.307 3.08333 115.215 3.06982C115.124 3.05856 115.049 2.91892 114.994 2.85135C114.884 2.92568 114.817 2.92793 114.801 2.85586C114.786 2.78604 114.812 2.73649 114.877 2.70721C114.843 2.66667 114.565 2.33559 114.797 2.35811H114.795ZM114.106 2.43694C114.145 2.43694 114.166 2.45721 114.179 2.49324C114.22 2.5991 114.071 2.61486 114.049 2.52703C114.054 2.46622 114.032 2.43694 114.106 2.43694ZM111.598 2.5C111.606 2.31532 111.697 2.23198 111.875 2.2545C111.866 2.43919 111.775 2.52252 111.598 2.5ZM112.157 1.74324C112.252 1.77252 112.291 1.89189 112.285 1.97748C112.191 2.04955 112.02 1.95495 112.035 1.81982C112.044 1.75 112.087 1.72072 112.157 1.74099V1.74324ZM111.285 1.53378C111.277 1.71847 111.186 1.8018 111.008 1.77928C111.017 1.59459 111.108 1.51126 111.285 1.53378ZM109.941 2.22748C110.017 2.22748 110.054 2.22523 110.123 2.18694C110.201 2.14414 110.247 2.1036 110.345 2.13288C110.286 2.25901 110.228 2.38514 110.171 2.50676L110.295 2.65766C110.288 2.84459 110.186 2.91441 110.022 2.90766L109.894 2.75C109.905 2.66892 109.918 2.57883 109.928 2.5C109.826 2.37613 109.712 2.22523 109.941 2.22297V2.22748ZM109.228 2.23198C109.343 2.38739 109.222 2.51802 109.092 2.36036C108.966 2.20495 109.109 2.07207 109.228 2.23198ZM107.494 2.15991L107.667 2.37162C107.804 2.27252 107.899 2.11261 108.099 2.06532C108.149 2.11261 108.207 2.16667 108.257 2.21396C108.268 2.33108 108.216 2.3964 108.136 2.4482C107.915 2.4542 107.758 2.42868 107.667 2.37162L107.461 2.55405C107.451 2.6464 107.442 2.73874 107.433 2.82432L107.297 2.94595C107.104 2.95721 107.069 2.76577 106.959 2.67568C106.937 2.53153 106.939 2.38739 106.993 2.26351C107.086 2.25676 107.184 2.27252 107.256 2.23649C107.334 2.19595 107.399 2.13514 107.496 2.16441L107.494 2.15991ZM107.988 1.53829C107.693 1.86937 107.691 1.86712 107.513 1.88964C107.487 1.65991 107.808 1.49099 107.988 1.53829ZM106.38 2.86712C106.464 2.93919 106.568 3.0045 106.488 3.14189C106.367 3.13288 106.245 3.12387 106.128 3.11486L105.951 2.8964C106.087 2.77477 106.237 2.88739 106.38 2.86486V2.86712ZM106.36 2.33108C106.462 2.28829 106.477 2.44369 106.393 2.46622C106.334 2.46171 106.306 2.48423 106.306 2.40766C106.306 2.36712 106.326 2.34459 106.36 2.33108ZM105.118 1.68919C105.177 1.69369 105.205 1.67117 105.205 1.74775C105.205 1.78829 105.185 1.81081 105.151 1.82432C105.049 1.86712 105.034 1.71171 105.118 1.68919ZM105.096 1.41892C104.919 1.40991 104.839 1.31532 104.86 1.13063C105.038 1.13964 105.118 1.23423 105.096 1.41892ZM104.188 1.21171C104.268 1.23649 104.372 1.22297 104.422 1.30631C104.47 1.38514 104.444 1.52928 104.437 1.61261C104.472 1.66216 104.509 1.71171 104.548 1.76577C104.544 1.8536 104.539 1.94595 104.535 2.04279L104.641 2.17117C104.953 2.2027 105.253 2.23198 105.545 2.25901C105.625 2.20045 105.675 2.10586 105.786 2.14414C105.794 2.33333 105.797 2.39865 105.907 2.54955C105.903 2.63739 105.899 2.72973 105.894 2.82658L105.951 2.8964C105.881 2.95721 105.814 3.01802 105.745 3.08108C105.517 3.11261 105.511 2.81757 105.296 2.77252C105.244 2.8018 105.17 2.84459 105.09 2.88964C105.012 2.88964 104.925 2.88514 104.832 2.88288L104.572 3.11261C104.453 3.13514 104.227 2.92342 104.381 2.84009C104.448 2.80405 104.555 2.85811 104.628 2.82658C104.719 2.78604 104.726 2.68694 104.737 2.59459L104.264 2.55405C104.134 2.41441 104.006 2.27252 103.876 2.13288C103.794 2.04504 103.67 1.85811 103.566 2.02477C103.694 2.12387 103.56 2.26351 103.729 2.52252L103.718 2.51126C103.768 2.72297 103.377 2.76577 103.627 3.02928C103.436 3.01802 103.321 3.01126 103.208 3.0045C103.083 2.91892 102.985 2.80856 102.933 2.66441C102.937 2.63288 102.931 2.59009 102.946 2.57432C103.15 2.38964 103.356 2.20721 103.562 2.02477C103.473 1.91441 103.51 1.74099 103.666 1.70721C103.809 1.67568 103.844 1.85586 103.965 1.86712C104.065 1.87613 104.182 1.73198 104.171 1.63514C104.156 1.49324 103.922 1.2973 103.833 1.18919C103.765 0.876126 104.078 1.17568 104.184 1.20946L104.188 1.21171ZM102.809 2.03153C102.888 2.06532 102.857 2.22297 102.757 2.15991C102.725 2.13964 102.708 2.11712 102.716 2.07432C102.729 2 102.753 2.02703 102.812 2.03153H102.809ZM102.679 2.44369C102.71 2.55631 102.669 2.71396 102.658 2.82883L102.523 2.9482C102.346 2.93919 102.268 2.84459 102.287 2.65991L102.43 2.53378C102.43 2.4527 102.434 2.36036 102.437 2.26802C102.541 2.3018 102.647 2.32658 102.679 2.44595V2.44369ZM100.869 2.58108C100.893 2.65315 100.824 2.7545 100.772 2.71396C100.759 2.52928 100.837 2.49099 100.869 2.58108ZM100.733 2.88288C100.722 2.84685 100.726 2.78378 100.754 2.75676C100.78 2.97973 100.733 2.88288 100.733 2.88288ZM100.774 2.74099C100.859 2.69369 100.833 2.88964 100.815 2.93694C100.791 2.86036 100.78 2.79505 100.774 2.74099ZM101.613 1.26577C101.83 1.26802 101.994 1.55856 102.096 1.73198C102.118 1.8536 102.018 1.88964 101.958 1.95495C101.949 2.04279 101.94 2.13288 101.929 2.22523C101.717 2.20721 101.325 1.72523 101.342 1.50676L101.613 1.26577ZM100.332 1.29279L100.62 1.64414C100.614 1.58108 100.774 1.60586 100.815 1.62162C100.791 1.63288 100.767 1.64414 100.744 1.65315C100.83 1.67117 100.763 1.70721 100.763 1.70721C100.735 1.71847 100.685 1.71396 100.655 1.69595C100.434 1.80856 100.319 1.90991 100.204 2.01126C100.265 2.0045 100.241 2.17117 100.226 2.21396C100.215 2.18018 100.206 2.1509 100.197 2.12387C100.182 2.24099 100.143 2.15991 100.143 2.15991C100.13 2.12387 100.137 2.05405 100.169 2.02928C100.171 2.02928 100.174 2.02703 100.176 2.02477C100.145 1.86486 100.176 1.78829 100.189 1.69595L100.048 1.52477C100.111 1.29505 100.111 1.29504 100.332 1.29054V1.29279ZM99.4885 2.59459C99.5384 2.65541 99.6273 2.75676 99.5275 2.81982C99.4603 2.86261 99.2479 2.7973 99.1742 2.78829C99.0463 2.68919 99.0506 2.56757 99.0766 2.42793C99.0051 2.31532 98.7081 2 98.9206 1.90541C98.9206 1.90541 98.9206 1.9009 98.9184 1.89865C99.1352 2.16441 99.3173 2.37613 99.4885 2.59459ZM98.9964 1.75225C99.0181 1.81532 98.9639 1.90541 98.9162 1.89414C98.8404 1.73198 98.9553 1.63514 98.9964 1.75225ZM98.8707 1.84234C98.8859 1.86036 98.8989 1.87613 98.9119 1.89414C98.8967 1.88964 98.8816 1.87387 98.8707 1.84234ZM95.9768 2.3964C95.9876 2.27027 96.0353 2.23423 96.1264 2.14865C96.1979 2.08108 96.2759 1.98874 96.3605 1.93694C96.4905 1.85811 96.5686 1.97297 96.6748 2.05631L97.0303 2.08559C97.0411 1.99775 97.0498 1.90766 97.0606 1.81982C97.1625 1.82883 97.3034 1.89865 97.2969 2.03153C97.2883 2.16667 97.1062 2.27027 97.0195 2.34685C97.0021 2.45495 96.9891 2.53604 96.9783 2.61261C96.8504 2.63514 96.8135 2.53604 96.7463 2.46622C96.4949 2.44369 96.2347 2.42117 95.9768 2.39865V2.3964ZM88.2358 7.29504C88.2705 7.42793 88.006 7.60135 87.9648 7.43919C87.9279 7.2973 88.1512 7.20495 88.2358 7.29504ZM87.4532 7.32658C87.5934 7.35961 87.6743 7.45195 87.696 7.6036C87.618 7.5991 87.3904 7.63063 87.3275 7.56306C87.2429 7.46847 87.399 7.37613 87.4532 7.32658ZM87.6288 6.79955C87.6353 6.85135 87.5854 7.0045 87.5009 6.92342C87.3969 6.82432 87.5854 6.79505 87.6288 6.79955ZM86.4842 7.62838C86.4495 7.63964 86.3888 7.63513 86.3628 7.60585C86.5774 7.57883 86.4842 7.62838 86.4842 7.62838ZM86.5363 7.54279C86.4626 7.56757 86.3997 7.57883 86.3477 7.58559C86.3021 7.49775 86.4907 7.52477 86.5363 7.54279ZM86.1938 7.48874C86.2631 7.46396 86.3607 7.53604 86.3216 7.59009C86.1439 7.6036 86.107 7.52252 86.1938 7.48874ZM81.1061 9.28378C81.067 9.13964 81.2925 9.04955 81.377 9.13964C81.4117 9.27252 81.1494 9.44595 81.1061 9.28378ZM81.4659 9.65315C81.5613 9.54504 81.5895 9.74099 81.5851 9.78604C81.5331 9.79279 81.3879 9.74099 81.4659 9.65315ZM85.8556 7.72748L85.4936 7.6982C85.5022 7.51351 85.5933 7.43243 85.7689 7.4527C85.8317 7.53378 85.9423 7.60135 85.8556 7.72973V7.72748ZM86.9221 5.93694L87.037 6.07658C86.9872 6.3018 86.9871 6.3018 86.7617 6.32432L86.6468 6.18468C86.6967 5.95946 86.6967 5.95946 86.9221 5.93694ZM85.8924 6.93018C85.8534 6.93018 85.8317 6.90991 85.8187 6.87387C85.7775 6.76802 85.9271 6.75225 85.9488 6.84009C85.9445 6.9009 85.9661 6.93018 85.8924 6.93018ZM85.4936 6.04054C85.4741 6.07432 85.4524 6.09234 85.4112 6.08333C85.3397 6.06982 85.3657 6.04505 85.37 5.98423C85.4025 5.90315 85.5543 5.93468 85.4936 6.03829V6.04054ZM83.9935 7.03604L84.3425 7.46171C84.4444 7.4527 84.4986 7.46171 84.5831 7.38964C84.6525 7.33108 84.711 7.25676 84.7999 7.23649C84.9777 7.26351 85.1229 7.53378 85.2356 7.67342C85.2638 7.85586 85.1012 7.79955 84.9863 7.78829C84.8931 7.86036 84.8216 7.9482 84.7002 7.87838C84.594 7.81757 84.594 7.75676 84.4596 7.74324L84.2623 7.91892L83.9675 7.55856C83.9371 7.45946 83.9913 7.35586 83.9436 7.25676C83.9176 7.1982 83.8634 7.18018 83.8634 7.11036C83.8634 7.02252 83.9198 7.00901 83.9935 7.03378V7.03604ZM84.1973 6.11261C84.2038 6.16667 84.1539 6.31757 84.0694 6.23649C83.9653 6.13739 84.1539 6.10811 84.1973 6.11261ZM82.0924 7.68243C82.1834 7.69369 82.2593 7.83333 82.3135 7.9009C82.3829 7.84009 82.4501 7.77928 82.5194 7.71847C82.6083 7.72297 82.6972 7.72748 82.7882 7.73424L82.9226 7.61486C83.1502 7.68468 83.1502 7.68468 83.1416 7.91441C83.0939 7.95045 83.0484 7.98649 83.005 8.02027C82.8207 8.0045 82.4371 8.0473 82.3157 7.89865C82.1899 7.97072 82.0685 7.96847 82.0144 7.80405C81.9883 7.72748 82.0013 7.66667 82.0924 7.68018V7.68243ZM83.1524 6.02703C83.2478 6.05631 83.2868 6.17568 83.2803 6.26126C83.1871 6.33333 83.0137 6.24099 83.031 6.1036C83.0397 6.03378 83.0852 6.00451 83.1524 6.02478V6.02703ZM82.4956 6.37387C82.5021 6.42568 82.4522 6.57883 82.3677 6.49775C82.2636 6.39865 82.4522 6.36937 82.4956 6.37387ZM80.5706 7.81982C80.6812 7.86937 80.7441 7.76351 80.8394 7.72973C80.9543 7.68919 81.1104 7.73874 81.2296 7.75C81.3077 7.83784 81.364 7.90766 81.3337 8.01351C81.1581 8.00451 80.9803 7.99324 80.8113 7.98423C80.7354 8.0518 80.6725 8.12387 80.549 8.08333C80.4883 8.00901 80.2975 7.8536 80.317 7.7455C80.3517 7.55405 80.5229 7.75676 80.5728 7.81757L80.5706 7.81982ZM79.1508 7.79505C79.1594 7.72523 79.205 7.69595 79.2722 7.71622C79.3675 7.7455 79.4066 7.86487 79.4001 7.95045C79.3068 8.02252 79.1334 7.93018 79.1508 7.79279V7.79505ZM82.8229 4.52027C82.9595 4.48198 83.0484 4.71396 82.9616 4.8018C82.8338 4.83784 82.6668 4.56306 82.8229 4.52027ZM80.9261 6.60135C80.8329 6.67342 80.6595 6.58108 80.6769 6.44369C80.6855 6.37387 80.731 6.34459 80.7982 6.36486C80.8936 6.39414 80.9326 6.51351 80.9261 6.5991V6.60135ZM79.8488 7.22748L79.9615 7.36712C79.968 7.4482 79.9312 7.4955 79.8878 7.55631C79.8379 7.63063 79.8271 7.67117 79.8054 7.75901C79.8553 7.81982 80.0222 8.01802 79.8423 8.03829C79.7339 8.04955 79.5973 7.7973 79.5366 7.72523C79.5496 7.61261 79.5388 7.44144 79.5951 7.33784C79.6472 7.24324 79.7534 7.23649 79.8488 7.22748ZM80.0764 5.9009C79.8986 5.89189 79.8184 5.7973 79.8401 5.61261C80.0179 5.62162 80.0981 5.71622 80.0764 5.9009ZM80.6335 3.11486C80.5988 3.12613 80.5381 3.12162 80.5121 3.09234C80.7267 3.06532 80.6335 3.11486 80.6335 3.11486ZM80.6855 3.02928C80.6118 3.05405 80.549 3.06532 80.4969 3.07207C80.4514 2.98423 80.64 3.01126 80.6855 3.02928ZM80.343 2.97523C80.4124 2.95045 80.5099 3.02252 80.4709 3.07658C80.2932 3.09009 80.2563 3.00901 80.343 2.97523ZM77.5618 5.02027L77.332 4.73874C77.3103 4.61937 77.3645 4.60135 77.4643 4.60811L77.694 4.88964C77.7157 5.00901 77.6615 5.02703 77.5618 5.02027ZM79.4282 2.62838L79.5518 2.78153C79.6298 2.78153 79.7165 2.78153 79.7924 2.78153C79.8423 2.84234 79.8813 2.88964 79.9203 2.93694C79.9268 3.2455 79.6038 3.18694 79.4044 3.18243L79.1508 2.87162C79.1594 2.68694 79.2505 2.6036 79.4304 2.62838H79.4282ZM78.6695 2.96171C78.7367 2.97072 78.7649 3.01577 78.7454 3.08784C78.7172 3.18694 78.6023 3.22748 78.52 3.22072C78.4506 3.12387 78.5416 2.94595 78.6717 2.96171H78.6695ZM71.2212 9.05405C71.4206 9.06757 71.6222 9.08559 71.8216 9.10135C71.8043 9.32883 71.633 9.38964 71.4856 9.47748C71.3165 9.45496 71.284 9.27478 71.1258 9.14865C71.1908 9.08108 71.206 9.0518 71.2212 9.05405ZM67.5772 8.88063C67.5837 8.93468 67.5338 9.08559 67.4493 9.00451C67.3452 8.90541 67.5338 8.87613 67.5772 8.88063ZM68.2037 7.45721C68.1516 7.46396 68.0064 7.41216 68.0844 7.32432C68.1798 7.21622 68.208 7.41216 68.2037 7.45721ZM67.7008 7.28153C67.7073 7.33333 67.6574 7.48649 67.5729 7.4054C67.4688 7.30631 67.6574 7.27703 67.7008 7.28153ZM67.2043 5.89865C67.3062 5.85586 67.3214 6.01126 67.2369 6.03378C67.1783 6.02928 67.1501 6.0518 67.1501 5.97523C67.1501 5.93468 67.1696 5.91216 67.2043 5.89865ZM69.3135 3.12162C69.3201 3.17568 69.2702 3.32658 69.1857 3.2455C69.0816 3.1464 69.2702 3.11712 69.3135 3.12162ZM63.6861 7.38964C63.7208 7.52252 63.4563 7.69595 63.4151 7.53378C63.3783 7.39189 63.6016 7.29955 63.6861 7.38964ZM61.6462 7.04279C61.824 7.0518 61.9042 7.1464 61.8825 7.33108C61.7048 7.32207 61.6246 7.22748 61.6462 7.04279ZM63.22 5.9009C63.3458 5.82207 63.3653 5.82432 63.4758 5.92342C63.4693 5.86036 63.6297 5.88513 63.6709 5.9009C63.6362 5.91216 63.6059 5.92117 63.5777 5.93018C63.6969 5.94595 63.6189 5.98874 63.6189 5.98874C63.5842 6.00225 63.517 5.9955 63.4932 5.96171C63.4932 5.96171 63.491 5.95721 63.4888 5.95496C63.3349 5.9955 63.3046 5.97748 63.2179 5.9009L63.0228 6.07207C62.8212 6.0518 62.8082 6.03829 62.7713 5.83108C63.0639 5.81532 63.0639 5.81306 63.2179 5.9009H63.22ZM62.1166 5.74324C62.212 5.77252 62.251 5.89189 62.2445 5.97748C62.1513 6.04955 61.9801 5.95496 61.9953 5.81982C62.0039 5.75 62.0473 5.72072 62.1166 5.74099V5.74324ZM62.5524 4.5C62.6673 4.65541 62.5459 4.78604 62.4158 4.62838C62.2901 4.47297 62.4331 4.34009 62.5524 4.5ZM58.2602 7.38739C58.2646 7.32658 58.2429 7.2973 58.3166 7.2973C58.3556 7.2973 58.3773 7.31757 58.3903 7.3536C58.4315 7.45946 58.2819 7.47523 58.2602 7.38739ZM59.11 6.96622C59.0319 6.93243 59.0623 6.77477 59.162 6.83784C59.1945 6.85811 59.2119 6.88063 59.2032 6.92342C59.1902 6.99775 59.1664 6.97072 59.1078 6.96622H59.11ZM59.6194 5.93694C59.7105 5.9482 59.7863 6.08784 59.8405 6.15541C59.9186 6.00225 59.9272 5.90991 59.9381 5.82207C59.9901 5.78153 60.0356 5.74324 60.0811 5.70721C60.1895 5.69144 60.2307 5.79054 60.3022 5.83333C60.3738 5.87613 60.4735 5.87162 60.5602 5.88739C60.5515 5.93468 60.5602 6.01126 60.5277 6.04054C60.3933 6.15991 60.2741 6.30405 60.1071 6.38288C59.9532 6.38964 59.9337 6.22748 59.8969 6.2027C59.717 6.22973 59.5956 6.22748 59.5414 6.06531C59.5154 5.98874 59.5284 5.92793 59.6194 5.94144V5.93694ZM58.4532 5.97297C58.5442 5.98423 58.6201 6.12387 58.6743 6.19144C58.8043 6.11486 58.7241 5.96847 58.7762 5.86486L59.1468 5.8964C59.1382 6.00901 59.1555 6.16441 59.1078 6.26802C59.0515 6.39414 58.9647 6.39189 58.8455 6.40315C58.787 6.33108 58.7285 6.26126 58.6721 6.18919C58.5464 6.25901 58.425 6.25901 58.3708 6.09459C58.3448 6.01802 58.3578 5.95721 58.4488 5.97072L58.4532 5.97297ZM57.3433 5.87838C57.5514 5.8964 57.7617 5.91441 57.9958 5.93694C57.9741 6.05405 57.9502 6.17117 57.9221 6.31532C57.9372 6.30631 57.9177 6.32883 57.9004 6.32883C57.6945 6.30405 57.4842 6.32432 57.2848 6.25C57.1547 6.04054 57.1547 6.03604 57.3411 5.88063L57.3433 5.87838ZM52.1537 6.24099C52.171 6.22523 52.1862 6.21171 52.2014 6.1982C52.1971 6.21396 52.1819 6.22973 52.1537 6.24099ZM52.1537 6.98649C52.0258 6.83559 52.1689 6.71396 52.2968 6.86937C52.4464 6.96847 52.2968 7.15315 52.1537 6.98649ZM55.9256 5.89189C56.0361 5.90541 56.1532 5.91892 56.2811 5.93468C56.3765 6.02928 56.4892 6.11937 56.6474 6.09009C56.6756 6.22522 56.6778 6.22522 56.5304 6.34009C56.1402 6.30856 55.7565 6.28153 55.375 6.24775C55.3533 6.24775 55.3359 6.2027 55.3164 6.18018L55.1083 6.36486C54.9891 6.3536 54.8699 6.34234 54.7463 6.33108C54.5447 6.13288 54.5469 6.09685 54.7788 5.93468C54.8916 5.91441 54.9328 6.01126 54.9869 6.06982C55.0953 6.12838 55.2384 6.04279 55.3164 6.18018L55.531 5.99099C55.6069 6.00225 55.6936 6.01577 55.7695 6.02928L55.9234 5.89414L55.9256 5.89189ZM56.5499 4.75901C56.6258 4.89865 56.797 4.96396 56.7537 5.15315C56.6691 5.14865 56.5846 5.14414 56.4957 5.13964C56.3656 5.2545 56.2399 5.33559 56.2334 5.1036C56.2291 4.96622 56.112 4.82883 56.1467 4.70045C56.2572 4.71622 56.3721 4.73423 56.5499 4.75901ZM55.2774 5.30631C55.3099 5.32658 55.3273 5.3491 55.3186 5.39189C55.3056 5.46622 55.2818 5.43919 55.2232 5.43468C55.1452 5.4009 55.1755 5.24324 55.2752 5.30631H55.2774ZM54.1524 6.21847C54.1459 6.15541 54.3063 6.18018 54.3475 6.19595C54.3106 6.20721 54.2781 6.21622 54.2477 6.22297C54.3778 6.23874 54.2954 6.28153 54.2954 6.28153C54.2607 6.29505 54.1936 6.28829 54.1697 6.2545C54.1654 6.25 54.1632 6.2455 54.161 6.24099C53.9768 6.27703 53.8922 6.24775 53.851 6.12162C53.825 6.04504 53.838 5.98423 53.9291 5.99775C54.0201 6.00901 54.096 6.14865 54.1502 6.21622L54.1524 6.21847ZM55.169 5.01351C55.1343 5.02478 55.0737 5.02027 55.0476 4.99099C55.2622 4.96396 55.169 5.01351 55.169 5.01351ZM55.2211 4.92793C55.1474 4.9527 55.0845 4.96396 55.0325 4.97072C54.9869 4.88288 55.1755 4.90991 55.2211 4.92793ZM54.8786 4.87387C54.9479 4.8491 55.0455 4.92117 55.0065 4.97523C54.8287 4.98874 54.7918 4.90766 54.8786 4.87387ZM53.3091 6.22297C53.2397 6.26802 53.1227 6.43694 53.0555 6.28153C53.0208 6.20496 53.0728 6.01126 53.088 5.93018C53.3004 5.9955 53.3004 5.9955 53.3091 6.22297ZM53.9247 4.79279C54.0201 4.82207 54.0592 4.94144 54.0526 5.02703C53.9594 5.0991 53.7882 5.0045 53.8034 4.86937C53.812 4.79955 53.8554 4.77027 53.9247 4.79054V4.79279ZM52.6653 6.26126C52.3726 6.27703 52.3726 6.27928 52.2187 6.19144C52.2187 6.19144 52.2166 6.19144 52.2144 6.19144C52.3033 6.11261 52.3596 6.06532 52.4117 6.01802C52.6176 6.03378 52.6284 6.0473 52.6631 6.25901L52.6653 6.26126ZM52.0713 6.11486C52.132 6.09234 52.2187 6.14865 52.2079 6.1982C52.0518 6.27703 51.9586 6.15766 52.0713 6.11486ZM50.9744 6.42342L51.2042 6.70495C51.2259 6.82432 51.1717 6.84234 51.072 6.83559L50.8422 6.55405C50.8205 6.43468 50.8747 6.41667 50.9744 6.42342ZM51.9781 5.11937C51.9586 5.15315 51.9369 5.17117 51.8957 5.16216C51.8242 5.14865 51.8502 5.12387 51.8546 5.06306C51.8871 4.98198 52.0388 5.01351 51.9781 5.11712V5.11937ZM50.3111 6.14865C50.4217 6.08333 50.5734 6.11937 50.5973 6.27703C50.6211 6.44595 50.4499 6.3536 50.3566 6.37838C50.2244 6.41216 50.1767 6.51126 50.0228 6.46622C50.0987 6.34685 50.1897 6.22072 50.3133 6.14865H50.3111ZM51.2064 5.05631C51.1869 5.09009 51.1652 5.10811 51.124 5.0991C51.0525 5.08559 51.0785 5.06081 51.0828 5C51.1154 4.91892 51.2671 4.95045 51.2064 5.05405V5.05631ZM49.4224 6.42793C49.2446 6.41892 49.1644 6.32432 49.1861 6.13964C49.3638 6.14865 49.444 6.24324 49.4224 6.42793ZM48.4599 6.07883C48.5618 6.03604 48.5769 6.19144 48.4924 6.21396C48.4339 6.20946 48.4057 6.23198 48.4057 6.15541C48.4057 6.11486 48.4252 6.09234 48.4599 6.07883ZM46.2813 5.36487C46.3246 5.43694 46.4872 5.55856 46.3377 5.62838C46.2639 5.66441 46.0775 5.61036 45.9995 5.59459C46.0623 5.37387 46.0623 5.37387 46.2813 5.36487ZM39.6307 5.46847C39.7022 5.48198 39.6762 5.50676 39.6718 5.56757C39.6393 5.64865 39.4876 5.61712 39.5483 5.51351C39.5678 5.47973 39.5895 5.46171 39.6307 5.47072V5.46847ZM32.0414 9.04279C32.0371 9.1036 32.0587 9.13288 31.985 9.13288C31.946 9.13288 31.9243 9.11261 31.9113 9.07658C31.8701 8.97072 32.0197 8.95496 32.0414 9.04279ZM30.6822 9.08559L30.8925 8.89865C31.0919 8.91892 31.3 8.93919 31.506 8.96171C31.5089 9.0503 31.4626 9.13138 31.3672 9.20496C31.183 9.19144 30.8014 9.23423 30.6801 9.08559L30.485 9.25676C30.279 9.24099 30.2682 9.22748 30.2335 9.01577C30.5261 9 30.5261 8.99775 30.6801 9.08559H30.6822ZM34.8443 4.53378C34.84 4.71847 34.7489 4.79955 34.5538 4.77928C34.5646 4.6982 34.5516 4.45495 34.6167 4.3964C34.7077 4.31531 34.7988 4.47748 34.8443 4.53378ZM29.4596 9.04955C29.4509 9.23198 29.3599 9.31532 29.1756 9.29279C29.1843 9.21171 29.1648 8.96622 29.232 8.90991C29.323 8.83108 29.4163 8.9955 29.4596 9.04955ZM28.5838 9.2455C28.6857 9.2027 28.7009 9.35811 28.6164 9.38063C28.5578 9.37613 28.5297 9.39865 28.5297 9.32207C28.5297 9.28153 28.5492 9.25901 28.5838 9.2455ZM28.1937 9.34009C28.2327 9.34009 28.2543 9.36036 28.2674 9.3964C28.3085 9.50225 28.159 9.51802 28.1373 9.43018C28.1416 9.36937 28.1199 9.34009 28.1937 9.34009ZM26.7499 9.08108C26.7673 9.06532 26.7846 9.0518 26.7998 9.03829C26.7955 9.05405 26.7803 9.06982 26.7499 9.08108ZM28.3237 8.53829L28.4538 8.69595C28.4451 8.88288 28.3454 8.9527 28.1806 8.94595C28.1178 8.86937 27.9183 8.70045 27.9422 8.59234C27.9704 8.46396 28.2283 8.53378 28.3237 8.53829ZM27.1445 8.87613C27.1423 8.96396 27.138 9.04955 27.1358 9.13063L27.3049 9.33784C27.2962 9.31081 27.2919 9.29955 27.2875 9.29279C27.2919 9.2973 27.3027 9.30631 27.3201 9.30631C27.3786 9.18018 27.3829 9.09685 27.3873 9.02027L27.5238 8.89865C27.6561 8.87613 27.7298 8.9482 27.7753 9.07883C27.7709 9.13288 27.7883 9.13288 27.7991 9.12838C27.7926 9.13288 27.784 9.14189 27.7688 9.15766C27.6691 9.25901 27.5867 9.38063 27.4414 9.41892C27.3786 9.43694 27.3244 9.40766 27.3027 9.34234C27.203 9.42117 27.1336 9.40766 27.0838 9.36036C26.9819 9.26126 26.8973 9.14189 26.8063 9.02928C26.8041 9.02928 26.802 9.02928 26.7998 9.03378C26.945 8.90315 26.9884 8.85811 27.138 8.87838L27.1445 8.87613ZM26.6654 8.95045C26.7261 8.92793 26.8128 8.98423 26.802 9.03378C26.6459 9.11261 26.5527 8.99324 26.6654 8.95045ZM23.7498 8.84009C23.882 8.87162 24.0034 9.09685 24.0879 9.20045C24.2245 9.08108 24.3546 8.95045 24.4977 8.83784C24.6342 8.73198 24.7144 8.7973 24.8163 8.92117C24.8337 9.04054 24.7469 9.16441 24.8575 9.26351L25.2065 8.95496C25.3214 8.96847 25.4406 8.97973 25.5945 8.99775C25.6899 9.11486 25.8091 9.25 25.9175 9.39865C25.9414 9.43243 25.9175 9.50225 25.9175 9.55405C25.7679 9.54054 25.6184 9.52928 25.4645 9.51577C25.3561 9.53378 25.2845 9.67793 25.148 9.61712L24.8597 9.26351C24.7599 9.35135 24.5974 9.30405 24.4695 9.29279C24.3394 9.28153 24.1747 9.30405 24.0901 9.20045L23.8929 9.37613C23.882 9.45495 23.8712 9.53829 23.8603 9.62838C23.7281 9.66667 23.507 9.65541 23.4181 9.5473L23.2078 9.73198C23.0908 9.72072 22.9694 9.70946 22.848 9.6982C22.7916 9.5473 22.9022 9.50225 22.9976 9.44369C23.1341 9.48874 23.3011 9.40315 23.4181 9.54504C23.5894 9.46622 23.4181 9.20946 23.3704 9.09009C23.4636 9.00676 23.6132 8.80405 23.7519 8.83784L23.7498 8.84009ZM22.499 8.86712C22.3212 8.85811 22.241 8.76351 22.2627 8.57883C22.4405 8.58784 22.5207 8.68243 22.499 8.86712ZM23.6371 5.83108C23.6175 5.86487 23.5959 5.88288 23.5547 5.87387C23.4831 5.86036 23.5092 5.83559 23.5135 5.77478C23.546 5.69369 23.6978 5.72522 23.6371 5.82883V5.83108ZM16.5355 5.81757C16.5269 6.00225 16.4358 6.08559 16.2581 6.06306C16.2667 5.87838 16.3578 5.79504 16.5355 5.81757ZM13.8172 6.92793C13.8887 6.94144 13.8627 6.96622 13.8584 7.02703C13.8259 7.10811 13.6741 7.07658 13.7348 6.97297C13.7543 6.93919 13.776 6.92117 13.8172 6.93018V6.92793ZM10.1342 7.81757C10.0995 7.82883 10.0388 7.82432 10.0128 7.79505C10.2274 7.76802 10.1342 7.81757 10.1342 7.81757ZM11.4175 6.86712C11.4088 7.0518 11.3178 7.13288 11.1422 7.11261C11.0793 7.03153 10.9688 6.96396 11.0555 6.83559C11.1834 6.84685 11.3004 6.85586 11.4175 6.86487V6.86712ZM10.1862 7.73198C10.1125 7.75676 10.0497 7.76802 9.99763 7.77477C9.9521 7.68694 10.1407 7.71396 10.1862 7.73198ZM9.84372 7.67793C9.91308 7.65315 10.0106 7.72523 9.97161 7.77928C9.79386 7.79279 9.75701 7.71171 9.84372 7.67793ZM5.26545 9.52928C5.27412 9.45946 5.31964 9.43018 5.38684 9.45045C5.48222 9.47973 5.52124 9.5991 5.51474 9.68468C5.42152 9.75676 5.2481 9.66442 5.26545 9.52703V9.52928ZM6.22359 8.97522L6.42952 9.22748C6.44903 9.4009 6.44686 9.5518 6.39267 9.69595C6.26911 9.77027 6.20191 9.9527 6.01548 9.90541C5.87675 9.73423 5.70766 9.56757 5.5841 9.38288C5.45187 9.18694 5.65564 9.2027 5.78787 9.21396C5.83556 9.17793 5.88325 9.14414 5.93961 9.1036C5.95045 9.01802 5.96129 8.92568 5.9743 8.83108C6.03499 8.78153 6.09569 8.66216 6.19107 8.71622C6.28212 8.76802 6.21275 8.89189 6.22576 8.97522H6.22359ZM7.72583 8.01126C7.59794 8.0518 7.4592 8.0045 7.3183 7.9955C7.26627 7.90766 7.11019 7.7545 7.29879 7.72748C7.36382 7.71847 7.4527 7.74775 7.5199 7.75C7.63045 7.75451 7.74101 7.75 7.85156 7.75C7.86457 7.88964 7.81254 7.95721 7.72366 8.01351L7.72583 8.01126ZM6.14555 6.56081C6.13471 6.45495 6.1889 6.38514 6.26694 6.32883C6.50323 6.28604 6.73301 6.36486 6.9151 6.35586C7.07984 6.48874 7.04299 6.61712 7.03432 6.74324C7.10803 6.7545 7.13404 6.77477 7.20557 6.73874C7.29012 6.69595 7.36816 6.5991 7.43969 6.53604C7.46354 6.53604 7.52206 6.54279 7.5199 6.5045C7.5199 6.54504 7.63912 6.65315 7.66297 6.68018C7.74101 6.77703 7.82121 6.87162 7.89925 6.96847C8.04666 6.96622 8.08134 6.96171 8.2049 6.85586C8.30028 6.77252 8.38699 6.67342 8.50188 6.62613C8.66663 6.63964 8.78369 6.86487 8.88991 6.99324L9.22157 6.70045C9.36248 6.66441 9.42968 6.75 9.4817 6.86487C9.45569 7.06982 9.29528 7.13739 9.14354 7.21622C8.99613 7.21847 8.98962 7.04955 8.8769 7.00676L8.4737 7.36261C8.54741 7.5 8.69048 7.40991 8.78802 7.47297C8.8032 7.58108 8.70782 7.62387 8.66663 7.6982C8.62545 7.77252 8.63195 7.87613 8.61461 7.96847C8.38916 7.99099 8.35881 7.77252 8.25693 7.63739C8.25043 7.47973 8.4065 7.45721 8.47153 7.36036C8.41301 7.29054 8.35448 7.21847 8.29595 7.1464C8.10952 7.09685 8.04232 7.28153 7.91876 7.35586C7.68465 7.37387 7.44186 7.43018 7.3183 7.1464L7.12537 7.31757C7.11453 7.40315 7.10369 7.49324 7.09068 7.58559C6.93244 7.53153 6.93027 7.53153 6.74601 7.3018C6.66797 7.29054 6.58126 7.27703 6.48805 7.26126C6.4512 7.22297 6.41001 7.17793 6.36666 7.12838C6.37099 7.03829 6.37533 6.94595 6.37966 6.85135L6.14772 6.56757L6.14555 6.56081ZM4.47639 8.07432C4.47205 8.13513 4.49373 8.16441 4.42003 8.16441C4.38101 8.16441 4.35933 8.14414 4.34632 8.10811C4.30514 8.00225 4.45471 7.98649 4.47639 8.07432ZM2.13956 8.23649C1.96181 8.22748 1.8816 8.13288 1.90328 7.9482C2.08103 7.95721 2.16124 8.0518 2.13956 8.23649ZM1.39603 7.81531C1.39169 7.87613 1.41337 7.90541 1.33966 7.90541C1.30065 7.90541 1.27897 7.88513 1.26596 7.8491C1.22477 7.74324 1.37435 7.72748 1.39603 7.81531Z" fill="#9C88BF"/>
</svg>
