<?xml version="1.0" encoding="utf-8"?>
<!-- Generator: Adobe Illustrator 27.7.0, SVG Export Plug-In . SVG Version: 6.00 Build 0)  -->
<svg version="1.1" id="Layer_1" xmlns="http://www.w3.org/2000/svg" xmlns:xlink="http://www.w3.org/1999/xlink" x="0px" y="0px"
	 viewBox="0 0 2000 952" style="enable-background:new 0 0 2000 952;" xml:space="preserve">
<style type="text/css">
	.st0{fill:#FFFFFF;}
</style>
<g>
	<g>
		<path class="st0" d="M217.7,317.5h1.1c-1.1-13.2-1.1-27.6-1.1-41.9V0H269v391.4h-60.1L86,109.7c-9.4-21.5-17.6-46.3-17.6-46.3
			h-1.7c1.1,10.5,1.1,22,1.1,33.6v294.4H16.5V0h67.3L199,266.3C209.5,291.1,215.5,309.2,217.7,317.5"/>
		<path class="st0" d="M402.4,0v260.7c0,57.9,28.1,95.9,83.8,95.9c56.8,0,80.5-38,80.5-95.9V0H618v260.7c0,81-39.7,140-131.8,140
			c-90.9,0-135.1-59-135.1-140V0H402.4z"/>
	</g>
	<polygon class="st0" points="718.9,0 718.9,391.4 957.6,391.4 957.6,347.3 770.1,347.3 770.1,0 	"/>
	<polygon class="st0" points="1060.7,0 1060.7,391.4 1299.4,391.4 1299.4,347.3 1111.9,347.3 1111.9,0 	"/>
	<g>
		<path class="st0" d="M232.1,764.6v-35.3c0-98.1-28.1-143.3-89.3-143.3c-61.2,0-89.3,45.2-89.3,143.3v35.3
			c0,98.1,28.1,143.3,89.3,143.3C204,907.9,232.1,862.7,232.1,764.6 M0,764.6v-35.3C0,613,47.4,541.9,142.8,541.9
			c95.4,0,142.8,71.1,142.8,187.4v35.3c0,116.3-47.4,187.4-142.8,187.4C47.4,952,0,880.9,0,764.6"/>
		<path class="st0" d="M414.5,900.2h82.1c59,0,77.7-33.1,77.7-70c0-37.5-20.9-66.1-72.2-66.1h-87.7V900.2z M414.5,722.2h73.3
			c65.1,0,75.5-34.7,75.5-62.8c0-32.5-14.3-65.6-75.5-65.6h-73.3V722.2z M615.8,655.5c0,36.9-21,71.1-65.6,83.8
			c46.9,8.3,76.6,42.4,76.6,95.9c0,50.2-29.8,107.5-126.8,107.5H363.3V551.3h125.1C589.3,551.3,615.8,609.2,615.8,655.5"/>
		<path class="st0" d="M814.2,952c-92.6,0-129-72.8-129-135.6l50.7-17.1c0,61.7,25.9,108.6,80.5,108.6c57.3,0,74.4-40.8,74.4-95.4
			V551.3h51.3v272.9C942.1,898,898,952,814.2,952"/>
	</g>
	<polygon class="st0" points="1283.9,595.4 1106.4,595.4 1106.4,720.5 1274.5,720.5 1274.5,763.5 1106.4,763.5 1106.4,898.6 
		1287.8,898.6 1287.8,942.7 1055.1,942.7 1055.1,551.3 1283.9,551.3 	"/>
	<g>
		<path class="st0" d="M1368.8,761.3v-28.7c0-119.6,50.2-190.7,143.9-190.7c81.6,0,127.9,44.7,137.8,137.8l-51.3,8.3
			c-4.4-63.9-33.1-102-87.1-102c-61.2,0-90.4,44.7-90.4,143.9V758c0,99.2,31.4,149.9,90.4,149.9c54.6,0,82.7-38,87.1-102.5
			l50.7,10.5c-8.3,77.2-51.3,136.2-141.7,136.2C1415.1,952,1368.8,880.9,1368.8,761.3"/>
	</g>
	<polygon class="st0" points="1702.3,551.3 1702.3,595.4 1825.3,595.4 1825.3,942.7 1877.1,942.7 1877.1,595.4 2000,595.4 
		2000,551.3 	"/>
</g>
</svg>
