<?xml version="1.0" encoding="UTF-8"?><svg id="Layer_1" xmlns="http://www.w3.org/2000/svg" viewBox="0 0 1650.46 2000"><defs><style>.cls-1{fill:#fff;}</style></defs><path class="cls-1" d="m993.07,752.7c.52-.36,1.18-.87,2.03-1.61-.16-.14-.42-.26-.77-.35-.38.56-.79,1.21-1.26,1.96Z"/><path class="cls-1" d="m111.24,1948.43c.48-.59.57-1.29-.64-1.63-.27.67-.57,1.38-.95,2.18.6-.26,1.12-.43,1.59-.55Z"/><path class="cls-1" d="m970.97,777.6c.53-.36,1.19-.87,2.04-1.61-.16-.15-.42-.27-.77-.36-.38.56-.8,1.21-1.27,1.97Z"/><path class="cls-1" d="m1239.48,472.99c-.11-.05-.22-.09-.33-.14-.08.04-.14.09-.21.15.18,0,.36-.01.54-.01Z"/><path class="cls-1" d="m1650.46,24.26c-1.26-2.86-3.66-2.8-6.08-3.16-1.35-1.63-2.79-3.37-4.33-5.22-1.36-.19-2.87-.4-4.33-.6-1.48-1.81-2.91-3.57-4.42-5.41-1.43-.2-2.93-.41-4.18-.58C1623.18,7.1,1628.09,1.59,1623.22,0c-3.07,2.32-6.13,4.64-9.2,6.96-1.83.26-4.82-.05-6.41,1.06-1.66,1.16-1.99,3.86-2.48,5.66-6.75,5.1-13.5,10.21-20.34,15.38-.2,1.42-.4,2.93-.6,4.34-1.85,1.52-3.6,2.96-5.42,4.46-.2,1.45-.41,2.95-.57,4.09-4.34,4.36-10.85,6.31-11.76,13.26-3.1,2.34-6.17,4.66-9.24,6.98-.34,1.45-.67,2.9-1.06,4.6-1.58,1.32-3.31,2.76-5.18,4.33-.18,1.32-.39,2.83-.59,4.27-1.82,1.5-3.58,2.94-5.42,4.46-.2,1.42-.41,2.92-.6,4.33-3.54,3.01-7.72,5.06-10.47,8.82-.22,6.81-7.13,7.31-10.51,11.14-.32,1.46-.65,2.92-1.03,4.65-3.38,2.69-6.93,5.52-10.45,8.31-.29,1.55-.56,3.04-.63,3.43-1.84,2.64-4.51,4.17-6.97,6.12-2.89,2.3-3.78,4.43-4.91,7.9-3.07,2.32-6.14,4.64-9.21,6.96-.31,1.47-.62,2.93-.97,4.62-3.42,2.72-6.97,5.54-10.45,8.31-.31,1.6-.6,3.08-.89,4.56-4.91,3.71-9.82,7.42-14.74,11.15-.44,4.03-2.56,6.89-6.14,8.72-.3,1.48-.59,2.96-.92,4.59-3.46,2.75-7.01,5.58-10.45,8.31-.34,1.66-.64,3.13-.94,4.6-3.07,2.32-6.14,4.64-9.2,6.96-.82,1.99-1.65,3.97-2.48,5.96-3.07,2.32-6.14,4.64-9.2,6.96-.28,1.48-.56,2.96-.87,4.56-1.7,1.38-3.46,2.81-5.27,4.28-.2,1.45-.41,2.97-.6,4.36-1.84,1.51-3.59,2.95-5.21,4.29-.36,1.66-.67,3.12-.99,4.59-3.68,1.76-5.53,4.82-6.14,8.72-3.09,2.34-6.15,4.65-9.22,6.97-.36,1.44-.71,2.88-1.24,5.02-4.97,3.77-10.4,7.87-15.48,11.72-.45,2.01-.78,3.47-1.11,4.92-3.07,2.32-6.14,4.64-9.29,7.03-1.24,2.24-1.15,4.87-3.16,6.67-2.66,2.39-3.49,2.67-3.96,6.64-3.39,2.7-6.94,5.53-10.57,8.43-.2,1.43-.41,2.94-.61,4.36-3.53,2.99-7.7,5.07-10.9,9.37-.33,2.35-.74,5.29-1.1,7.9-5.3,4.01-10.21,7.72-15.17,11.47-.2,1.46-.41,2.97-.62,4.43-1.81,1.49-3.56,2.93-5.42,4.46-.2,1.4-.4,2.9-.6,4.31-5.01,3.79-9.92,7.5-14.83,11.21-.82,1.99-1.65,3.97-2.48,5.96-3.07,2.32-6.13,4.64-9.23,6.98-.21,1.49-.42,3.01-.62,4.46-1.81,1.47-3.58,2.9-5.28,4.28-.3,1.58-.58,3.07-.86,4.56-3.5,1.89-5.84,4.6-6.14,8.73-6.77,5.11-13.51,10.22-20.27,15.32-.21,1.52-.42,3.04-.64,4.65-2.05,1.53-3.89,3.3-6.07,4.67-1.68,1.06-2.81,1.46-3.78,3.3-.7,1.32-.76,2.95-1.55,4.22-.86,1.39-2.05,1.61-3.16,2.67-1.33,1.27-1.38,2.81-2.06,4.4-.86,2-2.06,3.03-3.76,4.39-3.91,3.13-8.09,5.98-12.13,8.95-.23,1.66-.44,3.18-.65,4.69-4.92,3.72-9.83,7.43-14.95,11.31-.64,2.56-1.68,5.08-3.58,6.96-1.11,1.11-1.77,1.76-2.24,2.52-107.71-80.27-241.15-127.84-385.5-127.84-356.46,0-646.47,290-646.47,646.47,0,175.91,70.65,335.6,185.04,452.28-2.25,1.76-4.71,3.43-6.97,5.14-.2,1.43-.41,2.93-.6,4.36-3.63,2.89-7.17,5.72-10.58,8.44-.25,1.92-.43,3.86-1.83,5.31-1.18,1.22-2.5,1.71-3.45,3.21-1.73,2.74-2.05,6.46-5.58,7.61-.82,1.99-1.65,3.97-2.47,5.96-3.07,2.32-6.13,4.64-9.27,7.01-.2,1.43-.41,2.93-.61,4.37-3.63,2.89-7.17,5.72-10.57,8.43-.49,3.79-1.39,4.33-3.94,6.62-2.03,1.83-1.97,4.37-3.15,6.67-4.99,3.78-9.9,7.48-14.88,11.25-.41,2.96-.83,5.99-1.35,9.7-5.53,3.88-10.69,7.8-15.75,12.27.15,3.12-2.15,4.36-4.03,6.31-1.8,1.87-1.82,4.03-3.2,6.11-1.52,2.29-3.7,3.56-4.77,6.24-1.26,3.15-2.78,3.78-5.35,6.07-.17,1.21-.38,2.72-.58,4.15-3.62,2.89-7.17,5.72-10.53,8.4-.41,1.76-.74,3.2-1.08,4.65-3.07,2.32-6.13,4.63-9.28,7.02-1.33,2.52-1.3,5.02-3.61,6.95-2.49,2.09-5.43,3.97-8.04,5.95-.2,1.44-.41,2.94-.61,4.38-3.62,2.89-7.17,5.72-10.79,8.6-.43,3.07-.84,6.06-1.23,8.84-3.3,2.49-6.36,4.81-9.51,7.19-1.32,2.53-1.3,5.02-3.61,6.96-2.49,2.09-5.43,3.97-8.04,5.95-.2,1.44-.41,2.94-.61,4.38-1.83,1.5-3.58,2.94-5.41,4.44-.2,1.43-.41,2.94-.55,3.95-3.72,3.25-7.13,6.23-10.53,9.2.17,3.52-4.45,6.51-6.02,9.49-1.1,2.08-2.1,3.85-3.79,5.52-1.95,1.93-1.75,2.68-2.37,5.36-3.35,2.67-6.9,5.5-10.52,8.4-.2,1.43-.41,2.94-.59,4.24-1.88,1.58-3.6,3.02-5.27,4.42,1.09,5.12-4.39,5.76-6.35,10.16-.25,1.8-.66,4.76-1.09,7.83-6.92,5.08-13.72,10.07-20.46,15.01-.23,1.69-.44,3.19-.62,4.49-1.88,1.58-3.6,3.02-5.16,4.34-.4,1.7-.74,3.15-1.08,4.6-4.9,3.71-9.81,7.41-14.71,11.12-.33,1.45-.67,2.9-1.06,4.59-1.57,1.32-3.3,2.76-5.18,4.33-.18,1.31-.39,2.82-.59,4.26-1.82,1.5-3.58,2.94-5.41,4.44-.2,1.43-.41,2.93-.48,3.46-3.26,4.37-8.05,5.69-10.58,9.65-1.22,4-2.53,5.14-5.96,7.78-3.34,2.58-6.74,5.07-10.11,7.61-.2,1.45-.41,2.95-.7,5.02-3.6,2.61-7.07,5.38-10.77,7.84-4.02,2.67-4.04,4.78-6.19,8.68-3.15,2.38-6.22,4.7-9.28,7.02-.33,1.45-.66,2.91-1.05,4.59-1.58,1.33-3.32,2.77-5.18,4.32-.18,1.33-.39,2.83-.59,4.28-1.82,1.49-3.57,2.93-5.41,4.45-.2,1.42-.41,2.92-.58,4.21-1.89,1.59-3.61,3.04-5.18,4.36-.37,2.49-.92,4.76,1.38,6.7,2.77.39,5.78.81,8.79,1.22,1.48,1.83,2.91,3.58,4.34,5.35,4.86-3.68,9.77-7.39,15.94-12.06.8,7.32,9.97,4.46,11.86,11.06,2.61.51,5.21,1.06,7.84,1.41,1.63.22,4.37-.11,5.81.77,4.13,2.53-1.04,4.3-2.24,6.1.82,3.34,2.93,5.83,5.78,7.79,1.25-.95,2.48-1.87,3.74-2.83,4.18,1.95,5.57,6.43,8.52,9.5,4,1.02,6.84,1.6,6.41,6.19-.39,4.08-1.22,8.09-5.4,9.85-1.08,3.59-2.28,7.1-6.33,8.67-.42,3.04-.84,6.03-1.26,9.09-3.61,2.88-7.16,5.71-10.79,8.61-.41,2.95-.83,5.98-1.21,8.7-1.34,1.2-3.23,2.05-4.31,3.5-1.06,1.42-1.19,3.28-2.22,4.78-1.95,2.85-4.21,5.08-5.95,8.13-1.42,2.48-5.48,4.87-5.07,7.94.43,3.24,4.04,4.13,6.66,4.84,1.58,1.81,3.04,3.5,4.62,5.32,4.5.63,9,1.25,13.21,1.84q3.74,4.76,8.63,1.2c2.69.38,5.66.79,8.67,1.21,2.2-1.5,5.69-3.06,7.39-5.05,1.54-1.81,1.37-4.47,2.81-6.34.8-1.03,2.05-1.37,2.92-2.3,1.15-1.24,1.03-2.01,1.55-3.51.94-2.71,3.2-3.98,5.34-5.7-1.16-1.76-2.32-3.53-3.61-5.48.18-1.28.39-2.79.6-4.3,1.88-2.95,6.02-1.23,8.69-2.7,3.83-2.12,9.14-6.02,11.6-9.63-.04-2.48.37-6.31-3.82-5.24-.62.76-1.84,1.31-1.59.55-3.27,2.45-2.08-.6-2.08-.61.46-.82,1.82-1.83,2.8-1.63.09.02.15.05.23.07,1.13-2.81,1.4-4.68,1.66-6.53,2.45-1.84,4.9-3.69,7.34-5.53,2.43-.7,5.82,1.68,7.2-2.3-.93-1.23-1.86-2.46-2.82-3.73.01-2.71,3.53-3.3,4.59-5.47.78-1.61.34-3.01,1.62-4.53,1.06-1.27,2.64-2.01,3.87-3.1.3-1.46.59-2.93.92-4.56,1.66-1.35,3.42-2.78,5.23-4.26.62-4.47,1.26-9.04,1.88-13.53,1.8-1.46,3.57-2.89,5.25-4.25.31-1.61.6-3.09.89-4.57,2.45-1.85,4.9-3.71,7.44-5.63,1.42.2,2.92.41,4.34.6,4.15-1.77,2.91-5.65,3.84-9.14,1.14-4.28,7.05-7.07,10.43-9.62.31-1.47.62-2.93.95-4.55-1.23-1.77-2.53-3.63-3.84-5.51,2.22-3.59,7.4.49,9.51-3.54q-3.51-4.96-1.25-6.84c2.94.41,5.96.83,8.91,1.24,3.2-3.06,8.73-3.87,8.67-10.11-1.01-1.57-2.23-3.44-3.55-5.5,1.54-1.29,3.18-2.68,4.93-4.16.19-1.36.4-2.88.58-4.21,1.41-2.1,3.27-1.65,5.43-1.87,2.7-.27,3.92-1.32,6.14-2.98,4.96-3.73,10.18-7.14,14.1-11.95.32-2.29.64-4.58,1.07-7.71,3.11-2.35,6.73-5.09,10.33-7.8-1.23-1.8-2.45-3.61-3.68-5.4,2.52-1.91,4.97-3.76,7.41-5.6,3.66-.62,7.35,2.36,11.29-.31.83-3.29,1.72-6.84,2.56-10.16,3.29-2.49,6.36-4.8,9.42-7.12.41-1.51,1.04-4.92,2.47-5.95,1.35-.97,4.32-.58,5.91-.99,2.44-.63,3.77-2.37,6.12-2.76,1.43-.24,4.49.24,5.4-1.48,1.61-3.03-6.31-3.52-7.47-5.54-1.64-2.87,1.08-9.88,3.24-11.51,1.5.13,3,.26,4.61.4,3.61-2.6,7.3-5.24,10.86-7.8,7.28,1.07,7.29,1.02,11.32-.49-1.21-1.82-2.39-3.6-3.67-5.53.18-1.3.39-2.81.61-4.38,1.69-1.39,3.44-2.83,5.29-4.34.2-1.42.41-2.92.48-3.43,3.26-4.38,8.07-5.68,11.04-10.4.31-2.21.72-5.16,1.08-7.76,5.29-4,10.2-7.71,15.16-11.47.2-1.45.41-2.95.63-4.52-1.2-1.77-2.44-3.6-3.69-5.43,2.14-1.62,3.55-1.36,6.26-1.31,7.57-4.65,7.86-5.19,9.97-10.96,3.06-2.31,6.13-4.63,9.42-7.12.39-2.79.8-5.78,1.27-9.13,5.32-4.03,10.75-8.14,15.78-11.94.48-2.07.82-3.52,1.16-4.96,3.06-2.32,6.13-4.64,9.6-7.26.75-2.65,1.1-4.85,3.31-6.7,2.5-2.1,5.4-3.98,8.02-5.96.41-2.96.83-5.99,1.24-8.94,1.83-1.5,3.58-2.94,5.4-4.43.62-4.49,1.26-9.04,1.88-13.56,2.32-.97,4.07-1.45,6.54-1.94.85-.17,1.93-.23,2.59-.88,1.9-1.86,1.52-7.17,1.85-9.55,5.32-4.03,10.23-7.73,15.37-11.62.38-2.77.8-5.75,1.21-8.74,1.82-1.54,3.54-2.99,5.26-4.45-1.16-1.74-2.37-3.55-3.58-5.37,3.39-3.42,7.21-.55,11.82-.78.55-.42,1.63-1.07,2.78-1.83,104.26,72.07,230.6,114.35,366.66,114.35,356.46,0,646.47-290,646.47-646.47,0-182.41-75.96-347.38-197.88-465.03,4.65-3.51,9.16-6.93,13.64-10.31.34-1.45.67-2.9,1.06-4.6,1.57-1.32,3.31-2.76,5.18-4.33.18-1.32.39-2.82.59-4.27,1.82-1.5,3.58-2.94,5.42-4.46.2-1.42.41-2.92.6-4.35,8.67-6.56,17.26-13.05,25.9-19.58.2-1.47.41-2.98.81-5.85,3.14-1.82,7.09-4.11,8.73-5.06,3.12-5.55.98-10.12,5.18-12.51,1.52.14,3.02.27,4.37.4,3.79-1.03,2.89-4.85,4.47-7.07,3.13-2.36,6.19-4.68,9.26-7,.32-1.46.63-2.92,1.01-4.65,3.39-2.7,6.94-5.52,10.45-8.31.3-1.57.57-3.05.85-4.54,4.1-3.1,8.82-5.51,10.69-10.38,1.65-4.29,6.57-6.76,10.19-9.5.31-1.47.61-2.94.95-4.58,1.65-1.35,3.4-2.78,5.23-4.27.2-1.41.41-2.93.61-4.38,1.81-1.47,3.58-2.9,5.26-4.27.32-1.61.6-3.09.9-4.57,4.91-3.71,9.81-7.42,14.72-11.13.38-1.42.76-2.85,1.37-5.11,4.87-3.7,10.3-7.81,15.48-11.74.38-1.87.68-3.34.71-3.47,3.18-4.89,8.25-5.89,10.35-9.8.62-3.31,1.17-6.22,1.62-8.58,3.68-2.78,6.74-5.1,9.81-7.42.29-1.48.57-2.96.92-4.75,5.23-3.98,10.64-8.1,15.95-12.14.48-3.45.89-6.42,1.22-8.75,2.11-1.97,3.72-3.48,5.02-4.7.29-2.12.18-4.68.96-6.7.69-1.79,1.84-2.47,3.16-3.79,2.96.41,5.98.83,8.89,1.24,4.05-2.46,2.72-8.99,8.12-10.21.28-1.48.56-2.97.85-4.54,1.71-1.39,3.47-2.82,5.28-4.29.2-1.46.41-2.97.62-4.46,2.49-1.88,4.94-3.74,7.39-5.59q6.43.11,8.88-6.72c4.91-3.71,9.81-7.42,14.82-11.21.2-1.41.4-2.91.71-5.09,7.01-5.12,15.22-9.82,20.88-16.41.61-3.13,1.17-6.04,1.61-8.32,3.75-2.83,6.82-5.15,9.97-7.54.2-1.43.41-2.93.61-4.36,3.63-2.9,7.18-5.73,10.8-8.62.43-3.06.84-6.05,1.23-8.85,1.68-1.27,5.52-2.82,3.97-5.44-1.23-2.06-5.87-1.61-7.82-1.89-.28,2.04.15,8.32-3.15,8.2-2.48-.09-4.98-5.72-6.25-7.55.3-2.54.46-4.84,2.86-5.93,2.58,1.27,2.73,5.5,6.53,5.28.44-3.17,2.97-4.33,5.4-6.26-1.24-1.81-2.44-3.56-3.63-5.31,4.88-3.69,12.63-7.74,15.86-13.08.76-5.51,1.58-11.4,2.34-16.82,3.73-2.87,10.35-10.24,15.09-9.58.32-2.32,1.58-6.07-.01-8.17-1.38-1.82-4.54-1.92-7.94-.92-.62.75-1.82,1.28-1.58.53-3.27,2.45-2.08-.6-2.08-.61.45-.79,1.74-1.76,2.7-1.64,1.59-3.71,5.21-3.23,7.66-3.07,3.24.21,6.39,1.21,7.97-2.36,3.53-7.96-6.91-4.33-7.17-10.01,3.07-2.32,6.13-4.64,9.22-6.97.35-4.09,2.61-6.86,6.1-8.7,1.5-3.27.14-5.64,4.63-6.3,1.81-.27,3.5.47,5.27.49,2.24.02,3.44-.79,5.42-1.73.21-1.51.42-3.03.62-4.43,1.83-1.5,3.58-2.93,5.06-4.14,1.73-12.49,3.42-24.64,5.07-36.48ZM73.81,1987.11c-1.99-2.73,1.48-8.77,4.99-7.21.01-.03.02-.05.03-.08-.67,4.26-2.09,11.31-5.02,7.29Zm5.32-9.22c-.07.42-.14.96-.24,1.57-.15-.37-.11-.89.24-1.57Zm3.73.91c-.79,1.46-3.31,1.87-3.92.77,1.65-4.06,5.36-3.45,3.92-.77Zm-.32-127.24c-.76,1.89-2.46,3.21-4.88,2.36h0c1.15,1.04-2.27,3.29-3.32,3.69.46-.73.85-1.4,1.2-2.02-2.42,1.61-1.63-.43-1.62-.43.45-.79,1.72-1.75,2.69-1.64,1.35-2.87,1.47-4.4,2.01-5.74.76-1.89,2.46-3.21,4.88-2.36.02-.07.06-.13.08-.2-.36,2.95-.41,4.78-1.05,6.34Zm1.29-8.16c-.09.58-.16,1.11-.22,1.62-.17-.38-.14-.91.22-1.62Zm-.19,1.68c1.65-4.06,5.36-3.45,3.92-.77-.78,1.46-3.31,1.87-3.92.77Zm9.75,56.34c-1.98,3.06-7.42.29-7.22-2.79,1.83-2.84,9.44-.65,7.22,2.79Zm88.06-107.54c-.65.34-1.62.8-1.71,1.34-.98,5.51-4.99,8.32-9.38,10.83-3.31-3.27-.54-6.95-.72-10.44,1.84-3.34,5.39-4.71,8.15-7.02,1.99.59,4.65-.31,5.71,2.41.41,1.05-.41,2.02-2.05,2.89Zm6.58-13.17c-2.86-3.51-2.44-6.56,1.27-9.17,2.86,3.51,2.43,6.56-1.27,9.17Zm54.74-108.91h0c1.16,1.04-2.27,3.29-3.32,3.69.42-.6.81-1.28,1.17-2-2.38,1.58-1.59-.45-1.59-.46.43-.75,1.61-1.65,2.55-1.65,2.11-4.98,3.52-10.44,6.18-6.79,1.99,2.73-1.48,8.77-4.99,7.21Zm26.51-22.06c-3.71,3.03-6.69,2.19-9.43-1.08,2.49-1.88,4.85-3.66,7.23-5.47,4.35,1.11,1.76,4.32,2.2,6.54Zm32.5-36.86c-3.34,1.48-5.1,5.87-9.61,5.22-.31,2.22-.62,4.46-.93,6.69-1.74,1.4-3.49,2.79-5.24,4.18-.21,1.49-.42,2.98-.62,4.44-1.72,1.85-3.87,1.47-6.07,1.69-2,.21-3.84,1.86-6,3-3.68-1.29-1.75-4.22-1.45-6.52,6.12-4.68,12.08-9.27,18.12-13.76.43-.32,1.45.15,2.19.25.32-2.27.63-4.54.96-6.9,2.41-1.78,4.86-3.59,7.36-5.44,3.52,1.77,2.15,4.5,1.28,7.14Zm14.78-19.37c-.97-.87-2.51-4.45.38-4.42,3.57.04.5,3.76-.38,4.42Zm18.6-22.29c-1.25,2.49-4.08-.08-2.81-1.93,1.19-.9,1.34-1.76,2.58-.4.67.72.65,1.49.23,2.33Zm788.15-974.95c2.3.86-1.71,3.52-2.86,3.95,1.01-1.67,1.97-2.95,2.86-3.95Zm-3.28,1.49c.45-.79,1.72-1.74,2.68-1.64-3.63,4.09-2.69,1.65-2.68,1.64Zm-303.56-106.56c107.75,0,207.6,34.21,289.51,92.18-1.24.94-2.48,1.87-3.71,2.81-.33,1.46-.65,2.92-1.02,4.59-1.61,1.33-3.35,2.77-5.2,4.31-.19,1.36-.4,2.87-.88,6.36-2.83,1.5-6.89,3.65-10.9,5.77,1.17,4.2-1.88,5.29-4.02,8.1-2.21,2.91-2.51,7.1-6.29,8.64-.6,2.6-1.72,4.99-3.59,6.9-2.69,2.75-2.75,2.73-3.55,6.47-3.41,2.71-6.96,5.54-10.45,8.31-.31,1.59-.59,3.07-.88,4.55-3.07,2.32-6.14,4.64-9.44,7.14-1,3.31-2.13,6.88-5.92,8.57-.84,3.77-2.41,7.02-6.15,8.61-.37,3.76-2.51,7.32-.46,11.03,2.77,1.15,9.07,2.32,8.07,6.78,3.43,1.41,2.84,5.37.09,3.89-1.5-.81-1.9-3.46-1.12-4.04-5.89-.84-10.94-1.54-15.98-2.24-2.45,1.85-4.91,3.71-7.36,5.57-.34,1.45-.67,2.9-1.06,4.6-1.58,1.32-3.31,2.76-5.18,4.33-.18,1.32-.39,2.83-.59,4.21-2.4,3.89-7.61-.04-10.02,4-.18,1.31-.39,2.81-.59,4.26-3.49,2.01-6.09,4.54-6.23,8.78-4.92,3.72-9.83,7.43-14.74,11.14-.32,1.46-.64,2.92-1.08,4.9-5.11,3.87-10.53,7.98-15.48,11.72-.55,2.18-.92,3.62-1.28,5.05-4.91,3.71-9.82,7.42-14.9,11.26-.4,2.86-.81,5.86-1.24,8.91-3.61,2.88-7.17,5.7-10.64,8.47-.32,1.61-.61,3.09-.9,4.58-3.56,1.85-5.74,4.67-6.02,7.48-4.65,4.12-8.65,7.66-12.11,10.72-3.27-.49-5.55-1.05-7.49,1.27-.38,2.76-.8,5.78-1.15,8.31-7.07,5.34-13.79,10.42-19.82,14.98-1.21,2.93-2.04,4.92-3.41,8.21-5.79,4.27-12.56,9.27-19.41,14.34-.29,1.32-.61,2.78-1.04,4.76-4.2.8-4.89,4.68-5.91,8.12-3.21,2.43-6.28,4.74-9.59,7.26-.39,2.77-.8,5.75-1.25,9.02,1.61,2.66,3.01,5.96,6.53,7.51,2.4-1.91,4.77-3.79,6.91-5.49.42-1.82.75-3.27,1.09-4.72,2.92-2.21,5.9-5.77,9.65-5.25.43-3.13,2.91-3.9,5.46-5.54.32-2.34.53-3.82.72-5.21,1.81-1.45,3.54-2.84,5.29-4.24.21-1.51.42-2.98.6-4.3,2.46-3.66,7.58.39,9.86-3.85.17-1.25.38-2.72.57-4.1,4.95-3.75,12.15-7.54,15.66-12.67.39-1.38.78-2.76,1.09-3.89,2.85-2.22,5.81-5.86,9.51-5.35.31-2.24.62-4.49,1.08-7.79,3.17-2,6.98-4.4,10.15-6.4.48-2.43.77-3.88,1.06-5.33,2.02-2.41,5.15-.82,7.57-2.09,2.03-1.07,2.34-3.61,2.89-5.67,3.73-2.85,10.25-10.07,14.97-9.42,1.1-3.56,1.48-3.84,5.37-4.95,1.41-3.43,5.37-2.84,3.89-.09-.87,1.61-3.85,1.95-4.13.94-1.09,3.76-1.65,4.01-5.13,4.1-.52,3.73-1.04,7.46-1.57,11.28-6.79,5.43-13.93,10.55-20.68,15.8,1.15,2.44,3.29,3.44,3.02,5.91-.33,3.05.4-.74-1.85,1.36-2.98-.42-5.97-.83-9.87-1.37-1.18,1.05-2.79,2.63-4.58,3.97-.43.32-1.44-.14-2.19-.25-.32,2.28-.63,4.55-.94,6.77,1.33,1.88,2.64,3.72,3.9,5.51-.29,1.59-.57,3.06-.85,4.55-3.41,1.92-5.93,4.49-6.09,8.64-2.91,2.21-5.87,5.79-9.61,5.27-.45,3.25-3.05,4.46-5.54,6.44-.32,1.64-.62,3.11-.91,4.58-4.9,3.7-9.8,7.41-14.72,11.13-.45,4.01-2.54,6.89-6.13,8.72-.3,1.48-.6,2.95-.94,4.61-3.43,2.73-6.98,5.55-10.45,8.31-.31,1.61-.6,3.09-.89,4.57-3.53,1.86-5.78,4.64-6.13,8.72-4.92,3.72-9.82,7.42-14.72,11.13-.31,1.47-.61,2.93-.96,4.61-3.42,2.72-6.97,5.54-10.45,8.3-.31,1.59-.59,3.07-.88,4.55-2.89,2.19-5.8,4.37-8.69,6.57-2.59,1.96-5.56,3.52-6.87,6.51-.32,2.28-.63,4.57-1.06,7.61-4.97,3.79-10.38,7.92-15.62,11.92-.33,1.75-.61,3.23-.89,4.72-3.48,1.9-5.86,4.57-6.13,8.72-3.08,2.32-6.14,4.64-9.2,6.96-.4,1.41-.8,2.82-1.28,4.55-6.26,6.26-14.51,10.51-20.9,16.76-.41,1.64-.77,3.07-1.13,4.51-3.06,2.31-6.13,4.63-9.21,6.96-.62,3.89-2.44,6.96-6.12,8.72-.32,1.47-.64,2.93-1.07,4.9-5.1,3.86-10.52,7.97-15.61,11.82-.42,3.94-1.39,4.57-4.02,6.93-2.19,1.96-2.24,5.13-3.68,7.55-6.11,4.48-12.91,9.46-19.67,14.42-.23,1.63-.44,3.13-.63,4.57-3.51,2-6.07,4.55-6.23,8.77-3.08,2.32-6.14,4.64-9.22,6.97-.71,3.83-2.4,6.99-6.12,8.71-.33,1.46-.66,2.92-1.04,4.6-1.59,1.32-3.32,2.76-5.18,4.32-.18,1.33-.39,2.84-.68,4.88-3.79,2.73-7.73,5.31-11.49,8.03-2.8,2.02-3.26,5.03-5.17,7.68-1.02,1.42-2.55,2.05-3.62,3.36-1.1,1.35-1.04,2.96-1.78,4.44-1.84,3.69-7.15,6.38-10.39,8.83-.2,1.44-.41,2.94-.61,4.39-1.82,1.49-3.58,2.93-5.41,4.43-.2,1.43-.41,2.94-.6,4.35-3.78,2.86-10.45,10.15-15.23,9.48-.32,2.27-.63,4.54-.94,6.76-1.79,1.45-3.55,2.87-5.24,4.23-.3,1.59-.57,3.07-.84,4.55-3.05,2.3-6.1,4.61-9.15,6.92-.81,1.98-1.63,3.96-2.44,5.94-4.25,2.86-7.8,6.73-12.63,8.76-3.02-3.63-.06-7.34-.38-11.11-1.23-1.73-2.53-3.58-3.85-5.44.2-1.47.42-2.98.62-4.49,4.89-3.7,9.77-7.39,14.72-11.12,1.81-2.11.74-6,4.36-7.19,5.18.72,10.48,1.46,15.78,2.19.6-4.36-5.1-9.5-7.69-12.96.95-2.44.42-4.54-.93-6.67-1.31-2.06-2.69-3.44.36-4.81,3,.42,6.01.84,9.25,1.29,2.26-1.81,4.63-3.71,7.22-5.79.82-3.2,1.73-6.71,2.54-9.88,1.59-1.2,2.81-2.12,4.02-3.04.75-2.38.58-5.36,3.3-6.41,2.58-.99,5.28.7,7.43-1.79.18-1.3.39-2.79.59-4.25,3.53-2.81,6.99-5.57,10.34-8.24-1.23-1.92-2.34-3.65-3.44-5.37,3.31-2.5,6.35-4.8,9.77-7.39-1.03-1.67-2.07-3.37-3.15-5.13,1.5-3.53,4.82-1.41,7.12-2.05,2.58-1.91,5.03-3.72,7.43-5.49.43-3.11.85-6.13,1.17-8.46,2.4-4.55,7.68-.25,10.05-4.7.15-1.06.36-2.55.53-3.84,1.87-1.57,3.59-3,5.26-4.39-1.2-4.8,4.06-5.54,5.23-8.77-1.42-1.87-4.72-4.64-1.15-6.23,2.37-1.06,7.69.74,10.22,1.09,1.69-2.55,2.34-5.7,4.32-8.08.9-1.07,2.53-1.66,3.24-2.77.79-1.26.64-3.56.97-4.97,3.01-1.82,6.9-4.16,10.04-6.06.48-3.46.79-5.73,1.11-7.99-5.33-.74-10.66-1.48-15.86-2.21-2.15.74-2.36,2.49-3.01,4.34-.72,2.06-1.5,3.02-3.24,4.41-4.08,3.26-8.46,6.14-12.75,9.11-.51,3.68-.93,6.7-1.32,9.54-1.87,1.56-3.6,3.01-5.18,4.33-.39,1.7-.72,3.14-1.06,4.59-3.36,2.98-7.73,4.8-10.15,8.86-.4,2.91.12,7.63-2.96,9.1-2.75,1.32-5.44-.87-7.69,2-.37,2.63-.78,5.61-1.23,8.82-2.52,1.96-5.29,5.18-8.47,5.93-2.53.6-5.17-.6-6.89,2.07-.17,1.25-.38,2.76-.47,3.36-3.25,4.28-8.01,5.64-11.01,10.22-.32,2.29-.73,5.24-1.09,7.87-3.43,2.6-6.5,4.91-9.56,7.23-.34,1.44-.69,2.89-1.12,4.7-3.32,2.63-6.88,5.45-10.49,8.32-.2,1.45-.41,2.96-.58,4.18-4.37,4.24-10.79,6.25-11.76,13.19-3.06,2.32-6.13,4.64-9.19,6.95-.34,1.45-.69,2.89-1.09,4.6-1.56,1.31-3.28,2.76-5.16,4.35-.18,1.29-.39,2.79-.59,4.21-1.84,1.51-3.59,2.95-5.41,4.45-.2,1.44-.41,2.95-.59,4.27-1.87,1.56-3.6,3-5.18,4.32-.39,1.69-.72,3.14-1.05,4.59-4.9,3.71-9.81,7.41-14.71,11.12-.34,1.45-.68,2.89-1.11,4.68-3.33,2.65-6.89,5.47-10.5,8.35-.41,2.97-.83,6-1.25,8.96-3.53,2.98-7.67,5.08-10.72,9.08-.1,2.67-.22,5.65-.34,8.64,3.29,2.1,2.69,6.04,3.46,9.34.48,2.05,2.13,2.94,2.76,4.57.56,1.45-.04,3-.1,4.53-1.61,1.35-3.33,2.81-5.22,4.4-.39,2.8-.81,5.83-1.28,9.2-2.37,1.6-4.9,3.31-7.87,5.31-3.06.06-6.79.3-10.01-1.96-.96-1.27-1.89-2.5-2.93-3.87-1.78,1.22-3.58,2.44-5.46,3.72-2.91-.4-5.95-.83-9.07-1.26-2.39,1.85-4.82,3.72-7.31,5.65-.32,1.34-.67,2.78-1.08,4.5-1.55,1.3-3.27,2.76-5.15,4.35-.18,1.27-.39,2.77-.58,4.19-1.85,1.52-3.6,2.96-5.41,4.45-.2,1.45-.41,2.96-.61,4.42-6.8,5.14-13.54,10.24-20.29,15.33-.35,1.45-.69,2.89-1.1,4.6-1.55,1.31-3.27,2.76-5.16,4.35,0,.06-.02.13-.03.2-83.11-89.67-134.04-209.55-134.04-341.16,0-277.03,225.38-502.41,502.41-502.41Zm272.08,146.24c-.93.17-1.62.04-2.18-.86-.97-1.56-.1-1.48,1.09-2.37,2.03-.69,4.01,2.68,1.09,3.23Zm-61.5,79.23c-1.25,2.49-4.08-.08-2.81-1.93,1.19-.9,1.34-1.76,2.59-.4.66.73.65,1.49.23,2.33Zm-11.05,12.45c-1.25,2.49-4.08-.08-2.81-1.93,1.19-.9,1.34-1.76,2.58-.4.66.72.65,1.49.23,2.33Zm-24.21,25.65c.47-.77.89-1.46,1.28-2.08-2.51,1.71-1.71-.37-1.7-.38.46-.82,1.83-1.83,2.8-1.63.06.01.11.03.17.05,2.24-3.32,3.13-3.51,5.98-3.58.29-2.06.21-4.27.96-6.15.76-1.89,2.46-3.21,4.88-2.36.02-.07.06-.13.08-.2-.36,2.95-.41,4.78-1.04,6.35-.76,1.89-2.47,3.21-4.88,2.36-1.11,3.56-1.48,3.84-5.21,3.94h0c1.16,1.04-2.27,3.3-3.31,3.69Zm14.69-18.15c-.09.58-.16,1.11-.22,1.62-.17-.38-.14-.91.22-1.62Zm3.73.92c-.78,1.46-3.31,1.87-3.92.77,1.65-4.06,5.36-3.45,3.92-.77Zm-40.52,42.12c.47-.77.89-1.45,1.28-2.07-2.5,1.7-1.7-.38-1.7-.38.46-.82,1.83-1.83,2.8-1.64.06.01.11.03.16.05,2.24-3.32,3.13-3.51,5.98-3.58.18-1.32,1.54-11.94,4.99-7.21,1.99,2.73-1.48,8.77-4.99,7.21-1.11,3.56-1.48,3.84-5.21,3.94,0,0,0,0,0,0,1.15,1.04-2.27,3.29-3.32,3.68Zm-206.76,273.13c-.17-.93-.04-1.62.86-2.18,1.56-.97,1.48-.1,2.38,1.09.68,2.03-2.68,4.01-3.23,1.09Zm-121.28,142.65c.42-.59.8-1.27,1.17-1.99-2.38,1.58-1.59-.45-1.59-.46.43-.75,1.61-1.66,2.55-1.65,2.11-4.99,3.52-10.44,6.18-6.79,1.99,2.73-1.48,8.77-4.99,7.2h0c1.15,1.04-2.27,3.3-3.32,3.69Zm-4.59,8.4c-.93.18-1.62.04-2.18-.85-.97-1.57-.1-1.48,1.09-2.38,2.03-.69,4.01,2.68,1.09,3.23Zm-11.05,12.45c-.93.17-1.62.04-2.18-.86-.97-1.57-.1-1.47,1.09-2.37,2.03-.69,4.01,2.68,1.09,3.23Zm-47.44,15.45c-3.65,2.76-9.48.73-13.9.12-3.34-.46-11.68-1.24-6.06-5.49,2.23.31,8.03,2.34,10.09.78,2.57-1.96-.61-4.47-1.9-6.17,2.24-2.86,4.97-5.06,8.35-6.25,2.44.08,4.44.84,5.55,3.05-1.75,1.42-3.5,2.84-5.19,4.21-.13,1.63-.26,3.12-.36,4.42,1.2,1.87,2.31,3.62,3.41,5.34Zm-9.68,121.89c-2.86-3.51-2.43-6.56,1.27-9.16,2.86,3.51,2.44,6.56-1.27,9.16Zm-16.69-97.86c-3.52,2.86-6.56,2.43-9.17-1.27,3.52-2.86,6.56-2.43,9.17,1.27Zm-62.8,49.45c-.72-4.43,5.18-4.57,4.55.79-.58,4.88-5.24,4.14-4.55-.79Zm6.53,74.95c.64-.52,1.23-1.01,1.89-1.55.41-2.92.83-5.95,1.24-8.94,1.79-1.45,3.56-2.88,5.16-4.17.23-1.67.44-3.17.61-4.39-1.29-1.99-2.43-3.74-3.51-5.42,2.66-2.06,5.08-3.94,7.44-5.77,4.66.65,9.21,1.28,13.77,1.91,1.55,1.31,1.94,2.56.88,3.39-3.01,2.37-6.1,4.64-9.24,7.02-.41,2.94-.83,5.95-1.24,8.93-3.61,2.87-7.16,5.69-10.75,8.54-.24,1.7-.46,3.28-.68,4.92-1.85-1.49-3.74-2.95-5.57-4.47Zm-150.22,92.93c.73-.66,1.49-.65,2.33-.23,2.49,1.25-.08,4.08-1.93,2.81-.9-1.19-1.76-1.34-.4-2.59Zm11.3,77.56c-3.35,1.48-5.1,5.87-9.61,5.22-.29,2.11-.59,4.25-.89,6.38-4.16,3.2-4.6,3.1-8.71-.15,5.28-5.23,5.26-5.26,9.6-6.25.31-2.27.63-4.54.96-6.9,2.41-1.78,4.86-3.6,7.36-5.45,3.52,1.77,2.15,4.5,1.29,7.14Zm7.29-15.75h0c1.15,1.04-2.27,3.29-3.31,3.69.37-.68.71-1.3,1.02-1.91-2.19,1.39-1.44-.54-1.44-.55.42-.74,1.57-1.63,2.51-1.65,1.84-4.03,2.17-6.38,2.5-8.73h0c-1.04,1.15-3.29-2.27-3.69-3.32.66.37,1.27.65,1.84.91-1.25-2.05.61-1.33.61-1.33.65.37,1.4,1.29,1.6,2.14,3.63.96,5.04-.75,6.88-2.27,5.19,5.49-2.43,13.86-8.51,13.01Zm27.94,50.48c-.97-.86-2.51-4.45.38-4.42,3.57.04.5,3.76-.38,4.42Zm10.06-89.44c-.22,1.59-.43,3.1-.63,4.58-4.32,3.26-8.6,6.5-12.86,9.72-1.96-1.62-1.52-3.79-1.77-5.99-.23-2.04-1.9-3.91-3.06-6.07,2.01-2.64,4.78-4.78,8.23-6.01,4.19,1.22,6.46-1.34,8.87-3.64,1.75,1.47,3.49,2.96,5.25,4.41-1.34,1-2.69,2.01-4.03,3Zm916.58-502.33c0,277.03-225.38,502.41-502.41,502.41-99.78,0-192.78-29.36-271.04-79.72,1.17-.92,2.35-1.87,3.5-2.78.28-2.44,1.1-4.75-1.26-6.68-1.7,1.14-3.49,2.33-5.4,3.61-1.33-.18-2.84-.39-4.39-.61-3.05-3.72-2.13-10.96,1.98-13.59,2.26,0,4.62,1.32,6.77-1.45.34-2.48.76-5.45,1.33-9.59,3.38-1.97,7.32-4.27,10.43-6.08.4-2.88.61-4.39.82-5.9,4.46-3.38,10.52-6.67,14.18-10.93,3.85-4.48,2.01-11.54,5.05-16.63,5.62-4.15,12.38-9.16,19.19-14.19.28-1.39.58-2.86.82-4.01,1.38-1.31,3.51-2.3,4.49-3.98.82-1.41.89-3.04,1.86-4.43,1.07-1.52,2.71-2.52,3.79-4.01,1.16-1.6,1.46-3.56,2.2-5.36,3.08-2.33,6.14-4.64,9.5-7.18.54-3.88.37-8.81,1.83-12.46,1.21-3.03,3.93-3.1,6.93-3.14,3.33-2.08,5.92-3.69,8.14-5.07.17-2.15.29-3.65.4-4.97-1.31-1.99-2.54-3.86-3.62-5.49.24-2.64.59-4.86,3.27-6.12,4.67.65,11.51,3.06,15.55.45.83-3.3,1.71-6.84,2.54-10.13,3.33-2.52,6.39-4.84,9.63-7.28.4-2.85.81-5.86,1.24-8.91,3.6-2.86,7.15-5.68,10.77-8.56.42-3,.84-6.01,1.14-8.2,1.93-3.2,4.3-2.22,6.54-2.05,3.23-1.79,6.45-3.64,8.56-6.85.63-4.57,1.22-9.15,1.89-13.72.29-2,.23-4.99,1.07-6.83.63-1.37,1.69-2.02,2.67-3.11,1.43,1.74,2.87,3.49,4.22,5.13,2.4.27,4.7,1.07,6.71-1.38.58-4.19,1.21-8.71,1.81-13.05,2.82-2.36,4.96-5.34,8.76-5.67.98,1.3,1.91,2.53,2.89,3.83,3.42-2.38,4.41-4.77,1.86-8.41-2.34-3.34-2.95-6.95,1.12-9.41,1.5.21,3.02.42,4.52.63,2.47-1.87,4.92-3.72,7.58-5.73.39-2.81.81-5.81,1.22-8.81,1.83-1.52,3.56-2.96,5.42-4.51.19-1.33.4-2.84.63-4.55,4.25-3.09,8.59-6.24,13.18-9.57,2.2.07,5.2.52,6.71-1.48,1.96-2.59.58-6.89,2.38-9.79,3.09-2.34,6.15-4.65,9.22-6.97.33-1.45.66-2.9,1.05-4.59,1.58-1.32,3.31-2.76,5.18-4.33.82-5.88,1.66-11.95,2.58-18.59,3.47-2.55,6.94-5.11,10.42-7.66,3.01-2.2,6.31-5.95,10.1-5.42.29-2.09.58-4.19,1.05-7.59,3-1.95,6.37-5.36,10-4.86-1.16-7.17,10.87-1.31,13.73-4.37,1.36-1.45.96-3.62,2.32-5.35,1.33-1.7,3.34-2.72,4.58-4.51-.46-3.49,2.71-4.47,4.52-6.72,1.81-2.26,1.77-5.13,3.98-7.29,2.34-2.29,5.51-3.95,8.06-6.04,3.5-2.85,7.21-5.41,10.81-8.13.88-6.33,1.72-12.39,2.53-18.19,2.44-2.99,4.35-.63,7.28-1.66,2.66-.93,1.81-2.58,2.72-4.72,1.44-3.38,6.44-4.59,5.95-8.88,4.93-4.74,10.28-8.65,15.77-12.71.25-1.78.46-3.3.66-4.79,2.56-1.93,5.21-1.1,7.84-2.51,2.06-1.1,2.36-3.51,2.92-5.62,2.69-2.04,9.11-5.18,9.29-8.59-1.77-2.34-4-4.41-2.77-7.61,1.34-3.49,4.55-3.01,7.65-2.92,2.69-1.91,5.19-3.69,7.6-5.41.24-1.71.45-3.22.63-4.57,1.85-1.54,3.59-2.98,5.42-4.49.42-3,.83-6,1.23-8.82,3.27-2.47,6.34-4.79,9.4-7.11l2.47-5.96c3.07-2.32,6.13-4.64,9.29-7.02.2-1.42.41-2.93.6-4.34,1.84-1.52,3.6-2.96,5.42-4.46.2-1.45.41-2.95.61-4.41,6.81-5.15,13.56-10.25,20.54-15.52.39-2.79.8-5.78,1.23-8.84,3.62-2.89,7.17-5.72,10.8-8.62.2-1.43.41-2.93.6-4.35,3.53-3,7.7-5.07,10.47-8.81.87-4.44.65-9.09,2.88-14.04,6.25-4.58,13.05-9.57,19.83-14.55.23-1.62.43-3.12.64-4.59,6.13-1.51,4.18-9.81,9.93-11.55l2.47-5.96c4.91-3.71,9.81-7.42,14.76-11.16.42-3,.84-6.04,1.25-9.03,5.27-4.4,11.14-7.98,15.67-12.24,1.05-5.21.75-9.87,2.77-14.08,4.91-3.71,9.82-7.42,14.74-11.15.21-1.5.42-3.02.92-6.66,2.74-1.42,6.82-3.54,9.88-5.13.38-1.45.29-3.75,1.12-5.04.62-.96,1.91-1.46,2.72-2.29,2.16-2.21,3.12-5.24,3.91-8.16,6.08-4.58,12.73-9.6,19.3-14.55-.92-1.45-2.02-3.19-3.1-4.91,1.38-1.04,2.89-1.57,3.86-3.05.93-1.42,1.22-3.31,2.22-4.78,1.93-2.83,4.76-4.86,7.86-6.27,2.24.34,4.52.88,6.45-1.42.39-2.77.8-5.79,1.16-8.37,6.89-5.19,13.52-10.2,20.02-15.1,90.21,90.87,146.05,215.9,146.05,353.76Zm-29.85-581.1c-.19,1.38-.4,2.88-.59,4.28-2.76,2.09-14.53,8.41-6.53,10.6,2.24.62,5.26.75,3.6,3.86-1.38,2.58-6.82,5.18-9.17,6.96-.63,1.89.2,5.27-2.5,5.83-2.49.52-2.92-2.61-4.44-3.84-2.57.44-6.27,3.1-7.7,5.29-1.44,2.22-.84,5.54-3.85,6.57-2.15-.3-4.44-.62-6.71-.93-1.11,3.56-1.48,3.84-5.21,3.94-.31,2.22-.62,4.44-.98,7.04,1.28,1.48,2.73,3.17,4.09,4.74-2.34,3.25-11.12.07-10.23,5.86.12.04.22.09.33.14.38-.21.93-.2,1.68.19-.47-.04-.92-.05-1.35-.05,3.7,1.71,3.04,5.18.44,3.78-1.36-.73-1.81-2.97-.98-3.77-3.23.11-5.22,1.3-5.54,3.44-.39,2.53,2.19,5.4,3.33,7.43-2.11,2.3-4.32,4.87-7.95,5.32-.97-1.29-1.9-2.51-2.83-3.75-2.27.74-4.15,2.06-5.96,3.5-1.66-1.33-3.3-2.68-4.97-3.99,2.66-2.76,6.06-4.7,9.06-7.24.2-1.43.41-2.94.61-4.38,5.43-4.26,10.79-8.46,15.62-12.24.82-2.71,1.48-7.97,5.63-6.04,1.11-3.56,1.48-3.84,5.21-3.94.32-2.28.63-4.56.94-6.77,1.8-1.46,3.57-2.89,5.39-4.36.42-3.02.84-6.02,1.22-8.8,1.92-2.28,4.19-1.77,6.42-1.42q7.48-5.11,9.94-11.05c3.06-2.31,6.12-4.63,9.18-6.94,2.03-7.78,4.29-8.6,10.4-3.39-1.99,1.3-3.86,2.54-5.61,4.13Zm13.12-10.22c-2.19-.31-9.6.05-10.31-2.86-.63-2.56,4.82-5.49,6.57-6.98,2.1.29,3.58.5,5.06.7,2.54,5.04,2.54,5.06-1.32,9.14Zm13.42-18.13c-.73.67-1.49.65-2.33.23-2.49-1.25.08-4.08,1.93-2.81.9,1.19,1.76,1.34.4,2.58Zm8.54-14.35c.45-.79,1.72-1.74,2.68-1.64-3.64,4.09-2.69,1.65-2.68,1.64Zm.42,2.45c1.01-1.67,1.97-2.96,2.86-3.95,2.29.86-1.71,3.52-2.86,3.95Zm7.37-4.79c-.88,1.62-3.91,1.95-4.04.32,3.16-3.24,5.16-2.41,4.04-.32Zm12.84-19.85c-.31,2.27-.63,4.54-.96,6.9-2.41,1.78-4.86,3.6-7.36,5.44-3.52-1.77-2.15-4.5-1.26-7.22,3.18-1.66,5.31-5.37,9.64-5.58.12-.87,1.48-11.49,4.93-6.75,1.99,2.73-1.48,8.77-4.99,7.21Z"/><path class="cls-1" d="m365.93,1524.16c-.66-.18-1.39-.44-2.21-.81.35.57.92,1.34,1.85,2.41.17-.19.31-.48.4-.94.04-.21.02-.43-.04-.66Z"/><path class="cls-1" d="m241.57,1671.39c-.3.72-.62,1.43-.96,2.1.54-.36,1.24-.9,2.15-1.69-.19-.17-.48-.31-.94-.4-.08-.01-.16-.01-.25-.01Z"/><path class="cls-1" d="m643.78,1191.35c-.3.72-.62,1.43-.96,2.1.54-.36,1.24-.9,2.15-1.69-.19-.17-.48-.31-.94-.4-.08-.01-.16-.01-.25-.01Z"/><path class="cls-1" d="m76.61,1853.51c-.29.63-.64,1.31-1.07,2.07.53-.36,1.22-.89,2.11-1.66-.19-.17-.48-.31-.94-.4-.03,0-.07,0-.11,0Z"/><path class="cls-1" d="m363.07,1534.49c-.31.68-.67,1.41-1.07,2.19.56-.35,1.3-.91,2.3-1.78-.19-.17-.48-.31-.94-.4-.09-.02-.19-.02-.29-.01Z"/><path class="cls-1" d="m1040.55,692.18c.34.05.68.09,1.03.15-.45-.32-.79-.32-1.03-.15Z"/><path class="cls-1" d="m1601.58,109.68c.52-.63.64-1.41-.86-1.72-.03,0-.07,0-.09,0-.27.63-.49,1.36-.63,2.25.53-.2,1.06-.38,1.58-.53Z"/><path class="cls-1" d="m788.17,961.75c-.94-1.25-1.87-2.47-2.82-3.73.94-4.55,4.37-1.84,6.79-2.31,2.36-1.79,4.79-3.63,7.38-5.58-1.2-1.77-2.4-3.54-3.72-5.49,2.39-1.68,4.86-3.4,7.67-5.37,1.91-.21,5.35.28,6.78-1.29,1.8-1.98,1.47-7.32,1.81-9.78,5.76-1.22,4.21-7.86,8.35-10.2,1.38.19,2.87.4,4.36.6,1.89-1.34,3.72-2.64,5.59-3.97,2.22.31,4.48.62,6.77.94-.74,1.61-.44,2.99.99,3.99,1.48,1.03,2.7-.13,3.58-3.35-1.51-.21-3.03-.42-4.54-.63.1-5.92,2.88-11.69,1.5-17.56-4.74-1.26-8.86-4.13-13.06-.2-.2,1.47-.41,2.98-.69,5.01-2.7.52-5.54.54-8.08,1.7-2.59,1.19-4.54,3.37-6.75,5.09-.5,1.99-.86,3.42-1.21,4.84-3.04,2.3-6.08,4.6-9.21,6.96-1.36,2.56-1.35,4.84-3.56,6.91-2.25,2.11-5.41,3.96-7.9,5.85-.28,1.47-.56,2.94-.86,4.55-1.67,1.35-3.43,2.76-5.23,4.22-.2,1.43-.41,2.94-.61,4.4-1.79,1.43-3.55,2.85-5.16,4.14-.23,1.67-.44,3.15-.63,4.56,1.91,2.53,3.75,4.96,5.61,7.42,2.53.41,5.45,2.35,6.89-1.71Z"/><path class="cls-1" d="m736.62,1018.13c2.6-1.99,1.98-3.74,3.48-6.27,3.67-2.88,10.39-10.48,15.11-9.82.52-3.76,1.04-7.52,1.57-11.31,6.98-5.64,14.46-10.7,21.02-16.22q-.23-6.58-5.98-7.44c-1.42-1.74-2.8-3.43-3.96-4.85-6.22,4.53-12.34,9-18.33,13.37-.45,3.25-.87,6.25-1.28,9.21-3.62,2.73-7.1,5.65-10.83,8.23-3.91,2.69-3.95,4.8-6.07,8.64-3.11,2.35-6.14,4.64-9.18,6.94-.37,4.01-2.5,6.82-6.04,8.64-.58,2.59-2.27,5.41,1.57,7.01,1.64-1.24,3.61-3.95,5.68-2.2,1.84,1.56.24,6.13-.05,8.17,3.79.52,7.01-3.52,9.91-5.81,1.66-2.33.79-4.3,3.38-6.29Z"/><path class="cls-1" d="m1143.87,686.56c-.32,2.29-.63,4.57-1.12,8.09-6.76,5.54-6.83,5.8-3.56,11.22,2.17.14,4.5,1.26,6.61-1.39.35-2.51.76-5.48,1.33-9.55,3.38-1.99,7.29-4.3,11.26-6.64-2.5-3.25-4.37-5.66-6.25-8.1-3.28,1.38-6.17,3.38-8.27,6.38Z"/><path class="cls-1" d="m505.89,1274.84c2.86.74,5.86.94,8.69,1.33,2.78-4.97,8.47-2.15,12-5.15-1.2-1.72-2.39-3.47-3.62-5.19-.88-1.22-1.57-2.9-2.77-3.5-2.03-1,.55-5-3.34-4.45-2.27,1.76-4.65,3.61-7.1,5.5-.58,3.7-2.28,6.77-6.02,8.51.72,1.03,1.26,2.69,2.16,2.93Z"/><path class="cls-1" d="m754.89,1004.29s-.31,2.27-.63,4.52c4.05,7.01,10.36.37,14.44-2.78-.3-3.88,2.63-7.59-.8-11.51-3.46,2.6-6.95,5.22-13.01,9.77Z"/><path class="cls-1" d="m1630,88.99c-2.37,1.79-4.72,3.57-7.1,5.37-.13,4.41,3.53,3.05,5.79,3.81,2.37-1.79,4.72-3.57,7.1-5.37.13-4.41-3.53-3.05-5.79-3.81Z"/><path class="cls-1" d="m806.1,1071.73c-.26,1.85-1.85,6.03,1.07,6.75,2.41.59,6.35-4.14,8.07-5.56.4-2.52.88-4.78-1.29-6.62-1.74,1.21-3.54,2.45-7.85,5.43Z"/><path class="cls-1" d="m871.69,887.37c2.35-1.78,4.64-3.51,7-5.29-2.44-3.6-4.09-3.26-8.42-3.87-.6,4.33-1.38,5.83,1.42,9.15Z"/><path class="cls-1" d="m842.58,909.78c-.3,2.13-.59,4.27-.89,6.4,4.34-.99,4.31-1.02,9.6-6.25-4.11-3.26-4.55-3.36-8.71-.15Z"/><path class="cls-1" d="m898.24,854.81c-4.74,3.45,5.89,4.81,7.2,4.99,1.56-3.51-4.48-6.98-7.2-4.99Z"/><path class="cls-1" d="m671.89,1103.89c-.2,3.08,5.24,5.86,7.22,2.79,2.22-3.44-5.38-5.63-7.22-2.79Z"/><path class="cls-1" d="m524.23,1250.98c-3.45-4.74-4.81,5.89-4.99,7.21,3.51,1.56,6.98-4.48,4.99-7.21Z"/><path class="cls-1" d="m1289.21,305.69c1.62-3.45-5.75-5.22-7.46-2.5-.22,3.25,5.85,5.96,7.46,2.5Z"/><path class="cls-1" d="m314.76,1705.3c-2.88-.03-1.35,3.56-.38,4.42.88-.66,3.95-4.38.38-4.42Z"/><path class="cls-1" d="m325.21,1693.38c-2.92.55-.94,3.91,1.09,3.23,1.19-.9,2.06-.81,1.09-2.38-.55-.9-1.25-1.03-2.18-.85Z"/><path class="cls-1" d="m358.11,1652.1c-1.27,1.85,1.56,4.42,2.81,1.93.42-.83.44-1.6-.23-2.33-1.24-1.36-1.39-.5-2.58.4Z"/><path class="cls-1" d="m221.57,1567.12c-1.19.9-2.06.81-1.09,2.38.56.9,1.25,1.03,2.18.85,2.92-.55.94-3.91-1.09-3.23Z"/><path class="cls-1" d="m801.93,1083.27c-2.88-.03-1.35,3.56-.38,4.42.88-.66,3.95-4.38.38-4.42Z"/><path class="cls-1" d="m705.75,1065.86c-.9.56-1.03,1.25-.86,2.18.55,2.92,3.92.94,3.23-1.09-.9-1.19-.81-2.06-2.38-1.09Z"/><path class="cls-1" d="m819.45,1057.61c-2.96-1.52-2.87,2.67-.91,3.72,2.75,1.48,3.34-2.48.91-3.72Z"/><path class="cls-1" d="m788.27,970.9c-1.27,1.85,1.56,4.42,2.81,1.93.42-.83.44-1.6-.23-2.33-1.24-1.35-1.39-.5-2.58.4Z"/><path class="cls-1" d="m804.52,954.52c-1.27,1.85,1.56,4.42,2.81,1.93.42-.84.44-1.6-.23-2.33-1.24-1.35-1.39-.5-2.58.4Z"/><path class="cls-1" d="m820.78,938.13c-1.27,1.85,1.56,4.42,2.81,1.93.42-.84.44-1.6-.23-2.33-1.24-1.36-1.39-.5-2.58.4Z"/><path class="cls-1" d="m889.25,869.96c.42-.84.44-1.6-.23-2.33-1.24-1.36-1.4-.5-2.59.4-1.27,1.85,1.57,4.42,2.81,1.93Z"/><path class="cls-1" d="m1092.94,756.91c-1.27,1.85,1.56,4.42,2.81,1.93.42-.84.44-1.6-.23-2.33-1.24-1.36-1.39-.5-2.58.4Z"/><path class="cls-1" d="m1605.11,128.26c-1.19.9-2.06.82-1.09,2.38.55.9,1.25,1.03,2.18.86,2.92-.55.94-3.92-1.09-3.24Z"/><path class="cls-1" d="m1611.55,119.11c-2.96-1.52-2.87,2.67-.92,3.73,2.75,1.48,3.34-2.49.92-3.73Z"/><path class="cls-1" d="m1645.13,69.36c-1.27,1.85,1.56,4.42,2.81,1.93.42-.83.44-1.6-.23-2.33-1.24-1.35-1.4-.5-2.59.4Z"/></svg>