<?xml version="1.0" encoding="UTF-8"?><svg id="Layer_1" xmlns="http://www.w3.org/2000/svg" viewBox="0 0 1970.84 2000"><path d="m1609.86,110.4c-2.48-3.13-5.18-3.35-8.13-.66,2.48,3.13,5.18,3.35,8.13.66Z"/><path d="m1501.44,179.94c.33-.76.3-1.43-.32-2.04-1.16-1.13-1.25-.37-2.25.48-1.02,1.69,1.6,3.81,2.57,1.56Z"/><path d="m1969.72,35.73c-1.86-1.45-6.21-.99-8.33-1.16-1.45,1.11-3.03,2.32-4.75,3.64-1.15-.09-2.48-.2-3.55-.29-2.67.95-2.17,3.42-3.17,5.51-1.22,2.55-4.36,4.23-6.48,5.99-3.72.03-4.25.03-7.28,2.52-2.56,2.1-5.03,4.3-7.55,6.45,1.38,1.85,2.55,3.44,3.59,4.82-.07,2.34-.28,4.31-2.47,5.5-1.2-.1-2.53-.2-3.81-.31-3.1,2.49-6.14,4.91-9.05,7.25-1.49-1.43-2.77-2.67-3.27-3.15-4.31,2.99-8.18,5.66-11.18,7.74-.34,1.65-.2,4.63-1.73,5.82-1.5,1.17-3.24,0-4.87.49-2.11.64-2.45,2.9-.34,3.92,1.92.93,4.08-.45,5.29,2.06-1.34,3.18-6.16,7.27-9.68,5.42-1.94-1.02-3.44-3.76-5.64-4.28-1.85-.43-3.49,1.08-4.87,2.11-.03,1.33-.06,2.65-.08,3.8,1.15,1.6,2.21,3.08,3.26,4.55-3.88,3.01-6.94,6.51-11,8.73-1.79-2.1-3.55-4.16-5.3-6.21.16-2.04.33-4.07.49-6.09-3.54-.29-6.69,3.85-9.34,6.09-3.05,2.58-6.11,5.17-9.15,7.76-6.23,5.28-12.45,10.58-18.68,15.87-2.62-.34-4.6-.45-6.12,1.51-.21,2.55-.42,5.23-.62,7.65-5.32,4.53-10.46,8.9-15.83,13.47-.94-.07-2.29-.18-3.65-.29-3.43-3.55-1.38-7.31-.37-11.03,1.03-.88,2.07-1.75,3.31-2.82.2-2.45.41-5.09.64-7.95,2.1-1.85,4.39-4.84,7.14-5.67,2.17-.66,4.58.3,5.97-2.09.09-1.16.2-2.5.3-3.72,1.55-1.43,3.01-2.79,4.37-4.04.23-1.48.44-2.78.64-4.08,3.48-2.96,6.96-5.93,10.45-8.89,3.07-2.61,6.26-6.24,10.05-7.61,1.93.55,3.72.08,5.11-1.62-1.75-2.06-3.51-4.12-5.26-6.18-1.67-.27-5.93-.26-5.66-2.94.26-2.67,3.99-1.58,5.61-1.45,2.98-2.45,5.97-4.91,8.85-7.27,2.44,1.73,1.62,3.84,1.58,5.86-1.43,1.31-2.9,2.65-4.37,3.99,3.03,3.78,7.01,2.56,10.87,2q5.06-4.46,6.51-9.32c4.13-3.51,8.25-7.02,12.38-10.53.18-1.31.36-2.63.44-3.22-.86-4.91-6.36-2.1-7.61-5.8,3.56-3.03,7.17-6.1,10.84-9.22,2.63.21,5.31.43,7.96.64,2.21-2.4,5.92-3.53,6.9-6.92.75-2.56.65-3.14,2.89-5.05,2.03-1.73,4.05-3.45,6.08-5.17-2.94-2.24-4.04-2.14-7.59-2.66-3.05-.45-4.24-2.38-6.11-4.58-2.13-.17-7.04.4-8.72-1.34-1.98-2.06-.15-5.69-2.78-7.67-1.21-.1-2.53-.2-3.95-.32-1.47,1.14-3.03,2.35-4.59,3.56-3.31-1.74.32-6.64-3.67-8.08-2.58,2.2-5.16,4.39-7.74,6.59-2.73.72-2.51-2.94-2.45-4.55.1-2.76.86-4.8-1-6.99-3.78,1.93-6.61,4.43-7.61,8.63-2.56,2.74-4.4,4.69-5.75,6.15-8.91-.72-16.98-1.37-24.88-2.01-2.25-2.3-3.29-3.58-6.37-4.57-2.19-.7-2.91-2.06-4.63-3.47-1.66-1.36-3.58-.71-5.13-1.9-1.39-1.08-1.67-3.54-3.99-2.97-1.18,1-2.21,1.88-3.24,2.76-3.72-1.63-.36-6.41-3.66-8.23-3.53,1.27-.94,6.55-4.81,7.5-1.41-1.45-2.79-2.87-3.99-4.1-2.33-.31-4.3-.4-5.82,1.55-.42,5.26-.86,10.64-1.3,16.1,1.15,1.48,2.35,3.04,3.51,4.54-1.46,1.36-2.91,2.72-4.24,3.97-.25,1.5-.46,2.8-.68,4.09-5.68,4.83-11.35,9.66-17.1,14.56-.21,2.6-.43,5.28-.63,7.8-1.66,2.33-3.53,1.57-5.85,2.26-2.71.81-4.9,3.56-6.93,5.44,1.31,1.54,2.68,2.69,2.98,4.71-1.03.88-2.06,1.76-3.46,2.95,1.75,2.43,4.41,4.9,2.96,8.15-1.06,2.37-4.32,3.21-6.52,1.65-2.45-1.74-.48-5.01-2.27-7.07-2.06-2.37-4.82-.51-6.89.65,1.15,1.5,2.3,3.02,3.44,4.52-2.2,1.87-4.26,3.63-6.36,5.42-1.31-.11-2.65-.21-3.92-.32-3.71,1.34-1.33,6.57-5.31,7.85-1.14-.09-2.47-.2-3.72-.3-2.15,1.83-4.21,3.58-6.49,5.53-.17,2.17.43,7.31-1.58,8.87-1.57,1.22-5.66,1.27-7.68,1.79-5.99,5.1-13.17,11.21-20.64,17.56-1.45-.13-3.48-.5-5.01,1.54,1.14,1.47,2.32,2.99,3.5,4.51-2.02,1.72-4.08,3.47-6.15,5.23-1.31,0-2.62.02-4.21.03-2.95,2.38-6.06,4.89-9.15,7.4-1.94.04-4.07-1-5.59,1.19,1.49,3.63,6.32,6.45,8.12,11.3.61.54,1.01,1.4.39,1.24,2.32,2.76-.43,1.86-.43,1.86-.73-.36-1.67-1.47-1.58-2.34-6.14-1.4-11.04-1.8-15.93-2.2-.23,2.9,1.79,4.45,3.57,6.64-.29,2.05.11,4.24-2.49,5.52-2.32-.19-4.98-.4-7.81-.63-2.65,2.2-7.54,4.62-7.13,8.61.54,5.24,5.59,1.77,7.26,5.41-4.92,5.48-5.44,5.6-10.89,6.34-2.58,2.2-5.17,4.39-7.71,6.56-2.12.72-5.26-1.27-6.17,2.42,1.19,1.4,3.76,3.03,2.06,4.88-1.44,1.57-3.94.12-5.65,1.02-2.16,1.13-1.67,3.75-1.89,5.84-.34,3.27-1.06,3.67-3.38,5.66-2.76-1.34-6.67.77-9.04-2.89,1.41-1.32,2.84-2.64,4.31-4.01.1-1.27.21-2.61.31-3.81,1.47-1.4,2.84-2.71,3.88-3.7-3.05-3.89-5.96-7.61-8.7-11.1-1.76-.05-3.09-.09-3.16-.1-5.99,4.8-11.25,9.02-16.6,13.31-.21,2.65-.43,5.31-.63,7.8-2.25,1.92-4.32,3.67-6.39,5.44-2.7-.22-5.4-.43-8.1-.65-1.98,2.61-2.27,3.68-2.61,6.96-.34,3.26-2.06,4.56-4.44,6.59-.31,3.82-.63,7.83-.94,11.62-2.44,2.6-4.58,5.12-7.55,6.15-2.9-.09-5.52-.18-7.78-.25-2.31,2.09-4.19,3.8-6.07,5.5,1.84,2.17,4.23,4.3,3.19,7.5-.6,1.86-2.41,2.76-3.54,4.24-1.52,1.99-.91,3.93-2.78,5.75-2.21,2.15-4.68,4.04-7.02,6.03-.11,1.29-.21,2.63-.34,4.18-2.03,1.61-4.15,3.28-6.71,5.31-1.56.58-4.65-1.22-5.78,2.19,2.18,2.56,4.38,5.15,6.58,7.73-.84,2.6-4.13,4.42-6.21,6.11-2.69-.01-4.59-.39-5.76-2.46.1-1.27.21-2.61.32-3.92-2.57-3.21-7.3-3.65-8.25,1.02-.63,3.07-.61,6.5-.83,9.63-.15,2.2.28,5.17-2.12,6.3-1.95.05-9.16-1.14-10.18,1.18-1.35,3.06,4.77,2.51,5.99,3.77.88.91.95,1.37.14,2.37-1.4,1.71-2.68.34-4.34.44-4.49.28-.94,4.39.44,6.01-1.34,3.17-4.43,1.45-6.58,2.38-2.58,2.2-5.17,4.4-8.16,6.95-2.1-.17-7.79-1.77-9.23.34-1.86,2.74,1.54,2.82,3.24,3.19,6.67,1.47-1.02,6.09-3.4,7.64-1.19-1.4-2.67-4.54-4.86-3.06-1.76,1.18-1.12,5.25-1.26,6.98,2.03.16,4.05.33,6.01.48,1.38,1.52,2.73,3,4.25,4.66,4.88.39,9.76.77,14.63,1.19,1.46.13,5.22-.21,6.16,1.04,1.09,1.43,0,2.07-1.23,2.64-1.4.64-3.14.56-4.6,1.09-1.66.6-2.46,2.01-3.93,2.69-3.31,1.51-5.75-2.17-7.52-4.26-3.75-.3-7.74-.63-12.65-1.02-2.85,2.43-6.73,7.39-10.54,7.08-.16,2.01-.32,4.02-.49,6.03-1.92,3.31-6.63.17-8.53,3.79-.1,1.19-.2,2.51-.3,3.77-2.73,2.76-6.36,4.47-8.23,7.98.88,1.04,1.75,2.06,2.58,3.03-.21,2.66-4.03,4.72-6.01,6.36-2.45-.05-4.74-.58-5.9,1.8-.56,1.15-.11,2.74-.84,3.82-.89,1.33-2.44,1.47-3.92,1.8-1.8.4-3.37.73-4.9,1.85s-1.91,1.64-3.94,1.55c-2.62-.12-9.1-1.35-8.07,3.33,2,.16,4,.32,6.17.5,1.61,1.98,3.29,4.05,5.04,6.21-.64.65-1.35,1.96-2.1,2.05-3.14-2.28-6.29-4.55-9.46-6.78.05-.08.13-.1.17-.19.95-2.15-1.22-2.37-2.55-1.46-13.19-9.19-26.69-17.96-40.5-26.27-.3-.7-.78-1.41-1.43-2.13-.24.2-.62.45-.99.7-107.43-64.05-232.87-100.92-366.78-100.92-396.14,0-718.43,322.29-718.43,718.43,0,182.66,68.56,349.59,181.26,476.49-.11.06-.14.19-.27.24-3.52,1.36-7.17-2.07-10.2,1.56-.23,2.83-.42,5.67-.66,8.5-.17,2.06.15,5.29-.73,7.17-1.63,3.46-6.12,1.07-8.31,3.87-.21,2.58-.42,5.26-.63,7.84-1.91,3.55-6.65.39-8.56,3.89-.21,2.6-.43,5.28-.64,7.93-2.16,1.84-4.52,1.21-6.77,2.57-1.73,1.04-1.86,3.08-2.22,4.94-1.51,1.48-2.91,2.85-4.42,4.33-.21,2.65-.43,5.28-.49,6.08-4.31,4.42-7.59,7.79-10.31,10.58-5.51.39-10.18-2.54-14.71.82,1.15,1.52,2.29,3.02,3.51,4.64-.1,1.18-.2,2.51-.31,3.81-1.32,2.32-3.75,1.36-5.85,1.97-2.69.79-4.87,3.64-6.93,5.44-.28,1.68-.5,2.97-.72,4.27-3.18,1.7-4.52,4.55-4.93,7.96-2.19,1.87-4.62,3.58-6.62,5.65-1.82,1.88-1.61,3.52-2.08,6.01-2.51,1.68-5.84,3.92-8.49,5.7-.26,3.17-.42,5.19-.58,7.22,3.68-.81,3.48,3.13,3.47,5.63,0,3.37-.44,4.24-2.61,6.62-2.73-.22-5.4-.43-7.85-.63-1.45-1.49-2.74-2.81-4.03-4.14-2.24,1.91-4.29,3.65-6.35,5.41,1.52,1.16,2.35,2.08,4.3,2.47,1.5.29,3.05,0,4.55.43,3.13.9,3.4,2.7.42,3.99-2.46-.2-12.13-2.62-13.31.73-1.18,3.34,6.39,1.47,6.51,5.46-5.64,4.78-11.3,9.57-16.91,14.33-.72,2.96-1.86,7-5.88,7-1.46,0-3.06-1.4-4.51-1.76-2.45-.61-4.7-.23-6.46,1.75-.12,1.43-.22,2.75-.31,3.85,1.24,1.67,2.34,3.16,3.43,4.64-2.24,1.91-4.3,3.65-6.32,5.37-1.34-1.48-2.68-2.95-3.97-4.37-1.43-.04-2.75-.08-3.84-.11-3.77,3.12-7.4,6.13-10.98,9.1-.25,3.17-.49,6.26.57,10.39.56.54.91,1.32.31,1.17,2.32,2.76-.43,1.86-.43,1.86-.67-.33-1.51-1.3-1.58-2.12-5.17.04-9.79,5.6-12.63,8.02-.1,1.28-.21,2.61-.34,4.19-2.02,1.58-4.15,3.24-6.52,5.1-.91.04-2.21.09-3.51.13-6.16,4.67-6.53,5.13-8.23,10.17-2.58,2.2-5.17,4.4-7.75,6.59-.21,1.3-.43,2.6-.68,4.15-2.83,2.53-5.81,5.2-8.87,7.94-.1,1.28-.21,2.61-.3,3.78-1.55,2.02-3.55,1.83-4.95,1.66-10.04,8.54-19.76,16.82-29.9,25.44-.12.59-.36,1.87-.61,3.15-11.36,9.67-22.73,19.34-34.09,29.01-.6,1.69-.83,4.65-2.46,5.7-2.07,1.32-4.82-.41-6.57,1.99-.19,1.31-.37,2.63-.51,3.62-7.4,6.28-14.61,12.4-21.2,18-.65,1.95-.69,5.25-2.45,6.52-2.34,1.69-4.96-.54-7.01,2.23-.2,2.5-.42,5.17-.56,6.9-8.77,7.46-16.97,14.43-25.48,21.68-1.43-.22-3.42-.41-4.93,1.53,1.15,1.49,2.32,3.02,3.61,4.69-8.79,7.4-17.6,14.82-26.4,22.23-.11,1.4-.22,2.74-.33,4.04-2.45,2.09-4.92,4.17-7.37,6.27-2.18,1.86-4.67,3.41-5.83,6.04.19,1.62.06,3.89,1.56,4.9,1.82,1.22,6.05.68,8.13.84,1.59-1.13,2.99-3.08,4.98-3.54,2.32-.54,3.47-.11,5.6-1.54,4.87-3.26,4.95-1.39,9.2,1.46,2.2,1.48,8.53,1.97,4.86,5.32-1.08.99-2.57,1.95-1.38,3.62,1.06,1.46,3.33.68,4.83,1.04,3.56-1.39,1.14-6.65,5.08-7.77,1.93.25,4.12-.13,5.35,2.34-1.28,1.24-2.62,2.54-4.1,3.98-.09,1.14-.2,2.48-.3,3.76-1.53,1.41-3,2.77-4.54,4.19-.32,3.98-.64,8.01-.96,11.87-1.58,1.49-3.02,2.85-4.31,4.07-1.14,4.66,1.14,9.79-3.05,13.66-3.93-.32-7.95-.64-11.98-.97-3.17,2.57-6.29,5.09-9.29,7.52-1.5-.03-2.82-.05-4.15-.07-2.25,2.76-5.16,3.96-8.23,3.66-2.42,1.83-4.57,3.46-6.37,4.83-1.11,3.56.74,7.34-3.01,10.26-3.59-.29-7.17-.63-10.77-.87-3.66-.25-4.59-.57-7.2,1.76,1.01,1.47,2.01,2.92,2.61,3.8-2.23,2.35-4.08,4.3-5.63,5.93-1.97-.3-3.27-.49-4.58-.69-2.7-3.18-5.8-6.31-9.69-2.61-.21,2.68-.43,5.37-.67,8.29,3,3.42,6.13,6.98,9.47,10.77,2.33.19,5.01.4,7.86.63,1.42-1.13,2.99-2.37,4.59-3.64,6.71.54,13.46,1.08,20.1,1.62,1.65-1.29,3.22-2.52,4.69-3.67,1.5.01,2.81.02,4.13.03,2.07-1.76,4.13-3.52,6.2-5.28-2.84-2.29-4.29-2.46-7.97-2.74-3.75-.29-5.04-.38-7.68-2.84.52-.44,1.03-.88,1.77-1.51,3.78.3,7.79.63,11.79.95,1.69-1.27,3.27-2.47,4.94-3.72,1.19.04,2.53.09,3.91.14,1.33,1.45,2.67,2.93,3.99,4.38,1.38.11,2.72.22,4.03.32,2.1-1.79,4.17-3.55,6.24-5.31-1.76-2.66-3.35-5.48-6.4-6.92-2.12-.17-6.69.47-8.01-1.94-1.12-2.04,1.14-2.5,2.79-2.56,1.55-.05,5.01.26,4.04-2.54-.68-1.95-3.37-1.38-4.96-1.62q-2.87-4.24.46-7.97c1.3,1.35,2.61,2.71,3.94,4.09,2.32-3.08,5.39-3.88,8.53-3.8,1.82-1.22,3.43-2.31,4.74-3.19,4.4.69,8.51,0,12.37,1.9,1.58,1.97,3.23,4.05,4.49,5.63-.1,3.97-1.66,11.12.97,14.21,1.87-.86,1.9-2.56,2.58-4.23.89-2.19,2.52-3.51,4.01-5.3-.86-1.2-1.92-2.68-3.06-4.28.02-1.15.05-2.47.08-3.94-1.78-2.2-3.78-3.72-4.44-6.7-3.09-1.06-2.77-4.58-.28-3.42,1.37.64,1.85,2.95,1.19,3.5,2.46.21,4.39.37,7.27.6,1.75,2.64,3.98,5.99,5.83,8.77,2.4-.09,3.7-.14,5-.19,2.58-2.2,5.16-4.39,8-6.81,2.38.19,5.02.4,8.11.65,5.97-5.08,12.06-10.26,17.67-15.03,5.28-.46,10,2.72,14.41-.92.21-2.6.42-5.28.68-8.49-1.57-1.61-3.45-3.54-5.61-5.76-2.31,1.7-4.29,3.97-7.39,2.9-2.35-.81-3.31-3.06-2.52-5.46.64-1.95,3.51-2.55,3.72-4.47.34-3.04-3.62-2.3-5.3-2.43-1.66,1.26-3.24,2.45-4.85,3.68-3.18-.36-6.35-.71-9.53-1.07-3.07-.36-5.92,0-7.95-2.38,1.41-1.31,2.82-2.63,4.28-3.99.1-1.26.21-2.61.32-3.95,3.62-3.08,7.23-6.15,10.9-9.28,2.63.21,5.32.43,8.27.67,1.86-1.74,3.83-3.57,6.24-5.81.36-2.77-.18-7.79,2.66-9.28,3.53-1.85,5.84,1.19,8.06,3.44,2.61-1.79,4.83-3.31,6.68-4.58.26-1.92.44-3.23.62-4.55,2.06-1.75,4.13-3.51,6.16-5.24,1.74-.3,3.5.54,5.08-.57,1.43-1,1.75-2.84,1.85-4.45.26-3.84-1.09-7.99,2.69-10.6,1.36,1.47,2.72,2.92,3.69,3.97,3.89.31,11.03,2.28,14.08-.31-1.85-2.03-2.53-2.51-5.34-2.78-2.87-.27-3.82-.8-6.13-2.46.28-1.68-.59-4.69,1.77-5.26,2.18-.52,2.68,2.09,4.02,3.17,2.81-.84,5.06-3.49,7.29-5.39,2.76-2.35,5.52-4.7,8.28-7.05.2-2.49.41-5.15.68-8.51,3.48-2.56,7.26-5.36,11.59-8.55,2.62.35,5.44-1.06,7.69-3.71,1.55-.34,3.37.54,4.8-.33,1.4-.85,1.72-2.87,1.9-4.33.32-2.63.83-8.52-3.42-7.58-.16,1.93-.31,3.85-.47,5.75-1.66,2.3-6.1,3.22-7.69.31-1.5-2.74.57-4.83,2.38-6.53,1.93.16,3.85.31,5.78.47,1.51-7.27,7.15-2.22,10.15.46,1.3-.97,2.8-2.08,4.45-3.31,1.14.09,2.47.2,3.74.3,1.64-1.29,3.22-2.52,4.78-3.75,1.94-.03,4.07.97,5.58-1.12-1-1.52-2-3.04-3-4.58,2.27-2.24,4.21-4.91,7.52-5.75,2.06.16,4.09.33,6.49.52,1.88-1.41,3.47-3.17,5.86-3.57,2.27-.38,3.7.43,4.74-2.02-1.16-1.68-2.27-3.28-3.28-4.73.38-2.93.71-5.52.98-7.64,3.08-2.62,5.66-4.82,8.24-7.01.19-1.31.37-2.62.58-4.08,2.9-2.59,5.88-5.26,8.92-7.97.21-2.69.43-5.35.64-7.91,7.87-6.7,15.61-13.29,23.4-19.91,2.25-.81,5.33.6,6.88-2.51.06-1.83.78-3.92-1.3-5.41-1.71-.29-7.96-1.11-5-4.18,1.95-2.02,4.65,1.05,6.75-1.83.52-2.76,1.13-5.93,1.7-8.94,2.27-1.83,4.33-3.51,6.19-5.01,1.44-.01,2.84.43,4.22-.13,1.09-.45,2.47-1.76,3.42-2.47,2.39-1.78,4.71-3.66,7.08-5.48.41-3.24.04-5.43,2.63-6.71,3.67.3,7.67.62,11.68.94,1.67-1.28,3.24-2.49,4.83-3.7,1.29,1.37,2.63,2.8,3.98,4.23,1.62.13,4.21-.32,5.02,1.52.71,1.62-.54,2.38-1.96,2.73-4.36,1.07-9.97-2.31-13.59.77.95,4,6.25,1.39,7.51,4.94-.11,1.33-.22,2.68-.42,5.26-2.62,1.74-5.99,3.96-8.45,5.59-.53,2.6-.79,3.88-.79,3.9-4.07,4.01-7.42,7.32-10.39,10.25-2.11-.36-3.41-.58-4.49-.77-1.41-1.36-2.68-2.59-3.93-3.79-1.36,1.16-2.4,2.04-3.43,2.92-2.16.98-5.26-.72-6.61,2.27,1.07,1.5,2.14,2.97,3.18,4.43-1.1.94-3.67,2.22-3.53,3.92.16,1.91,2.13,1.83,3.46,1.97,5.19.53,2.11,3.72-.4,5.85-.19,1.31-.37,2.62-.56,3.94-5.59,5.75-12.49,10.08-17.66,15.94.21,5.47-4.55,6.36-7.32,8.94-5.37-.06-5.41-.03-6.05,5.43-1.41,1.28-2.88,2.63-4.4,4.01-.16,1.95-.32,3.98-.48,6.01,2.7.22,5.41.43,8.12.65.79-3.19,1.1-3.46,4.38-3.73.28-3.5,4.44-5.67,7.03-7.86,2.61,3.78,5.22,7.57,8.69,12.6-.06.75-.27,3.39-.6,7.42-2.39,1.58-5.75,3.81-8.38,5.55-.37,4.6-.64,7.98-.91,11.35,3.92.32,8.88,1.94,11.87-.81.54-2.79,1.14-5.96,1.7-8.85,1.3-1.11,2.33-1.98,3.58-3.05.2-2.43.41-5.07.66-8.19-.88-1.18-2.07-2.76-3.33-4.43,1.34-1.24,2.76-2.56,4.21-3.91.27-3.29.54-6.66.81-10.03-2.57-.21-5.15-.4-7.72-.62-1.76-.14-5.51.22-6.91-1.02-2.67-2.36,3.12-5.78,4.77-7.32,2.49.2,4.48.36,6.46.52.27-3.38.55-6.75.82-10.16,2.05-1.73,4.12-3.48,6.21-5.25,1.28-.02,2.59-.04,3.9-.05,1.81-1.01,3.26-2.29,4.84-3.63,1.27.11,2.6.21,3.89.31,3.9-4.31,3.94-4.37-.57-9.88,2.3-2.83,3.86-4.18,4.28-7.91,2.42-2.17,4.37-4.97,7.74-5.86,3.98.25,8.17,1.43,10.96-2.82,2.43-.29,6.02,1.07,8.24.21,2.16-.84,2.58-3.9,3.18-5.87,2.23-2.03,4.22-3.85,6.08-5.55,1.5.12,7.57.97,5.62-2.6-1.35-2.45-5.38-.64-6.85-3.52,1.34-1.26,2.73-2.57,4.09-3.85-1.14-1.47-2.31-2.99-3.48-4.51,5.77-4.9,11.44-9.73,17.12-14.56.19-1.31.39-2.62.52-3.53,5.88-5,11.53-9.81,15.82-13.47,1.52-2.26,1.64-5.27,3.32-7.37,1.81-2.25,5.07-4.24,7.3-6.15.19-1.31.38-2.61.6-4.11,2.88-2.57,5.86-5.24,8.78-7.84.19-1.43.37-2.75.55-4.06,7.74-6.59,15.48-13.18,23.22-19.76,2.16-1,5.26.7,6.63-2.27-1.08-1.5-2.14-2.98-3.25-4.51,3.71-1.71,4.42-4.96,5.25-8.12,2.6-2.21,5.18-4.41,7.76-6.61.19-1.31.38-2.62.67-4.59,3.35-2.56,7.09-5.42,11.06-8.45.91.93,2.21,2.27,3.53,3.62,5.3-3.43.85-9.57,3.66-13.98.68-1.06,1.82-1.48,2.66-2.38,1.23-1.33.97-2.05,1.42-3.68.28-1.01.82-1.77,1.45-2.45,125.04,105.38,286.38,169,462.33,169,396.14,0,718.43-322.29,718.43-718.43,0-189.59-73.85-362.23-194.26-490.75,1.77-1.89,2.46-3.49,3.63-6.17.98-2.26,3.04-3.38,4.95-4.78,5.79-4.23,11.12-9.41,16.58-14.06.32-1.86.55-3.15.77-4.42,2.46-2.09,4.9-5.38,8.22-5.12.16-2.02.33-4.05.49-6.11,8.76-7.45,17.54-14.91,26.31-22.36.11-1.37.22-2.72.43-5.3,2.63-1.74,5.99-3.96,8.84-5.84-.14-3.16.24-5.05,2.24-6.2,1.33,1.42,2.68,2.85,3.96,4.21,1.4.11,2.74.22,3.94.32,2.18-1.19,2.39-3.16,2.45-5.18,5.66-5.41,6.1-5.66,10.18-6.32,3.04-2.12,5.24-3.66,7.03-4.91.28-1.98.47-3.29.63-4.44,1.5-1.47,2.92-2.85,4.44-4.32.43-5.35.86-10.69,1.27-15.81,5.93-5.04,11.61-9.87,17.29-14.7.11-1.35.21-2.7.32-4.05,2.06-1.76,4.13-3.51,6.19-5.27,1.31-.01,2.62-.03,4.28-.04,1.86-1.5,3.93-3.18,5.96-4.82,1.42-7.41,7.84-10.12,12.52-14,3.57-.36,7.1,1.97,9.86-1.33.33-4.05.65-8.11,1.08-13.38,2.63-1.74,5.99-3.97,8.45-5.6.53-2.6.79-3.87,1.05-5.15,4.13-3.51,8.26-7.03,12.39-10.54.19-1.31.37-2.62.74-5.23,3.17-2.35,6.42-4.59,9.37-7.21,2.44-2.17,5.46-3.8,6.96-6.77,1.62-3.22,2.91-5.41,5.65-7.89,2.85-2.58,5.96-4.84,8.88-7.32.11-1.4.22-2.75.33-4.1,2.07-1.76,4.13-3.51,6.26-5.32,1.74-.06,4.04.3,5.49-.9,1.73-1.43,1.17-4.02,2.49-5.69,1.96-2.48,3.21-3.42,3.65-6.85.39-3.03.74-3.87,2.7-6.18,1.3.1,2.63.21,3.91.31,2.13-1.81,4.19-3.57,6.38-5.43.21-2.55.42-5.22.65-8.1,4.51-3.85,9.08-7.75,13.18-11.26.46-2.21.39-3.75,1.92-5.49,1.39-1.59,3.12-2.89,4.66-4.32,3.29.27,5.97.48,9.1.73,1.42-3.23,2.35-6.6,5.13-8.97,2.78-2.37,6.21-2.72,9.61-3.6.15-1.83.26-3.18.28-3.49,1.24-3.19,3.64-2.16,6.19-3,3.23-1.06,6.3-4.83,8.85-7,1.27.11,2.61.21,4.23.34,1.85-1.74,3.81-3.58,6.51-6.12.46-5.68.48-11.37,2.32-16.77,1.99-1.56,4.06-3.19,6.16-4.84,2.84.23,5.46.44,7.03.57,2.96-2.12,5.15-3.69,6.97-4.99.26-1.91.44-3.23.62-4.54,4.72-1.33,3.12-7.07,6.61-9.39,1.24.1,2.57.21,3.74.3,3.93-1.3,1.55-6.52,5.12-7.78,1.44.11,2.78.22,3.97.32,1.46,1.56,2.81,3.01,4.08,4.37,2.16.16,4.21.64,5.83-1.56.19-2.41.41-5.08.58-7.22,7.55-6.43,14.75-12.55,21.23-18.06.99-2.82,1.61-4.61,2.24-6.41,2.57-2.18,5.15-4.38,7.74-6.59.11-1.34.21-2.69.32-4.03,16.01-13.61,32.02-27.22,47.98-40.78.2-1.4.38-2.71.59-4.16,1.4-1.28,2.88-2.63,4.4-4.01.1-1.27.21-2.63.31-3.9,1.52-1.38,3-2.73,4.42-4.03.03-1.7.49-4.3-1.04-5.5Zm-155.15,17.64c1.98-1.68,3.96-3.37,6.02-5.12,2.53,1.99,2.36,2.45,2.1,5.77-1.98,1.68-3.96,3.37-6.02,5.12-2.53-1.99-2.36-2.45-2.1-5.78ZM37.12,1981.8c-.61.62-1.28.64-2.04.32-2.26-.97-.14-3.6,1.55-2.58.85,1,1.62,1.09.48,2.26Zm9.52-8.25c2.95-2.7,5.66-2.48,8.14.65-2.95,2.7-5.66,2.48-8.14-.65Zm43.1-36.52c-.61.62-1.28.64-2.04.32-2.26-.98-.14-3.6,1.56-2.58.85,1,1.62,1.09.48,2.26Zm34.08,7.4c-.93-1.19-.67-2.37.74-3.12,1.97-1.05,4.39.13,5.59,1.55-.39,2.57-4.52,3.89-6.33,1.57Zm6.72-23.59c2.15.18,4.79.39,7.08.57,2.93,2.31,5.17,4.66,6.54,7.74-.82,3.09.9,6.94-2.78,9.14-4.81-.39-10.03-.27-14.75-1.12-5.07-.92-1.59-3.88.64-5.78.23-1.29.45-2.58.71-4.06-1.13-1.48-2.34-3.06-3.6-4.7.18-1.71-.65-4.51,1.66-5.17,2.22-.64,3.01,2.35,4.5,3.37Zm9.08-38.42c-1.41,2.62-4.33,4.1-6.69,6.19-2.15-.5-6.94-.36-4.38-3.79.89-1.18,2.74-2.13,3.85-3.17,1.8-1.69,3.49-3.51,5.23-5.26,2.33,1.95,2.53,3.76,2,6.03Zm2.65-14.12c-2.51-2.29-.38-5.08-.83-7.62-1.97-.14-3.99-.31-6.02-.47-3.69,2.2-1.97,6.05-2.78,9.13-3.42,3.98-6.41,8.66-12.7,6.3-.23,2.91-.34,4.24-.45,5.64,1.14,1.49,2.34,3.04,3.53,4.6-3.34,1.67-3.34,1.71-9.78,1.13-1.42,1.06-3.01,2.23-4.69,3.48-1.16-.02-2.49-.05-3.93-.08-1.3-1.42-2.64-2.9-4.03-4.42-2.63-.21-5.34-.43-8-.64-1.77-1.45-1.99-3.35-1.61-5.45,3.11-4.39,7.9-6.83,10.65-9.84,4.63-.58,6.01,1.93,7.76,4,1.34-1.01,2.05-1.13,2.63-2.78.7-2,.43-4.69.59-6.78.42-.36,1.4-1.2.79-1.77.65.61,4.15.34,4.92.41,2.71.21,5.42.44,8.13.66,2.28-2.38,2.79-2.97,3.12-6.52.26-2.78.1-5.63,1.21-8.21,2.81-2.43,8.1-.83,11.71-.54.26-3.25.52-6.49.78-9.68,1.67-2.78,4.06-2.52,6.62-1.62,2.68,3.53,1.2,7.11,0,10.67-2.29,2.38-4.98-.08-7.43,1.03-.3,3.66-.62,7.72-.95,11.78,3.23.93,4.16-2.71,6.64-3.29,1.88,1.41,1.02,3.56,1.5,5.37.48,1.79,2.13,3.26,3.3,4.91-3.23,3.89-7.01,1.07-10.67.61Zm25.75-24.43c.69-1.47,3.34-1.92,3.54-.49-2.62,3.01-4.42,2.38-3.54.49Zm6.25-4.59c-.8,1.52-1.58,2.7-2.32,3.62-2.07-.64,1.33-3.19,2.32-3.62Zm.49,2.14c-.35.72-1.43,1.62-2.28,1.58,2.99-3.79,2.28-1.59,2.28-1.58Zm5.2-26.68c-2.22-.26-4.98.48-5.57-2.83,2.2-1.87,4.19-3.56,6.18-5.26,2.68,2.92,2.48,5.61-.6,8.08Zm38.84-43.13c-.2-.81-.12-1.43.64-1.96,1.33-.93,1.3-.16,2.15.84.71,1.75-2.16,3.67-2.79,1.12Zm26.08-53.69c-2.69-2.95-2.48-5.66.65-8.14,2.69,2.95,2.48,5.66-.65,8.14Zm112.49-118.26c-1.33.93-1.3.16-2.15-.84-.71-1.75,2.16-3.67,2.79-1.12.2.81.12,1.43-.64,1.96Zm20.72,61.58c2.95-2.7,5.66-2.48,8.13.66-2.95,2.7-5.65,2.48-8.13-.66Zm-21.36,61.58c-4.32-.25-3.91-4.4.47-4.05,3.87-.86,4.28,4.33-.47,4.05Zm33.04-18.45c-1.33.93-1.3.16-2.15-.84-.71-1.75,2.16-3.67,2.79-1.12.2.81.12,1.43-.64,1.96ZM1487.45,344.22c1.32.62,1.82,2.82.88,3.41-3.66-1.25-3.31-4.55-.88-3.41Zm-108.9,285.08c-.8,1.52-1.58,2.7-2.32,3.62-2.06-.64,1.33-3.19,2.32-3.62Zm-2.71,4.1c-2.62,3.01-4.42,2.38-3.54.49.69-1.47,3.34-1.92,3.54-.49Zm3.2-1.96c-.35.72-1.43,1.62-2.28,1.58,2.99-3.79,2.28-1.59,2.28-1.58Zm-61.86,70.07c-.89,3.06-2.85,4.95-6.17,3.33-1.57-.77-2.29-1.86-.65-3.14,1.62-1.27,4.96-.34,6.82-.19.16-2,.32-4.01.48-6.01,1.48-1.33,2.95-2.65,4.46-4.01.11-1.31.21-2.64.31-3.92,4.66-2.53,4.67-2.55,8.02,1.11-.18,1.3-.37,2.6-.54,3.78-3.15,2.7-8.54,9.39-12.75,9.05Zm1.97,40.15c-2.8-1.59-.63-6.52,2.09-6.49,2.6,1.47,1.05,8.28-2.09,6.49Zm.57-97.12c.9.71,2.43,3.79-.11,3.91-3.15.14-.63-3.29.11-3.91Zm14.64,97.16c-.71.9-3.79,2.43-3.91-.11-.15-3.15,3.28-.63,3.91.11Zm-1.22-75.71c-1.3-.45-2.44.08-3.48-.97-1.33-1.33-.68-2.43.91-3.22,3.94.32,7.98.64,11.99.97,1.47-1.73,2.45-2.46,2.7-4.88.21-1.97-.01-4.03,1.11-5.78,3.19-2.4,9.63-.57,13.54-.25,3.24,2.32-.2,4.03-2.18,5.71-.36,2.56-.2,5.03-3.17,5.89-2.61.75-3.53-.2-5.86,1.77-.11,1.36-.22,2.72-.47,5.8-4.05-.33-6.67-.54-10.12-.82-1.97-1.04-2.73-3.46-4.96-4.23Zm3.21-41.9c-.71-1.75,2.16-3.67,2.79-1.12.2.81.12,1.43-.64,1.96-1.33.93-1.3.16-2.15-.84Zm22.15,3.83c.85,1,1.62,1.09.49,2.26-.61.62-1.28.64-2.04.32-2.26-.97-.14-3.6,1.55-2.58Zm1.11-21.01c-2.63-4.2-2.63-4.22.56-8.12l3.96.32q2.63,4.2-.55,8.13c-1.32-.11-2.64-.21-3.96-.32Zm5.35,33.14c2.21.26,4.98-.48,5.57,2.83-2.2,1.87-4.19,3.56-6.18,5.26-2.67-2.92-2.48-5.61.61-8.09Zm-52.1-87.7c-.23,2.1.04,4.23-2.76,5.64-2.37-.19-7.02.36-8.79-1.73-1.8-2.11-.49-6.52-.3-8.96,1.84-2.54,3.9-1.93,6.16-1.81.28-.23.62-.47.93-.71,2.44,1.73,4.9,3.43,7.31,5.2-.86.8-1.76,1.63-2.54,2.36Zm-15.11,163.97c2.57.07,4.53.3,5.67,2.37-2.93,2.63-5.87,5.28-8.68,7.81-.17,2.24-.1,4.32-2.67,5.66-2.09-.17-7.48.47-8.81-1.46-2.39-3.47,3.43-3.06,5.14-2.92,2.51-1.02,1.89-3.62,2.89-5.61,1.22-2.44,4.4-4.15,6.46-5.85Zm-.93-40.95c.9.71,2.43,3.79-.11,3.91-3.15.15-.63-3.28.11-3.91Zm4.36-12.52c-.92-1.19-.67-2.37.74-3.12,1.97-1.05,4.38.14,5.59,1.56-.39,2.57-4.53,3.89-6.34,1.57Zm89.89-45.89c-.83-.17-1.24-.72-1.41-1.48.47.49.94.98,1.41,1.48Zm57.05-221.39c.11-2.18-.07-4.81.48-6.92.84-3.25,3.81-2.74,6.78-3.17,2.04-1.74,4.08-3.47,6.08-5.17-1.19-1.51-2.38-3.02-3.57-4.52,1.74-1.48,5.06-2.63,6.94-.52,1.92,2.17.62,6.67.42,9.19,1.37,1.9,2.42,3.37,3.4,4.72-1.66,2.36-3.76,1.43-5.91,1.44-4.31,3.63-8.76,7.38-13.21,11.13-1.77-2.08-1.54-3.4-1.4-6.16Zm-33.67,28.05c1.68-.07,3.6.32,5.2-.31,2.27-.91,4.23-3.15,6.14-4.64.16-1.94.26-3.28.29-3.55,5.67-4.84,10.74-9.17,16.62-14.18-.95,6.96,6.62,2.75,8.42,7.26-2.05,1.54-4.18,3.15-6.78,5.11-2.51.42-5.84-1.01-8.21.12-2.15,1.03-1.91,3.8-1.9,5.86,1.74,2.05,3.96,4.08,3.15,7.05-.69,2.51-3.65,4.55-5.4,6.34-2.58.35-4.75-.17-6.68-.3-3.68-2.85-7.36-5.69-11.09-8.48.08-.09.18-.2.26-.28Zm-429.03,18.05c112.28,0,216.84,33.43,304.48,90.69-.14.73-.31,1.45-.67,2.06-2.62,2.23-5.19,4.42-7.79,6.63-.53,2.33-1.74,4.85,1.63,6.17,2.34-1.99,5.26-5.69,8.21-6.68,3.06-1.02,4.18.74,6.01,2.76-4.01,1.05-4.5,4.43-5.17,7.61-5.75,4.87-11.42,9.68-17.08,14.47-.11,1.38-.22,2.72-.33,4.07-1.83,3.28-6.6-.09-8.23,3.64q3.31,4.15,1.41,5.94c-2.61-.21-5.29-.43-8.04-.65-1.27-1.37-2.62-2.82-3.74-4.03-2.95.67-1.92,3.49-2.96,5.52-1.48,2.87-5.94,5.41-8.4,7.5,2.42,2.99,4.83,5.98,7.24,8.96-2.65,2.26-13.62,9.21-7.15,13.3,1.95,1.24,5.52.63,7.81.85,2.79.28,4.82.91,6.64-1.74.37-4.64-.3-10.93,1.36-15.29,1.55-4.09,5.85-.75,8.13-3.84.18-1.31.36-2.63.62-4.54,1.81-1.29,4-2.85,7.22-5.14,5.23-.39,8.06-3.87,11.97-7.18,1.74,2.69,2.63,4.35.45,7.1-1.98,2.49-5.11,4.42-7.52,6.48-.18,2.19.42,6.65-1.21,8.43-.66.71-1.84.78-2.71,1.03-1.86.53-3.39,1.15-5.12,2-.11,1.31-.21,2.64-.32,3.92-3.03,2.71-6.01,5.37-8.84,7.89-.81,5.56-.85,5.6-6.57,5.39-2.25,2.56-6.01,3.69-6.77,7.34-.66,3.18.62,6.54-3.04,8.27-1.19-.09-2.51-.2-3.76-.3-2.15,1.83-4.21,3.58-6.27,5.33-.18,1.31-.35,2.63-.6,4.5-3.38,2.63-7.1,5.51-11.28,8.76-5.5.11-6.01-.5-4.74-6.68,2.57-2.19,5.15-4.38,7.73-6.57.28-1.26.55-2.52,1-4.6,4-3.42,8.51-7.28,13.01-11.12-2.43-3.7-6.24-1.93-9.81-2.94-2.91,2.47-7.05,7.71-10.94,7.4-.7,2.44.8,5.47-2.2,7.53-2.97.07-6.17.14-9.21.21-2.08,1.86-3.98,3.56-5.78,5.18,1.32,1.79,2.48,3.36,3.32,4.49-.25,3.15-.46,5.77-.65,8.08-2.47,2.13-5.02,5.6-8.38,5.33.89,4.05-4.28,3.78-6.88,3.58-4.04-.31-6.2-.88-9.67,1.29,1.21,1.56,2.42,3.12,3.55,4.59-.75,5.44-.79,5.48-6.31,5.33-2.24,1.79-5.05,3.39-6.42,5.98-.96,1.82-1.2,4.01-2.64,5.57-1.51,1.64-3.71,2.82-2.65,5.59.89,2.31,3.9,2.62,5.97,3.04,1.75,2.05,3.49,4.1,5.51,6.46-2.14,1.52-4.27,3.04-6.69,4.76-2.74-.8-5.54-5.81-7.4-7.99-1.25-.1-2.57-.21-4.41-.36-1.61,1.57-3.53,3.43-5.77,5.62.76,1.09,1.77,2.54,2.79,4.01-1.65,1.45-1.69,1.88-3.99,2.01-1.92.11-3.94-.34-5.85-.49-2.52,2.13-4.58,3.85-6.64,5.59,2.17,1.63,3.32,2.27,6.06,2.53,2.9.27,3.48.67,5.55,2.6-1.32,1.29-2.64,2.58-3.95,3.86,2.68,3.15,5.45,6.85,1.08,10.06-1.34-1.47-2.67-2.93-3.92-4.3-2.77-.22-5.44-.44-8.05-.65-2.11,1.8-4.16,3.54-6.21,5.28-.71,3.03-.9,5.78-4.29,6.09-4.08.37-9.51-1.91-12.79.88,1.19,1.52,2.39,3.04,3.61,4.59-.16,1.96-.32,3.97-.48,5.98,2.69.22,7.23-.4,9.62.88,1.6.86,2.47,2.44.86,3.49-2.62,1.71-12.22.18-10.48-4.37-2.02-.16-4.03-.32-6-.48-1.58,1.27-3.14,2.51-4.63,3.69-2.04-.01-4.15-.89-5.63,1.21,1.56,3.61,4.72,6.04,6.98,9.15-3.21,1.67-4.76,1.65-8.41,1.34-3.59-.3-4.93-.48-7.79,1.47.84,2.48,3.04,2.13,5.26,2.43,1.3,1.4,6.09,4.94,5.23,7.13-1.04,2.65-7.66.81-9.69.65-3.7,3.19-7.27,6.73-11.19,9.63-2.38,1.77-6.57.64-8.16,3.27-.1,1.22-.21,2.56-.31,3.9-2.06,1.75-4.12,3.5-6.17,5.25-1.3.02-2.61.04-3.91.06-6.21,4.42-6.56,5.05-8.15,10.2-4.11,3.5-8.22,6.99-12.39,10.55-.1,1.27-.21,2.6-.31,3.88-3.03,2.7-6.01,5.36-9.01,8.04-.33,4.08-.65,8.08-.95,11.78-1.63,1.58-3.03,2.95-4.21,4.1-.97,3.42.8,7.23-2.83,9.59-1.23-.1-2.55-.2-3.81-.3-3.88,4.21-3.88,4.33.37,9.74.6,4.33-15,1.41-17.65,1.2-1.87,1.32-3.42,3.05-5.71,3.59-1.83.43-3.69-.17-5.01,1.58,1.74,2.18,3.63,3.64,3.4,6.49,2.94.23,4.82-2.19,7.01-4.06,1.91-1.64,3.94-4.41,5.6-1.07-.1,1.24-.21,2.57-.37,4.56-4.19,3.42-10.36,6.96-13.14,11.59.04,2.06-.49,3.89-2.46,5.04-1.32-.11-2.67-.21-4.04-.32-3.29,2.83-1.15,7.58-3.82,10.46-1.96,2.11-6.92.85-9.39.93-1.69,1.26-3.27,2.44-4.97,3.71-2.65-.21-5.29-.42-7.38-.59-2.55,2.01-4.67,3.68-6.69,5.28-.13,1.56-.23,2.9-.33,4.08-1.56,1.46-3.01,2.82-4.38,4.1,0,1.95-.36,3.4.75,5.05.56.83,1.79,1.39,1.97,2.46.57,3.44-3.36,2.06-5.16,2.17-5.38,4.45-10.56,8.74-15.74,13.03,1.83,2.15,9.63,8.4,5.3,10.65-1.33-.11-2.68-.21-3.96-.32-1.61,1.28-3.18,2.52-4.67,3.71-2.07-.04-4.17-.84-5.79,1.45,1.04,1.41,2.15,2.91,3.25,4.4-3.11,1.97-5.15,1.7-8.76,1.41-3.53-.29-4.67-.15-7.65,1.58-.11,1.31-.21,2.65-.32,3.95-3.84,3.27-9.28,6.41-9.66,12-2.71,2.19-3.14,4.39-4.6,7.33-1.33,2.67-4.19,3.95-6.57,5.48-1.41.05-2.64-.32-3.98.22-1.39.56-2.87,2.29-4.02,3.25-2.84,2.37-5.62,4.81-8.43,7.2-1.77.11-5.01-.92-5.72,1.47-.61,2.04,1.85,2.85,2.45,4.58-1,1.04-2.21,2.31-3.74,3.92-.18,2.21-.39,4.85-.61,7.51-1.53,1.45-2.96,2.82-4.55,4.33-.09,1.11-.2,2.44-.28,3.46-1.58,2.96-4.37,1.88-3.69,1.21-5.28,3.5-7.49,4.96-9.17,6.07-.34,2.13-.55,3.43-.76,4.73-2.07,1.76-4.13,3.51-6.22,5.29-1.32-.11-2.66-.21-3.29-.27-4.55,1.16-1.81,6.62-6,7.72-1.1-.04-2.43-.09-3.76-.13-2.07,1.75-4.13,3.51-6.24,5.31,1.17,1.52,2.34,3.04,3.52,4.57-2.06,1.76-4.13,3.51-6.5,5.54-2.48-.2-7.17-1.58-9.29.32-2.15,1.92-1.33,6.86-1.39,9.33,2.41,2.83,4.6,5.41,6.78,7.96,1.55,6.81-3.59,5.36-7.92,7.78-2.44,1.37-3.97,1.21-6.48,2.07-2.71.92-4.69,3.53-6.78,5.34-.24,2.25.02,4.39-2.49,5.66-2.36-.19-5.02-.41-7.7-.62-1.41,1.13-6.34,3.72-6.49,5.82-.2,2.69,3.05,1.97,4.49,2.24,2.7.51,2.11,2.4,2.58,4.66.48,2.33,1.45,4.36,3.41,5.81-.04,1.45-.08,2.78-.12,4.11-2.18,1.47-2.9,1.59-5.45,2.15-2.32.51-4.36,2.26-6.47,3.34-1.91-.44-3.93,0-5.81-.59-2.03-.66-3.13-2.44-4.47-4.01-1.82.79-3.13,2.04-4.64,3.33-1.29-.11-2.63-.21-3.94-.32q-3.68,4.35.62,9.85c-1.03,4.53-6.22.29-7.79,3.7.99,1.71,2.27,3.07,3.58,4.55q-5.02,2.69-9.93-2.63c-2.47-.2-5.13-.41-8.17-.66-1.67,1.32-7.22,4.11-5.69,6.64,1.56,2.59,5-.04,6.53,3.3-1.21,1.21-2.49,2.5-3.88,3.89,1.1,1.42,2.28,2.94,3.48,4.5-6.2,3.71-12.96-.75-19.64,1.34-1.65,1.65-3.52,3.53-5.39,5.4.96,3.79-3.52,4.82-4.12,7.74,2.32,2.72,4.51,5.31,6.8,7.99-1.4,1.31-2.81,2.62-4.27,3.98-.13,1.66-.26,3.39.67,5.98.7.51,1.23,1.54.55,1.37,2.33,2.76-.43,1.86-.43,1.86-.71-.35-1.59-1.39-1.58-2.24-4.31-1.61-2.55-7.93-5.24-9.5-1.99,1.69-4.01,3.41-6.24,5.31,1.06,1.45,2.13,2.91,3.38,4.61-.19,2.33-.4,4.95-.64,7.9-1.17,1.11-2.59,2.45-4.18,3.94-.19,2.4-.4,5.01-.6,7.5-3.08,3.64-6.32,6.66-11.39,6.37-2.29,3.17-11.17,2.3-10.2,6.79,5.5-1.19,4.63,10.19-.65,8.11.71,3.19-1.99,3.35-4.34,3.37-3.5.03-5.13-.16-8.04,1.92,1.07,1.49,2.14,2.97,3.19,4.42-4.37,3.72-8.5,7.23-12.74,10.84,1.16,1.51,2.33,3.03,3.52,4.57-1.88,3.22-6.66.02-8.41,3.66-.27,1.92.19,4.13-2.12,5.26q-12.42-.46-14.16,1.5c.42,1.88,2.96,2.43,2.42,4.76-1.02.87-2.05,1.75-3.37,2.87-.19,2.36-.4,4.99-.64,7.9-1.94,1.72-3.65,3.87-5.97,5.12-2.2,1.18-4.74,1.35-7.12,1.97-.27,3.3.33,7.57-2.18,9.89-1.92.77-3.92.24-5.89.13-2.45-.14-3.28.72-5.22,1.93-.21,2.63-.43,5.32-.64,7.93-2.14,1.82-4.2,3.58-6.38,5.43-2.56-.21-5.23-.42-7.91-.64-1.75,1.41-3.1,2.98-5.01,3.49-4.09-4.84-7.43-8.75-10.75-12.66-.81.88-2.25,1.73-2.3,2.64-.15,3.15-1.94,6.63,1.22,9.37,2.93.23,5.85.47,10.09.81-.23,2.88-2.48,4.08-4.57,5.95-.04,1.44-.08,2.76-.12,4.09q3.41,4.28,1.54,5.87c-1.33-.05-2.65-.1-3.98-.14-3.83,1.18-1.45,6.38-5,7.74-1.75-2.06-3.5-4.12-5.25-6.17-.01-1.31-.03-2.61-.04-4.11,1.35-1.27,2.78-2.63,4.23-3.99-3-4.44-7.57-2.5-8.15,2.18-.77,6.14-1.08,12.39-1.52,18.58-2.79-3.33-5.51-6.72-8.23-10.12.08-.19.27-.33.3-.54-.45-.52-1.08-.97-1.77-1.33-75.59-95.26-120.9-215.58-120.9-346.35,0-307.86,250.47-558.34,558.34-558.34Zm285.22,301.02c-1.5-1.92-4.27-4.36-4.97-6.79-.64-2.25.97-4.03,2.34-5.67,1.32.11,2.63.21,3.91.32,1.35,1.12,1.47,2.45,1.73,4.05.32,1.93.78,2.69,1.76,4.4,1.69.13,7.36.52,4.83,3.64-1.53,1.88-7.54.22-9.61.05Zm1.28,5.58c-.39,2.57-4.53,3.89-6.33,1.57-.93-1.19-.67-2.37.74-3.12,1.97-1.04,4.38.14,5.59,1.56Zm3.6-44.64c-.39,2.57-4.53,3.89-6.34,1.57-.93-1.19-.67-2.37.74-3.12,1.97-1.05,4.39.14,5.59,1.56Zm-1.7-61.67c1.58-2.75,6.52-.61,6.49,2.09-1.47,2.6-8.29,1.04-6.49-2.09Zm-22.38,64.46c-2.95,2.7-5.66,2.48-8.14-.65,2.95-2.7,5.65-2.48,8.14.65Zm-34.1-53.35c-.8,1.52-1.58,2.7-2.32,3.62-2.07-.64,1.33-3.19,2.32-3.62Zm-2.71,4.1c-2.62,3.01-4.42,2.38-3.54.49.69-1.47,3.34-1.92,3.54-.49Zm3.2-1.96c-.36.72-1.43,1.63-2.28,1.58,2.99-3.79,2.28-1.59,2.28-1.58Zm-18.45,20.47c-3.48-.28-6.11-.49-8.74-.7-2.67-2.96-2.51-5.67.71-8.11,1.33.11,2.64.21,4.29.35,1.23-1.22,2.62-2.61,3.8-3.78,1.74.14,3.05.25,4.36.35,4.79,4.58-1.19,8.8-4.42,11.9Zm-1.13,57.09c-2.64-.21-5.28-.43-7.92-.64-2.17-1.46-1.59-2.61.13-4.07,2.64.21,5.28.43,7.92.64,2.18,1.47,1.58,2.62-.13,4.08Zm-12.27-42.48c-2.55-.39-3.83-4.53-1.55-6.33,1.18-.93,2.35-.68,3.11.74,1.05,1.97-.13,4.39-1.55,5.59Zm-15.97,206.39c-2.99,2.33-6.26.11-10.7.7.02-2.05-.18-2.74.06-2.95,3.38-2.96,6.81-5.86,10.24-8.77,3.17,3.75,1.4,7.38.4,11.02Zm-71,56.66c-3.15.15-.63-3.28.11-3.91.9.71,2.43,3.79-.11,3.91Zm-11.64-35.49c-.71.9-3.79,2.43-3.91-.11-.15-3.15,3.28-.63,3.91.11Zm-10.74,9.18c-3.15.15-.63-3.28.11-3.91.9.71,2.43,3.79-.11,3.91Zm-26.18-15.56c-1,.85-1.09,1.61-2.26.48-.62-.61-.64-1.28-.32-2.04.98-2.26,3.6-.14,2.58,1.56Zm-11.59-73.25c-3.15.15-.63-3.28.11-3.91.9.71,2.43,3.79-.11,3.91Zm-25.98,156.5c-2.75-1.58-.61-6.52,2.09-6.49,2.6,1.47,1.04,8.29-2.09,6.49Zm-27.96-21.81c-.15,1.9-.3,3.79-.46,5.68-3.52,2.89-3.9,2.9-7.67.31,4.39-4.87,4.36-4.9,8.13-5.99.79-3.19,1.11-3.46,4.39-3.73h0c-1.07-.86,1.83-3.02,2.73-3.42-.38.71-.71,1.33-1.02,1.9,2.12-1.63,1.52.24,1.52.24-.37.75-1.51,1.71-2.38,1.58-.06,0-.1-.02-.15-.04-1.8,3.04-2.58,3.25-5.09,3.46Zm.64,42.94c-2.95,2.7-5.66,2.48-8.13-.65,2.95-2.7,5.65-2.48,8.13.65Zm-14.87-26.35c-.39,2.55-4.53,3.84-6.33,1.55-.93-1.18-.68-2.35.74-3.1,1.97-1.05,4.39.14,5.59,1.55Zm-17.83-23.25c-4.34-.39-4.12-4.68.2-4.1,4.18.57,4.28,4.46-.2,4.1Zm-15.93,63.72c-2.44,3.27-4.4,5.17-7.72,3.55-1.57-.77-2.29-1.86-.65-3.14,1.62-1.27,4.96-.34,6.82-.19-1.12-3.56-2.36-5.12-3.56-6.62.19-1.42.37-2.74.54-4.01,1.46-1.95,3.62-1.1,5.42-1.58,1.79-.47,3.27-2.13,4.88-3.27.58.88,1.86,1.91,1.79,2.84-.29,3.96.01,8.01-1.45,11.84-2.31,2.53-5.1.4-6.08.57Zm-.74,24.11c-1.75.7-3.67-2.16-1.12-2.79.81-.2,1.43-.12,1.96.64.93,1.33.16,1.3-.84,2.15Zm-7.05,19.85c-.85-1-1.62-1.09-.48-2.26.61-.62,1.28-.64,2.04-.32,2.26.98.14,3.6-1.56,2.58Zm-14.97-31.36c2-1.7,4.03-3.43,6.35-5.4,1.59,1.86,4.2,3.96,5.07,6.27,1.05,2.8-.37,4.13-2.07,6.21-2-.16-4-.32-6-.48-.9,3.05-2.86,4.95-6.18,3.33-1.57-.77-2.29-1.86-.65-3.14,1.62-1.27,4.96-.34,6.82-.19.88-3.22-2.63-4.18-3.35-6.6Zm-6.82,20.87c-3.64,2.86-6.66,6.52-10.91,8.54-5.24-1.16-5.29-1.19-4.74-6.54,3.57-3.01,7.17-6.03,11.2-9.44,1.42,2.13,2.87,4.3,4.6,6.9.08-.37.14.3-.16.54Zm-66.06,24.69c-2.06-.64,1.33-3.19,2.32-3.62-.8,1.52-1.59,2.7-2.32,3.62Zm2.81-1.49c-.35.72-1.43,1.63-2.28,1.58,2.99-3.79,2.28-1.59,2.28-1.58Zm-3.2,1.96c-2.62,3.01-4.42,2.38-3.54.49.69-1.47,3.34-1.92,3.54-.49Zm-1.35,32.62c1.62-1.27,4.96-.34,6.82-.18h0c-1.07-.86,1.83-3.02,2.73-3.42-.41.73-.79,1.39-1.16,2.01,2.28-1.82,1.66.13,1.66.13-.37.75-1.51,1.71-2.38,1.58-.13-.02-.22-.05-.32-.07-2.36,3.48-4.12,4.35-6.7,3.09-1.57-.77-2.29-1.86-.65-3.14Zm10.75-31.84c.81-.2,1.43-.12,1.96.64.93,1.33.16,1.3-.84,2.15-1.75.7-3.67-2.16-1.12-2.79Zm1.7,17.46c1.49-2.1,3.59-1.28,5.36-1.25,2.6-.8,3.57-4.4,6.88-3.55.16-1.96.32-3.94.5-6.26,1.38-1.02,2.97-2.18,4.34-3.19.13-1.68.24-3,.36-4.51,1.95-1.56,4.01-3.19,6.26-4.99,2.96-.05,6.08-.48,8.18-3.44,2.49,1.61,2.53,1.6,1.97,5.66-6.65,5.71-13.13,11.32-19.69,16.85-.36.3-1.28-.06-1.93-.11-.16,2.02-.32,4.04-.49,6.12-2.04,1.7-4.1,3.44-6.22,5.2-6.2.18-6.71-.42-5.53-6.53Zm2.82-40.4c2.01-1.51,4.06-3.06,7.28-5.48,3.33.91,7.03-.77,9.23,2.79-1.41,1.26-2.82,2.53-4.31,3.87-.31,3.81-1.07,7.03-4.68,3.6-2.13-2.02-6.09-2.26-7.52-4.76Zm-31.33,78.77c-4.39,4.87-4.36,4.9-8.13,5.99,0,.03-.02.06-.03.09.23-2.61.36-4.2.49-5.78,3.5-3.03,3.89-2.97,7.67-.31Zm-2.44-42.27c1.97-1.05,4.39.14,5.59,1.56-.39,2.55-4.53,3.83-6.33,1.55-.93-1.18-.67-2.36.74-3.11Zm5.9,57.36c3.87-.86,4.28,4.33-.47,4.05-4.32-.26-3.91-4.4.47-4.05Zm2.99-20.96c-1.72-.64-3.84-4.37-4.83-5.88,4.33-2.36,4.35-2.39,7.95.97-.41,1.77.3,6.19-3.12,4.92Zm-18.1,13.04c.62-1.32,2.82-1.82,3.41-.88-1.25,3.66-4.55,3.31-3.41.88Zm-4.86,26.74c-2.64-.21-5.28-.43-7.92-.64-2.18-1.47-1.59-2.62.13-4.08,2.64.21,5.28.43,7.92.64,2.18,1.46,1.58,2.61-.13,4.07Zm-12.39-38.45c-1.33.93-1.3.16-2.15-.84-.71-1.75,2.16-3.67,2.79-1.13.2.81.12,1.43-.64,1.96Zm-5.85,42.82c-1.58,2.6-.81,4.84-3.95,6.63-.62-3.01-1.1-6.39-.26-9.42.77-2.76,3.73-4.58,6.47-2.55,2.95,2.18-1.16,3.51-2.27,5.34Zm-7.31-31.62c-1.33.93-1.3.16-2.15-.84-.71-1.75,2.16-3.67,2.79-1.13.2.81.12,1.43-.64,1.96Zm-6.68,47.13c-2.95,2.7-5.65,2.48-8.13-.65,2.95-2.7,5.65-2.48,8.13.65Zm-17.95,11.49c-1,.85-1.09,1.62-2.26.48-.62-.61-.65-1.28-.32-2.04.98-2.26,3.6-.14,2.58,1.56Zm-42.97,25.12c-.64,1.72-4.38,3.84-5.89,4.83-2.36-4.33-2.39-4.35.97-7.95,1.77.41,6.19-.3,4.92,3.12Zm-108.48,103.61c1.33-.93,1.3-.16,2.15.84.71,1.75-2.16,3.67-2.79,1.12-.2-.81-.12-1.43.64-1.96Zm-162.38,285.73c-1.44,1.97-.34,5.31-3.46,6.54-3.24-.26-6.59-.53-9.94-.8-.23,2.9-3.55,4.75-5.72,6.6-2.21,1.88-4.47,4.83-7.43,4.6-.15,1.87-.3,3.74-.47,5.8,1.03,1.35,2.15,2.8,3.33,4.34-1.49,2.68-5.17,6.01-8.23,5.76-.16,2.02-.32,4.03-.49,6.12-2.03,1.69-4.1,3.41-6.2,5.17-3.19-1.38-2.13-3.86-1.5-6.23,2.87-1.47,4.19-5.43,8.19-5.09,1.5-3.89-5.12-5.11-7.67-6.16.22-2.73-.51-8.19,2.19-9.87,2.6-1.61,7.92-.09,10.85.15.32-3.97.4-8.04.97-11.99.54-3.78,2.82-4.05,6.3-3.76,2.1,1.52,2.61,4.8,5.88,4.56.27-3.35.54-6.7.82-10.23,1.99-1.61,4.07-3.3,6.78-5.5,3.28.27,7.26.45,11.19,1,.88.13,1.57,1.57,2.34,2.4-2.57,2.18-5.13,4.36-7.74,6.58Zm10.37-27.65c.62-1.32,2.82-1.82,3.41-.88-1.25,3.66-4.55,3.31-3.41.88Zm19.42-5.28c-.74,1.27-2.01,1.69-3.33,1.02-.37,2.77-1.67,3.67-3.17,3.74-3.12.13-6.26-.4-9.4-.65-.02.06-.04.11-.05.16.32-4.27.29-5.66,3-7.71,1.27,1.37,2.54,2.73,3.72,4,2.05.17,3.94.32,5.83.47,0-.02,0-.03-.01-.04-.52-.27-.81-.38-.94-.42.15.02.44-.02.7-.31-.98-2.87-2.17-4.18-3.3-5.4.12-1.46.22-2.73.32-4.02,1.74-2.45,4.03-2.5,6.74-1.23.75.88,1.03.61,1.13.36-.02.17-.03.45-.04.91-.02,3.1.49,6.28-1.19,9.14Zm4.48-18.76c-2.13-.17-7.87.4-9.12-1.61-1.5-2.4,3.62-5.4,5.2-6.88,1.79.14,3.1.25,4.45.36,2.72,2.95,2.19,5.64-.53,8.13Zm6.68,8.02c-.85-1-1.62-1.09-.48-2.25.61-.63,1.28-.65,2.04-.32,2.26.97.14,3.6-1.56,2.57Zm6.8-8.3c-1,.85-1.09,1.62-2.26.48-.62-.61-.65-1.28-.32-2.04.98-2.26,3.6-.13,2.58,1.56Zm7.51-10.17c-1.09-1.36-5.13-4.78-4.95-6.73.25-2.64,4.2-1.61,5.73-1.49,2.67,2.91,2.48,5.6-.79,8.22Zm12.54-21.06c.62-.69,1.01-1.1,1.48-1.61,1.2,1.06,2.39,2.13,3.6,3.18-1.47.74-2.51.24-5.07-1.56Zm474.63,16.59c-136.95,0-262.47-49.65-359.71-131.78.07-.9.14-1.76.23-2.82,3.24-2.7,6.36-5.52,9.71-8.1,3.23-2.49,3.12-5.21,5.02-8.59,4.94-4.06,10.69-8.77,16.29-13.37.2-1.56.37-2.88.55-4.19,11.24-9.56,22.45-19.14,33.7-28.69,5.52-4.69,11.05-9.37,16.58-14.04,2.79-2.35,6.11-4.6,8.62-7.25,1.9-2.01,1.91-4.44,3.28-6.71,5.95-5.06,11.91-10.11,17.84-15.18,3.06-2.62,6.11-5.24,9.15-7.88,2.71-2.35,2.75-3.26,3.46-6.64,5.74-4.89,11.47-9.78,17.22-14.65,2.79-2.36,5.58-4.7,8.34-7.09,1.32-1.14,3.82-2.64,4.68-4.15.75-1.33.48-2.75.69-4.22,13.13-11.17,26.47-22.53,39.33-33.47.53-2.52.28-3.73,2.21-5.56,2.09-1.97,4.35-3.79,6.54-5.66,4.51-3.86,9.05-7.68,13.58-11.53.36-2.5.23-4,2.18-5.66,5.69-.35,5.85-.48,7.94-8.05,7.62-6.48,16.34-13.91,25.41-21.62.03-1.37.29-3.32,2.44-4.51,1.22.1,2.56.21,3.65.3,2.88-1.06,2.06-3.69,3.26-5.86,1.56-2.83,5.71-5.23,8.18-7.34.18-1.31.37-2.63.57-4.07,1.4-1.28,2.88-2.63,4.4-4.01.16-1.95.32-3.98.48-6.01-2.7-.21-5.41-.43-8.21.24-1.07,3.09-4.59,2.78-3.42.28.59-1.27,2.63-1.77,3.36-1.31.25-5.25,10.23-4.19,8.27.79,2.02.16,4.05.33,6.1.49,3.59-3.06,7.19-6.14,10.88-9.3.1-1.23.21-2.56.31-3.84,4.56-4.03,9.06-8,13.34-11.78-.38-5.6,4.48-6.54,7.07-9.29,1.94.02,4.05.88,5.55-1.24.23-1.23.47-2.51.96-5.08,2.5-1.66,5.84-3.89,8.51-5.66.2-2.52.31-3.86.48-5.92,9.91-8.43,20.19-17.18,30.77-26.18.79-2.61-1.04-6.4,2.72-9.15,3.68.3,9.22,2.1,10.52-2.66.82-3.02-.86-6.55,2.56-8.47,1.22.1,2.55.2,3.8.3,1.66-1.3,3.23-2.54,4.85-3.8,1.3.1,2.64.21,3.95.32,3.47-4.44,3.53-4.49-1-9.96-.26-3.58.58-6.24,4.45-6.05,2.17.1,4.33.42,6.51.53,2.37.12,3.56-.53,5.61-1.54.11-1.32.21-2.65.32-3.94,1.52-1.4,2.99-2.75,4.53-4.17.1-1.26.21-2.59.31-3.85,2.13-1.82,4.2-3.57,6.5-5.53,2.15.17,6.78,1.57,8.74.23,1.23-.84,1.88-4.48,2.05-4.89,2.68-2.7,4.57-4.61,6.13-6.2,1.93.05,3.26.09,4.29.11,3.82-3.13,7.48-6.14,11.06-9.08.12-1.5.23-2.84.33-4.14,2.11-1.79,4.17-3.55,6.23-5.3,4.55-.69,9.17,1.58,13.95-.37.61-3.06,1.25-6.22,1.72-8.58,2.4-2.36,4.32-4.24,6.1-5.99,1.68.14,3.01.24,4.22.34,2.99-1.59,1.33-4.4,3.26-6.48,1.71-1.85,4.4-.61,6.46-1.71,2.52-1.34,2.97-3.01,6.19-2.79,2.78.19,5.4,1.15,7.51-1.34.11-1.35.22-2.7.32-3.97-1.22-1.56-2.4-3.08-3.56-4.58,1.93-2.62,5.47-.74,7.56-2.65,1.75-1.6,1.21-6.71,1.38-8.78,4.89-4.16,10.35-10.48,16.24-13.05,1.94.47,3.82.23,5.32-1.55.21-2.62.43-5.31.64-7.92,1.67-2.19,3.66-1.38,5.9-2.07,2.68-.83,4.95-3.68,6.97-5.54.28-1.54.51-2.83.74-4.12,5.67-4.83,11.34-9.65,17.07-14.53.1-1.28.21-2.61.3-3.74.98-1.72,2.61-1.81,4.35-2.05,2.09-.29,2.66-.61,4.28-1.83,1.52-1.15,2.23-1.3,4.17-1.52,1.69-.2,3.17-.25,3.86-2.12-1.74-2.04-3.98-4.1-3.19-7.07.72-2.69,4.07-4.89,5.96-6.77,5.02.41,9.04.73,12.97,1.05,2.16-1.84,4.23-3.6,6.34-5.39-1.17-1.52-2.34-3.04-3.52-4.57,1.94-.98,3.49-1.54,5.57-2.15.73-.21,1.71-.34,2.25-.93,1.62-1.77,1.03-6.23,1.2-8.38,2.36-2.01,4.42-3.76,6.53-5.55,1.29.11,2.63.21,3.96.32,4.64-3.86,9.25-7.69,13.33-11.09,2.5-.19,7.26.27,6.38-3.7-2.88-.61-3.97-1.63-3.13-2.98.8-1.31,2.01-1.64,3.46-1.07.23-2.89,2.46-4.08,4.55-5.95.27-2.07-.12-4.26,2.36-5.49,1.23,1.27,2.53,2.61,3.97,4.09,1.13.09,2.46.2,4.19.34,1.73-1.62,3.69-3.47,5.82-5.46-.17-4.39-6.07-.9-7.02-4.53.02-1.33.04-2.65.07-3.97,4.46-3.38,4.92-3.33,9.46,1.84,3.89-1.08,6.05-4.55,9.26-6.75,1.25.1,2.58.21,3.83.31,2.15-1.58,2.22-2.85,3.14-5.2.87-2.22,2.5-3.26,4.31-4.7,4.4-3.52,8.57-7.32,12.86-10.96-2.25-3.38-5.84-5.43-6.72-9.45,2.8-1.95,3.1-4.53,4.57-7.32,1.46-2.76,4.51-4.26,7.18-5.6,2.29.18,4.92.39,5.77.47,5.05-3.53,8.9-6.23,12.43-8.7-1.4-5.18,3.55-5.92,4.6-9.32.08-2.3.17-4.92.26-7.22-3.55-3.48-4.58-6.12-.71-9.58,1.73,2.04,3.41,4.62,6.46,4.32,2.78-.28,5.5-3.28,7.66-4.87.29-3.62.51-6.29.71-8.85,2.96-2.87,6.59-4.83,8.75-8.34-.51-2.78,1.72-3.94,3.3-5.7,2.17-2.41,1.72-5.96,1.97-9.06,4.21-3.69,8.72-7.65,13.28-11.65.11-1.33.21-2.65.3-3.66,1.59-1.63,2.97-3.05,4.36-4.47-.6-3.23,1.93-4.07,3.56-6.15,1.85-2.37,1.88-6.81,2.45-9.76,3.21-1.2,3.44-4.71,4.74-7.4.8-1.67,2.43-2.12,3.27-3.39.31-.47.39-1.03.47-1.58,84.37,97.84,135.57,225.05,135.57,364.08,0,307.86-250.47,558.34-558.34,558.34ZM1506.07,357.16c-3.55.51-5.32-1.42-7.01-3.95-2.85-.59-12.35-.67-10.44-5.48-.05-.02-.09-.04-.14-.05,7.48.62,13.56.99,19.58,1.57,1.71.17,4.66.27,4.06,2.8-.41,1.72-4.77,4.1-6.05,5.11Zm8.68-41.53c-.3.61-1.12,1.35-1.88,1.54-1.79,5.23-2.06,8.58-2.33,11.91h0c.86-1.07,3.01,1.83,3.41,2.73-.67-.32-1.27-.63-1.83-.93,1.52,2.03-.31,1.43-.31,1.43-.75-.37-1.71-1.51-1.58-2.38,0-.06.03-.11.04-.16-2.91-1.95-3.62-3.55-4.78-5.21-2.2-.18-3.52-.28-4.81-.39q-2.51-4.48.91-8.06c3.31.27,6.62.53,9.93.8h0c-1.07-.86,1.83-3.01,2.73-3.41-.23.56-.44,1.09-.64,1.61,1.66-1.11,1.14.52,1.13.52Zm14.91,11.57c1.48.69,1.92,3.34.49,3.54-3.01-2.62-2.38-4.42-.49-3.54Zm2.45,6.74c-.72-.35-1.62-1.43-1.58-2.28,3.79,2.99,1.59,2.28,1.58,2.28Zm-1.49-2.81c.64-2.07,3.19,1.33,3.63,2.31-1.52-.8-2.71-1.58-3.63-2.31Zm-9.82-27.75c.21-2.64.43-5.29.64-7.96,3.48-3.4,10.46-1.58,14.74-.56,2.18,1.52,1.15,3.62,1.2,5.62,1.18,1.46,2.43,3,3.67,4.53-3.63,3.09-17.17,1.98-20.25-1.64Zm105.53-104.62c.4,9.7.32,9.7-2.16,12.84-3.92-3.07-1.41-10.73,2.16-12.84Zm-13.69,37.81c.97-2.26,3.6-.14,2.57,1.56-1,.85-1.09,1.61-2.25.48-.62-.61-.65-1.29-.32-2.04Zm-29.41,9.87c1-.85,1.09-1.61,2.26-.48.62.61.65,1.29.32,2.04-.98,2.26-3.6.14-2.58-1.56Zm-4.45-3.76c-2.95,2.7-5.66,2.48-8.13-.66,2.95-2.7,5.65-2.48,8.13.66Zm-26.82,45.49c1.75-.7,3.67,2.16,1.12,2.79-.81.2-1.43.12-1.96-.64-.93-1.33-.16-1.3.84-2.15Zm9.4,18.47c-2.94,2.69-5.64,2.47-8.12-.66.11-1.31.21-2.62.34-4.2-1.21-1.28-2.56-2.7-3.93-4.15,2.17-1.16,4.23-2.44,6.54-1.13,2.19,1.25,3.94,4.28,5.49,6.2-.11,1.32-.21,2.62-.32,3.94Zm52.95-48.87c-3.12,4.06-7.72-.3-11.78,2.37-.37,1.26-.89,3.08-1.47,5.06-1.25,1.19-2.68,2.55-4.19,3.99-.21,2.66-.43,5.3-.61,7.62-1.54,2.22-8.32,2.6-7.18-1.13.49-1.62,3.01-2.45,3.68-4.1.82-2.04-.59-3.67-1.79-5.25-2.57,2.19-5.15,4.38-8.06,6.86-4.19-.08-8.37-.23-12.56-.26-2.62-.02-7.45-.92-6.53,3.27,3.55-.5,3.52,3.71,10.15,4.99-.12-.01-.23-.02-.34-.03,4.02,2.42-1.5,9.24,6.45,9.32-3.18,2.83-5.1,4.55-6.97,6.22-3.32.69-6.49.54-9.54-.81-.41-.54-1.18-1.09-1.15-1.59.4-6.04.91-12.07,1.4-18.1-3.1-.26-5.15-3.48-3.17-6.47,1.81-2.74,5.08-.56,7.16-2.31,1.72-1.44,1.38-5.49-.27-6.81-2.39-1.92-9.1-1.19-12.13-1.43-5.84-3.68,3.68-4.06,5.86-5.26,1.65-.91,3.08-2.72,5.14-2.24,1.93.45,3.72,3.06,4.9,4.45,1.31.19,2.62.38,4.07.59,1.27,1.39,2.62,2.87,4.01,4.39,1.27.1,2.62.21,3.64.29,5.38-4.46,10.59-8.77,15.65-12.95.38-2.15-.27-4.41,2.04-5.57,3.01,2.75,4.04,3.69,8.1,4.26,1.28,1.4,2.62,2.88,4.01,4.4.6.05,1.27.1,1.94.16-.14,2.02-.31,4.04-.47,6.06Zm6.61-5.57c-2.09-.17-4.1-.33-6.12-.5.28-4,4.4-4.68,6.32-7.27,2.44-.24,5.05-.9,5.9,2.47-2.07,1.8-4.1,3.57-6.1,5.3Zm21.62-41.94q-5.12,5.38-8.57,6.23c-.16,2.01-.32,4.02-.48,6,1.25,1.56,2.5,3.12,3.65,4.55-.12,1.45-.22,2.78-.32,4.02-2.87,3.21-6.34.88-9.49,1.23-2.55-1.86-4.67-4.07-5.76-6.82,1.36-1.58,3.16-2.87,3.72-4.57.62-1.87.72-3.81,2.68-4.91,1.97.16,3.98.32,5.99.48.67-3.68-.28-7.63,2.16-11.5,1.49-.07,3.27-.16,4.75-.23,1.96,1.63,2.13,3.43,1.66,5.5Zm13.75-16.48c-4.34-.39-4.12-4.68.2-4.09,4.18.57,4.28,4.45-.2,4.09Zm22.11-47.24c2.69,2.95,2.48,5.66-.65,8.13-2.7-2.95-2.48-5.65.65-8.13Zm.96,40.93c-1.51-.12-2.82-.23-4.43-.36-1.05-1.4-2.22-2.97-3.24-4.35-3.47-.28-7.59-.77-3.99-4.42,1.2-1.22,1.73-1.83,2.26-3.49.6-1.88.68-3.24,2.67-4.29,1.01,2.86,2.01,5.7,2.97,8.43,1.62.13,2.93.24,4.27.34,2.72,2.95,2.19,5.63-.51,8.13Zm18.67-31.16c-2.7-2.95-2.48-5.65.65-8.13,2.69,2.95,2.48,5.66-.65,8.13Zm-3.42-17.25c-.93-1.18-.67-2.35.74-3.11,1.97-1.04,4.38.14,5.59,1.56-.39,2.55-4.53,3.83-6.33,1.55Zm42.59-21.13c-.85-1-1.61-1.09-.48-2.25.61-.63,1.28-.65,2.04-.32,2.26.97.14,3.6-1.56,2.57Zm19.37,105.81c.69-1.47,3.34-1.92,3.54-.49-2.62,3.01-4.42,2.38-3.54.49Zm6.25-4.59c-.8,1.52-1.59,2.7-2.32,3.62-2.07-.64,1.33-3.19,2.32-3.62Zm.49,2.14c-.35.72-1.42,1.62-2.28,1.58,2.99-3.79,2.28-1.59,2.28-1.58Zm.57-113.52c-1.63,1.27-4.96.34-6.82.19-.62,2.88-1.63,3.97-2.99,3.13-1.31-.81-1.64-2.01-1.07-3.46-1.17-.1-10.59-.75-6.6-4.03,2.3-1.89,7.8.86,6.6,4.03,1.35.11,2.71.21,4.06.32.89-3.05,2.85-4.95,6.17-3.33,1.57.77,2.29,1.86.65,3.14Zm8.59-6.74c-4.71-.38-8.66-.7-12.6-1.02q-2.68-4.15.49-8.1c1.29.1,2.6.21,4.28.34,1,1.36,2.17,2.94,3.55,4.8,1.65-3.03,3.1-5.69,4.49-8.27,1.6.13,2.91.23,4.22.34,4.95,4.52-1.21,8.84-4.42,11.9Zm9.55,60.66c-.2-.81-.12-1.43.64-1.96,1.33-.93,1.29-.16,2.15.84.71,1.75-2.16,3.67-2.79,1.13Zm18.03-103.36c2.64.21,5.28.43,7.92.64,1.42,1.67,1.93,2.91-.52,4.04-2.64-.21-5.28-.43-7.92-.64-1.42-1.67-1.93-2.91.53-4.04Zm.13,16.37c-1.84.27-2.37.64-3.87,1.73-3.87,2.82-3.97-.9-3.69-4.37,1.27-1.51,2.84-1.46,4.61-1.72,1.84-.27,2.37-.63,3.87-1.73,3.87-2.82,3.98.9,3.69,4.37-1.27,1.51-2.84,1.46-4.61,1.72Z"/><path d="m469.12,1592.26c.08.24.17.47.25.73,0,0,.02.01.03.02l.05.02c.08-.62.12-1.32.1-2.13-.05.71-.23,1.12-.43,1.36Z"/><path d="m991.02,967.65c-.44.34-1,.82-1.71,1.52.15.12.38.21.7.27.3-.51.64-1.11,1.01-1.79Z"/><path d="m847.96,1119.62c-.42.33-.93.78-1.57,1.41.12.1.3.18.52.23.34-.5.68-1.04,1.05-1.64Z"/><path d="m276.26,1675.59c-.61-.58-1.48-.87-1.7.65-.01.08,0,.17,0,.26.66,0,1.33.07,2.01.26-.12-.4-.22-.79-.31-1.17Z"/><path d="m1511.53,316.9c.17.14.44.25.85.31.16.02.33,0,.5-.04.22-.66.47-1.34.75-2.06-.49.33-1.16.88-2.1,1.8Z"/><path d="m892.96,1149.17c-.01.32,0,.66.07,1.03.31-.51.23-.85-.07-1.03Z"/><path d="m1664.55,157.71c-.61-.53-1.42-.74-1.63.72,0,.02,0,.03,0,.04.66.15,1.32.3,2.01.48-.1-.43-.24-.84-.39-1.24Z"/><path d="m709.03,1200.7s0,.09,0,.14c.56.21,1.22.35,2.01.38-.22-.48-.4-.93-.55-1.37-.58-.42-1.27-.48-1.46.85Z"/><path d="m1512.14,330.88c-.34-.45-.85-1.04-1.59-1.8-.12.15-.21.37-.27.68.54.36,1.15.73,1.86,1.11Z"/><path d="m1602.03,508.19c1.67-.4,2.92-1.05,4.46-1.8.1-1.3.21-2.63.31-3.91,3.03-2.7,6-5.35,9-8.02.33-4.08.65-8.08.96-11.87,2.1-2.88,6.62-.6,8.2-3.73,2.07-4.11-.74-10.25,3.06-13.48,1.99-.06,4.9.26,6.17-1.63,1.57-2.32.24-6.09,1.54-8.72,2.31-2.13,5.8-4.77,3.22-8.24-1.55-2.09-5.19-1.59-7.6-1.81-3.2-.28-6.39-.49-9.59-.75-2.87,2.44-1.87,5.33-2.75,8.64-1.04,3.94-3.31,2.24-6.12,3.08-3.96,1.18-.68,3.78,1.79,4.12,2.87.4,6.05-.27,7.67,2.8-2.05,1.43-4.2,2.94-7.05,4.93-4.57.31-7.25,2.82-10.19,6.2-.92,3.22.85,7.02-2.63,9.33-1.33-.04-2.66-.09-4.09-.13-1.49,1.19-3.04,2.44-6.74,5.39-.12,1.52-.39,4.88-.8,9.89-2.41,1.51-5.83,3.64-8.78,5.48-.4,4.92-.72,8.91-1.03,12.72-1.92,1.63-5.5,3.42-2.35,5.75,3.98.32,8.01.64,12.06.97,1.53-1.21,3.1-2.45,4.65-3.67,1.65-.04,4.09,1.05,5.17-.75,1.24-2.07-1.55-3.43-2.52-4.88-.03-1.71-.39-3.92,1.08-5.1.74-.59,2.01-.59,2.89-.81Z"/><path d="m207.92,1900.55c1.14-.98,3.93-2.5,3.49-4.26-.51-2.04-3.72-1.67-5.24-1.79-1.83-2.15-3.58-4.21-5.34-6.27.01-1.32.02-2.63.04-4.65,1.84-1.25,4.07-2.74,9.01-6.07-.86.37,2.26,1.88,3.78-.96.11-1.38.22-2.71.31-3.88-1.2-2.22-3.19-2.37-6.43-2.5-2.12,2.28-4.86,5.22-7.02,7.54-3.2-.26-5.23-.42-7.25-.58-.16,1.97-.32,3.95-.5,6.24-1.9,1.47-3.98,3.08-6.28,4.86-4.52-.17-7.83,2.59-10.7,6,1.11,1.48,2.22,2.95,3.24,4.31-1.41,1.41-2.67,2.67-3.91,3.91,1.91,2.24,3.62,4.26,5.33,6.27,1.5-1.2,3-2.4,4.47-3.57,1.31,1.45,2.62,2.91,3.88,4.3,3.39.27,6.68.54,9.97.81.31-3.87,6.24-7.2,9.14-9.69Zm-23.85-2.29c.61-1.31,2.79-1.81,3.4-.89-1.23,3.67-4.53,3.32-3.4.89Zm13.41,3.6c-1.29-1.41-2.59-2.85-3.9-4.28-1.96-.16-3.91-.32-5.89-.48,1.07-4.16,4.46-4.95,6.15-7.24,2.73,1.7,4.6,4.11,6,6.89-.04,2.06-.32,3.98-2.37,5.11Z"/><path d="m278.92,1843.21c-3.21-1.3-8.6-.72-12.08-1-8.32-.68-16.63-1.34-24.95-2.01-.44,6.47-7.01,1.54-9.33,5.43-.11,1.33-.21,2.67-.32,4.01-2.06,1.75-4.12,3.5-6.17,5.25-7.31.52-8.34,2.07-5.28,7.93,1.32.16,2.63.33,4.04.51,1.51-1.2,3.06-2.45,4.65-3.72,1.97.16,3.99.32,6,.48.16-2.02.32-4.03.49-6.05,1.92-3.29,6.67-.12,8.66-4.09.1-1.19,0-5.88,2.6-4.67,1.66.78,2,5.79,2.45,7.52,1.75.25,3.05.43,4.49.63,1.5-1.18,3.05-2.42,4.6-3.64,1.3,1.43,2.64,2.9,3.86,4.24,4.18.34,8.2.66,12.14.98,2.13-1.82,4.19-3.56,6.29-5.35.29-2.73,1.06-5.17-2.14-6.46Z"/><path d="m1643.39,150.45c.16-2.03.27-3.35.37-4.6,1.5-1.34,2.97-2.64,4.43-3.94.11-1.34.21-2.65.31-3.88,1.99-3.27,6.59-.13,8.42-3.6.21-2.63.42-5.26.66-8.26-1.2-1.22-2.58-2.63-3.77-3.85.19-2.34.35-4.31.51-6.29-3.3-.27-5.73,3.06-8.15,5.16-.22,1.12-.48,2.38-.78,3.89,1.06,1.43,2.21,3,3.49,4.73-1.26,1.2-2.61,2.49-4.09,3.9-.09,1.13-.2,2.45-.28,3.52-1.69,3.09-4.73,1.68-5.69,2.04-3.21,2.38-5.35,3.96-7.29,5.4-.14,1.72-.24,3.03-.38,4.79-2.35.59-4.86.75-7.04,1.91-2.21,1.17-3.81,3.18-5.66,4.81-.29,2.48-.5,4.46,1.53,6,2.45.2,5.1.41,7.99.64,1.35-1.06,2.9-2.28,4.55-3.58,2.52.2,5.18.41,8.9.72,1.83-1.96,2.82-3.9,5.59-3.68.22-2.77-1.74-3.92-3.61-5.83Z"/><path d="m348.48,1759.57c1.03,1.09,1.58,2.06,1.01,3.52,3.86.31,7.1,6.12,9.57,9.01,1.9-.08,3.2-.14,4.23-.18,1.79-1.24,3.39-2.35,3.59-2.49,5.56-1.24,9.49.84,13.59-.52,1.92-1.72,3.9-3.49,5.75-5.14-.01-1.59-.03-2.9-.04-4.21-1.76-2.07-3.51-4.13-5.02-5.91-3.64,1.59-5.59,5.39-9.45,6.67-1.17-1.37-1.12-1.58-1.27-3.28-.1-1.11.51-2.24-.36-3.22-2.1-2.37-3.99,1.23-5.71,2.06-2.15-.17-4.79-.39-7.98-.64-.98-1-2.35-2.42-3.84-3.94-2.18,1.73-3.62,3.58-6.45,3.35-.81,2.4,1.14,3.58,2.39,4.92Zm14.11,1.68c.61-.63,1.28-.65,2.04-.32,2.26.97.14,3.6-1.55,2.57-.85-1-1.62-1.09-.48-2.25Z"/><path d="m1438.18,309.29c-.05-5.5,4.34-7.46,8.17-9.88,6.07.56,6.07.51,9.46-1.22.32-3.98.64-7.99.97-12.03,1.49-1.34,2.96-2.67,4.46-4.02.16-1.98.32-3.98.48-5.99,4,.34,5.32-3.61,8.19-5.09.63-2.37,1.7-4.84-1.5-6.22-2.11,1.75-4.18,3.48-6.2,5.17-.17,2.08-.33,4.1-.49,6.12-2-.16-4-.32-6-.48-2.86,2.28-2.55,5.95-5.39,8.35-3.39,2.87-6.8,5.72-10.19,8.6-.16,1.31-.33,2.61-.51,4.03-1.4,1.27-2.86,2.6-4.38,3.97-.1,1.24-.21,2.57-.33,4.17-2.78,1.01-5.66,2.05-8.43,3.06-.18,2.27-.34,4.27-.5,6.27,2.01.16,4.02.32,6.14.49,1.96-1.72,3.98-3.49,6.05-5.3Z"/><path d="m315.56,1809.41c-3.35-.27-5.99-.48-8.58-.69-2.06,1.75-4.08,3.47-6.09,5.18.56,3.5,3.73,2.36,5.54,3.15,1.5,1.54,2.85,2.93,4.1,4.23,3.33-.42,6.72,1.92,9.69-1.15-1.11-1.47-2.23-2.94-3.81-5.01,2-1.47,3.97-3.2,6.2-4.49,2.1-1.21,5.24.46,6.9-2.41.15-1.87.31-3.85.47-5.84-1.98-.16-3.97-.32-6.9-.56-2.31,2.33-5.09,5.14-7.53,7.6Z"/><path d="m396.59,1725.46c-2.91.36-4.78.58-6.33.77-1.85,2.5-.74,5.86-3.76,7.17-1.25-.1-2.6-.21-3.94-.32q-3.31,4.05-.46,8.05c2.74.22,5.41.44,7.99.64,2.15-1.83,4.2-3.58,6.26-5.33.18-1.31.35-2.62.53-3.93,1.75-3.67,6.52-.45,8.46-3.72.11-1.33.21-2.67.33-4.1-1.73-1.98-3.5-4.02-5.29-6.08-4.39.45-1.23,6.09-3.79,6.86Z"/><path d="m261.79,1858.51c-2.58,2.2-5.14,4.38-8.05,6.85-2.14-2.14-3.04-3.15-5.87-4.15-2.45-.86-4.51-2.28-5.76-4.63-.97.77-6.95,4.43-6.8,5.7.23,1.97,5.11,2.68,6.66,3.22,2.18,2.56,4.36,5.13,6.63,7.79,1.51-1.18,3.03-2.36,4.59-3.59,1.26.1,2.6.21,4,.32,2.01-1.74,4.05-3.49,6.14-5.3.66-2.3,1.65-4.75-1.53-6.21Z"/><path d="m68.25,1923.93c2.13-.62,3.6-2.4,5.81-2.91,2.5-.59,3.14-.48,5.08-2.23-1.06-1.68-2.48-3.1-3.02-5.07-.51-1.88-.02-3.89-1.74-5.3-1.55,1.24-3.1,2.48-4.59,3.67-1.44-.04-2.76-.09-4.08-.13-2.05,1.75-4.1,3.49-6.25,5.32,2.1,2.61,4.75,7.82,8.79,6.64Z"/><path d="m293.08,1823.9c-1.59-.67-4.19-.3-5.92-.44-1.93-.15-3.86-.36-5.79-.52q-1.94,1.96,1.36,6.05c-1.33,1.29-2.68,2.59-4.15,4.02-.09,1.14-.2,2.48-.31,3.89,3.69,6.07,9.11-.22,12.41-3.1.3-1.7.52-2.99.75-4.28,1.77-1.5,5.57-3.97,1.67-5.62Z"/><path d="m1648.46,436.28c1.3-2.27.09-4.21-1.1-6.33-3.94-.32-7.88-.64-11.6-.93-3.19,1.31-3.21,3.73-2.6,6.39,1.71,2.01,3.42,4.01,5.14,6.05,1.29.1,2.6.21,3.93.31,1.93-1.54,4.97-3.28,6.23-5.48Z"/><path d="m87.03,1954.37c-1.51,1.23-3.03,2.45-4.54,3.68-1.32-.11-2.63-.21-3.95-.32-3.11,2.49-3.38,5.19-.6,8.12,3.95.32,7.9.64,11.61.94,3.19-1.31,3.21-3.74,2.6-6.39-1.71-2.01-3.42-4.01-5.12-6.02Z"/><path d="m1605.02,171.17c-.1,1.26-.21,2.56-.36,4.45,1.51,1.5,3.37,3.34,6,5.95,1.72-1.58,3.33-3.12,5.74-3.33,1.89-.16,6.3,1.29,7.78-.45,1.74-2.03-2.08-2.74-3.44-3.26-2.02-.75-3.88-1.68-4.85-3.74-3.63-.89-7.3-2.78-10.87.37Z"/><path d="m489.11,1627.3c-1.88,1.11-1.99,3.03-2.62,4.85-.56,1.64-2.62,2.71-3.62,4.28-1.52,2.39-1.36,4.8.98,6.77,1.3.11,2.61.21,3.93.32,2.01-1.71,4.02-3.42,6.26-5.33.22-1.67.57-3.55.71-5.46.34-4.68.08-4.89-5.64-5.44Z"/><path d="m288.72,1804.99c.13-1.83,1.86-4.57-1.94-5.54-2.62,2.23-5.2,4.42-7.78,6.62-.64.07-1.27.16-1.91.2-5.39.39-6.28,2.33-3.26,7.84,1.3.11,2.63.21,4.31.35,3.31-2.96,6.83-6.11,10.58-9.47Z"/><path d="m298.38,1789.22c3.36,3.66,3.37,3.64,8.02,1.11.1-1.29.21-2.61.31-3.92,1.51-1.35,2.99-2.68,4.46-4.01.16-2.01.32-4.01.48-6.02-4.21-.34-9.6,6.35-12.75,9.06-.17,1.19-.35,2.49-.54,3.78Z"/><path d="m1664.35,398.6c.29-4.21-2.8-4.26-5.87-4.51-2.35,2.01-6.62,4.24-6.86,7.66-.29,4.21,2.8,4.26,5.87,4.51,2.35-2.01,6.62-4.24,6.86-7.66Z"/><path d="m462.36,1658.09c-2.78-1.75-9.07-1-12.31-1.26q-3.27,3.72-.75,8.11c1.32.11,2.64.21,3.96.32,1.53-1.24,3.06-2.48,4.58-3.71,1.61.13,3.93.88,5.11-.59.88-1.11.53-2.17-.58-2.87Z"/><path d="m301.41,1828.65q-3.28,3.81-.65,8.11c2.65.21,5.31.43,7.96.64q3.28-3.81.65-8.11c-2.65-.21-5.31-.43-7.96-.64Z"/><path d="m319.78,1777.03c.22,2.44-1.43,5.01,1.42,8.36,2.68-1.33,6.14,2.26,10.8-1.73-4.93-1.36-3.53-5.53-4.65-8.79-.48-1.41-1.69-1.88-3.19-1.56-.79,3.19-1.1,3.46-4.38,3.73Z"/><path d="m416.81,1707.25c-1.18,1.14-5.61,3.97-5.58,5.75.04,2.75,4.04,2.11,5.65,2.47,1.32-1.25,2.74-2.6,4.02-3.81,1.43.12,8.61.25,5.26-3.18-1.69-1.73-7.13-1.06-9.34-1.23Z"/><path d="m44.88,1944.73c.15-1.93,1.89-8.3-.53-9.42-2.08-.96-5.62,3.11-7.22,4.31-.16,1.95-.26,3.26-.37,4.56q3.89,3.15,8.11.55Z"/><path d="m1407.68,335.43c2.87-1.96,5.75-2.01,8.73-3.86.23-2.92.27-7.11-3.46-4.56-2.87,1.95-5.75,2.01-8.73,3.85-.23,2.92-.27,7.11,3.46,4.56Z"/><path d="m213.65,1903.25c-2,1.7-3.98,3.38-5.98,5.09.11,3.89,3.27,2.51,5.29,3.06,2-1.7,3.98-3.38,5.98-5.09-.11-3.89-3.27-2.5-5.29-3.06Z"/><path d="m1625.92,418.01c.11-1.32.21-2.64.32-3.96q-3.75-3.08-8.11-.75c-.11,1.32-.21,2.64-.32,3.96q3.75,3.08,8.11.75Z"/><path d="m435.16,1688.3q-3,3.93-.55,8.12c1.32.11,2.64.21,3.96.32q3.18-3.91.55-8.13c-1.32-.11-2.64-.21-3.96-.32Z"/><path d="m511.09,1589.89c-.4,1.49.86,1.88,1.64,2.9.9,1.17,1.07,1.98,1.26,3.44.33,2.57,1.87,6.99,3.64,2.24,1.13-3.01.72-6.67.03-9.72-1.81-.14-5.89-1.36-6.57,1.14Z"/><path d="m666.23,1235.43c-.08,2.47,5.09,5.59,7.05,6.44.22-2.7.44-5.41.65-8.11-1.89-.16-7.6-1.66-7.7,1.67Z"/><path d="m467.83,1638.37c-1.93-.14-5.42,3.76-6.81,4.82,2.78,3.39,5.46,3.61,8.33.86.13-1.55,1.16-5.48-1.53-5.68Z"/><path d="m589.2,1303.97c2.01-1.7,3.99-3.4,5.98-5.09-2.45-3.11-5.14-3.35-8.25-.54.5,1.92-1.62,4.87,2.27,5.63Z"/><path d="m1417.61,390.87c1.51-.99,5.25-3.12,5.89-4.83,1.27-3.42-3.15-2.71-4.92-3.12-3.35,3.61-3.33,3.63-.97,7.95Z"/><path d="m1444.69,356.77c-1.98,1.68-3.91,3.33-5.89,5.01,2.33,3.04,3.77,2.67,7.61,2.97.31-3.84.91-5.2-1.72-7.99Z"/><path d="m198.78,1910.24c-.15,1.87-1.08,5.2.19,6.82,1.28,1.64,2.37.92,3.14-.65,1.62-3.32-.27-5.28-3.33-6.17Z"/><path d="m212.74,1888.89c2.48,3.13,5.18,3.35,8.13.66-2.48-3.13-5.18-3.35-8.13-.66Z"/><path d="m230.68,1877.45c-1.25,3.12,5.33,4.3,6.7,1.82.03-2.88-5.45-4.95-6.7-1.82Z"/><path d="m1591.6,479.92c-1.28-1.64-2.37-.91-3.14.65-1.62,3.32.27,5.28,3.33,6.17.15-1.87,1.08-5.2-.19-6.82Z"/><path d="m1175.91,959.7c3.13-2.48,3.35-5.18.65-8.13-3.13,2.48-3.35,5.19-.65,8.13Z"/><path d="m953.27,1113.3c-4.38-.35-4.79,3.79-.47,4.05,4.75.28,4.33-4.91.47-4.05Z"/><path d="m371.24,1746.46c2.48,3.13,5.19,3.35,8.14.65-2.48-3.13-5.18-3.35-8.14-.65Z"/><path d="m1777.74,3.5c.35-4.37-3.79-4.79-4.05-.47-.28,4.75,4.91,4.33,4.05.47Z"/><path d="m466.7,1625.47c-4.31-.59-4.54,3.71-.2,4.1,4.48.36,4.37-3.53.2-4.1Z"/><path d="m1447.46,314.97c3.14,1.78,4.69-5.02,2.09-6.5-2.72-.02-4.89,4.91-2.09,6.5Z"/><path d="m1429.5,331.85c-1.8,3.12,5.02,4.68,6.49,2.08.03-2.69-4.91-4.83-6.49-2.08Z"/><path d="m1674.69,108.13c1.02-1.69-1.6-3.81-2.57-1.55-.33.75-.3,1.43.32,2.04,1.16,1.13,1.25.37,2.25-.48Z"/><path d="m1868.8,100.86c.87.13,2.01-.84,2.38-1.58,0,0,.9-2.76-.49-2.14-1.05.47-4.81,3.3-1.89,3.72Z"/><path d="m1655.17,116.33c.87.13,2.01-.84,2.38-1.58,0,0,.9-2.76-.49-2.14-1.05.47-4.81,3.3-1.89,3.72Z"/><path d="m607.6,1288.32c1.02-1.69-1.6-3.81-2.57-1.55-.33.75-.3,1.43.32,2.04,1.16,1.13,1.25.36,2.25-.49Z"/><path d="m391.88,1532.32c.32-.75.3-1.43-.32-2.04-1.16-1.13-1.25-.37-2.26.48-1.02,1.69,1.6,3.81,2.58,1.55Z"/><path d="m498.26,1604.22c-.76.54-.84,1.15-.64,1.96.63,2.54,3.5.63,2.79-1.12-.85-1-.82-1.77-2.15-.84Z"/><path d="m685.61,1218.19c2.54-.12,1.01-3.2.11-3.91-.74.63-3.26,4.06-.11,3.91Z"/><path d="m346.15,1601.25c1.19-2.68-2.5-2.39-3.33-.62-1.16,2.5,2.35,2.81,3.33.62Z"/><path d="m1889.41,53.98c-2.54.63-.63,3.49,1.12,2.79,1-.86,1.77-.82.84-2.15-.54-.76-1.15-.84-1.96-.64Z"/><path d="m486.81,1621.67c1.02-1.69-1.6-3.81-2.58-1.56-.32.75-.3,1.43.32,2.04,1.16,1.13,1.25.37,2.26-.48Z"/><path d="m1567.99,165.06c1.13-1.16.37-1.25-.48-2.26-1.69-1.02-3.81,1.6-1.56,2.58.76.33,1.43.3,2.04-.32Z"/><path d="m294.26,1798.12c.85,1,.82,1.77,2.15.84.76-.53.84-1.15.64-1.96-.63-2.54-3.5-.63-2.79,1.13Z"/><path d="m1603.2,184.24c1.13-1.16.37-1.25-.48-2.26-1.69-1.02-3.81,1.6-1.55,2.57.75.33,1.43.3,2.04-.32Z"/><path d="m308.92,1801.85c-.53-.76-1.15-.84-1.96-.64-2.54.63-.63,3.49,1.12,2.79,1-.85,1.77-.82.84-2.15Z"/><path d="m293.06,1813c-1.02,1.69,1.6,3.81,2.57,1.56.33-.75.3-1.43-.32-2.04-1.16-1.13-1.25-.37-2.25.48Z"/><path d="m799.81,1090.74c-.63-.74-4.06-3.26-3.91-.11.12,2.54,3.2,1.01,3.91.11Z"/><path d="m1608.98,186.58c-.76.54-.84,1.15-.64,1.96.63,2.54,3.5.63,2.79-1.12-.85-1-.82-1.77-2.15-.84Z"/><path d="m269.46,1835.61c-.85-1-.82-1.77-2.15-.84-.76.54-.84,1.15-.64,1.96.63,2.54,3.5.63,2.79-1.12Z"/><path d="m1789.43,222.03c-1.13,1.16-.37,1.25.48,2.26,1.69,1.02,3.81-1.6,1.55-2.58-.76-.32-1.43-.3-2.04.32Z"/><path d="m1531.96,206.92c1.02-1.69-1.6-3.81-2.58-1.56-.33.75-.3,1.43.32,2.04,1.16,1.13,1.25.37,2.26-.48Z"/><path d="m192.1,1873.6c-2.5-1.16-2.81,2.35-.62,3.33,2.68,1.18,2.39-2.5.62-3.33Z"/><path d="m1048.18,1026.85c2.54-.12,1.01-3.2.11-3.91-.74.63-3.26,4.06-.11,3.91Z"/><path d="m.98,1999.79c.75.32,1.43.3,2.04-.32,1.13-1.16.37-1.25-.48-2.26-1.69-1.02-3.81,1.6-1.55,2.58Z"/><path d="m1511.26,261.06c-.85-1-.82-1.77-2.15-.84-.76.54-.84,1.15-.64,1.96.63,2.54,3.5.63,2.79-1.12Z"/><path d="m1489.81,265.46c1-.85,1.77-.82.84-2.15-.54-.76-1.15-.84-1.96-.64-2.54.63-.63,3.5,1.12,2.79Z"/><path d="m996.64,877.63c1.19-2.68-2.5-2.39-3.33-.62-1.16,2.5,2.35,2.81,3.33.62Z"/><path d="m1236.65,847.6c-1.16,2.5,2.35,2.81,3.33.62,1.19-2.68-2.5-2.39-3.33-.62Z"/><path d="m1242.9,843.01c-1.05.47-4.81,3.3-1.89,3.72.87.12,2.01-.84,2.38-1.58,0,0,.9-2.76-.49-2.14Z"/><path d="m1483.96,289.48c.76-.54.84-1.15.64-1.96-.63-2.54-3.5-.63-2.79,1.12.85,1,.82,1.77,2.15.84Z"/><path d="m1265.88,822.64c.83-1.36-.25-2.37-3.13-2.99-.11,1.35-.22,2.7-.33,4.06,1.46.57,2.66.24,3.46-1.07Z"/><path d="m1425.8,315.89c1.19-2.68-2.5-2.39-3.33-.62-1.16,2.5,2.35,2.81,3.33.62Z"/><path d="m1127.09,729.09c-.63-.74-4.06-3.26-3.91-.11.12,2.54,3.2,1.01,3.91.11Z"/><path d="m1140.24,717.89c-.63-.74-4.06-3.26-3.91-.11.12,2.54,3.2,1.01,3.91.11Z"/><path d="m1196.6,655c2.68,1.19,2.39-2.5.62-3.33-2.5-1.16-2.81,2.35-.62,3.33Z"/><path d="m1424.16,345.26c.85,1,.82,1.77,2.15.84.76-.54.84-1.15.64-1.96-.63-2.54-3.5-.63-2.79,1.12Z"/><path d="m1452.32,350.35c-1.16,2.5,2.35,2.81,3.33.62,1.19-2.68-2.5-2.39-3.33-.62Z"/><path d="m1219.5,624.17c2.68,1.19,2.39-2.5.62-3.33-2.5-1.16-2.81,2.36-.62,3.33Z"/><path d="m1389.69,350.66c1.02-1.69-1.6-3.81-2.58-1.56-.32.76-.3,1.43.32,2.04,1.16,1.13,1.25.37,2.26-.48Z"/><path d="m1678.83,378.03c.85,1,.82,1.77,2.15.84.76-.53.84-1.15.64-1.96-.63-2.54-3.49-.63-2.79,1.12Z"/><path d="m1666,385.33c.53.77,1.15.84,1.96.64,2.54-.63.63-3.5-1.12-2.79-1,.85-1.77.82-.84,2.15Z"/><path d="m1569.78,514.92c-1.02,1.69,1.6,3.81,2.58,1.56.33-.75.3-1.43-.32-2.04-1.16-1.13-1.25-.37-2.26.48Z"/><path d="m1543.44,475.55c-.13.87.83,2.01,1.58,2.38,0,0,2.75.9,2.14-.49-.46-1.05-3.3-4.81-3.72-1.89Z"/><path d="m1651.01,419.37c-.33.75-.3,1.43.32,2.04,1.16,1.13,1.25.37,2.26-.48,1.02-1.69-1.6-3.81-2.58-1.56Z"/></svg>