<?xml version="1.0" encoding="utf-8"?>
<!-- Generator: Adobe Illustrator 27.7.0, SVG Export Plug-In . SVG Version: 6.00 Build 0)  -->
<svg version="1.1" id="Layer_1" xmlns="http://www.w3.org/2000/svg" xmlns:xlink="http://www.w3.org/1999/xlink" x="0px" y="0px"
	 viewBox="0 0 100 47.6" style="enable-background:new 0 0 100 47.6;" xml:space="preserve">
<style type="text/css">
	.st0{fill:#FFFFFF;}
</style>
<g>
	<g>
		<path class="st0" d="M10.9,15.9L10.9,15.9c0-0.7,0-1.4,0-2.1V0.1h2.6v19.6h-3L4.3,5.5C3.8,4.5,3.4,3.2,3.4,3.2H3.3
			c0.1,0.5,0.1,1.1,0.1,1.7v14.7H0.8V0.1h3.4L10,13.4C10.5,14.6,10.8,15.5,10.9,15.9"/>
		<path class="st0" d="M20.1,0.1v13c0,2.9,1.4,4.8,4.2,4.8c2.8,0,4-1.9,4-4.8v-13h2.6v13c0,4-2,7-6.6,7c-4.5,0-6.8-3-6.8-7v-13H20.1
			z"/>
	</g>
	<polygon class="st0" points="35.9,0.1 35.9,19.6 47.9,19.6 47.9,17.4 38.5,17.4 38.5,0.1 	"/>
	<polygon class="st0" points="53,0.1 53,19.6 65,19.6 65,17.4 55.6,17.4 55.6,0.1 	"/>
	<g>
		<path class="st0" d="M11.6,38.3v-1.8c0-4.9-1.4-7.2-4.5-7.2s-4.5,2.3-4.5,7.2v1.8c0,4.9,1.4,7.2,4.5,7.2
			C10.2,45.4,11.6,43.2,11.6,38.3 M0,38.3v-1.8c0-5.8,2.4-9.4,7.1-9.4s7.1,3.6,7.1,9.4v1.8c0,5.8-2.4,9.4-7.1,9.4S0,44.1,0,38.3"/>
		<path class="st0" d="M20.7,45.1h4.1c2.9,0,3.9-1.7,3.9-3.5c0-1.9-1-3.3-3.6-3.3h-4.4L20.7,45.1L20.7,45.1z M20.7,36.2h3.7
			c3.3,0,3.8-1.7,3.8-3.1c0-1.6-0.7-3.3-3.8-3.3h-3.7V36.2z M30.8,32.8c0,1.8-1,3.6-3.3,4.2c2.3,0.4,3.8,2.1,3.8,4.8
			c0,2.5-1.5,5.4-6.3,5.4h-6.8V27.6h6.3C29.5,27.6,30.8,30.5,30.8,32.8"/>
		<path class="st0" d="M40.7,47.7c-4.6,0-6.5-3.6-6.5-6.8l2.5-0.9c0,3.1,1.3,5.4,4,5.4c2.9,0,3.7-2,3.7-4.8V27.6h2.6v13.6
			C47.1,45,44.9,47.7,40.7,47.7"/>
	</g>
	<polygon class="st0" points="64.2,29.8 55.3,29.8 55.3,36.1 63.7,36.1 63.7,38.2 55.3,38.2 55.3,45 64.4,45 64.4,47.2 52.8,47.2 
		52.8,27.6 64.2,27.6 	"/>
	<g>
		<path class="st0" d="M68.4,38.1v-1.4c0-6,2.5-9.5,7.2-9.5c4.1,0,6.4,2.2,6.9,6.9L80,34.5c-0.2-3.2-1.7-5.1-4.4-5.1
			c-3.1,0-4.5,2.2-4.5,7.2V38c0,5,1.6,7.5,4.5,7.5c2.7,0,4.1-1.9,4.4-5.1l2.5,0.5c-0.4,3.9-2.6,6.8-7.1,6.8
			C70.8,47.7,68.4,44.1,68.4,38.1"/>
	</g>
	<polygon class="st0" points="85.1,27.6 85.1,29.8 91.3,29.8 91.3,47.2 93.9,47.2 93.9,29.8 100,29.8 100,27.6 	"/>
</g>
</svg>
