<?xml version="1.0" encoding="UTF-8"?><svg id="Layer_2" xmlns="http://www.w3.org/2000/svg" viewBox="0 0 493.54 500"><defs><style>.cls-1{fill:#282923;}</style></defs><g id="Layer_1-2"><path class="cls-1" d="m117.06,394.11s0,0,0,0c0,0,0,0,0,0Z"/><path class="cls-1" d="m479.98,12.86c-.54.54-1.08,1.09-1.63,1.63-.44.44-.95.82-1.16,1.41v1.05c-.76.76-1.59,1.98-2.53,2.49-.86.47-1.15-.73-2.02-.52l-1.3,1.3c-.02.63.1,1.17-.36,1.63.4.6.44,1.22-.33,1.56-.36.16-.66.12-.64-.35.02-.47.67-.91.97-1.21-.52-.97-1.63.28-2.07.72-.39.39-.77.8-1.13,1.22-.35.4-.29.55-.33,1.06.23.2.45.4.68.6.56,0,1.43-.21,1.22.64-1.29,1.29-2.6,2.6-3.91,3.91-.44.02-.89.04-1.32.05l-1.93,1.93c-.03.47-.06.89-.09,1.28-.46.05-.86.09-1.24.13,0,.88,0,1.65,0,2.47l-1.98,1.98c-.82.02-1.73.04-2.66.07-1.3,1.3-2.6,2.6-3.88,3.88-.72.16-.96-.64-1.59-.66-.6-.02-1.14.71-1.01,1.27.48.58,1.62,1.22,1.2,2.07-.45.91-1.7.6-2.52.59-.37-.36-.64-.76-1.32-.6-1.05,1.05-2.12,2.1-3.16,3.17-.45.47-.93.8-.58,1.47.22.43.61.65.5,1.2l-.65.65c-.79.31-1.13-.96-1.95-.59-.11.48.27.71.47,1.08.23.45.16.9.21,1.38.25.37.48.73.7,1.06q-1.75,2.13-2.71,2.29l-.64-.64c-.63,0-1.24,0-1.86,0-.29.26-.69.52-.67.94.01.21.17.42.26.6.16.36.24.67.33,1.06l-3.9,3.9c-.02.46-.04.9-.06,1.31-.48.03-.92.06-1.4.09-1.52,1.52-3.03,3.03-4.51,4.51-.38,0-.69,0-1.01,0-1.99,1.03-3.06,3.4-4.97,4.58-.36,0-.67,0-.98,0-.96.62-1.75,1.59-2.58,2.39-.77.74-1.4,1.69-2.36,2.19-.86,0-1.63,0-2.39,0-.02.45-.03.9-.05,1.34-.24.22-.46.42-.66.6-.48.03-.92.06-1.33.08-.55.55-1.1,1.09-1.64,1.64-.46.46-.85,1.06-1.58.9-.25-.25-.77-.98-1.2-.57-.44.42.3.97.56,1.24,0,.65,0,1.26,0,1.92l-1.31,1.31c-.39.01-.84.03-1.31.05l-.63.63c-.02.46-.03.92-.05,1.36-.25.22-.47.42-.7.62-.79-.14-1.48.06-2.03.65-.31,0-.62,0-.93,0-4.22,3.8-4.59,4.21-4.78,5.25.28.34.77.56.62,1.14-.63.82-1.25,1.67-2.26,2.1-.31,0-.62,0-1,0-.51.51-1.02,1.02-1.52,1.52-.3.3-.76.97-1.16,1.1-1.09.35-1.19-1.22-1.31-1.85-.65-.45-.87.24-1.23.6,0,.62,0,1.24,0,1.86.47.49.5.55.65,1.12-.63,1.23-2,1.83-2.61,3.08,0,.31,0,.62,0,.99-.41.03-.82.07-1.3.1l-6.51,6.51c-.01.4-.03.86-.05,1.32l-.62.62c-.02.46-.05.89-.07,1.32-.82.06-1.98-.24-2.73.17-.65.36-.84,1.35-1.77,1.09-.03-.43-.06-.85-.09-1.2-.53-.08-.99-.06-1.47-.3-.37-.19-.64-.49-1.1-.39-.38.62-1.31.85-1.29,1.79.59.12,1.33.05,1.74.58.48.63.05,1.23-.6,1.53-.77,0-1.54,0-2.37,0l-1.98,1.98c-.02.79-.05,1.69-.07,2.58-.45.02-.9.04-1.32.06-.26.22-.49.42-.68.58-.48.04-.93.07-1.31.1-.7.7-1.39,1.39-2.09,2.09-.6.6-1.37,1.19-1.76,1.94-.06,1.66-.12,1.71-1.9,1.78-.03.42-.06.84-.09,1.31l-1.91,1.91c-.02.48-.04.93-.06,1.37-1.31,1.31-2.62,2.62-3.9,3.9-.49.02-.94.05-1.36.07-.22.26-.41.49-.6.72-.07,1.73-.12,1.79-1.85,1.85-1,.82-1.95,1.76-2.73,2.72,0,.46,0,.77,0,1.13-.42.03-.85.06-1.31.09-2.8,2.8-5.63,5.63-8.45,8.45-.47.02-.93.04-1.4.06l-2.59,2.59s-.47.03-.32.2c-1.09-1.18,1.27-1.55.99-2.74-1.01-.2-1.83,1.1-2.5,1.75-.72.69-2.07,1.7-2.08,2.75.8.3,1.13-.99,1.96-.57v1.88c-.56.56-1.15,1.4-1.82,1.81-.86.52-.79-.41-.79-1.03-.5-.03-.58-.11-.98.22-.41.33-.78.73-1.15,1.09-.64.62-1.49,1.84-2.39,1.84-.02-.43-.04-.87-.06-1.31-1.02,0-1.63.99-2.08,1.8.09-.17.19.17.2.22.4.61,1.32.86,1.24,1.84-.42.03-.85.05-1.31.08l-1.27,1.27c-.47.02-.92.04-1.35.06l-.62.62c-.03.5-.05.95-.07,1.3-.48.55-1.26,1.13-1.26,1.88.2.46,1.05.69.46,1.39-.78,0-1.55,0-2.42,0-1.68,1.68-3.36,3.36-5.04,5.04-.82.82-1.63,1.67-2.48,2.47-.89.84-1.43-.11-1.64-.97.26-.26,1.06-.85.52-1.27-.44-.34-.91.38-1.17.63-.55.54-1.08,1.09-1.62,1.64-.46.47-.99.81-.99,1.48.41.17.8.14,1.25.14-.07.59-.05.97-.68,1.23-.36.15-.75.06-1.13.18-.83.27-.74,1.11-.75,1.86-.57.57-1.12,1.31-1.78,1.77-.53.36-1.11.11-.72-.55.17-.28.56-.4.57-.77.01-.32-.19-.51-.5-.48-.52.04-1.13.98-1.47,1.32-.18.77.68,1.11.64,1.78-.03.54-1.01,1.15-1.35,1.47-.55.05-.99.09-1.35.13-.76.67-1.27,1.45-2.1,1.87-.77,0-1.54,0-2.35,0-3.89,3.89-7.81,7.81-11.72,11.72-.47.02-.93.04-1.4.05l-5.2,5.2c-.47.02-.92.03-1.39.05l-4.52,4.52c-.51.03-.95.06-1.43.09l-5.17,5.17c-.38,0-.69,0-1.13,0-1.46,1.16-2.67,2.74-4.12,3.92-.43,0-.74,0-1.21,0-.6.59-1.2,1.19-1.79,1.79-.53.53-1.27,1.05-1.48,1.78,0,.31,0,.62,0,.92-.26.32-.58.64-.56,1.08.01.2.16.4.24.58.16.35.23.66.31,1.03-.45.02-.9.03-1.34.05-.24.22-.47.42-.69.62-.9.06-1.82-.14-2.71.16-.6.68-1.38,1.19-1.8,2.03,0,.31,0,.62,0,.92-.21.27-.89.95-.55,1.38.36.47.94-.3,1.17-.53.43-.02.89-.03,1.35-.05l1.3-1.3c.61,0,1.23,0,1.85,0,0,.6.05.68-.4,1.13-.47.47-.94.95-1.41,1.42-.85.86-1.7,1.71-2.55,2.57-1.76,1.76-3.51,3.52-5.27,5.27-.6.15-1.06-.14-1.37.29,0,.31,0,.62,0,.93-.56.11-.96.1-1.24-.49-.26-.55.17-.9.55-1.28.01-.43.03-.89.05-1.35l.63-.63c.47-.02.92-.03,1.32-.05.96-.4.46-1.33.81-1.93.55-.02,1.35.04,1.66-.51.33-.59.12-1.56.05-2.19-.36-.3-.52-.51-1-.57-.49-.06-1-.01-1.5-.02-1.78,1.78-3.52,3.52-5.26,5.26,0,.62,0,1.24,0,1.9l1.31,1.31c0,.74.02,1.48,0,2.22-.01.85-.07,1.04-.59,1.69-.42.02-.87.05-1.37.08-1.05,1.05-2.13,2.13-3.24,3.24-.01.41-.03.87-.05,1.32l-1.94,1.94c-.48.02-.93.04-1.35.06-.41.35-.67.76-1.23.56-.35-.12-.59-.4-.65-.75-.09-.51.25-.79.57-1.12.45-.46.55-.72.7-1.34l-.68-.68c-.58.01-1.2.02-1.9.04-3.2,3.2-6.46,6.46-9.72,9.72-.48.03-.93.05-1.43.08-3.01,3.01-6.05,6.05-9.13,9.13-.01.41-.03.87-.05,1.32l-.63.63c-.48.02-.93.04-1.26.05-.88.88-1.76,1.75-2.63,2.63-.23.24-1.08.84-.61,1.19.29.22.86-.28,1.12-.44.87-.09,1.46-.16,2.03-.22.03.57.06,1.02.09,1.43.27.22.5.4.73.59.77,0,1.54,0,2.33,0,.07.76-.12.9-.67,1.44-.5.48-1.01,1.17-1.71,1.17-.23-.2-.45-.39-.68-.59-.78-.03-1.67-.25-2.35.26-.57.41-.84,1.18-1.68.94-.2-.22-.4-.44-.57-.64-.03-.48-.06-.92-.09-1.32-.36-.39-.68-.71-1.24-.59l-1.29,1.29c-.02.42-.04.87-.06,1.3-.45.02-.9.04-1.31.07-.27.22-.5.41-.69.57-.48.04-.93.08-1.31.11-1.05,1.03-1.04,1.03-1.23,1.88l.98.98c.43-.43,1-1.31,1.57-1.53.38-.15.78-.07.73.36-.09.7-1.77,2.14-2.3,1.17-.54.54-1.09,1.09-1.63,1.63-.47-.11-.69-.18-1.09-.41-.28-.17-.52-.3-.85-.17-.03.45-.06.9-.08,1.21l-2.59,2.59c-.5.14-.96-.17-1.27.28,0,.31,0,.62,0,1-.41.03-.82.07-1.27.1-.2.18-.42.38-.66.59-.02.44-.03.89-.05,1.35l-1.28,1.28c-.47.02-.93.04-.96.04-.89.28-.9.79-1.02,1.57-.16,1.02-1.43,1.62-1.95,2.5-.07,1.67-.11,1.72-1.97,1.8-.62.62-1.25,1.24-1.87,1.87-.71.72-.74,1.02-.74,2.02l-1.9,1.9c-.37.88.89,1.24.58,2.05l-.66.66c-.59-.15-1.04-.48-1.59-.64-.56-.16-1.23.03-1.79.11-.81.81-1.95,1.65-2.49,2.67,0,.31,0,.62,0,.92-3.75,4.1-4.87,5.21-5.49,5.43-.31,0-.62,0-.92,0-.97.81-.87,1.21-.02,2.06.36.36.78.73.48,1.28-.12.21-.73.69-1.01.58-.43-.16-.21-1.16-.46-1.52-.27-.39-.74-.55-1.16-.36-.35.16-.76.76-1.04,1.04-.3.3-.6.6-.9.9-.62.62-1.24,1.24-1.86,1.87-.05.6-.09,1.04-.12,1.42-.81.81-1.62,1.62-2.43,2.43-.69.69-1.63,1.39-2.07,2.26-.06,1.65-.12,1.7-1.91,1.77-4.54,4.54-9.1,9.1-13.73,13.73-.02.36-.04.81-.07,1.3l-.63.63c-.43.02-.89.04-1.32.05-1.97,1.97-3.93,3.93-5.86,5.86-.03.49-.05.94-.07,1.42-2.17,2.17-4.34,4.34-6.48,6.48,0,.37,0,.68,0,.98-.26.74-1.02,1.29-1.56,1.83-.61.61-1.2,1.19-1.9,1.7-.31,0-.62,0-1.11,0-1.53,1.53-3.43,3.02-4.58,4.85,0,.31,0,.62,0,.97-.42.03-.85.05-1.31.08-2.37,2.37-4.76,4.76-7.15,7.15-.46.02-.9.04-1.32.06-.03.46-.05.91-.07,1.25-.72.72-1.36,1.36-1.94,1.94-.55.05-.99.09-1.25.11l-1.34,1.34c0,.41,0,.72,0,1.12-.4.04-.8.07-1.29.12-6.04,6.04-12.13,12.13-18.28,18.28-.02.82-.04,1.73-.07,2.63-.23.21-.46.42-.66.6-.47.03-.92.06-1.26.08-2.9,2.9-5.72,5.72-8.51,8.51,0,.38,0,.68,0,.99-.4,1.05-1.73,1.97-2.53,2.77-.46.46-.91.92-1.37,1.38-.47.48-.55.7-.67,1.33.27.35.79.55.63,1.14-.47.78-1.22,1.32-1.83,1.99-.87.12-1.39.1-2.04.73-.02.87-.05,1.76-.08,2.65-1.29,0-1.72.13-1.95,1.42-.21,1.19-.84,1.19-1.94,1.19-.72.72-1.44,1.44-2.16,2.16-.31.32-.83.69-1.03,1.09-.18.36-.08.88-.08,1.27-.43.02-.87.04-1.29.06-.02.42-.04.86-.06,1.27-.48.03-.93.06-1.24.09-.73.73-1.38,1.38-1.98,1.98,0,.75.07,1.53-.78,1.8-.76.24-1.66.03-2.44.08-.02.44-.04.88-.06,1.32l-.63.63c-.47.02-.93.04-1.31.05l-1.26,1.26c-.06.53-.02,1.03-.26,1.51-.19.38-.53.63-.44,1.11l.63.63q-.19,1.18-1.33,1.29c-.33-.29-.57-.75-1.23-.58l-1.95,1.95c-.02.34-.05.79-.07,1.29l-.59.59c-.02.48-.04.93-.06,1.36-.45.02-.91.04-1.27.06l-2.62,2.62c0,.82,0,1.59,0,2.47-.28.41-.64.71-.68,1.23-.06.7-.02.89-.58,1.43-.41.02-.86.05-1.35.07l-.64.64c-.32.79.94,1.15.6,2.01-3.25,3.25-6.51,6.51-9.75,9.75-.02.49-.05.94-.07,1.48-.73.73-1.46,1.45-2.18,2.18-.57.58-1.69,1.32-1.69,2.15.2.23.4.45.62.7.64.02,1.2-.11,1.67.36.45-.45.92-.26,1.53-.21l1.43-1.43c1.25,0,2.92.28,4.09-.16.25-.38.63-.56,1.11-.49.18.57-.35.84-.55,1.29-.25.57-.09,1.36-.09,1.97.99.07,3.53-.45,3.25,1.33l-.96.96c1.22.65-1.31,3.18-1.96,1.96-.32.49-1.08.67-.99,1.43.24.48.94,1.45,1.56,1.51.66.07,1.28-.87,1.69-1.28.04-.56.07-1,.1-1.49,3.48-3.48,6.95-6.95,10.38-10.38.07-1.77.12-1.82,1.97-1.89,1.06-1.06,2.11-2.11,3.17-3.17.55-.55,1.18-1.09,1.68-1.69.44-.53.37-.95.37-1.63,1.72-1.72,3.46-3.46,5.23-5.23.4-.01.85-.03,1.3-.05.04-.9-.1-1.81.09-2.61l1.25-1.25c.57-.06,1.01-.11,1.33-.14.7-.49.96-1.44,1.94-1.18.34.29.57.76,1.33.56.8-.8,1.61-1.6,2.41-2.41.42-.42.83-.84,1.25-1.26.27-.27.87-.67.88-1.07.04-1.09-1.15.06-1.5.16-.83.23-1-.65-1.13-1.26l.63-.63c.48-.02.93-.04,1.36-.06.42-.49.56-.51.62-1.18.03-.3.02-.72.21-.98.4-.57,1.4-.35,1.98-.62.36-.4.76-.84,1.07-1.19,0-.47,0-.78,0-1.09.19-.23.37-.46.59-.73.42-.02.87-.05,1.33-.08.02-.42.04-.86.06-1.32,1.08-1.08,2.17-2.17,3.23-3.23.03-.46.05-.89.08-1.3.61-.15,1.46,1.14,1.9.45,0-.31,0-.62,0-1.01,2.36-2.67,5-5.1,7.51-7.63.2-.2,1.39-1.24.91-1.61-.5-.38-1.63,1.04-1.93,1.35-.31.32-1.07,1.37-1.6,1.28-.9-.14.07-1.07.31-1.31.02-.45.04-.91.06-1.34l.62-.62c.47-.03.89-.06,1.31-.09,0-.62-.1-1.34.49-1.74.51-.34,1.36-.25,1.95-.31.46.4.69.6.91.8.62,0,1.23,0,1.97,0-.02-.5,0-1.02-.07-1.51-.08-.5-.29-.65-.6-1.04-.41-.03-.86-.05-1.31-.08.1-1.29.8-1.29,1.92-1.39.76-.45.95-1.48,1.94-1.12,0,.94.07,1.95,1.29,1.87.45-.66,1.72-1.12,1.18-2.1-.37-.67-1.37-.86-1.1-1.83.9-.06,1.82.13,2.71-.15.24-.17.48-.33.72-.5.77,0,1.54,0,2.36,0,.03-.89.05-1.78.08-2.62.9-.9,1.76-1.76,2.59-2.59.51-.03.96-.06,1.28-.08l1.32-1.32c0-.38,0-.69,0-1.01.38-.38.96-.12,1.41-.32.63-.3.55-1.04.56-1.63,0-.81-.31-1.23-.98-.56-.45.45-1.21.45-.92-.39.83-.62,1.22-1.8,2.5-1.91.03.43.05.86.08,1.34.58-.03,1.19-.06,2.02-.11.62-.62,1.24-1.23,1.85-1.85.36-.36,1.49-1.13,1.29-1.74-.18-.54-.75-.02-1.12-.33-.55-.47.28-.93.53-1.23.91-.04,1.83.1,2.72-.12.6-.41.86-1.33,1.83-1.19l.65.65c.22,1.78-1.88.89-2.55,1.96-.02.36-.05.81-.08,1.31-.83.83-1.7,1.7-2.56,2.56-.02.48-.03.93-.05,1.4-1.3,1.3-2.6,2.6-3.88,3.88-.03.46-.05.89-.08,1.29-.49.04-.94.07-1.42.11l-1.23,1.23c-.4,0-.71,0-1.12,0-.04.39-.08.78-.13,1.28l-1.21,1.21c-.03.48-.05.93-.08,1.42l-.62.62c-.43.02-.89.04-1.32.05l-.65.65c0,.63,0,1.25,0,1.87.29.33.48.79,1.15.71.52-.41,1.9-2,2.45-.96.45-.45.29-.97.27-1.58l.75-.75c.37.03.8.07,1.29.11-.02-.5-.04-.93-.07-1.43.63.02,1.21.19,1.68-.27-1.13-.6.7-2.44,1.31-1.31.46-.46.35-.98.37-1.61.48-.03.93-.06,1.25-.08l4.59-4.59c0-.84,0-1.61,0-2.38.43-.6.84-1.22,1.59-1.47h1.02c1.16-1.16,2.34-2.32,3.49-3.5.43-.44,1.24-.94,1.03-1.65-.16-.52-.72-.76-.59-1.39l.64-.64c.44-.02.89-.04,1.33-.05l1.93-1.93c.03-.49.05-.94.07-1.36.6-.5.72-.6,1.54-.61.16,0,1.46-.11,1.7.02-.07-.04-.18-.05-.02-.28,0-.77,0-1.54,0-2.32l.63-.63c.02-.47.04-.93.05-1.38.25-.25.99-.75.56-1.18-.42-.42-1.06.31-1.35.56-.62,0-1.23,0-1.85,0,0-.62,0-1.23,0-1.9l1.29-1.29c.67-.08,1.41-.2,2.14.08.39.41.73.68,1.27.86.38.13.87.17,1.23.37.26.16.43.45.74.53.78.19,1.48-.92,1.94-1.39.82-.82,1.65-1.64,2.47-2.46.04-.58.08-1.03.1-1.32l1.28-1.28c.51-.15.98.18,1.27-.3,0-.77,0-1.54,0-2.33.44-.02.88-.04,1.34-.06l.62-.62c.48-.02.93-.04,1.36-.06.45-.5.83-.77.45-1.38-.21-.33-.56-.57-.48-1.02.08-.44.59-.84.9-1.14.33-.32.77-.88,1.25-.97.45-.08.53.12.86.36.27.2.61.46.87.05.19-.29-.01-.73.07-1.06.33-.36,1.26-1.04,1.28-1.58.03-.63-.82-.97-.66-1.66.2-.22.4-.45.64-.72,1.32,0,2.68,0,3.97,0,.67-.95,1.92-1.29,1.93-2.57-.58-.16-.82.28-1.28.48-.58.26-1.37.1-1.99.07,0-.69.47-.98.95-1.46.57-.57,1.14-1.14,1.71-1.71.35-.01.8-.03,1.27-.05l1.28-1.28c.83-.3,1.18.96,1.97.62l1.32-1.32c-.12-.81.02-1.52.62-2.03.04-.48.08-.92.12-1.3.74-.66,1.26-1.43,2.08-1.87.31,0,.62,0,.92,0,2.26-1.69,4.2-4,6.19-6,1.04-1.05,2.08-2.09,3.11-3.15.88-.9.78-1.12.02-2.01,0-.63,0-1.24,0-1.88l2.61-2.61c.42-.02.88-.03,1.34-.05l2.6-2.6c1.39,0,.17,1.12-.29,1.59-.76.77-1.53,1.53-2.3,2.3-.57.04-1.01.07-1.42.1-.29.37-.52.57-.6,1.05-.09.49-.07,1-.11,1.5.8,0,1.42,0,2.07,0,1.28-1.28,2.58-2.58,3.89-3.89.47-.02.92-.03,1.37-.05.02-.44.03-.9.05-1.33.24-.22.47-.42.69-.62.83.37,1.42-.41,2.14-.66.45-.15.8.06,1.21-.16.42-.23,1.01-.9,1.15-1.36-.05-1.06.12-2.13-.13-3.18-.36-.3-.62-.66-.52-1.18l2.6-2.6c.46-.02.91-.03,1.33-.04.37-.3.6-.77,1.18-.62.54.34,1.17,1.42,1.9,1.28.75-.14,1.57-1.38,2.09-1.9.06-.58.1-.97.14-1.35.42,0,.73,0,1.06,0,.56-.44,1.13-.89,1.65-1.31.39,0,.7,0,1.05,0,.03-.42.05-.85.08-1.31l.61-.61c.02-.47.04-.92.05-1.35l.64-.64c.88,0,1.9.15,2.73-.14,1.12-1.12,2.24-2.24,3.36-3.36.97-.97,2.01-2.41,3.22-3.04.31,0,.62,0,1.03,0,.04-.39.08-.79.13-1.23,1.15-1.52,2.84-2.64,3.89-4.17,0-.47,0-.78,0-1.11l2.61-2.61c.41-.01.87-.03,1.32-.05l2.59-2.59c.02-.47.04-.93.05-1.31l1.28-1.28c.52-.04.96-.07.96-.07,1.1-.38.72-.99,1.03-1.82.42-1.13,1.94-1.83,2.58-2.88,0-.37,0-.68,0-.99,4.77-5.08,8.22-8.48,8.79-8.65.31,0,.62,0,.92,0,.23-.19.45-.39.71-.61.02-.43.04-.88.06-1.36l.63-.63c.44-.02.9-.03,1.32-.05l1.93-1.93c.03-.5.05-.95.07-1.29.71-.71,1.36-1.36,1.94-1.94.54-.05.99-.08,1.43-.12.45-.59,3.46-2.81,1.99-3.37-.64.38-1.2-.2-.63-.46.31-.14.78.11.78.31,1.5-1.5,2.88-2.87,4.24-4.23.47-.02.92-.03,1.39-.05l3.86-3.86c.51-.03.96-.06,1.44-.09,1.3-1.3,2.6-2.6,3.85-3.85.38,0,.69,0,1.11,0,.98-.8,1.93-1.75,2.73-2.73,0-.41,0-.72,0-1.11.4-.03.81-.07,1.3-.11l1.28-1.28c.01-.39.03-.84.05-1.31,1.51-1.51,3.04-3.04,4.55-4.55.02-.47.03-.92.05-1.32.47-.47,1.07-1.39,1.85-1.16.5.15.82.78,1.38.35,0-.77,0-1.54,0-2.46.71-.71,1.42-1.42,2.13-2.13.6-.59,1.27-1.57,2.09-1.79.31,0,.62,0,1,0,.68-.68,1.36-1.36,2.04-2.04.46-.46.83-.74.39-1.39-.39-.58-.82-.32-1.36-.48-.92-.28-.14-.92.31-1.32.45,0,.83.05,1.23-.15.07-1.69.11-1.74,1.89-1.81l2.71-2.71c.78.1,1.69.21,2.4.29,1.07-1.07,1.94-1.94,2.81-2.81,0-.62,0-1.23,0-1.85-.26-.37-1.07-1-.41-1.41.44-.27,1.03-.02,1.51-.39,1.34-1.02,2.18-2.73,3.7-3.54.32,0,.63,0,1.09,0,.64-.64,1.29-1.28,1.93-1.93.65-.66,1-.68,1.92-.68.23-.2.45-.4.77-.69-.05-.52-.1-1.13-.16-1.85-.27-.03-.67-.07-1.08-.11,0-.68.03-.73.54-1.25.51-.52,1.02-1.04,1.54-1.56.99-1,1.99-1.99,2.99-2.99.66-.07,1.1-.11,1.46-.15.37-.37.91-1.21,1.49-1.23.64-.02.87.85,1.58.66.29-1.28-.05-2.61.2-3.91,1.07.31,1.08.33,1.87,1.66-.22.37-.44.74-.53.9-.07.82-.12,1.42-.18,2.01.89,0,1.9-1.03,2.43-1.76.65-.9-.6-1.26-.4-2.15l1.91-1.91c.02-.47.03-.93.05-1.38l.63-.63c.47-.02.93-.04,1.4-.06l3.2-3.2c.52-.04.97-.07,1.45-.11l1.23-1.23c1.68-.03,1.7-.07,1.82-1.29-.45-.03-.9-.05-1.31-.07-.82-.97-.82-.98.03-1.87.44-.02.9-.03,1.35-.05l1.3-1.3c.04-.92-.11-1.83.12-2.73.8-.8,1.36-1.57,2.47-1.84.02.44.04.87.07,1.31.63,0,1.25,0,1.89,0l.62-.62c.48-.02.93-.03,1.4-.05l1.27-1.27c.48-.02.93-.04,1.35-.06.53-.46.79-.83,1.44-.4.31.2.78.79,1.14.27,0-.77,0-1.54,0-2.31q.79-1.09.06-2.14c-.03-.7-.06-1.31-.08-1.87l1.34-1.34c.63,0,1.25,0,1.92,0,.01.59.03,1.18.04,1.75-.37.52-1.25,1.5-.07,1.52l1.92-1.92c.93-.02,1.83-.05,2.76-.07l.61-.61c.49-.02.94-.05,1.35-.07.36-.35.72-.65.61-1.18-.56-.4-.74-.91-.46-1.54.23-.51.91-1.07-.02-1.34-.64.38-1.2-.2-.63-.46.32-.15.81.13.78.33.66-.52,1.5-.32,2.18-.32.83.48.97.78,1.79.24.47-.31.69-.33,1.15-.03.41.27.74.6,1.25.28,1.08-.68-.19-1.5-.16-2.23.01-.34.31-.55.53-.77.47-.48.94-.94,1.41-1.41.54-.03.98-.06,1.34-.08l1.93-1.93c.03-.5.06-.95.08-1.4l1.25-1.25c0-.66,0-1.26,0-1.88-.63-.02-1.18.1-1.63-.35-.69.69-1.37,1.39-2.07,2.07-.2.2-1.58,1.48-1.55.48.01-.56,1.34-1.62,1.74-1.99.45-.41,1.4-1.46,1.89-.56l.98-.98c.61,0,1.23,0,1.84,0,.34.19.78.49.8.92.01.42-.45.86-.57,1.26-.14.49-.08.9-.35,1.34-.22.35-.54.59-.36,1.05.6,0,1.22,0,1.87,0l1.93-1.93c.47-.02.93-.03,1.39-.05.41-.57.92-.8.38-1.53-.25-.34-.71-.56-.9-.95-.13-.26-.07-.55-.1-.83.23-.2.45-.4.68-.6.62,0,1.23,0,1.85,0,.36.32.9,1.16,1.37,1.3.87.26.55-.82.66-1.25,1.23-1.35,2.55-2.63,3.84-3.93.65-.65,1.31-1.3,1.97-1.95.66-.66.69-1,.69-1.93.2-.23.4-.45.62-.7.01-.43.03-.88.05-1.35l.84-.84c.71.09,1.62.2,2.4.3l2.02-2.02c.5-.13.96.17,1.27-.27,0-.31,0-.62,0-1,.41-.03.82-.07,1.3-.1l1.28-1.28c.01-.4.03-.85.05-1.29.45-.02.9-.03,1.29-.05l10.43-10.43c.03-.51.06-.96.09-1.28l1.98-1.98c1.77-.07,1.82-.12,1.89-1.88.98-1.07,2-2.09,3.03-3.11,1-1,2.13-1.94,2.85-3.15,0-.31,0-.62,0-.93.2-.23.4-.45.62-.7.43-.02.89-.03,1.36-.05l1.28-1.28c.02-.47.03-.92.05-1.32,1.34-1.34,2.64-2.64,3.9-3.9.51-.03.96-.06,1.36-.09q2.92-2.92,3.21-3.81c-.44-.03-.87-.05-1.31-.08,0-.62,0-1.23,0-1.88.43-.02.87-.04,1.32-.06.32-.32.99-1.35,1.51-1.33.65.03.43.8.43,1.23.58,0,.76.02,1.21-.42.17-.17.45-.42.57-.64.2-.38.03-.64-.17-.99-.15-.26-.47-.64-.25-.95.22-.31.55-.17.81.02.31.23.4.53.84.48.36-.03.63-.36.85-.61.03-.39.06-.84.09-1.35l1.9-1.9c.02-.47.03-.93.05-1.39l2.27-2.27c-.95-.52.46-2.27,1.17-2.3.44-.02.51.32.36.73-.19.54-1.13,1.16-1.53,1.57.5.94,1.61-.29,2.06-.72.59-.56,1.53-1.36,1.53-2.2-.44-.02-.87-.03-1.31-.05,0-.62,0-1.22,0-1.87.42-.02.84-.05,1.31-.08l.61-.61c.46-.01.9-.02,1.36-.04l1.28-1.28c.01-.45.03-.9.04-1.35l.96-.96c-.98-1.33.65-1.56,1.57-1.69.03-.35.06-.77.09-1.22.18-.2.38-.42.6-.66.89-.02,1.8-.04,2.68-.06.22-.25.42-.47.62-.7.06-.9-.13-1.81.15-2.69.79-.79,1.57-1.57,2.36-2.36.69-.69,1.61-1.38,2.06-2.24,0-.77,0-1.53,0-2.3.18-.23.37-.46.55-.69.11-.69.23-1.38-.08-2.06-.78,0-1.54,0-2.3,0-.41-.7.34-.97.49-1.35.05-.54.09-.98.13-1.43.49-.4,1.67-1.82,2.2-.82l.96-.96c.02-.45.03-.89.05-1.3.47-.03.92-.05,1.43-.08.61-.61,1.47-1.9,2.36-1.9.31.28.74.54.69,1-.05.58-.74.92-.6,1.58.31.29.49.78,1.09.68.89-.41,2.17-1.58,2.17-2.6l-.62-.62c-.2-.58.32-.86.52-1.32.25-.57.08-1.35.08-1.96l-1.33-1.33c-.81,0-1.58,0-2.34,0-.33-.55-.34-.56.67-1.51.68.09,1.58.2,2.22.28l2.09-2.09c0-.7.02-1.31.03-1.9-.34-.34-.66-.66-1.14-.85-.64.38-1.2-.2-.63-.46.31-.14.78.11.78.31,1.06-1.06,2-1.99,2.92-2.92.45-.02.89-.04,1.23-.05.28-.97-.43-3.52,1.41-3.22l.63.63c.02.46.05.89.07,1.32h1.88c.02-.9.05-1.8.06-2.39.39-.95,1.39-1.15,1.27-2.14-.43-.02-.87-.04-1.31-.06,0-.6,0-1.21,0-1.91.87-.02,1.75-.04,2.62-.06l1.3-1.3c0-.94-.97-1.19-1.23-2-.18-.56.27-.9.67-1.25.81-.06,1.9.29,2.62-.2.63-.42.52-1.04.56-1.7l1.23-1.23c.03-.48.06-.92.09-1.44,1.03-1.03,2.12-2.12,3.2-3.2.02-.47.04-.92.06-1.39l.63-.63c.44-.02.88-.04,1.3-.06.03-.47.05-.92.07-1.26.41-.98,1.37-.42,1.91-.86,0-.31,0-.62,0-1.01.58-.65,1.17-1.27,1.78-1.88.37-.37.88-.67.81-1.24-.05-.43-.59-.69-.64-1.1-.06-.42.36-.77.61-1.06.42-.02.87-.05,1.36-.07l1.28-1.28c.01-.42.03-.87.04-1.33l2.59-2.59c.02-.47.03-.92.05-1.39l1.26-1.26c.18-.76-.52-.82-.65-1.44-.13-.62.75-1.24,1.13-1.63.59-.6,1.19-1.2,1.8-1.79.44-.43,1.16-.89,1-1.59-.2-.22-.41-.45-.68-.75-.53.04-1.14.08-2.04.15-.99.99-1.99,1.99-2.98,2.99ZM17.9,474.5c-.17-.08-.26-.19-.24-.4.03-.37.16-.25.46-.25.41.14.32.91-.22.65Zm4.36-3.04c0,.3.12.43-.25.46-.2.02-.32-.08-.4-.24-.25-.5.51-.64.65-.22Zm75.82-69.07c-.14.41-.91.32-.65-.22.08-.17.19-.26.4-.24.37.03.25.16.25.46Zm7.86-6.33c-.49.02-.8-.05-.65-.65l1.28-1.28c.4-.1.8.05.67.55-.13.47-.95,1.04-1.29,1.38Zm2.14-.62c.34-.15.86.16.68.44-.9.14-1.12-.24-.68-.44Zm1.53.57c-.17.07-.49.07-.63-.06,1.08-.21.63.06.63.06Zm-.7-.16c-.26-.41.7-.36.93-.29-.36.15-.67.23-.93.29Zm3.75-2.84c-.72.91-1.05,1.82-2.22,1.76.02-.44.04-.88.06-1.32.03-.9.21-1.08,1.33-1.27l.83.83Zm.36-8.12c-.43.44-.96-.32-1.21-.57-.05-.9.38-1.33,1.38-1.31-.02.4.14,1.57-.17,1.89Zm6.62-6.92c.31.58-.96,1.43-1.3,1.77-.9.03-1.35-.39-1.29-1.38.44.03.89.07,1.28.1.27-.27.95-1.16,1.31-.49Zm10.53-9.34c-.57-.44.37-.66.59-.66.05.26-.14,1.01-.59.66Zm-.65-1.96c-.57-.44.37-.66.59-.66.05.26-.14,1.01-.59.66Zm6.43-5.85c-.23.27-.42.5-.61.73-.02,1.59-.04,1.6-1.31,1.85,0-1.08,0-2.15,0-3.27.33-.33,1.15-1.55,1.73-1.3.51.22.2,1.56.18,2Zm2.66-.48c0,.3.12.43-.25.46-.2.02-.32-.08-.4-.24-.25-.5.51-.64.65-.22Zm-1.96-21.58c.25.48-.45.9-.73,1.17-.4-.03-1.66.13-1.88-.29-.25-.48.45-.9.73-1.17.4.03,1.66-.13,1.88.29Zm16.98,14.15q-.18,1.08-1.28,1.33c-.42-.42-.87-.81-1.24-1.27-.1-.13.04-.46.07-.69.62,0,1.22,0,1.81,0,.21.21.42.42.63.63Zm-.63-10.44c0,.8,0,1.6,0,2.41-.27.74-1.15,1.08-1.35,1.85-.12.45.11.75-.15,1.16-.24.37-.7.54-1.11.4,0-.74.22-1.89-.08-2.58-.24-.54-.76-.75-.4-1.43l.46-.46c.01-.46.03-.91.04-1.36.63-.63,1.51-1.96,2.42-1.91.35.41.18,1.38.18,1.92Zm6.54-.65c-.03-.91.4-1.34,1.31-1.31.03.91-.4,1.34-1.31,1.31Zm8.5-6.54c-.59,0-1.19,0-1.78,0-.56-.7.24-.9.44-1.31.95-.03,1.38.41,1.35,1.31Zm3.92-9.59c0,.3.12.43-.25.46-.2.02-.32-.08-.4-.24-.25-.5.51-.64.65-.22Zm5.87,1.11l-.64.64q-1.1-.24-1.29-1.32l.64-.64q1.13.21,1.29,1.32Zm1.52-33.99c.3-.14.76.1.72.35-.75.45-1.28-.1-.72-.35Zm.48.6c.09-.06.15-.13.22-.19-.03.07-.1.13-.22.19Zm18.35,11.81c-.99.02-1.43-.41-1.37-1.32.3-.22.73-.97,1.21-.57.32.27.15,1.51.17,1.89Zm-12.86-15.75c-.2.43-.27.78-.29,1.25-1.02,1.18-2.14,2.26-3.24,3.36-.99.12-1.16-.65-1.66-.94.53-.61.19-1.2.41-1.65.29,0,.6,0,1.08,0,.74-.52,1.35-1.19,1.98-1.83.37-.38,1.22-1.53,1.76-1.47.69.08.11.96-.04,1.28Zm21.93,9.23l-1.28,1.28q-1.13-.18-1.31-1.31l1.28-1.28q1.13.18,1.31,1.31Zm.45-3.26c-.34-.01-.51-.23-.43-.58.11-.49.67-.74,1.09-.74.38.44,0,1.35-.66,1.32Zm6.1-3.94c.03.9-.4,1.33-1.35,1.31.01-.4-.18-1.58.14-1.89.43-.42.96.34,1.21.59Zm-13.48-17.25c-.45.35-1.09.37-.88-.42.55-.55,1.08-1.2,1.69-1.68.45-.35,1.09-.37.88.42-.55.55-1.08,1.2-1.69,1.68Zm18.71,12.68l-1.28,1.28q-1.12-.14-1.33-1.28l1.28-1.28q1.12.14,1.33,1.28Zm-7.84-20.98c-.44.57-.66-.37-.66-.59.26-.05,1.01.14.66.59Zm2.81-5.16c.3-.14.75.1.72.35-.75.45-1.27-.1-.72-.35Zm.71.37c-.02.08-.09.16-.23.22.08-.08.16-.15.23-.22Zm16.79,17.25c-1.6.17-1.39-1.52-1.42-2.6,1.6-.17,1.38,1.52,1.42,2.6Zm-.73-5.24c.21,1.08-1.09,1.8-1.94,1.98l-.64-.64c.15-.9.14-.91,1.49-1.97.59-.16.76.38,1.1.62Zm-11.12-15.64c-.91.91-1.81,1.81-2.72,2.72-.71.71-1.16,1.55-2.16.85,0,0-.01,0-.02.01.44-.43.72-.71,1.03-1.02-.03-.39-.06-.83-.09-1.22.79-.79,1.58-1.84,2.49-2.49.73-.51,1.66.31,1.47,1.15Zm34.01-3.29c-.03-.91.4-1.34,1.31-1.31.03.91-.4,1.34-1.31,1.31Zm-1.32-26.43c-.25-.69.85-1.22,1.32-.82.23.64-1.04,1.59-1.32.82Zm2.62-2.31c0-.83.71-1.51,1.33-2.03.65-.55.91-.61,1.69-.61-1.15,1.33-1.73,2.4-3.02,2.64Zm10.45-9.18c.03,1.38-1.51,1.56-1.9,2.67-.13.38.17,1-.27,1.23-.49.27-.79-.4-1.11-.63.02-.58.03-1.18.05-1.84.56-.83,1.51-2.08,2.58-2.08l.65.65Zm10.39-7.15c-.37.46-.82.86-1.24,1.27-1.13-.22-1.13-.22-1.28-1.33l.63-.63c.6,0,1.2,0,1.81,0,.03.23.18.56.07.69Zm13.81,12.32c-.44.57-.66-.37-.66-.59.26-.05,1.01.14.66.59Zm2.61-27.83c0,.3.12.43-.25.46-.2.02-.32-.08-.4-.24-.25-.5.51-.64.65-.22Zm37.26-12.64c-.03-.91.4-1.34,1.31-1.31.03.91-.4,1.34-1.31,1.31Zm3.27-1.96c-.03-.91.4-1.34,1.31-1.31.03.91-.4,1.34-1.31,1.31Zm12.11-3.61c-.71.69-1.42.02-.68-.64.71-.64,1.4-.08.68.64Zm16.66-13.39c-.03-.91.4-1.34,1.31-1.31.03.91-.4,1.34-1.31,1.31Zm5.88-2.83c-.14.41-.91.32-.65-.22.08-.17.19-.26.4-.24.37.03.25.16.25.46Zm30.08-46.18c.21.21.42.42.64.64.05.92-.39,1.34-1.3,1.32-.21-.21-.43-.43-.64-.64-.44-.01-.88-.02-1.33-.03,0-1.04,1.55-2.6,2.59-2.6.01.44.02.88.03,1.32Zm10.39-11.1c-.37.46-.81.85-1.23,1.27-.36.08-.58.02-.62-.08-.02-.7-.04-1.28-.06-1.86.63,0,1.22,0,1.83,0,.04.23.19.55.09.68Zm3.02.94c-.71.69-1.42.02-.68-.64.71-.64,1.4-.08.68.64Zm7.51-8.83c-.37.34-.65.93-1.31.54,0-.66,0-1.25,0-1.84q1.07.23,1.31,1.3Zm11.69-6.94c.06.15.07.42-.02.58.28,1.4-1.54,2.74-1.97,3.11-.38,0-.37.1-.47-.27-.12-.39.14-.58.38-.84.59-.63,1.22-1.22,1.83-1.83,0,0,0,0,0,0-.31.06-.25-.76-.19-.98.08.09.14.18.2.27.07-.33.24-.04.24-.04Zm1.38-2.85c.03.9-.4,1.35-1.31,1.3l-.69-.69c.01-.47-.21-1.72.3-1.92.56-.22,1.38.99,1.7,1.31Zm7.21-10.87c.02.2-.08.32-.24.4-.5.25-.64-.51-.22-.65.3,0,.43-.12.46.25Z"/><path class="cls-1" d="m236.33,274.81s-.1.1-.15.15c.11-.03.15-.09.15-.15Z"/><path class="cls-1" d="m117.07,394.11s.02.02.03.03c0-.01-.02-.02-.03-.03Z"/><path class="cls-1" d="m429.81,87.87s.11-.04.18-.1c.02-.02.04-.04.05-.06-.04-.18-.11-.36-.22-.54-.03.13-.03.34,0,.71Z"/><path class="cls-1" d="m450.07,58.45s-.1.1-.15.15c.11-.03.15-.09.15-.15Z"/><path class="cls-1" d="m340.26,178.74s-.1.08-.15.13c.09-.03.14-.08.15-.13Z"/><path class="cls-1" d="m55.57,461.41c.68-.05,1.43.18,2.07-.1.5-.46.94-.86,1.3-1.19.45,0,.76,0,1.08,0,.13-.65.02-1.55.75-1.87.36-.16.57-.06.9.12.4.22.65.34,1.1.45,1.52-1.52,3.03-3.03,4.55-4.55.46-.02.9-.04,1.33-.06.02-.45.04-.9.06-1.37l1.88-1.88c.04-.52.07-.97.11-1.44l2.95-2.95c.4-.4.73-.7.84-1.26.06-.32-.03-.65.29-.86.3,0,.61,0,1,0l1.32-1.32c.02-.31.05-.75.09-1.24.4-.02.83-.04,1.29-.07l.82-.82c-.08-.71-.19-1.62-.27-2.3.37-.46.56-.68.75-.91,0-.31,0-.61,0-1.18.49-.49,1.58-2.01,2.29-.98.46-.46.34-1.03.36-1.66.22-.25.42-.47.62-.69.11-.48-.28-.71-.47-1.08-.24-.47-.17-1-.21-1.51-1.02.05-2.08.1-3.3.15-.72.72-1.59,1.59-2.45,2.45-.47.02-.92.04-1.4.07l-2.58,2.58c-.02.44-.03.89-.05,1.33l-1.28,1.28c-.48.02-.93.04-1.4.06l-1.23,1.23c-.52.04-.97.07-1.27.09l-1.32,1.32c0,.39,0,.69,0,1-.4.95-1.51,1.73-2.24,2.46-.78.78-1.55,1.55-2.33,2.33-.82.82-1.64,1.64-2.46,2.46-.71.71-1.43,1.69-2.32,2.13-.31,0-.61,0-.97,0-.69.45-1.25,1.06-1.8,1.65-.23.24-.65.54-.8.83-.14.27-.09.53-.12.82.2.22.41.45.61.67,0,.61,0,1.23,0,1.84-.22.27-.72.59-.66.99.07.46.45.35.83.41,1.09.16,1.14.81,1.14,1.82.19.23.38.46.62.75Zm22.91-26.8c0-.69.54-1.08,1-1.58.57-.62.81-.85,1.62-1.02.22.28.95.71.62,1.17-.18.25-.85.14-1.1.14-.27,1.12-.17,1.83-1.5,1.91l-.63-.63Zm-3.43,4.11c.16-.81.11-1.48.76-2.06.39-.03.83-.06,1.31-.09.28-.24.73-.85,1.17-.61.57.31-.06.87-.32,1.13-.91.92-1.83,1.84-2.74,2.75-.02.45-.04.89-.06,1.32-.65,0-1.26,0-1.88,0-.13-1.33,1.21-1.61,1.76-2.45Zm-5,7.94c-.05-.6.87-1.21,1.26-1.61.29-.29,1.12-1.43,1.62-1.33.88.17-.08,1.12-.32,1.36-.01.44-.02.88-.03,1.3-.46.02-.9.03-1.37.05-.3.3-1.08,1.16-1.16.22Z"/><path class="cls-1" d="m8.53,480.85c.42.52.87,1.09,1.28,1.58.02.68.04,1.28.05,1.85l-1.31,1.31c-.45.01-.9.02-1.33.03l-1.29,1.29c0,1.07,0,2.13,0,3.22.43.02.86.04,1.31.06l.62.62c.55-.09.84-.22,1.31-.47.39-.22.75-.31,1.01.17,1.01-1.01-.33-3.17.53-4.25.31,0,.61,0,.99,0,.99-.82,1.94-1.76,2.73-2.73,0-.44,0-.75,0-1.12.41-.03.82-.06,1.3-.1l1.36-1.36c-.05-.45-.11-1.05-.21-2.02-.04.17-.87.14-.99.11-.43-.13-.65-.61-1.13-.61-.59,0-1.05.71-1.44,1.09-.51.5-1,1.01-1.5,1.51,0,.48.12,1.32-.46,1.3-.61-.03-.82-.69-.86-1.15.19-.8,1.53-.99,1.31-2.12-.32-.32-.65-.65-.97-.97-.72.72-2.2,1.73-2.29,2.76Z"/><path class="cls-1" d="m16.86,478.9s0,.03,0,.04c0-.01,0-.03,0-.04Z"/><path class="cls-1" d="m491.49.05c-.7.7-1.4,1.39-2.09,2.09-.59.59-1.37,1.18-1.74,1.94,0,.32.08.59-.02.91-.11.33-.38.62-.51.96-.14.36-.05.75-.15,1.09-.09.3-.33.44-.53.68-.45.1-.88.09-1.34.09.15,1.46,1.12,1.34,2.39,1.44l2.12-2.12c.16-.72-.65-1.05-.65-1.7,0-.45.64-.88.91-1.16.7-.71,1.39-1.41,2.08-2.12.57-.58,1.59-1.26,1.59-2.09-.71-.09-1.34-.06-2.05-.01Z"/><path class="cls-1" d="m225.42,250.42c1.34-1.34,2.68-2.68,4.02-4.02.01-.44.02-.89.04-1.34l.64-.64c0-.55-.32-1.34-1-1.31-.61.03-1.19.89-1.58,1.28-1.36,1.36-2.71,2.71-4.07,4.07.05.65-.09,1.65.4,2.17.6.63,1.07.28,1.56-.2Z"/><path class="cls-1" d="m89.48,423.52h-2.37c-.45-.18-.78-.86-1.48-.61l-1.91,1.91c-.02.47-.03.92-.05,1.37l-1.93,1.93c.32,1.39.61,1.58,1.69.86.57-.38,1.17-.04,1.71-.36.39-.58,1.3-.83,1.29-.92-.26-1.31-1.17-1.5-.57-2.21.77,0,1.53,0,2.29,0,.47-.63,1.7-.76,1.33-1.96Z"/><path class="cls-1" d="m1.4,499.38c.51-.04.95-.08,1.42-.12l3.18-3.18q1,0,1.23-.23c0-.31,0-.61,0-.89.26-.74,1.16-.97,1.31-1.78.06-.37-.12-.49-.62-.35l-1.89,1.89c-.47.02-.91.05-1.41.07l-1.26,1.26c-.46.01-.91.03-1.38.04l-.63.63c-.01.46-.03.92-.04,1.38l-1.27,1.27c-.12.45,0,.63.31.64.51,0,.71-.49,1.04-.62Z"/><path class="cls-1" d="m10.6,492.81c.71.06,1.16.78,1.89.61l1.6-1.6-1.11-1.11c-.82.04-2.22.4-2.81-.2l-.96.96c-.15.99.58,1.27,1.39,1.34Z"/><path class="cls-1" d="m379.81,109.11l1.35-1.35c-.03-.43-.3-.76-.48-1.13-.09-.19-.21-.37-.25-.58-.03-.15.07-.54.01-.66-.43-.86-2.25,1.41-2.59,1.75-.18.86,1.1,2.12,1.96,1.96Z"/><path class="cls-1" d="m445.2,76.38l.62-.62c-.23-1.12-.23-1.12-1.34-1.26-.42.42-.84.84-1.26,1.26.06.66-.22,1.36.12,1.88.66.06,1.24.11,1.8.15.02-.53.03-.97.05-1.41Z"/><path class="cls-1" d="m89.59,430.53c.82-.94,1.97-1.08,1.96-2.42l-1.26-1.26c-.23.02-.47.05-.71.07,0,1.04,0,2.08,0,3.6Z"/><path class="cls-1" d="m3.27,493.41c.64-.54,1.34-1.01,1.34-1.92-.34-.25-.51-.78-1.28-.6-.43.35-1.01.77-1.51,1.79.52.38.69.91,1.45.73Z"/><path class="cls-1" d="m18.51,481.08c-.62.17-.71.72-.79,1.29l.95.95,1.96-1.96c-.46-.46-1.48-.46-2.12-.29Z"/><path class="cls-1" d="m333.66,151.35c.34-.33,1.93-1.55,1.74-2.09-.33-.91-1.4.44-1.67.71-.39.39-1.74,1.33-1.68,1.93.11,1.06,1.37-.31,1.61-.54Z"/><path class="cls-1" d="m96.8,417.66c.55-.02,1.15-.05,1.84-.08.69-.39-1.29-1.98-1.54-2.23l-1.31,1.31,1,1Z"/><path class="cls-1" d="m268.7,245.74l.64.64c1.29-.24,1.2-.24,1.29-1.32l-.64-.64q-1.13.21-1.29,1.32Z"/><path class="cls-1" d="m321.57,194.09c-.84-.16-2.03,1.16-1.9,1.96.59,0,1.18,0,1.77,0,.33-.63.15-1.3.12-1.96Z"/><path class="cls-1" d="m87.62,432.04c.65-.08,1.3.05,1.96-.08.16-.84-1.16-2.03-1.96-1.9,0,.59,0,1.18,0,1.98Z"/><path class="cls-1" d="m441.41,75.78c1.02-.26,1.08-.32,1.08-1.37l-.92-.92c-.37.81-.36.81-.16,2.29Z"/><path class="cls-1" d="m16.39,490.66c.06-.43-.35-.51-.73-.36-.57.22-1.13,1.1-1.57,1.53.53.97,2.21-.46,2.3-1.17Z"/><path class="cls-1" d="m113.12,347.9c-.49-.43-1.66.21-1.3.89.36.68,1.53-.29,1.3-.89Z"/><path class="cls-1" d="m376.54,86.03c0-.42-.24-.98-.74-1.09-.36-.08-.57.09-.59.43-.03.67.88,1.05,1.33.66Z"/><path class="cls-1" d="m124.57,339.52c.72-.72.03-1.28-.68-.64-.74.66-.03,1.33.68.64Z"/><path class="cls-1" d="m431.13,43.41c.72-.72.03-1.28-.68-.64-.74.66-.03,1.33.68.64Z"/><path class="cls-1" d="m15.41,486.59c-.7.7-.05,1.39.63.68.75-.78-.21-1.47-.63-.68Z"/><path class="cls-1" d="m56.56,448.04c-.74.66-.03,1.33.68.64.72-.72.03-1.28-.68-.64Z"/><path class="cls-1" d="m90.9,423.09c-.02.47.28.51.64.35.77-.34.73-.95.33-1.56-.3.3-.95.74-.97,1.21Z"/><path class="cls-1" d="m454,59.76c-.7.7-.05,1.39.63.68.75-.78-.21-1.47-.63-.68Z"/><path class="cls-1" d="m93.85,423.84c-.7.7-.05,1.39.63.68.75-.78-.21-1.47-.63-.68Z"/><path class="cls-1" d="m315.75,202.59c-.91-.03-1.34.4-1.31,1.31.91.03,1.34-.4,1.31-1.31Z"/><path class="cls-1" d="m82.08,439.52c.72-.72.03-1.28-.68-.64-.74.66-.03,1.33.68.64Z"/><path class="cls-1" d="m281.47,258.16c.77-.28-.18-1.55-.82-1.32-.4.46.14,1.56.82,1.32Z"/><path class="cls-1" d="m431.21,94.01s.56-.34.23-.44c-.25-.07-1.32-.14-.87.37.13.15.47.15.64.08Z"/><path class="cls-1" d="m86.08,435.21s.56-.34.23-.44c-.25-.07-1.32-.14-.87.37.13.15.47.15.64.08Z"/><path class="cls-1" d="m453.02,67.22c.35-.46-.41-.65-.66-.59,0,.22.22,1.16.66.59Z"/><path class="cls-1" d="m84.56,434.64c-.57.26,0,.83.48.6.6-.29-.08-.78-.48-.6Z"/><path class="cls-1" d="m81.75,436.39c.26.57.83,0,.6-.48-.29-.6-.78.08-.6.48Z"/><path class="cls-1" d="m292.87,223.94c.08.17.2.26.4.24.37-.03.25-.16.25-.46-.14-.43-.89-.28-.65.22Z"/><path class="cls-1" d="m281.75,235.49c-.08-.17-.2-.26-.4-.24-.37.03-.25.16-.25.46.14.43.89.28.65-.22Z"/><path class="cls-1" d="m310.52,205.42c-.14-.43-.89-.28-.65.22.08.17.2.26.4.24.37-.03.25-.16.25-.46Z"/><path class="cls-1" d="m456.29,57.93c.26.57.83,0,.6-.48-.29-.6-.78.08-.6.48Z"/><path class="cls-1" d="m263.89,250.3c-.3,0-.43-.12-.46.25-.02.21.08.32.24.4.53.27.62-.51.22-.65Z"/><path class="cls-1" d="m456.78,57.05c.15-.13.15-.47.08-.64,0,0-.34-.56-.44-.23-.07.25-.14,1.32.37.87Z"/><path class="cls-1" d="m276.53,236.8c-.14-.43-.89-.28-.65.22.08.17.2.26.4.24.37-.03.25-.16.25-.46Z"/><path class="cls-1" d="m179.8,333.91c.35-.46-.41-.65-.66-.59,0,.22.22,1.16.66.59Z"/><path class="cls-1" d="m91.87,421.89c.44-.61.44-.7,0-1.31-.44.61-.44.7,0,1.31Z"/><path class="cls-1" d="m13.77,488.66c.08.17.2.26.4.24.37-.03.25-.16.25-.46-.14-.43-.89-.28-.65.22Z"/><path class="cls-1" d="m466.52,27.41c.43-.14.28-.9-.22-.65-.17.08-.26.2-.24.4.03.37.16.25.46.25Z"/><path class="cls-1" d="m457.61,35.01c.02-.21-.08-.32-.24-.4-.53-.26-.62.51-.22.65.3,0,.43.12.46-.25Z"/><path class="cls-1" d="m426.24,63.77c.02-.21-.08-.32-.24-.4-.53-.26-.62.51-.22.65.3,0,.43.12.46-.25Z"/><path class="cls-1" d="m376.54,109.33c-.14-.43-.89-.28-.65.22.08.17.2.26.4.24.37-.03.25-.16.25-.46Z"/><path class="cls-1" d="m181.75,281.9c-.14-.43-.89-.28-.65.22.08.17.2.26.4.24.37-.03.25-.16.25-.46Z"/><path class="cls-1" d="m180.44,283.42c.27-.53-.51-.62-.65-.22,0,.3-.12.43.25.46.21.02.32-.08.4-.24Z"/><path class="cls-1" d="m368.7,90.1c.35-.46-.41-.65-.66-.59,0,.22.22,1.16.66.59Z"/></g></svg>