<?xml version="1.0" encoding="UTF-8"?><svg id="Layer_1" xmlns="http://www.w3.org/2000/svg" viewBox="0 0 1974.15 2000"><defs><style>.cls-1{fill:#ff0;}</style></defs><path class="cls-1" d="m1931.87,39.5c-3.98,3.98-7.96,7.96-11.94,11.94-2.17,2.17-4.34,4.35-6.51,6.52-1.77,1.78-3.79,3.28-4.64,5.65v4.2c-3.04,3.04-6.36,7.9-10.14,9.97-3.46,1.89-4.58-2.9-8.07-2.09-1.61,1.61-3.33,3.33-5.2,5.2-.06,2.54.41,4.68-1.43,6.52,1.59,2.41,1.74,4.89-1.33,6.23-1.45.63-2.64.49-2.56-1.4.08-1.87,2.68-3.63,3.89-4.83-2.08-3.89-6.53,1.11-8.29,2.9-1.54,1.57-3.09,3.2-4.53,4.86-1.4,1.62-1.14,2.2-1.33,4.23.9.8,1.81,1.59,2.71,2.39,2.26,0,5.74-.85,4.89,2.57-5.16,5.16-10.38,10.38-15.64,15.63-1.75.07-3.57.15-5.29.22l-7.71,7.71c-.13,1.88-.24,3.56-.35,5.1-1.84.19-3.43.35-4.98.51v9.88c-2.48,2.48-5.07,5.06-7.91,7.91-3.27.08-6.9.18-10.62.27-5.18,5.18-10.4,10.4-15.5,15.51-2.87.63-3.84-2.57-6.38-2.65-2.4-.07-4.55,2.83-4.03,5.07,1.92,2.34,6.49,4.87,4.79,8.27-1.81,3.63-6.78,2.4-10.1,2.36-1.48-1.43-2.57-3.04-5.3-2.39-4.22,4.22-8.47,8.4-12.63,12.68-1.81,1.87-3.73,3.19-2.34,5.89.89,1.72,2.45,2.59,2.01,4.8l-2.59,2.59c-3.17,1.25-4.53-3.84-7.81-2.36-.42,1.92,1.1,2.84,1.86,4.32.92,1.78.66,3.6.84,5.54.98,1.5,1.93,2.93,2.8,4.26q-7.01,8.5-10.86,9.14c-.85-.85-1.72-1.72-2.56-2.56-2.51,0-4.97,0-7.44,0-1.16,1.02-2.77,2.07-2.69,3.78.04.84.69,1.69,1.02,2.42.65,1.44.94,2.7,1.31,4.23-5.22,5.22-10.44,10.44-15.61,15.61-.08,1.83-.16,3.58-.23,5.25-1.9.12-3.7.23-5.62.35-6.07,6.07-12.13,12.13-18.04,18.05-1.51,0-2.74,0-4.03,0-7.97,4.13-12.26,13.6-19.88,18.3h-3.93c-3.86,2.5-7.01,6.36-10.3,9.55-3.06,2.97-5.58,6.75-9.46,8.75h-9.57c-.07,1.81-.13,3.62-.2,5.37-.96.87-1.86,1.67-2.66,2.39-1.9.12-3.69.24-5.31.34-2.19,2.19-4.38,4.38-6.57,6.57-1.82,1.82-3.4,4.23-6.31,3.59-1-1-3.09-3.93-4.81-2.28-1.76,1.69,1.21,3.9,2.25,4.94,0,2.59,0,5.06,0,7.68l-5.25,5.25c-1.56.06-3.38.12-5.25.19l-2.52,2.52c-.06,1.86-.13,3.68-.19,5.42-.98.87-1.88,1.67-2.79,2.48-3.17-.56-5.91.24-8.14,2.61-1.25,0-2.48,0-3.71,0-16.88,15.2-18.38,16.85-19.1,21.02,1.11,1.36,3.09,2.23,2.47,4.56-2.53,3.28-5.01,6.68-9.04,8.41h-4c-2.03,2.03-4.06,4.07-6.1,6.1-1.18,1.18-3.04,3.89-4.65,4.41-4.35,1.4-4.76-4.89-5.25-7.4-2.6-1.8-3.49.97-4.92,2.41v7.43c1.87,1.98,1.99,2.2,2.61,4.46-2.54,4.91-7.99,7.34-10.46,12.3v3.98c-1.64.13-3.3.26-5.21.42-8.51,8.51-17.21,17.21-26.05,26.04-.05,1.61-.12,3.42-.18,5.29-.82.83-1.69,1.69-2.49,2.49-.09,1.82-.18,3.56-.27,5.27-3.28.23-7.9-.98-10.93.69-2.62,1.44-3.35,5.39-7.08,4.36-.12-1.71-.25-3.39-.35-4.8-2.1-.32-3.95-.23-5.86-1.2-1.49-.76-2.56-1.97-4.41-1.58-1.54,2.46-5.24,3.39-5.17,7.15,2.37.49,5.33.18,6.95,2.33,1.91,2.54.18,4.93-2.41,6.13h-9.5c-2.45,2.45-5.03,5.03-7.93,7.93-.09,3.15-.18,6.76-.28,10.31-1.81.08-3.62.17-5.28.24-1.05.89-1.97,1.66-2.74,2.32-1.93.15-3.71.3-5.25.42-2.78,2.78-5.57,5.56-8.35,8.35-2.39,2.39-5.47,4.75-7.04,7.77-.26,6.63-.46,6.83-7.58,7.12-.11,1.66-.23,3.35-.36,5.23l-7.62,7.62c-.08,1.91-.15,3.72-.22,5.47-5.25,5.25-10.47,10.47-15.59,15.58-1.95.1-3.75.18-5.45.27-.87,1.04-1.63,1.95-2.4,2.87-.28,6.93-.49,7.15-7.39,7.41-3.98,3.28-7.8,7.06-10.91,10.9,0,1.85,0,3.09,0,4.53-1.68.11-3.38.22-5.25.34l-2.24,2.24c-100.65-92.31-234.72-148.73-381.73-148.73-311.71,0-565.3,253.59-565.3,565.3,0,131.08,44.85,251.87,120,347.86-9.32,9.32-18.68,18.68-28.11,28.11-.07,1.43-.16,3.23-.26,5.19-.75.75-1.61,1.61-2.51,2.51-1.74.07-3.56.14-5.29.21-7.88,7.88-15.71,15.71-23.42,23.42-.1,1.97-.2,3.77-.3,5.68l-25.93,25.93c0,1.47,0,2.7,0,3.94-1.02,2.94-4.06,5.14-6.25,7.33-2.45,2.45-4.8,4.78-7.61,6.8-1.23,0-2.47,0-4.44,0-6.11,6.11-13.71,12.07-18.3,19.4,0,1.24,0,2.47,0,3.9-1.7.1-3.4.21-5.26.32-9.46,9.46-19.04,19.04-28.59,28.59-1.83.08-3.6.17-5.29.25-.1,1.84-.2,3.64-.28,5.01l-7.74,7.74c-2.19.2-3.96.35-5.01.45l-5.35,5.35v4.47c-1.59.15-3.21.3-5.17.48-24.14,24.14-48.51,48.51-73.13,73.14-.08,3.29-.17,6.92-.26,10.53-.93.85-1.82,1.67-2.62,2.4-1.9.11-3.69.22-5.03.3-11.6,11.6-22.89,22.89-34.05,34.05v3.97c-1.6,4.2-6.93,7.89-10.11,11.09-1.83,1.84-3.65,3.68-5.46,5.53-1.89,1.93-2.19,2.8-2.67,5.33,1.08,1.39,3.16,2.18,2.51,4.57-1.88,3.11-4.88,5.29-7.33,7.98-3.5.48-5.55.42-8.17,2.94-.1,3.47-.2,7.04-.31,10.61-5.15,0-6.89.53-7.79,5.68-.83,4.75-3.36,4.78-7.75,4.78-2.88,2.88-5.77,5.76-8.65,8.65-1.26,1.27-3.32,2.77-4.11,4.37-.71,1.45-.32,3.52-.32,5.09-1.74.08-3.48.16-5.17.24-.08,1.69-.16,3.43-.24,5.07-1.93.13-3.72.26-4.97.34-2.94,2.94-5.51,5.51-7.94,7.94.03,3.02.28,6.13-3.12,7.21-3.04.96-6.65.11-9.77.31-.08,1.74-.16,3.5-.24,5.27-.84.84-1.71,1.71-2.51,2.51-1.9.08-3.71.15-5.23.21l-5.05,5.05c-.26,2.12-.07,4.1-1.05,6.04-.77,1.51-2.12,2.54-1.74,4.43.81.81,1.68,1.68,2.53,2.53q-.74,4.71-5.33,5.16c-1.34-1.15-2.28-3.01-4.92-2.33l-7.78,7.78c-.08,1.35-.18,3.15-.3,5.15-.71.71-1.57,1.57-2.36,2.36-.09,1.91-.17,3.71-.25,5.44-1.81.08-3.62.16-5.1.23-3.68,3.68-7.14,7.14-10.5,10.5v9.86c-1.13,1.63-2.54,2.85-2.72,4.93-.23,2.81-.06,3.55-2.32,5.71-1.64.09-3.44.18-5.41.29-.74.74-1.6,1.6-2.56,2.56-1.28,3.18,3.75,4.61,2.4,8.04-12.98,12.98-26.04,26.05-39,39-.1,1.95-.19,3.76-.29,5.9-2.91,2.91-5.82,5.81-8.72,8.72-2.29,2.3-6.74,5.26-6.75,8.59.8.9,1.59,1.81,2.47,2.8,2.58.06,4.81-.43,6.68,1.44,1.8-1.8,3.69-1.06,6.11-.82,2.32-2.32,4.03-4.03,5.71-5.71,5.02,0,11.67,1.12,16.38-.65,1-1.52,2.53-2.22,4.44-1.96.72,2.26-1.39,3.36-2.18,5.16-1.01,2.28-.37,5.45-.37,7.88,3.96.26,14.11-1.8,12.99,5.32-1.28,1.28-2.57,2.57-3.86,3.86,4.89,2.62-5.23,12.73-7.84,7.84-1.27,1.95-4.34,2.68-3.95,5.71.97,1.94,3.78,5.8,6.24,6.05,2.63.27,5.13-3.49,6.74-5.11.15-2.23.27-4.02.4-5.94,13.91-13.91,27.81-27.81,41.54-41.54.29-7.1.46-7.27,7.88-7.57,4.23-4.23,8.46-8.45,12.68-12.69,2.21-2.22,4.7-4.36,6.72-6.76,1.77-2.1,1.49-3.8,1.49-6.53,6.88-6.88,13.83-13.83,20.93-20.93,1.59-.06,3.4-.12,5.21-.18.16-3.6-.4-7.26.36-10.43,1.97-1.97,3.66-3.66,5.01-5.01,2.29-.24,4.05-.42,5.31-.55,2.8-1.96,3.83-5.75,7.75-4.73,1.35,1.14,2.27,3.05,5.33,2.25,3.21-3.21,6.44-6.41,9.65-9.63,1.67-1.67,3.33-3.35,4.99-5.03,1.07-1.08,3.47-2.68,3.53-4.27.17-4.36-4.58.26-5.99.65-3.34.91-4.02-2.58-4.51-5.03.88-.88,1.75-1.75,2.54-2.54,1.91-.08,3.72-.16,5.44-.23,1.7-1.97,2.22-2.04,2.47-4.71.11-1.21.1-2.89.84-3.93,1.61-2.28,5.59-1.4,7.9-2.47,1.44-1.6,3.03-3.36,4.29-4.76v-4.36c.75-.92,1.5-1.85,2.36-2.91,1.67-.1,3.47-.2,5.33-.3.07-1.69.15-3.46.23-5.28,4.32-4.32,8.67-8.67,12.91-12.91.11-1.85.22-3.56.31-5.19,2.43-.6,5.84,4.56,7.61,1.81v-4.05c9.43-10.67,20-20.42,30.04-30.52.8-.81,5.57-4.98,3.63-6.46-2.01-1.53-6.53,4.17-7.74,5.39-1.25,1.26-4.28,5.46-6.38,5.14-3.62-.56.27-4.27,1.24-5.24.08-1.82.15-3.64.22-5.38.9-.9,1.76-1.76,2.5-2.5,1.87-.12,3.56-.23,5.25-.34,0-2.49-.41-5.35,1.96-6.95,2.02-1.37,5.45-1.01,7.79-1.23,1.84,1.62,2.74,2.41,3.64,3.21,2.47,0,4.93,0,7.88,0-.1-2,.02-4.07-.28-6.06-.31-2.01-1.18-2.6-2.41-4.16-1.66-.1-3.45-.22-5.24-.33.42-5.17,3.2-5.15,7.68-5.54,3.04-1.78,3.79-5.9,7.74-4.47,0,3.76.3,7.79,5.15,7.5,1.81-2.63,6.86-4.5,4.71-8.39-1.49-2.7-5.47-3.46-4.39-7.31,3.61-.22,7.28.54,10.84-.61.95-.67,1.91-1.34,2.87-2,3.08,0,6.16,0,9.43,0,.11-3.55.21-7.1.32-10.47,3.58-3.59,7.05-7.05,10.35-10.35,2.04-.13,3.83-.25,5.12-.33l5.3-5.3v-4.03c1.53-1.51,3.85-.47,5.62-1.29,2.54-1.19,2.2-4.16,2.22-6.53.03-3.24-1.25-4.92-3.93-2.22-1.79,1.8-4.85,1.81-3.69-1.54,3.32-2.46,4.87-7.21,9.98-7.64.11,1.72.22,3.42.34,5.38,2.33-.13,4.75-.26,8.07-.44,2.47-2.47,4.95-4.91,7.4-7.39,1.44-1.45,5.96-4.5,5.16-6.95-.71-2.17-3-.06-4.49-1.32-2.22-1.87,1.12-3.71,2.1-4.94,3.65-.17,7.31.42,10.9-.48,2.4-1.64,3.46-5.33,7.33-4.75.84.84,1.71,1.71,2.6,2.6.87,7.11-7.54,3.55-10.19,7.84-.08,1.43-.19,3.22-.3,5.22-3.33,3.33-6.8,6.8-10.23,10.23-.07,1.91-.14,3.73-.21,5.59-5.2,5.2-10.42,10.42-15.54,15.54-.11,1.85-.21,3.56-.3,5.15-1.98.15-3.76.29-5.7.44-1.7,1.7-3.39,3.39-4.9,4.9h-4.49c-.16,1.55-.32,3.13-.53,5.14l-4.85,4.85c-.1,1.91-.2,3.72-.31,5.69-.73.73-1.59,1.59-2.5,2.5-1.72.07-3.54.14-5.29.22-.9.9-1.76,1.76-2.59,2.59v7.47c1.14,1.31,1.92,3.14,4.6,2.86,2.08-1.62,7.58-8.01,9.78-3.86,1.79-1.79,1.17-3.88,1.09-6.32l3.01-3.01c1.46.12,3.22.27,5.15.43-.09-1.99-.17-3.73-.27-5.71,2.54.08,4.86.77,6.71-1.08-4.5-2.42,2.79-9.78,5.23-5.23,1.83-1.83,1.39-3.94,1.48-6.44,1.93-.13,3.72-.25,5.01-.33,6.39-6.39,12.45-12.45,18.35-18.35v-9.53c1.71-2.41,3.38-4.87,6.36-5.87h4.1c4.66-4.66,9.34-9.29,13.95-13.99,1.71-1.75,4.98-3.77,4.13-6.59-.63-2.08-2.87-3.02-2.36-5.55.8-.8,1.66-1.66,2.55-2.55,1.76-.07,3.58-.14,5.3-.21,2.65-2.64,5.24-5.24,7.72-7.72.1-1.97.2-3.77.29-5.45,2.41-1.99,2.86-2.38,6.18-2.43.63,0,5.83-.46,6.78.06-.26-.15-.71-.21-.09-1.11v-9.3l2.51-2.51c.07-1.89.15-3.7.22-5.52.99-.99,3.97-3.02,2.22-4.73-1.7-1.66-4.23,1.25-5.42,2.23-2.46,0-4.92,0-7.38,0,0-2.46,0-4.92,0-7.61,1.59-1.59,3.3-3.3,5.16-5.16,2.69-.3,5.65-.78,8.54.33,1.57,1.63,2.93,2.73,5.09,3.45,1.54.52,3.5.66,4.9,1.49,1.05.62,1.7,1.8,2.96,2.11,3.12.77,5.92-3.67,7.78-5.55,3.28-3.3,6.59-6.56,9.88-9.85.18-2.33.31-4.1.4-5.29,2.1-2.1,3.8-3.8,5.11-5.11,2.05-.61,3.92.7,5.09-1.18v-9.33c1.76-.08,3.52-.15,5.35-.23l2.47-2.47c1.91-.08,3.72-.15,5.43-.22,1.8-2.01,3.3-3.08,1.8-5.5-.83-1.34-2.25-2.28-1.93-4.06.32-1.75,2.38-3.36,3.59-4.55,1.31-1.29,3.08-3.53,4.99-3.89,1.8-.34,2.14.49,3.42,1.45,1.09.82,2.43,1.83,3.49.22.75-1.15-.05-2.92.27-4.23,1.3-1.43,5.02-4.16,5.13-6.32.12-2.5-3.3-3.88-2.64-6.65.8-.9,1.6-1.8,2.58-2.89,5.27-.01,10.72-.02,15.87-.03,2.67-3.78,7.7-5.14,7.7-10.26-2.33-.64-3.26,1.12-5.12,1.93-2.33,1.02-5.48.38-7.96.26,0-2.74,1.9-3.93,3.79-5.84,2.27-2.3,4.57-4.57,6.85-6.86,1.38-.05,3.2-.12,5.08-.19,1.67-1.68,3.41-3.41,5.13-5.13,3.3-1.19,4.73,3.84,7.87,2.48,1.88-1.87,3.6-3.6,5.28-5.28-.48-3.24.06-6.06,2.46-8.12.18-1.91.34-3.67.48-5.19,2.96-2.63,5.04-5.73,8.33-7.47,1.23,0,2.46,0,3.69,0,1.05-.79,2.03-1.7,3.05-2.55,99.8,88.45,230.98,142.25,374.51,142.25,311.71,0,565.3-253.59,565.3-565.3,0-126.56-41.81-243.54-112.33-337.85h4.09c1.44,1.3,3.6,4.63,5.48,5.19,3.48,1.03,2.21-3.29,2.64-5,4.94-5.42,10.19-10.54,15.38-15.71,2.62-2.61,5.25-5.2,7.87-7.81,2.65-2.64,2.77-4.02,2.76-7.73.8-.9,1.6-1.8,2.48-2.79.06-1.72.12-3.54.18-5.4l3.37-3.37c2.84.35,6.47.8,9.58,1.18,3.24-3.24,5.81-5.81,8.06-8.06,2-.54,3.85.68,5.08-1.09v-4c1.63-.13,3.29-.27,5.2-.42,1.54-1.54,3.26-3.26,5.13-5.13.06-1.59.12-3.4.18-5.16,1.79-.07,3.6-.14,5.16-.2,14.09-14.09,28-28,41.74-41.73.14-2.05.26-3.84.34-5.11,2.93-2.93,5.5-5.5,7.9-7.9,7.1-.29,7.28-.46,7.56-7.52,3.9-4.29,8.01-8.36,12.12-12.46,3.99-3.99,8.52-7.75,11.4-12.61,0-1.24,0-2.47,0-3.71.8-.9,1.59-1.8,2.46-2.79,1.74-.06,3.56-.12,5.43-.19,1.69-1.69,3.43-3.43,5.13-5.13.06-1.86.13-3.68.18-5.26,5.37-5.36,10.57-10.57,15.6-15.6,2.05-.13,3.84-.25,5.44-.36q11.69-11.69,12.82-15.26c-1.74-.1-3.49-.21-5.23-.31v-7.52c1.74-.08,3.48-.16,5.29-.24,1.29-1.29,3.97-5.42,6.05-5.33,2.59.11,1.73,3.19,1.73,4.94,2.33.01,3.05.09,4.83-1.67.69-.69,1.81-1.67,2.27-2.55.79-1.51.11-2.56-.68-3.97-.58-1.04-1.87-2.55-1-3.82.86-1.25,2.21-.66,3.22.1,1.24.93,1.61,2.11,3.37,1.94,1.43-.14,2.52-1.43,3.42-2.44.1-1.56.22-3.35.36-5.4,2.41-2.41,5-5.01,7.6-7.6.06-1.89.13-3.7.19-5.57,3-3,6.05-6.05,9.1-9.1-3.79-2.07,1.85-9.08,4.67-9.19,1.75-.06,2.05,1.29,1.45,2.92-.77,2.14-4.52,4.66-6.13,6.27,2.01,3.77,6.42-1.17,8.25-2.9,2.37-2.24,6.13-5.46,6.13-8.81-1.74-.06-3.49-.13-5.23-.19,0-2.47,0-4.89,0-7.5,1.68-.1,3.36-.2,5.22-.3.72-.72,1.57-1.57,2.43-2.43,1.82-.05,3.62-.1,5.45-.14l5.11-5.11c.05-1.79.1-3.58.16-5.38l3.86-3.86c-3.93-5.34,2.6-6.23,6.28-6.77.1-1.42.22-3.09.36-4.87.72-.78,1.53-1.67,2.39-2.63,3.56-.08,7.19-.16,10.72-.24.89-.99,1.69-1.89,2.48-2.78.22-3.59-.53-7.24.61-10.78,3.15-3.15,6.3-6.29,9.44-9.44,2.75-2.75,6.43-5.51,8.25-8.96,0-3.06,0-6.13,0-9.19.74-.92,1.47-1.84,2.22-2.78.44-2.76.92-5.54-.33-8.24-3.1,0-6.17,0-9.21,0-1.66-2.78,1.35-3.86,1.94-5.39.19-2.15.35-3.91.51-5.72,1.95-1.58,6.67-7.27,8.79-3.27,1.3-1.29,2.59-2.59,3.85-3.85.07-1.79.14-3.55.2-5.22,1.88-.1,3.66-.2,5.73-.31,2.46-2.46,5.89-7.61,9.44-7.61,1.25,1.1,2.94,2.17,2.78,4-.21,2.33-2.96,3.66-2.39,6.3,1.24,1.17,1.97,3.14,4.37,2.73,3.58-1.65,8.7-6.34,8.7-10.4-.85-.86-1.72-1.72-2.49-2.49-.79-2.33,1.28-3.43,2.1-5.29,1-2.28.34-5.39.31-7.82-2.03-2.03-3.73-3.73-5.34-5.34-3.25,0-6.3,0-9.36,0-1.34-2.22-1.38-2.24,2.69-6.04,2.73.35,6.33.81,8.87,1.13,3.48-3.48,6.03-6.03,8.37-8.37.04-2.79.07-5.23.11-7.61-1.36-1.36-2.66-2.66-4.55-3.39-2.56,1.51-4.8-.78-2.53-1.82,1.24-.57,3.12.46,3.12,1.23,4.25-4.23,7.99-7.97,11.69-11.67,1.8-.08,3.55-.15,4.94-.21,1.11-3.89-1.72-14.08,5.62-12.88l2.52,2.52c.1,1.83.18,3.55.27,5.27h7.53c.1-3.6.2-7.2.26-9.55,1.58-3.82,5.57-4.61,5.08-8.57-1.73-.08-3.48-.16-5.23-.24,0-2.4.01-4.85.02-7.64,3.49-.07,7.01-.15,10.47-.22l5.2-5.2c0-3.74-3.89-4.77-4.93-8-.73-2.26,1.07-3.6,2.68-5.02,3.25-.23,7.6,1.14,10.48-.79,2.51-1.69,2.07-4.17,2.26-6.79l4.93-4.93c.13-1.91.24-3.7.38-5.75,4.14-4.14,8.46-8.46,12.8-12.8.08-1.87.15-3.67.22-5.57l2.51-2.51c1.75-.08,3.52-.15,5.19-.22.11-1.88.21-3.67.29-5.04,1.63-3.94,5.46-1.68,7.64-3.44v-4.04c2.31-2.58,4.66-5.08,7.11-7.53,1.5-1.49,3.52-2.69,3.24-4.95-.21-1.7-2.35-2.75-2.58-4.39-.23-1.68,1.45-3.09,2.45-4.25,1.67-.09,3.47-.19,5.45-.29,1.59-1.59,3.32-3.32,5.13-5.13.06-1.68.12-3.49.18-5.33,3.46-3.46,6.93-6.93,10.34-10.34.07-1.88.14-3.7.21-5.57,1.72-1.72,3.44-3.44,5.02-5.03.73-3.03-2.06-3.27-2.59-5.75-.53-2.49,2.99-4.96,4.52-6.53,2.36-2.42,4.77-4.78,7.18-7.16,1.75-1.72,4.64-3.56,4.01-6.36-.81-.89-1.63-1.78-2.74-3-2.14.16-4.57.33-8.17.6ZM71.61,1897.99c-.68-.34-1.06-.76-.98-1.6.14-1.47.65-.99,1.85-.99,1.63.54,1.27,3.65-.87,2.59Zm16.43-10.33c-.79.07-1.27-.31-1.6-.98-.99-2,2.02-2.57,2.59-.87,0,1.19.47,1.71-.99,1.85Zm304.28-278.12c-.54,1.63-3.65,1.27-2.59-.87.34-.68.76-1.06,1.6-.98,1.47.14.99.65.99,1.85Zm36.6-30.87c-.5,1.89-3.8,4.17-5.16,5.53-1.97.07-3.21-.21-2.61-2.61,1.7-1.7,3.4-3.4,5.1-5.1,1.61-.4,3.2.22,2.67,2.19Zm6.16,4.77c-3.58.54-4.46-.96-2.74-1.75,1.34-.62,3.44.64,2.74,1.75Zm3.37.53c-.67.29-1.94.28-2.51-.25,4.3-.86,2.51.25,2.51.25Zm-2.82-.63c-1.05-1.66,2.8-1.42,3.74-1.14-1.45.58-2.69.94-3.74,1.14Zm6.14-4.33c.08-1.75.17-3.52.22-5.29.11-3.6.85-4.31,5.31-5.08.84.85,1.69,1.69,3.33,3.33-2.88,3.66-4.21,7.3-8.86,7.04Zm10.31-39.5c-1.72,1.74-3.83-1.29-4.83-2.29-.21-3.61,1.52-5.33,5.5-5.26-.09,1.58.56,6.3-.67,7.54Zm21.29-20.61c-3.6.11-5.38-1.58-5.18-5.5,1.77.14,3.54.27,5.13.39,1.08-1.08,3.8-4.65,5.24-1.97,1.24,2.3-3.84,5.72-5.2,7.08Zm44.69-52.27c-2.27-1.75,1.5-2.64,2.38-2.64.2,1.02-.55,4.06-2.38,2.64Zm2.61,7.84c-2.27-1.75,1.5-2.64,2.38-2.64.2,1.02-.55,4.06-2.38,2.64Zm802.44-755.65c.13,3.63-1.61,5.37-5.24,5.24-.13-3.63,1.61-5.37,5.24-5.24Zm-336.93-158.99c109.61,0,209.89,40.44,286.94,107.07-.73.73-1.44,1.44-2.17,2.17-1.87.08-3.69.15-5.4.22-.91.91-1.77,1.77-2.49,2.49-.11,1.99-.22,3.79-.3,5.21-1.93,2.21-5.02,4.51-5.02,7.53.8,1.83,4.21,2.74,1.82,5.55h-9.67c-6.72,6.72-13.43,13.43-20.15,20.15-3.3,3.29-6.51,6.7-9.9,9.9-3.58,3.38-5.72-.44-6.57-3.88,1.06-1.06,4.25-3.42,2.07-5.09-1.75-1.34-3.64,1.51-4.69,2.54-2.19,2.15-4.34,4.34-6.47,6.55-1.83,1.9-3.96,3.23-3.96,5.9,1.66.69,3.21.54,5.01.54-.28,2.36-.21,3.88-2.74,4.91-1.43.58-3.01.23-4.51.72-3.32,1.08-2.98,4.45-2.98,7.45-2.27,2.27-4.47,5.25-7.13,7.06-2.11,1.44-4.46.45-2.88-2.2.66-1.12,2.23-1.61,2.29-3.08.05-1.28-.78-2.02-2.01-1.92-2.08.17-4.51,3.93-5.88,5.3-.71,3.06,2.71,4.43,2.57,7.11-.11,2.17-4.02,4.6-5.41,5.87-2.2.21-3.97.38-5.39.51-3.03,2.67-5.08,5.81-8.42,7.5h-9.41c-15.57,15.57-31.23,31.23-46.9,46.9-1.89.07-3.7.14-5.59.22-6.9,6.9-13.87,13.87-20.8,20.8-1.87.06-3.68.13-5.57.19-6.08,6.08-12.16,12.16-18.08,18.08-2.02.13-3.82.24-5.74.35-6.94,6.94-13.87,13.87-20.66,20.66h-4.51c-5.83,4.64-10.69,10.97-16.48,15.69h-4.85c-2.4,2.37-4.79,4.76-7.17,7.15-2.11,2.12-5.09,4.21-5.92,7.1,0,1.23,0,2.46,0,3.7-1.02,1.29-2.33,2.56-2.23,4.3.05.8.65,1.6.96,2.31.63,1.4.9,2.65,1.26,4.14-1.81.07-3.61.13-5.35.2-.97.87-1.87,1.68-2.76,2.49-3.61.23-7.28-.56-10.83.64-2.39,2.72-5.54,4.75-7.21,8.1,0,1.23,0,2.47,0,3.7-.83,1.07-3.54,3.8-2.22,5.52,1.45,1.88,3.75-1.19,4.69-2.13,1.73-.06,3.55-.13,5.42-.19,1.69-1.69,3.43-3.43,5.19-5.19,2.45,0,4.92.01,7.39.02,0,2.4.2,2.72-1.59,4.53-1.87,1.9-3.75,3.79-5.63,5.68-3.4,3.43-6.81,6.85-10.21,10.26-7.02,7.04-14.06,14.06-21.09,21.09-2.39.61-4.22-.56-5.48,1.16,0,1.24,0,2.48,0,3.71-2.26.46-3.84.4-4.95-1.96-1.04-2.21.67-3.6,2.21-5.13.06-1.74.12-3.55.19-5.41l2.52-2.52c1.88-.07,3.69-.13,5.26-.19,3.82-1.61,1.84-5.34,3.25-7.7,2.18-.09,5.41.14,6.65-2.05,1.33-2.35.46-6.25.21-8.76-1.45-1.18-2.06-2.05-3.99-2.29-1.97-.24-4.01-.05-5.98-.08-7.12,7.12-14.09,14.09-21.05,21.05,0,2.49,0,4.95,0,7.62,1.61,1.61,3.33,3.33,5.23,5.23,0,2.96.07,5.93.02,8.89-.05,3.4-.3,4.18-2.37,6.77-1.67.1-3.46.2-5.47.32-4.19,4.19-8.53,8.53-12.97,12.97-.06,1.66-.12,3.47-.19,5.26-2.62,2.62-5.23,5.23-7.76,7.75-1.91.08-3.72.16-5.4.23-1.63,1.4-2.69,3.04-4.93,2.26-1.38-.48-2.35-1.59-2.59-3-.34-2.03.99-3.17,2.28-4.5,1.78-1.84,2.2-2.88,2.79-5.34-.86-.86-1.73-1.73-2.7-2.7-2.33.05-4.79.1-7.61.15-12.79,12.79-25.83,25.83-38.87,38.87-1.91.11-3.71.22-5.71.33-12.04,12.04-24.22,24.22-36.5,36.5-.06,1.66-.12,3.48-.19,5.27-.88.87-1.74,1.74-2.53,2.53-1.91.08-3.72.16-5.02.21-3.51,3.51-7.02,7-10.51,10.53-.93.94-4.31,3.36-2.43,4.77,1.17.88,3.43-1.13,4.47-1.74,3.47-.37,5.85-.62,8.13-.86.14,2.27.25,4.07.35,5.73,1.08.87,2.01,1.61,2.94,2.34,3.08,0,6.16,0,9.33,0,.28,3.04-.48,3.62-2.7,5.77-1.99,1.93-4.03,4.69-6.85,4.69-.91-.79-1.81-1.58-2.72-2.38-3.12-.11-6.67-.98-9.41,1.02-2.26,1.66-3.35,4.72-6.74,3.74-.78-.87-1.59-1.77-2.3-2.56-.12-1.9-.24-3.7-.34-5.27-1.42-1.57-2.72-2.82-4.94-2.35-1.64,1.64-3.37,3.37-5.15,5.15-.08,1.69-.17,3.48-.26,5.19-1.81.09-3.62.18-5.26.26-1.07.89-1.99,1.66-2.75,2.3-1.93.16-3.71.31-5.23.43-4.21,4.12-4.18,4.14-4.92,7.53,1.31,1.31,2.61,2.61,3.92,3.92,1.73-1.73,3.98-5.24,6.27-6.13,1.54-.6,3.14-.27,2.92,1.45-.36,2.82-7.07,8.56-9.19,4.68-2.18,2.18-4.36,4.36-6.54,6.54-1.86-.42-2.75-.71-4.34-1.65-1.13-.66-2.09-1.18-3.41-.68-.12,1.82-.25,3.61-.33,4.86-3.81,3.81-7.25,7.25-10.37,10.37-2,.54-3.85-.68-5.08,1.1v3.99c-1.64.13-3.29.26-5.08.41-.78.7-1.68,1.51-2.64,2.38-.06,1.76-.12,3.58-.19,5.4-1.72,1.72-3.46,3.46-5.13,5.13-1.9.08-3.71.15-3.84.15-3.58,1.11-3.59,3.15-4.06,6.28-.62,4.08-5.71,6.5-7.81,9.99-.27,6.7-.46,6.89-7.87,7.19-2.49,2.49-4.99,4.97-7.47,7.48-2.85,2.89-2.97,4.08-2.97,8.08-2.54,2.54-5.14,5.14-7.6,7.6-1.49,3.54,3.54,4.97,2.34,8.19-.91.91-1.78,1.78-2.63,2.63-2.35-.58-4.15-1.93-6.36-2.56-2.24-.64-4.92.11-7.17.44-3.23,3.23-7.82,6.62-9.95,10.67,0,1.23,0,2.47,0,3.7-5.42,5.93-9.44,10.26-12.52,13.46-52.73-72.48-83.95-161.56-83.95-257.85,0-242.25,197.08-439.33,439.33-439.33Zm181.67,216.62c-.79.07-1.27-.31-1.6-.98-.99-2,2.02-2.57,2.59-.87,0,1.19.48,1.71-.99,1.85Zm-9.44,109.47c-1.75,2.27-2.64-1.5-2.64-2.38,1.02-.2,4.06.55,2.64,2.38Zm-55.23-49.29c-1.48,1.85-3.29,3.44-4.95,5.1-4.51-.87-4.53-.87-5.14-5.32.85-.84,1.69-1.69,2.54-2.53h7.26c.12.93.7,2.24.29,2.76Zm-50.24,44.2c-1.98,1.07-3.17-1.59-4.43-2.53.06-2.32.13-4.72.2-7.35,2.22-3.3,6.05-8.33,10.32-8.33.85.85,1.7,1.7,2.59,2.59.13,5.52-6.04,6.24-7.6,10.67-.53,1.5.68,3.99-1.08,4.94Zm-33.12,130.82c.13,3.63-1.61,5.37-5.24,5.24-.13-3.63,1.61-5.37,5.24-5.24Zm-10.51-100.49c-1-2.74,3.4-4.88,5.27-3.26.93,2.55-4.15,6.35-5.27,3.26Zm10.5-9.23c0-3.32,2.86-6.03,5.31-8.11,2.6-2.2,3.62-2.43,6.78-2.43-4.6,5.33-6.93,9.61-12.09,10.55Zm-93.9,211.66c-6.39.66-5.54-6.07-5.68-10.39,6.39-.66,5.54,6.07,5.68,10.39Zm-10.68-13.04l-2.56-2.56c.6-3.59.56-3.63,5.94-7.86,2.36-.65,3.05,1.53,4.39,2.5.86,4.31-4.35,7.21-7.77,7.93Zm-47.59-59.61c-2.84,2.84-4.65,6.22-8.63,3.4-.03.02-.05.03-.08.05,1.76-1.73,2.87-2.83,4.12-4.09-.11-1.56-.24-3.34-.35-4.88,3.16-3.16,6.31-7.38,9.95-9.94,2.92-2.06,6.65,1.23,5.87,4.59-3.63,3.63-7.25,7.26-10.88,10.88Zm8.37,106.67c-1.71,1.71-3.42,3.42-5.13,5.13-4.48-.57-4.48-.58-5.33-5.13,1.71-1.71,3.42-3.42,5.13-5.13q4.47.57,5.33,5.13Zm-20.12-104.53c1.2-.55,3.02.4,2.88,1.4-3.02,1.8-5.09-.39-2.88-1.4Zm2.85,1.49c-.08.31-.36.63-.91.89.32-.32.63-.61.91-.89Zm-3.65,121.35c.13,3.59-1.59,5.34-5.39,5.22.04-1.59-.74-6.32.54-7.57,1.73-1.68,3.86,1.36,4.84,2.34Zm-10.44-102.21c-1.75,2.27-2.64-1.5-2.64-2.38,1.02-.2,4.06.55,2.64,2.38Zm-13.97,117.96c-1.36-.05-2.03-.92-1.71-2.34.44-1.98,2.67-2.95,4.37-2.95,1.53,1.77-.01,5.39-2.65,5.29Zm-1.8,13.06c-1.71,1.71-3.42,3.42-5.13,5.13q-4.51-.71-5.23-5.23l5.13-5.13q4.51.71,5.23,5.23Zm-20.97-104.53c-2.18,2.18-4.3,4.82-6.75,6.71-1.79,1.39-4.36,1.49-3.51-1.69,2.18-2.18,4.3-4.82,6.75-6.71,1.79-1.39,4.36-1.49,3.51,1.69Zm-15.29,130.63c-3.98.07-5.71-1.65-5.5-5.28,1.18-.89,2.94-3.87,4.83-2.28,1.26,1.07.59,6.05.67,7.55Zm-51.45-63.01c-.81,1.71-1.1,3.12-1.16,5.01-4.1,4.71-8.55,9.04-12.97,13.45-3.96.48-4.65-2.58-6.65-3.78,2.11-2.44.74-4.78,1.64-6.59h4.33c2.97-2.06,5.41-4.76,7.91-7.34,1.46-1.5,4.89-6.13,7.03-5.88,2.76.32.46,3.85-.15,5.12Zm-23.88,13.38c1.21-.55,3.03.4,2.88,1.41-3,1.81-5.1-.39-2.88-1.41Zm-6.09,135.97c-.85.85-1.7,1.7-2.55,2.55q-4.39-.95-5.17-5.29c.85-.85,1.7-1.7,2.55-2.55,4.5.83,4.51.84,5.16,5.29Zm-23.47-4.42c0,1.19.48,1.71-.99,1.85-.79.07-1.27-.31-1.6-.98-.99-2,2.02-2.57,2.59-.87Zm-143.99,140.48c-.9,1.08-1.66,2-2.42,2.92-.09,6.38-.16,6.39-5.23,7.38v-13.07c1.33-1.33,4.61-6.22,6.92-5.22,2.03.88.8,6.23.74,7.99Zm-.13-83.51c-1.6-.1-6.65.51-7.52-1.16-1-1.93,1.82-3.59,2.92-4.7,1.6.1,6.65-.51,7.52,1.16,1,1.93-1.81,3.59-2.92,4.7Zm9.78,83.45c-.79.07-1.27-.31-1.6-.98-.99-2,2.02-2.57,2.59-.87,0,1.19.47,1.71-.99,1.85Zm432.75-4.68c-107.7,0-206.42-39.02-282.91-103.58-.08-.73-.15-1.46-.33-2.18-1.46-1.22-2.47-2.64-2.08-4.71,3.45-3.44,6.92-6.92,10.39-10.39,1.82-.06,3.64-.12,5.33-.18,1.46-1.19,2.4-3.07,4.71-2.46,2.15,1.38,4.69,5.67,7.61,5.13,3-.56,6.29-5.53,8.36-7.59.24-2.3.41-3.88.57-5.42h4.25c2.23-1.76,4.53-3.58,6.61-5.23h4.21c.1-1.7.2-3.41.31-5.26.76-.76,1.62-1.62,2.45-2.45.08-1.87.15-3.69.22-5.4.91-.91,1.77-1.77,2.57-2.57,3.52,0,7.6.61,10.93-.57,4.48-4.48,8.95-8.96,13.43-13.43,3.87-3.86,8.02-9.66,12.89-12.14,1.23,0,2.46,0,4.11,0,.16-1.55.32-3.14.5-4.92,4.61-6.1,11.35-10.57,15.56-16.67,0-1.89,0-3.12,0-4.45l10.45-10.45c1.66-.06,3.47-.12,5.28-.18,3.48-3.48,6.95-6.95,10.36-10.36.07-1.89.14-3.7.2-5.24,1.9-1.9,3.62-3.62,5.14-5.14,2.07-.15,3.86-.27,3.82-.27,4.39-1.51,2.89-3.96,4.12-7.29,1.67-4.51,7.75-7.32,10.3-11.52,0-1.5,0-2.73,0-3.96,19.07-20.32,32.88-33.93,35.14-34.6h3.69c.91-.78,1.82-1.56,2.83-2.43.07-1.71.15-3.52.23-5.44l2.53-2.53c1.77-.06,3.59-.13,5.27-.19,2.68-2.68,5.27-5.27,7.73-7.73.11-1.99.21-3.78.29-5.17,2.86-2.86,5.43-5.43,7.74-7.74,2.17-.19,3.94-.34,5.74-.49,1.81-2.36,13.82-11.24,7.95-13.47-2.56,1.51-4.81-.78-2.53-1.82,1.24-.57,3.12.46,3.12,1.23,6.02-5.99,11.5-11.48,16.94-16.92,1.86-.06,3.68-.13,5.57-.19,5.21-5.21,10.42-10.42,15.45-15.45,2.05-.13,3.84-.25,5.76-.38,5.19-5.19,10.38-10.38,15.42-15.42h4.46c3.93-3.19,7.72-6.98,10.93-10.93v-4.43c1.62-.14,3.26-.28,5.19-.44,1.52-1.52,3.24-3.24,5.13-5.13.06-1.56.12-3.38.19-5.25,6.04-6.04,12.14-12.14,18.2-18.2.06-1.86.13-3.68.18-5.27,1.9-1.89,4.28-5.56,7.42-4.63,2.01.6,3.28,3.1,5.53,1.39v-9.85c2.84-2.84,5.68-5.69,8.53-8.53,2.38-2.38,5.09-6.28,8.38-7.16h4.02c2.72-2.72,5.44-5.43,8.15-8.15,1.84-1.85,3.32-2.97,1.57-5.57-1.58-2.34-3.29-1.28-5.44-1.93-3.67-1.1-.54-3.67,1.25-5.27,1.79,0,3.32.19,4.93-.61.28-6.78.45-6.96,7.55-7.24,3.28-3.28,6.72-6.72,10.83-10.83,3.12.38,6.75.82,9.59,1.17,4.28-4.28,7.76-7.76,11.25-11.25v-7.39c-1.03-1.49-4.29-4-1.63-5.66,1.76-1.1,4.11-.1,6.03-1.57,5.34-4.1,8.7-10.9,14.79-14.14h4.35c2.57-2.57,5.17-5.13,7.71-7.73,2.6-2.66,3.99-2.73,7.68-2.73.9-.8,1.8-1.6,3.08-2.75-.18-2.09-.4-4.53-.65-7.4-1.09-.11-2.7-.26-4.32-.42.03-2.73.12-2.93,2.15-5,2.04-2.09,4.1-4.17,6.16-6.24,3.98-4,7.97-7.97,11.96-11.96,2.62-.27,4.38-.44,5.82-.59,1.48-1.48,3.65-4.84,5.96-4.91,2.57-.08,3.49,3.42,6.31,2.62,1.18-5.12-.22-10.45.78-15.64,4.29,1.25,4.31,1.33,7.49,6.65-.87,1.49-1.74,2.98-2.1,3.6-.29,3.27-.5,5.66-.71,8.06,3.56,0,7.61-4.13,9.7-7.03,2.6-3.61-2.4-5.03-1.6-8.6,2.47-2.47,5.06-5.06,7.65-7.65.06-1.89.13-3.7.19-5.52l2.52-2.52c1.9-.08,3.71-.15,5.61-.22,4.33-4.33,8.67-8.67,12.79-12.79,2.09-.15,3.87-.28,5.81-.42,1.7-1.7,3.4-3.4,4.92-4.92,6.71-.13,6.82-.27,7.3-5.16-1.79-.1-3.59-.2-5.26-.3-3.28-3.86-3.29-3.91.12-7.5,1.77-.06,3.59-.12,5.39-.19,1.74-1.74,3.48-3.48,5.2-5.2.18-3.66-.42-7.32.49-10.92,3.19-3.19,5.44-6.26,9.88-7.35.09,1.75.18,3.49.27,5.23h7.56l2.48-2.48c1.91-.07,3.73-.14,5.59-.21,1.71-1.71,3.45-3.45,5.09-5.1,1.92-.08,3.73-.16,5.4-.24,2.14-1.82,3.14-3.32,5.76-1.61,1.26.82,3.1,3.17,4.54,1.07v-9.24q3.17-4.37.24-8.57c-.12-2.8-.23-5.25-.32-7.48,1.93-1.93,3.66-3.66,5.37-5.37h6.69c.33.43.67.85,1,1.27.04,1.92.09,3.85.14,5.73-1.49,2.06-5.01,6-.28,6.07,1.68-1.68,3.48-3.48,5.25-5.25,54.58,73.21,86.94,163.92,86.94,262.05,0,242.25-197.08,439.33-439.33,439.33Zm459.8-790.25c-.13-3.63,1.61-5.37,5.24-5.24.13,3.63-1.61,5.37-5.24,5.24Zm23.54-11.33c-.54,1.63-3.65,1.26-2.59-.87.34-.68.76-1.06,1.6-.98,1.47.14.99.65.99,1.85Zm117.66-176.91c-.85-.85-1.7-1.7-2.55-2.55-1.77-.04-3.54-.08-5.3-.13,0-4.17,6.2-10.41,10.37-10.41.04,1.76.08,3.51.12,5.27.84.85,1.69,1.69,2.54,2.55.21,3.67-1.57,5.37-5.19,5.27Zm44.19-52.2c-1.46,1.83-3.26,3.4-4.92,5.07-1.44.34-2.33.07-2.49-.33-.1-2.79-.17-5.12-.25-7.46,2.51,0,4.87,0,7.32,0,.14.92.75,2.22.35,2.72Zm12.06,3.78c-2.82,2.78-5.66.09-2.72-2.54,2.85-2.56,5.6-.34,2.72,2.54Zm24.79-33.12c0-2.62,0-4.99,0-7.36q4.28.93,5.23,5.18c-1.48,1.37-2.59,3.72-5.23,2.18Zm44.04-15.21c-1.53,0-1.46.41-1.9-1.08-.46-1.57.55-2.32,1.53-3.35,2.37-2.51,4.86-4.9,7.3-7.34h0c-1.22.23-1.01-3.04-.75-3.9.31.36.57.71.79,1.07.26-1.31.98-.16.98-.15.26.6.28,1.69-.1,2.32,1.12,5.61-6.14,10.98-7.86,12.43Zm8.23-20.93c-.85-.85-1.7-1.7-2.75-2.75.06-1.87-.85-6.88,1.2-7.7,2.23-.89,5.54,3.98,6.81,5.24.11,3.62-1.6,5.39-5.25,5.2Zm33.13-47.06c-2,.99-2.57-2.02-.87-2.59,1.19,0,1.71-.47,1.85.99.07.78-.31,1.27-.98,1.6Z"/><path class="cls-1" d="m945.31,1099.24c-.2.2-.39.39-.59.59.42-.14.59-.35.59-.59Z"/><path class="cls-1" d="m1719.23,351.49c.2-.04.43-.16.71-.41.08-.07.15-.16.21-.26-.14-.72-.43-1.44-.88-2.16-.1.51-.14,1.37-.04,2.83Z"/><path class="cls-1" d="m1800.28,233.81c-.2.2-.39.39-.59.59.42-.14.59-.35.59-.59Z"/><path class="cls-1" d="m330.28,1728.73c-.97-1.9-.67-3.98-.85-6.05-4.08.19-8.31.39-13.19.61-2.89,2.9-6.34,6.34-9.81,9.81-1.88.09-3.68.17-5.62.26-3.36,3.36-6.83,6.83-10.33,10.33-.07,1.74-.14,3.56-.21,5.32l-5.13,5.13c-1.91.08-3.72.16-5.6.24-1.72,1.72-3.43,3.43-4.94,4.93-2.09.15-3.87.28-5.09.37-2.08,2.08-3.77,3.77-5.3,5.3v4c-1.6,3.78-6.04,6.93-8.95,9.84-3.1,3.11-6.2,6.21-9.31,9.32-3.28,3.28-6.55,6.55-9.83,9.82-2.83,2.82-5.71,6.74-9.28,8.53-1.23,0-2.46,0-3.86,0-2.76,1.78-4.98,4.22-7.21,6.61-.91.97-2.6,2.17-3.2,3.33-.56,1.09-.35,2.11-.49,3.3.82.89,1.63,1.78,2.45,2.67,0,2.46,0,4.91,0,7.37-.89,1.08-2.88,2.35-2.64,3.98.28,1.84,1.8,1.41,3.31,1.63,4.36.63,4.56,3.23,4.55,7.27.76.91,1.53,1.82,2.49,2.98,2.74-.2,5.71.72,8.29-.39,2.02-1.84,3.77-3.44,5.22-4.76h4.33c.5-2.59.09-6.19,2.99-7.49,1.45-.64,2.3-.23,3.58.47,1.59.86,2.61,1.36,4.42,1.8,6.06-6.06,12.14-12.14,18.19-18.19,1.83-.08,3.62-.16,5.34-.24.08-1.81.17-3.61.25-5.49,2.59-2.59,5.17-5.17,7.53-7.53.16-2.1.29-3.88.43-5.77,3.93-3.93,7.86-7.86,11.79-11.79,1.59-1.59,2.93-2.78,3.36-5.06.24-1.27-.11-2.62,1.14-3.46h3.99c1.53-1.53,3.23-3.22,5.3-5.3.09-1.23.22-3.01.36-4.96,1.61-.09,3.33-.18,5.16-.28.78-.78,1.64-1.64,3.27-3.27-.33-2.84-.75-6.47-1.07-9.19,1.49-1.82,2.24-2.74,2.99-3.66,0-1.23,0-2.46,0-4.73,1.96-1.96,6.3-8.02,9.15-3.92,1.86-1.86,1.37-4.1,1.43-6.65.89-.99,1.69-1.89,2.47-2.75.44-1.94-1.12-2.82-1.89-4.32Zm-39.89,51.59c-.04,1.78-.09,3.52-.13,5.21-1.83.07-3.59.13-5.49.2-1.19,1.19-4.32,4.63-4.62.88-.19-2.38,3.49-4.85,5.05-6.42,1.17-1.18,4.5-5.71,6.48-5.32,3.51.68-.32,4.49-1.28,5.45Zm21.47-31.96c-3.63,3.7-7.31,7.35-10.98,11.01-.08,1.81-.16,3.55-.24,5.29h-7.52c-.53-5.33,4.84-6.43,7.04-9.8.62-3.24.43-5.92,3.06-8.25,1.55-.1,3.34-.22,5.25-.35,1.1-.97,2.94-3.39,4.67-2.44,2.29,1.26-.25,3.48-1.27,4.53Zm14.95-15.63c-.72.98-3.41.55-4.41.57-1.07,4.49-.7,7.32-6.01,7.65l-2.5-2.5c0-2.75,2.15-4.31,3.99-6.3,2.28-2.48,3.23-3.4,6.47-4.08.87,1.11,3.81,2.82,2.47,4.67Z"/><path class="cls-1" d="m34.11,1923.42c1.69,2.1,3.5,4.35,5.1,6.34.08,2.72.15,5.13.22,7.42-1.85,1.85-3.56,3.56-5.25,5.25-1.82.04-3.61.09-5.33.13-1.77,1.77-3.48,3.48-5.17,5.17v12.87c1.72.07,3.44.15,5.26.23l2.47,2.47c2.18-.36,3.35-.86,5.23-1.89,1.57-.86,3.01-1.26,4.04.67,4.05-4.05-1.33-12.69,2.13-16.99h3.97c3.97-3.3,7.77-7.05,10.9-10.9v-4.49c1.63-.13,3.28-.26,5.19-.41,1.52-1.52,3.23-3.23,5.45-5.45-.19-1.81-.44-4.19-.85-8.07-.15.67-3.49.57-3.96.42-1.7-.53-2.59-2.42-4.53-2.43-2.34,0-4.2,2.83-5.75,4.36-2.02,2-4,4.03-6.01,6.04,0,1.91.48,5.29-1.83,5.19-2.46-.11-3.29-2.74-3.43-4.59.74-3.18,6.13-3.97,5.23-8.47-1.3-1.3-2.6-2.6-3.89-3.89-2.88,2.88-8.81,6.91-9.18,11.02Z"/><path class="cls-1" d="m1965.96.18c-2.79,2.79-5.58,5.57-8.37,8.37-2.37,2.37-5.48,4.73-6.97,7.75,0,1.28.32,2.37-.09,3.63-.43,1.33-1.54,2.49-2.04,3.83-.55,1.45-.2,3-.61,4.34-.37,1.21-1.33,1.78-2.11,2.73-1.81.41-3.5.38-5.36.38.58,5.85,4.49,5.34,9.55,5.78,3.4-3.4,5.98-5.98,8.47-8.47.65-2.9-2.59-4.21-2.62-6.78-.02-1.79,2.55-3.52,3.64-4.63,2.78-2.82,5.56-5.66,8.33-8.5,2.27-2.33,6.37-5.04,6.37-8.38-2.83-.35-5.35-.25-8.19-.05Z"/><path class="cls-1" d="m901.69,1001.69c5.36-5.35,10.72-10.71,16.07-16.07.05-1.76.09-3.56.14-5.37.85-.85,1.71-1.71,2.57-2.57,0-2.2-1.27-5.36-4.01-5.25-2.46.1-4.76,3.57-6.32,5.12-5.42,5.42-10.85,10.85-16.27,16.27.18,2.62-.37,6.61,1.58,8.68,2.4,2.53,4.28,1.14,6.24-.82Z"/><path class="cls-1" d="m343.42,1701.92h9.17c1.88-2.54,6.8-3.02,5.32-7.84h-9.47c-1.8-.73-3.12-3.42-5.93-2.45-2.54,2.54-5.13,5.13-7.66,7.65-.06,1.87-.12,3.67-.18,5.49-2.61,2.6-5.18,5.18-7.73,7.73,1.27,5.58,2.43,6.33,6.76,3.43,2.27-1.52,4.7-.16,6.83-1.45,1.55-2.31,5.2-3.33,5.16-3.69-1.04-5.23-4.7-6.02-2.28-8.86Z"/><path class="cls-1" d="m31.64,1971.31c-2.38,2.38-4.95,4.95-7.54,7.55-1.86.1-3.65.19-5.63.3-1.59,1.59-3.3,3.3-5.03,5.03-1.85.06-3.66.11-5.5.17-.83.83-1.7,1.7-2.52,2.52-.06,1.85-.11,3.66-.17,5.51-1.73,1.73-3.44,3.44-5.06,5.06-.47,1.81-.04,2.54,1.25,2.56,2.05.03,2.82-1.97,4.15-2.5,2.05-.17,3.81-.32,5.68-.47,4.33-4.33,8.62-8.61,12.73-12.73q3.99,0,4.91-.92v-3.58c1.03-2.97,4.66-3.9,5.23-7.11.26-1.46-.49-1.95-2.49-1.39Z"/><path class="cls-1" d="m42.4,1971.26c2.82.22,4.63,3.12,7.57,2.43,2.12-2.11,4.25-4.25,6.39-6.39l-4.45-4.45c-3.27.16-8.87,1.59-11.24-.78-1.28,1.28-2.56,2.56-3.84,3.84-.62,3.97,2.33,5.09,5.57,5.35Z"/><path class="cls-1" d="m1519.25,436.43c1.69-1.69,3.39-3.39,5.4-5.4-.1-1.71-1.18-3.04-1.92-4.51-.38-.74-.83-1.5-.99-2.33-.12-.61.26-2.18.04-2.63-1.7-3.45-9.01,5.66-10.36,7-.73,3.43,4.41,8.49,7.83,7.86Z"/><path class="cls-1" d="m1777.96,297.99c-1.68,1.68-3.36,3.36-5.03,5.03.23,2.65-.87,5.44.48,7.5,2.66.23,4.96.43,7.21.62.07-2.13.14-3.88.2-5.63l2.49-2.49c-.91-4.47-.91-4.49-5.34-5.03Z"/><path class="cls-1" d="m358.34,1707.72v14.39c3.28-3.78,7.9-4.32,7.85-9.66-1.65-1.65-3.32-3.32-5.02-5.02-.9.09-1.86.19-2.83.29Z"/><path class="cls-1" d="m13.09,1973.64c2.54-2.17,5.35-4.05,5.35-7.66-1.37-1-2.06-3.13-5.1-2.4-1.71,1.38-4.05,3.09-6.06,7.15,2.07,1.51,2.76,3.64,5.81,2.91Z"/><path class="cls-1" d="m74.03,1924.33c-2.49.67-2.84,2.87-3.18,5.18,1.27,1.27,2.54,2.54,3.81,3.81,2.61-2.61,5.23-5.23,7.84-7.84-1.85-1.85-5.9-1.83-8.47-1.14Z"/><path class="cls-1" d="m387.19,1670.64c2.21-.09,4.6-.19,7.38-.3,2.77-1.55-5.16-7.93-6.16-8.93-1.74,1.74-3.49,3.49-5.23,5.23,1.27,1.27,2.55,2.55,4.01,4.01Z"/><path class="cls-1" d="m1074.8,982.98c.85.85,1.7,1.7,2.55,2.55,5.15-.96,4.81-.96,5.17-5.29-.85-.85-1.7-1.7-2.55-2.55q-4.5.83-5.17,5.29Z"/><path class="cls-1" d="m1278.69,784.21h7.1c1.33-2.54.59-5.21.5-7.83-3.36-.63-8.12,4.62-7.6,7.83Z"/><path class="cls-1" d="m350.5,1720.24v7.91c2.59-.3,5.18.2,7.83-.32.63-3.36-4.62-8.12-7.83-7.6Z"/><path class="cls-1" d="m1765.65,303.12c4.07-1.05,4.34-1.29,4.31-5.49-1.22-1.22-2.44-2.44-3.66-3.66-1.46,3.25-1.43,3.25-.64,9.15Z"/><path class="cls-1" d="m65.55,1962.63c.22-1.73-1.38-2.05-2.92-1.45-2.29.89-4.54,4.4-6.27,6.13,2.12,3.88,8.83-1.86,9.19-4.68Z"/><path class="cls-1" d="m452.47,1391.62c-1.97-1.71-6.63.85-5.2,3.56,1.43,2.7,6.11-1.16,5.2-3.56Z"/><path class="cls-1" d="m1506.14,344.13c0-1.69-.97-3.93-2.95-4.37-1.42-.31-2.29.36-2.35,1.72-.12,2.67,3.52,4.19,5.3,2.64Z"/><path class="cls-1" d="m498.27,1358.06c2.88-2.88.14-5.1-2.72-2.54-2.94,2.64-.11,5.32,2.72,2.54Z"/><path class="cls-1" d="m1724.5,173.66c2.88-2.88.14-5.1-2.72-2.54-2.94,2.64-.11,5.32,2.72,2.54Z"/><path class="cls-1" d="m61.63,1946.34c-2.82,2.82-.2,5.54,2.52,2.7,2.99-3.12-.84-5.89-2.52-2.7Z"/><path class="cls-1" d="m228.96,1794.7c2.88-2.88.14-5.1-2.72-2.54-2.94,2.64-.11,5.32,2.72,2.54Z"/><path class="cls-1" d="m363.6,1692.37c-.08,1.89,1.1,2.03,2.56,1.4,3.08-1.34,2.92-3.81,1.33-6.23-1.2,1.2-3.81,2.96-3.89,4.83Z"/><path class="cls-1" d="m1816.01,239.02c-2.82,2.82-.2,5.54,2.52,2.7,2.99-3.12-.84-5.88-2.52-2.7Z"/><path class="cls-1" d="m375.38,1695.34c-2.82,2.82-.2,5.54,2.52,2.7,2.99-3.12-.84-5.89-2.52-2.7Z"/><path class="cls-1" d="m1257.75,815.59c3.63.13,5.37-1.61,5.24-5.24-3.63-.13-5.37,1.61-5.24,5.24Z"/><path class="cls-1" d="m325.6,1755.55c-2.94,2.64-.11,5.32,2.72,2.54,2.88-2.88.14-5.1-2.72-2.54Z"/><path class="cls-1" d="m1122.63,1027.36c-1.6,1.85.55,6.23,3.26,5.27,3.08-1.1-.72-6.19-3.26-5.27Z"/><path class="cls-1" d="m1722.25,375.73c.53.6,1.88.61,2.58.31,0,0,2.24-1.37.92-1.77-1-.3-5.27-.55-3.49,1.46Z"/><path class="cls-1" d="m341.75,1740.54c.53.6,1.88.61,2.58.31,0,0,2.24-1.38.92-1.77-1-.3-5.27-.55-3.49,1.46Z"/><path class="cls-1" d="m1809.43,266.52c0,.88.89,4.64,2.64,2.38,1.41-1.83-1.62-2.58-2.64-2.38Z"/><path class="cls-1" d="m338.22,1738.58c-2.27,1.04-.03,3.33,1.94,2.39,2.4-1.15-.32-3.13-1.94-2.39Z"/><path class="cls-1" d="m327.02,1745.57c1.04,2.27,3.33.03,2.39-1.94-1.16-2.4-3.13.32-2.39,1.94Z"/><path class="cls-1" d="m1171.5,895.76c.33.67.81,1.05,1.6.98,1.47-.14.99-.65.99-1.85-.57-1.7-3.58-1.14-2.59.87Z"/><path class="cls-1" d="m1125.4,940.98c-1.47.14-.99.65-.99,1.85.57,1.7,3.58,1.14,2.59-.87-.33-.67-.81-1.05-1.6-.98Z"/><path class="cls-1" d="m1239.48,822.55c.33.67.82,1.05,1.6.98,1.47-.14.99-.65.99-1.85-.57-1.7-3.58-1.14-2.59.87Z"/><path class="cls-1" d="m1825.17,231.73c1.04,2.27,3.33.03,2.39-1.94-1.15-2.4-3.13.32-2.39,1.94Z"/><path class="cls-1" d="m1055.56,1001.22c-1.19,0-1.71-.47-1.85.99-.08.84.3,1.26.98,1.6,2.13,1.06,2.49-2.05.87-2.59Z"/><path class="cls-1" d="m1827.14,228.2c.6-.53.61-1.88.31-2.58,0,0-1.38-2.24-1.77-.92-.3,1-.55,5.27,1.46,3.5Z"/><path class="cls-1" d="m1103.52,948.05c.33.67.81,1.05,1.6.98,1.47-.14.99-.65.99-1.85-.57-1.7-3.58-1.14-2.59.87Z"/><path class="cls-1" d="m716.54,1333.27c0,.88.89,4.64,2.64,2.38,1.41-1.83-1.62-2.58-2.64-2.38Z"/><path class="cls-1" d="m367.49,1687.54c1.74-2.43,1.74-2.8,0-5.23-1.74,2.43-1.74,2.8,0,5.23Z"/><path class="cls-1" d="m55.07,1954.66c.33.67.81,1.05,1.6.98,1.47-.14.99-.65.99-1.85-.57-1.7-3.58-1.14-2.59.87Z"/><path class="cls-1" d="m1866.08,109.65c1.7-.57,1.14-3.58-.87-2.59-.67.33-1.05.81-.98,1.6.14,1.47.65.99,1.85.99Z"/><path class="cls-1" d="m1828.61,141.02c1.19,0,1.71.47,1.85-.99.08-.84-.3-1.26-.98-1.6-2.13-1.06-2.49,2.05-.87,2.59Z"/><path class="cls-1" d="m1703.11,256.06c1.19,0,1.71.47,1.85-.99.08-.84-.3-1.26-.98-1.6-2.13-1.06-2.49,2.05-.87,2.59Z"/><path class="cls-1" d="m1503.55,438.2c.33.67.81,1.05,1.6.98,1.47-.14.99-.65.99-1.85-.57-1.7-3.58-1.14-2.59.87Z"/><path class="cls-1" d="m726.01,1129.43c1.47-.14.99-.65.99-1.85-.57-1.7-3.58-1.14-2.59.87.33.67.81,1.05,1.6.98Z"/><path class="cls-1" d="m720.15,1134.66c.84.08,1.26-.3,1.6-.98,1.06-2.13-2.05-2.49-2.59-.87,0,1.19-.47,1.71.99,1.85Z"/><path class="cls-1" d="m1474.79,360.41c1.41-1.83-1.62-2.58-2.64-2.38,0,.88.89,4.64,2.64,2.38Z"/></svg>