<?xml version="1.0" encoding="UTF-8"?><svg id="Layer_2" xmlns="http://www.w3.org/2000/svg" viewBox="0 0 412.62 500"><defs><style>.cls-1{fill:#bfff2e;}</style></defs><g id="Layer_1-2"><path class="cls-1" d="m248.78,187.77s-.1-.07-.19-.09c-.09.14-.2.3-.32.49.13-.09.3-.22.51-.4Z"/><path class="cls-1" d="m27.81,487.11c.12-.15.14-.32-.16-.41-.07.17-.14.35-.24.54.15-.06.28-.11.4-.14Z"/><path class="cls-1" d="m243.25,194s-.1-.07-.19-.09c-.09.14-.2.3-.32.49.13-.09.3-.22.51-.4Z"/><path class="cls-1" d="m309.87,118.25s-.06-.02-.08-.03c-.02.01-.04.02-.05.04.04,0,.09,0,.14,0Z"/><path class="cls-1" d="m283.7,146.02s-.12-.08-.23-.1c-.04,0-.09,0-.14,0-.07.18-.14.37-.23.56.14-.09.33-.23.6-.46Z"/><path class="cls-1" d="m.43,470.13l2.2.31c.37.46.73.9,1.08,1.34,1.22-.92,2.44-1.85,3.99-3.01.2,1.83,2.49,1.11,2.97,2.76.65.13,1.3.26,1.96.35.41.05,1.09-.03,1.45.19,1.03.63-.26,1.07-.56,1.52.2.83.73,1.46,1.45,1.95.31-.24.62-.47.94-.71,1.04.49,1.39,1.61,2.13,2.37,1,.25,1.71.4,1.6,1.55-.1,1.02-.31,2.02-1.35,2.46-.27.9-.57,1.78-1.58,2.17l-.32,2.27c-.9.72-1.79,1.43-2.7,2.15-.1.74-.21,1.49-.3,2.18-.33.3-.81.51-1.08.88-.26.35-.3.82-.55,1.2-.49.71-1.05,1.27-1.49,2.03-.35.62-1.37,1.22-1.27,1.99.11.81,1.01,1.03,1.66,1.21.39.45.76.88,1.16,1.33,1.13.16,2.25.31,3.3.46q.93,1.19,2.16.3l2.17.3c.55-.38,1.42-.76,1.85-1.26.39-.45.34-1.12.7-1.58.2-.26.51-.34.73-.58.29-.31.26-.5.39-.88.24-.68.8-.99,1.34-1.43-.29-.44-.58-.88-.9-1.37l.15-1.07c.47-.74,1.51-.31,2.17-.67.96-.53,2.28-1.5,2.9-2.41-.01-.62.09-1.58-.95-1.31-.15.19-.46.33-.4.14-.82.61-.52-.15-.52-.15.12-.21.46-.46.7-.41.02,0,.04.01.06.02.28-.7.35-1.17.41-1.63.61-.46,1.23-.92,1.83-1.38.61-.17,1.46.42,1.8-.58-.23-.31-.46-.61-.7-.93,0-.68.88-.82,1.15-1.37.19-.4.08-.75.4-1.13.26-.32.66-.5.97-.77.07-.36.15-.73.23-1.14.42-.34.85-.7,1.31-1.06.16-1.12.31-2.26.47-3.38.45-.37.89-.72,1.31-1.06.08-.4.15-.77.22-1.14.61-.46,1.23-.93,1.86-1.41l1.08.15c1.04-.44.73-1.41.96-2.28.29-1.07,1.76-1.77,2.61-2.41.08-.37.15-.73.24-1.14-.31-.44-.63-.91-.96-1.38.56-.9,1.85.12,2.38-.89q-.88-1.24-.31-1.71l2.23.31c.8-.76,2.18-.97,2.17-2.53-.25-.39-.56-.86-.89-1.37.38-.32.8-.67,1.23-1.04l.15-1.05c.35-.52.82-.41,1.36-.47.68-.07.98-.33,1.53-.75,1.24-.93,2.54-1.78,3.52-2.99l.27-1.93c.78-.59,1.68-1.27,2.58-1.95-.31-.45-.61-.9-.92-1.35.63-.48,1.24-.94,1.85-1.4.92-.16,1.84.59,2.82-.08.21-.82.43-1.71.64-2.54.82-.62,1.59-1.2,2.36-1.78.1-.38.26-1.23.62-1.49.34-.24,1.08-.14,1.48-.25.61-.16.94-.59,1.53-.69.36-.06,1.12.06,1.35-.37.4-.76-1.58-.88-1.87-1.38-.41-.72.27-2.47.81-2.88.38.03.75.06,1.15.1.9-.65,1.82-1.31,2.72-1.95,1.82.27,1.82.26,2.83-.12-.3-.46-.6-.9-.92-1.38l.15-1.09c.42-.35.86-.71,1.32-1.09l.12-.86c.81-1.1,2.02-1.42,2.76-2.6l.27-1.94c1.32-1,2.55-1.93,3.79-2.87l.16-1.13c-.3-.44-.61-.9-.92-1.36.54-.41.89-.34,1.56-.33,1.89-1.16,1.96-1.3,2.49-2.74.77-.58,1.53-1.16,2.35-1.78l.32-2.28c1.33-1.01,2.69-2.03,3.94-2.99.12-.52.21-.88.29-1.24.77-.58,1.53-1.16,2.4-1.81.19-.66.28-1.21.83-1.67.62-.52,1.35-.99,2.01-1.49l.31-2.24c.46-.37.9-.73,1.35-1.11.16-1.12.31-2.26.47-3.39.58-.24,1.02-.36,1.63-.49.21-.04.48-.06.65-.22.48-.47.38-1.79.46-2.39,1.33-1.01,2.56-1.93,3.84-2.91.1-.69.2-1.44.3-2.19.46-.39.88-.75,1.32-1.11-.29-.43-.59-.89-.89-1.34.85-.86,1.8-.14,2.95-.19.37-.28,1.71-1,1.75-1.51.06-.87-.91-.49-1.34-.69-1.48-.68,1.39-2.23,1.95-2.65l.15-1.09c.91-.72,1.79-1.43,2.64-2.1.09-.39.04-.8.28-1.14.19-.27.65-.57.9-.79.66-.56,1.34-1.09,2-1.63.68.06,1.06.09,1.43.13.61-.46,1.23-.93,1.8-1.36-.2-1.15-1.76-.49-2.02-1.58l.15-1.07c.46-.38.9-.74,1.32-1.09-.27-1.27,1.07-1.45,1.57-2.47l.27-1.98c1.75-1.3,3.44-2.56,5.12-3.81l.16-1.12c.46-.38.9-.74,1.3-1.07.09-.46.1-1.19.55-1.45.52-.3,1.47.02,1.72.53.82,1.64-2.76,2.49-.91,4.05.61-.46,1.23-.93,1.84-1.39.07-.37.14-.74.21-1.13.87-.69,1.76-1.4,2.62-2.08.07-.61.27-1.19-.32-1.67-.43.28-.87.58-1.35.9l-1.1-.15c-.76-.93-.53-2.74.49-3.4.57,0,1.16.33,1.69-.36l.33-2.4c.84-.49,1.83-1.07,2.61-1.52l.2-1.48c1.12-.84,2.63-1.67,3.55-2.73.96-1.12.5-2.88,1.26-4.16,1.4-1.04,3.09-2.29,4.8-3.55.07-.35.15-.71.2-1,.35-.33.88-.58,1.12-1,.2-.35.22-.76.47-1.11.27-.38.68-.63.95-1,.29-.4.36-.89.55-1.34.77-.58,1.54-1.16,2.38-1.8.13-.97.09-2.2.46-3.11.3-.76.98-.77,1.73-.79.83-.52,1.48-.92,2.03-1.27.04-.54.07-.91.1-1.24-.33-.5-.63-.96-.9-1.37.06-.66.15-1.21.82-1.53,1.17.16,2.88.77,3.89.11.21-.82.43-1.71.63-2.53.83-.63,1.6-1.21,2.41-1.82l.31-2.23c.9-.72,1.79-1.42,2.69-2.14l.28-2.05c.48-.8,1.07-.56,1.63-.51.81-.45,1.61-.91,2.14-1.71.16-1.14.3-2.29.47-3.43.07-.5.06-1.25.27-1.71.16-.34.42-.5.67-.78.36.44.72.87,1.06,1.28.6.07,1.18.27,1.68-.35l.45-3.26c.71-.59,1.24-1.33,2.19-1.42.25.32.48.63.72.96.85-.6,1.1-1.19.46-2.1-.59-.84-.74-1.74.28-2.35l1.13.16c.62-.47,1.23-.93,1.9-1.43l.31-2.2c.46-.38.89-.74,1.35-1.13l.16-1.14c1.06-.77,2.15-1.56,3.29-2.39.55.02,1.3.13,1.68-.37.49-.65.14-1.72.6-2.45.77-.58,1.54-1.16,2.3-1.74.08-.36.17-.73.26-1.15.4-.33.83-.69,1.29-1.08.2-1.47.42-2.99.65-4.65.87-.64,1.73-1.28,2.6-1.91.75-.55,1.58-1.49,2.52-1.36l.26-1.9c.75-.49,1.59-1.34,2.5-1.21-.29-1.79,2.72-.33,3.43-1.09.34-.36.24-.9.58-1.34.33-.42.84-.68,1.14-1.13-.12-.87.68-1.12,1.13-1.68.45-.57.44-1.28.99-1.82.59-.57,1.38-.99,2.02-1.51.87-.71,1.8-1.35,2.7-2.03.22-1.58.43-3.1.63-4.55.61-.75,1.09-.16,1.82-.42.66-.23.45-.65.68-1.18.36-.84,1.61-1.15,1.49-2.22,1.23-1.18,2.57-2.16,3.94-3.18l.17-1.2c.64-.48,1.3-.28,1.96-.63.52-.28.59-.88.73-1.41.67-.51,2.28-1.3,2.32-2.15-.44-.58-1-1.1-.69-1.9.34-.87,1.14-.75,1.91-.73.67-.48,1.3-.92,1.9-1.35l.16-1.14c.46-.38.9-.74,1.36-1.12l.31-2.2c.82-.62,1.58-1.2,2.35-1.78.21-.5.41-.99.62-1.49.77-.58,1.53-1.16,2.32-1.76l.15-1.08c.46-.38.9-.74,1.35-1.11l.15-1.1c1.7-1.29,3.39-2.56,5.13-3.88.1-.7.2-1.44.31-2.21.9-.72,1.79-1.43,2.7-2.16l.15-1.09c.88-.75,1.93-1.27,2.62-2.2.22-1.11.16-2.27.72-3.51,1.56-1.15,3.26-2.39,4.96-3.64l.16-1.15c1.53-.38,1.05-2.45,2.48-2.89.21-.5.41-.99.62-1.49,1.23-.93,2.45-1.86,3.69-2.79.1-.75.21-1.51.31-2.26,1.32-1.1,2.79-2,3.92-3.06.26-1.3.19-2.47.69-3.52,1.23-.93,2.45-1.85,3.69-2.79l.23-1.67c.68-.36,1.7-.89,2.47-1.28.09-.36.07-.94.28-1.26.15-.24.48-.36.68-.57.54-.55.78-1.31.98-2.04,1.52-1.15,3.18-2.4,4.83-3.64-.23-.36-.5-.8-.77-1.23.34-.26.72-.39.96-.76.23-.36.3-.83.56-1.19.48-.71,1.19-1.21,1.96-1.57.56.08,1.13.22,1.61-.36l.29-2.09c2.22-1.67,4.36-3.29,6.42-4.84.08-1.2.67-1.87,1.55-2.35.07-.37.14-.74.25-1.35,1.74-1.27,3.76-2.42,5.18-4.05.15-.78.29-1.51.4-2.09.47-.36.78-.59,1.08-.82.09-.36.18-.72.22-.9,2.25-1.7,4.38-3.31,6.11-4.62.37-.66.49-1.53,1.01-2.1.57-.61,1.51-1.12,2.19-1.64l.15-1.09c.91-.72,1.79-1.43,2.7-2.15.16-1.15.32-2.28.47-3.35,1.28-.97,2.51-1.9,3.74-2.82.08-.36.17-.73.27-1.15.39-.33.83-.69,1.29-1.08l.15-1.07c.46-.37.89-.74,1.35-1.11l.15-1.09c2.17-1.64,4.32-3.26,6.47-4.9l.2-1.46c.78-.46,1.77-1.03,2.18-1.27.78-1.39.25-2.53,1.29-3.13.38.03.76.07,1.09.1.95-.26.72-1.21,1.12-1.77.78-.59,1.55-1.17,2.32-1.75.08-.37.16-.73.25-1.16.85-.67,1.74-1.38,2.61-2.08.07-.39.14-.76.21-1.13,1.03-.78,2.21-1.38,2.67-2.59.41-1.07,1.64-1.69,2.55-2.38.08-.37.15-.73.24-1.14.41-.34.85-.7,1.31-1.07l.15-1.09c.45-.37.89-.73,1.31-1.07.08-.4.15-.77.22-1.14,1.23-.93,2.45-1.85,3.68-2.78.1-.36.19-.71.34-1.28,1.22-.92,2.57-1.95,3.87-2.93.1-.47.17-.84.18-.87.79-1.22,2.06-1.47,2.59-2.45.16-.83.29-1.56.41-2.14.92-.7,1.69-1.27,2.45-1.85.07-.37.14-.74.23-1.19,1.31-1,2.66-2.03,3.99-3.04l.3-2.19c.53-.49.93-.87,1.25-1.17.07-.53.04-1.17.24-1.68.17-.45.46-.62.79-.95.74.1,1.49.21,2.22.31,1.01-.61.68-2.25,2.03-2.55.07-.37.14-.74.21-1.14.43-.35.87-.7,1.32-1.07l.15-1.11c.62-.47,1.24-.93,1.85-1.4q1.61.03,2.22-1.68c1.23-.93,2.45-1.85,3.71-2.8l.18-1.27c1.75-1.28,3.81-2.45,5.22-4.1.15-.78.29-1.51.4-2.08.94-.71,1.7-1.29,2.49-1.88l.15-1.09c.91-.72,1.79-1.43,2.7-2.15.11-.77.21-1.51.31-2.21.42-.32,1.38-.71.99-1.36-.31-.52-1.47-.4-1.95-.47-.07.51.04,2.08-.79,2.05-.62-.02-1.25-1.43-1.56-1.89.07-.63.11-1.21.72-1.48.65.32.68,1.38,1.63,1.32.11-.79.74-1.08,1.35-1.57-.31-.45-.61-.89-.91-1.33,1.22-.92,3.16-1.93,3.96-3.27.19-1.38.4-2.85.58-4.21.93-.72,2.59-2.56,3.77-2.4.08-.58.39-1.52,0-2.04-.34-.46-1.13-.48-1.99-.23-.16.19-.45.32-.39.13-.82.61-.52-.15-.52-.15.11-.2.43-.44.68-.41.4-.93,1.3-.81,1.92-.77.81.05,1.6.3,1.99-.59.88-1.99-1.73-1.08-1.79-2.5.77-.58,1.53-1.16,2.3-1.74.09-1.02.65-1.71,1.53-2.18.37-.82.03-1.41,1.16-1.57.45-.07.88.12,1.32.12.56,0,.86-.2,1.36-.43l.15-1.11c.46-.37.9-.73,1.26-1.04l1.27-9.12c-.31-.71-.92-.7-1.52-.79-.34-.41-.7-.84-1.08-1.3l-1.08-.15c-.37-.45-.73-.89-1.1-1.35l-1.04-.15c-.99-.55.24-1.92-.98-2.32-.77.58-1.53,1.16-2.3,1.74-.46.07-1.21-.01-1.6.26-.42.29-.5.97-.62,1.42-1.69,1.28-3.37,2.55-5.08,3.84l-.15,1.09c-.46.38-.9.74-1.35,1.11l-.14,1.02c-1.09,1.09-2.71,1.58-2.94,3.32-.78.59-1.54,1.17-2.31,1.75-.08.36-.17.73-.27,1.15-.39.33-.83.69-1.29,1.08l-.15,1.07c-.46.37-.89.74-1.35,1.11l-.15,1.08c-.88.75-1.93,1.27-2.62,2.21-.05,1.7-1.78,1.83-2.63,2.78-.08.36-.16.73-.26,1.16-.84.67-1.73,1.38-2.61,2.08-.07.39-.14.76-.16.86-.46.66-1.13,1.04-1.74,1.53-.72.57-.95,1.11-1.23,1.97-.77.58-1.53,1.16-2.3,1.74-.08.37-.15.73-.24,1.16-.85.68-1.74,1.39-2.61,2.08-.08.4-.15.77-.22,1.14-1.23.93-2.45,1.86-3.69,2.79-.11,1.01-.64,1.72-1.54,2.18-.07.37-.15.74-.23,1.15-.86.69-1.75,1.39-2.61,2.08-.08.41-.16.78-.24,1.15-.77.58-1.53,1.16-2.3,1.74-.21.5-.41.99-.62,1.49-.77.58-1.53,1.16-2.3,1.74-.07.37-.14.74-.22,1.14-.42.34-.87.7-1.32,1.07l-.15,1.09c-.46.38-.9.74-1.3,1.07-.09.41-.17.78-.25,1.15-.92.44-1.38,1.2-1.53,2.18-.77.58-1.54,1.16-2.31,1.74-.09.36-.18.72-.31,1.26-1.24.94-2.6,1.97-3.87,2.93-.11.5-.2.87-.28,1.23-.77.58-1.53,1.16-2.32,1.76-.31.56-.29,1.22-.79,1.67-.67.6-.87.67-.99,1.66-.85.68-1.74,1.38-2.64,2.11l-.15,1.09c-.88.75-1.92,1.27-2.73,2.34l-.27,1.97c-1.32,1-2.55,1.93-3.79,2.87l-.15,1.11c-.45.37-.89.73-1.36,1.12l-.15,1.08c-1.25.95-2.48,1.87-3.71,2.8-.21.5-.41.99-.62,1.49-.77.58-1.53,1.16-2.31,1.75l-.15,1.12c-.45.37-.89.73-1.32,1.07-.07.4-.14.77-.22,1.14-.87.47-1.46,1.15-1.54,2.18-1.69,1.28-3.38,2.55-5.07,3.83l-.16,1.16c-.51.38-.97.83-1.52,1.17-.42.26-.7.37-.94.82-.17.33-.19.74-.39,1.06-.22.35-.51.4-.79.67-.33.32-.34.7-.52,1.1-.22.5-.52.76-.94,1.1-.98.78-2.02,1.49-3.03,2.24l-.16,1.17c-1.23.93-2.46,1.86-3.74,2.83-.16.64-.42,1.27-.9,1.74-.55.55-.65.64-.84,1.39-.98.7-1.9,1.37-2.61,1.88l-.21,1.5c-.88.74-1.91,1.27-2.62,2.18-.1.35-.2.7-.3,1.06-1.23.93-2.45,1.86-3.71,2.8l-.15,1.09c-.91.73-1.8,1.43-2.64,2.1-.1.44-.18.8-.27,1.16-.77.58-1.53,1.16-2.32,1.76-.3.57-.29,1.22-.79,1.67-.67.6-.86.67-.99,1.66-.85.68-1.74,1.39-2.65,2.11l-.15,1.09c-.88.75-1.93,1.27-2.62,2.2-.11.35-.22.7-.32,1.05-.77.58-1.53,1.16-2.3,1.74-.08.36-.16.73-.25,1.15-.4.33-.84.69-1.3,1.08l-.22,1.59c-.71.37-1.72.91-2.72,1.44.29,1.05-.47,1.32-1,2.03-.55.73-.63,1.78-1.57,2.16-.15.65-.43,1.25-.9,1.73-.67.69-.69.68-.89,1.62-.85.68-1.74,1.38-2.61,2.08-.08.4-.15.77-.22,1.14-.77.58-1.53,1.16-2.36,1.78-.25.83-.53,1.72-1.48,2.14-.21.94-.6,1.76-1.54,2.15-.09.94-.63,1.83-.12,2.76.69.29,2.27.58,2.02,1.69.86.35.71,1.34.02.97-.38-.2-.47-.86-.28-1.01-1.47-.21-2.74-.39-4-.56-.61.46-1.23.93-1.84,1.39-.08.36-.17.73-.27,1.15-.39.33-.83.69-1.29,1.08l-.15,1.05c-.6.97-1.9,0-2.5,1l-.15,1.06c-.87.5-1.52,1.13-1.56,2.2-1.23.93-2.46,1.86-3.69,2.79-.08.36-.16.73-.27,1.22-1.28.97-2.63,1.99-3.87,2.93-.14.55-.23.9-.32,1.26-1.23.93-2.45,1.86-3.72,2.82l-.31,2.23c-.9.72-1.79,1.43-2.66,2.12-.08.4-.15.77-.23,1.14-.89.46-1.43,1.17-1.5,1.87-1.16,1.03-2.16,1.91-3.03,2.68-.82-.12-1.39-.26-1.87.32-.1.69-.2,1.44-.29,2.08-1.77,1.34-3.45,2.61-4.95,3.74-.3.73-.51,1.23-.85,2.05-1.45,1.07-3.14,2.32-4.85,3.58-.07.33-.15.7-.26,1.19-1.05.2-1.22,1.17-1.48,2.03-.8.61-1.57,1.19-2.4,1.81l-.31,2.26c.4.66.75,1.49,1.63,1.88.6-.48,1.19-.95,1.73-1.37.1-.46.19-.82.27-1.18.73-.55,1.47-1.44,2.41-1.31.11-.78.73-.98,1.36-1.39l.18-1.3c.45-.36.89-.71,1.32-1.06l.15-1.07c.61-.91,1.89.1,2.47-.96l.14-1.03c1.24-.94,3.04-1.88,3.91-3.17.1-.35.19-.69.27-.97.71-.55,1.45-1.46,2.38-1.34l.27-1.95c.79-.5,1.74-1.1,2.54-1.6.12-.61.19-.97.26-1.33.51-.6,1.29-.2,1.89-.52.51-.27.58-.9.72-1.42.93-.71,2.56-2.52,3.74-2.35.28-.89.37-.96,1.34-1.24.35-.86,1.34-.71.97-.02-.22.4-.96.49-1.03.23-.27.94-.41,1-1.28,1.03l-.39,2.82c-1.7,1.36-3.48,2.64-5.17,3.95.29.61.82.86.75,1.48-.08.76.1-.19-.46.34-.75-.1-1.49-.21-2.47-.34-.3.26-.7.66-1.14.99-.11.08-.36-.04-.55-.06l-.23,1.69c.33.47.66.93.98,1.38-.07.4-.14.77-.21,1.14-.85.48-1.48,1.12-1.52,2.16-.73.55-1.47,1.45-2.4,1.32-.11.81-.76,1.11-1.39,1.61-.08.41-.15.78-.23,1.15-1.23.93-2.45,1.85-3.68,2.78-.11,1-.64,1.72-1.53,2.18-.08.37-.15.74-.23,1.15-.86.68-1.75,1.39-2.61,2.08-.08.4-.15.77-.22,1.14-.88.47-1.44,1.16-1.53,2.18-1.23.93-2.45,1.86-3.68,2.78-.08.37-.15.73-.24,1.15-.85.68-1.74,1.38-2.61,2.08-.08.4-.15.77-.22,1.14-.72.55-1.45,1.09-2.17,1.64-.65.49-1.39.88-1.72,1.63l-.26,1.9c-1.24.95-2.59,1.98-3.91,2.98-.08.44-.15.81-.22,1.18-.87.47-1.46,1.14-1.53,2.18-.77.58-1.54,1.16-2.3,1.74-.1.35-.2.71-.32,1.14-1.56,1.56-3.63,2.63-5.22,4.19-.1.41-.19.77-.28,1.13-.77.58-1.53,1.16-2.3,1.74-.16.97-.61,1.74-1.53,2.18-.08.37-.16.73-.27,1.23-1.27.97-2.63,1.99-3.9,2.96-.1.99-.35,1.14-1.01,1.73-.55.49-.56,1.28-.92,1.89-1.53,1.12-3.23,2.36-4.92,3.6l-.16,1.14c-.88.5-1.52,1.14-1.56,2.19-.77.58-1.53,1.16-2.31,1.74-.18.96-.6,1.75-1.53,2.18-.08.37-.16.73-.26,1.15-.4.33-.83.69-1.3,1.08l-.17,1.22c-.95.68-1.93,1.33-2.87,2.01-.7.5-.81,1.26-1.29,1.92-.26.35-.64.51-.9.84-.28.34-.26.74-.44,1.11-.46.92-1.79,1.59-2.6,2.21l-.15,1.1c-.46.37-.89.73-1.35,1.11l-.15,1.09c-.95.72-2.61,2.54-3.81,2.37l-.23,1.69c-.45.36-.89.72-1.31,1.06-.07.4-.14.77-.21,1.14-.76.58-1.53,1.15-2.29,1.73-.2.49-.41.99-.61,1.49-1.06.71-1.95,1.68-3.16,2.19-.76-.91-.02-1.83-.09-2.78-.31-.43-.63-.89-.96-1.36l.16-1.12c1.22-.92,2.44-1.85,3.68-2.78.45-.53.19-1.5,1.09-1.8l3.95.55c.15-1.09-1.27-2.37-1.92-3.24.24-.61.11-1.13-.23-1.67-.33-.52-.67-.86.09-1.2l2.31.32c.56-.45,1.16-.93,1.8-1.45.21-.8.43-1.68.64-2.47.4-.3.7-.53,1.01-.76.19-.6.14-1.34.83-1.6.64-.25,1.32.18,1.86-.45l.15-1.06c.88-.7,1.75-1.39,2.59-2.06-.31-.48-.58-.91-.86-1.34.83-.63,1.59-1.2,2.44-1.85-.26-.42-.52-.84-.79-1.28.38-.88,1.21-.35,1.78-.51.65-.48,1.26-.93,1.86-1.37l.29-2.12c.6-1.14,1.92-.06,2.51-1.18l.13-.96c.47-.39.9-.75,1.32-1.1-.3-1.2,1.01-1.39,1.31-2.19-.35-.47-1.18-1.16-.29-1.56.59-.26,1.92.18,2.56.27.42-.64.59-1.43,1.08-2.02.22-.27.63-.42.81-.69.2-.31.16-.89.24-1.24.75-.46,1.72-1.04,2.51-1.52l.28-2-3.96-.55c-.54.18-.59.62-.75,1.09-.18.52-.38.76-.81,1.1-1.02.81-2.11,1.54-3.19,2.28l-.33,2.39c-.47.39-.9.75-1.29,1.08-.1.42-.18.79-.26,1.15-.84.74-1.93,1.2-2.54,2.21-.1.73.03,1.91-.74,2.27-.69.33-1.36-.22-1.92.5l-.31,2.2c-.63.49-1.32,1.29-2.12,1.48-.63.15-1.29-.15-1.72.52l-.12.84c-.81,1.07-2,1.41-2.75,2.56l-.27,1.97c-.86.65-1.62,1.23-2.39,1.81-.09.36-.17.72-.28,1.18-.83.66-1.72,1.36-2.62,2.08l-.15,1.05c-1.09,1.06-2.7,1.56-2.94,3.3-.77.58-1.53,1.16-2.3,1.74-.09.36-.17.72-.27,1.15-.39.33-.82.69-1.29,1.09l-.15,1.05c-.46.38-.9.74-1.35,1.11l-.15,1.07c-.47.39-.9.75-1.29,1.08-.1.42-.18.78-.26,1.15-1.23.93-2.45,1.85-3.68,2.78-.09.36-.17.72-.28,1.17-.83.66-1.72,1.37-2.63,2.09l-.31,2.24c-.88.74-1.92,1.27-2.68,2.27-.03.67-.06,1.41-.08,2.16.82.52.67,1.51.86,2.33.12.51.53.74.69,1.14.14.36,0,.75-.02,1.13-.4.34-.83.7-1.3,1.1-.1.7-.2,1.46-.32,2.3-.59.4-1.23.83-1.97,1.33-.76.01-1.7.08-2.5-.49-.24-.32-.47-.62-.73-.97-.45.3-.89.61-1.36.93-.73-.1-1.49-.21-2.27-.32-.6.46-1.21.93-1.83,1.41-.08.34-.17.7-.27,1.12-.39.33-.82.69-1.29,1.09l-.15,1.05c-.46.38-.9.74-1.35,1.11l-.15,1.1c-1.7,1.29-3.39,2.56-5.07,3.83-.09.36-.17.72-.27,1.15-.39.33-.82.69-1.29,1.09l-.15,1.05c-.91.72-1.79,1.43-2.64,2.1-.1.44-.18.8-.26,1.16-.77.58-1.53,1.16-2.3,1.74-.21.5-.41.99-.62,1.49-.77.58-1.53,1.16-2.32,1.75l-.15,1.09c-.46.38-.9.74-1.35,1.11l-.15,1.1c-1.12.98-2.67,1.53-2.93,3.24-.77.58-1.53,1.16-2.3,1.74-.09.36-.17.72-.28,1.17-.83.66-1.72,1.37-2.63,2.09l-.31,2.24c-1.24.94-2.47,1.87-3.72,2.81-.34.63-.33,1.25-.9,1.74-.62.52-1.36.99-2.01,1.49l-.15,1.09c-.91.72-1.79,1.43-2.64,2.11-.06.48-.11.96-.46,1.33-.29.3-.63.43-.86.8-.43.69-.51,1.61-1.39,1.9-.21.5-.41.99-.62,1.49-.77.58-1.53,1.16-2.32,1.75l-.15,1.09c-.91.72-1.79,1.43-2.64,2.11-.12.95-.35,1.08-.98,1.65-.51.46-.49,1.09-.79,1.67-1.25.94-2.47,1.87-3.72,2.81l-.34,2.42c-1.38.97-2.67,1.95-3.94,3.07.04.78-.54,1.09-1.01,1.58-.45.47-.45,1.01-.8,1.53-.38.57-.93.89-1.19,1.56-.31.79-.7.95-1.34,1.52l-.14,1.04c-.91.72-1.79,1.43-2.63,2.1-.1.44-.19.8-.27,1.16-.77.58-1.53,1.16-2.32,1.75-.33.63-.33,1.25-.9,1.74-.62.52-1.36.99-2.01,1.49l-.15,1.09c-.91.72-1.79,1.43-2.7,2.15-.11.77-.21,1.51-.31,2.21-.82.62-1.59,1.2-2.38,1.8-.33.63-.33,1.25-.9,1.74-.62.52-1.36.99-2.01,1.49l-.15,1.09c-.46.37-.9.73-1.35,1.11l-.14.99c-.93.81-1.78,1.56-2.63,2.3.04.88-1.11,1.63-1.51,2.37-.28.52-.52.96-.95,1.38-.49.48-.44.67-.59,1.34-.84.67-1.73,1.38-2.63,2.1l-.15,1.06c-.47.39-.9.76-1.32,1.11.27,1.28-1.1,1.44-1.59,2.54l-.27,1.96c-1.73,1.27-3.43,2.52-5.11,3.75l-.16,1.12c-.47.39-.9.76-1.29,1.08-.1.43-.18.79-.27,1.15-1.23.93-2.45,1.85-3.68,2.78-.08.36-.17.72-.27,1.15-.39.33-.83.69-1.29,1.08l-.15,1.06c-.46.37-.89.73-1.35,1.11l-.12.86c-.81,1.09-2.01,1.42-2.65,2.41-.31,1-.63,1.28-1.49,1.95-.83.64-1.69,1.27-2.53,1.9l-.17,1.26c-.9.65-1.77,1.35-2.69,1.96-1,.67-1.01,1.2-1.55,2.17-.79.6-1.55,1.18-2.32,1.75-.08.36-.17.73-.26,1.15-.4.33-.83.69-1.3,1.08l-.15,1.07c-.45.37-.89.73-1.35,1.11l-.15,1.05c-.47.4-.9.76-1.29,1.09-.09.62-.23,1.19.35,1.67ZM333.79,88.19c.8-.41,1.33-1.34,2.41-1.4.03-.22.37-2.87,1.23-1.69.5.68-.37,2.19-1.25,1.8l-.24,1.73c-.6.44-1.22.9-1.84,1.36-.88-.44-.54-1.13-.32-1.8Zm-2.66,4.88c.25-.42.49-.74.71-.99.57.22-.43.88-.71.99Zm1.84-1.2c-.22.41-.98.49-1.01.08.79-.81,1.29-.6,1.01-.08Zm-1.95.58c.11-.2.43-.44.67-.41-.91,1.02-.67.41-.67.41Zm-2.24,2.94c.23.3.44.34.1.65-.18.17-.37.16-.58.06-.62-.31.02-1.02.48-.7Zm-4.19,2.72l1.26.18q.64,1.26-.33,2.28c-.55-.08-2.4.01-2.58-.72-.16-.64,1.2-1.37,1.64-1.74Zm-21.19,23.5c.69-.91,1.73-1.44,2.61-2.18l.15-1.09c1.36-1.06,2.7-2.11,3.9-3.06.21-.68.37-1.99,1.41-1.51.28-.89.37-.96,1.3-.98l.24-1.69c.45-.37.89-.72,1.35-1.09l.31-2.2c.48-.57,1.05-.44,1.61-.36q1.87-1.28,2.49-2.76c.77-.58,1.53-1.16,2.3-1.74.51-1.95,1.07-2.15,2.6-.85-.5.33-.96.63-1.4,1.03l-.15,1.07c-.69.52-3.63,2.1-1.63,2.65.56.15,1.32.19.9.96-.34.65-1.71,1.3-2.29,1.74-.16.47.05,1.32-.62,1.46-.62.13-.73-.65-1.11-.96-.64.11-1.57.77-1.92,1.32-.36.55-.21,1.38-.96,1.64l-1.68-.23c-.28.89-.37.96-1.3.98l-.24,1.76c.32.37.68.79,1.02,1.19-.59.81-2.78.02-2.56,1.47.03.01.05.02.08.03.09-.05.23-.05.42.05-.12,0-.23-.01-.34-.01.92.43.76,1.3.11.95-.34-.18-.45-.74-.24-.94-.81.03-1.3.33-1.39.86-.1.63.55,1.35.83,1.86-.53.58-1.08,1.22-1.99,1.33-.24-.32-.48-.63-.71-.94-1.08.35-1.8,1.23-2.71,1.81-.47-.43-.5-.97-.36-1.56Zm-.66,3.34c-.2.36-.83.47-.98.19.41-1.02,1.34-.86.98-.19Zm-.93-.23c-.02.14-.04.27-.06.39-.04-.09-.03-.22.06-.39Zm-19.05,21.61c.1-.17.34-.37.56-.41.47-1.28.51-2.35.95-2.86.51-.59,1.54-.24,2.19-.15.13-.94.26-1.88.39-2.82-.32-.45-.64-.91-.95-1.36.61-.46,1.21-.91,1.87-1.41.34.39.68.79,1.04,1.21.63-.45,1.08-.97,1.88-.86.07-.52.15-1.05.26-1.9.75-.49,1.59-1.34,2.5-1.21l.26-1.9c.75-.49,1.59-1.34,2.5-1.21l.26-1.9c.75-.49,1.59-1.34,2.5-1.21l.26-1.9c.75-.49,1.59-1.34,2.5-1.21,0,0,0-.02.01-.03-.11.73-.18,1.22-.27,1.92-.75.49-1.59,1.34-2.5,1.21l-.26,1.9c-.75.49-1.59,1.34-2.5,1.21l-.26,1.9c-.75.49-1.59,1.34-2.5,1.21l-.26,1.9c-.75.49-1.59,1.34-2.5,1.21l-.25,1.8c-.78.5-1.67,1.08-2.37,1.53-.26.69-.52,2.39-1.61,1.91l-.26,1.9c-.75.49-1.59,1.34-2.5,1.21,0,0,0,0,0,0,.29.26-.57.82-.83.92.08-.16.16-.31.23-.46-.51.31-.33-.15-.33-.15Zm-2.66,3.72c.25-.42.49-.74.71-.99.57.21-.43.88-.71.99Zm1.84-1.2c-.22.41-.98.49-1.01.08.79-.81,1.29-.6,1.01-.08Zm-1.95.58c.11-.2.43-.44.67-.41-.91,1.02-.67.41-.67.41Zm-8.14,9.11c.51-.17,1,.67.27.81-.23.04-.41.01-.54-.21-.24-.39-.02-.37.27-.59Zm-15.81,20.13c.3-.22.34-.44.65-.1.17.18.16.37.06.58-.31.62-1.02-.02-.7-.48Zm-2.76,3.11c.3-.23.34-.44.65-.1.17.18.16.37.06.58-.31.62-1.02-.02-.7-.48Zm-.74,2.59c-.2.36-.83.47-.98.19.41-1.02,1.34-.86.98-.19Zm-.93-.23c-.02.14-.04.28-.06.4-.04-.09-.04-.23.06-.4Zm-3.78,3.92c.12-.2.46-.46.7-.41.02,0,.03,0,.04.01.56-.83.78-.88,1.5-.9.07-.52.05-1.07.24-1.54.19-.47.62-.8,1.22-.59,0-.02.01-.03.02-.05-.09.74-.1,1.19-.26,1.59-.19.47-.62.8-1.22.59-.28.89-.37.96-1.3.98,0,0,0,0,0,0,.29.26-.57.82-.83.92.12-.19.22-.36.32-.52-.63.43-.43-.09-.43-.09Zm-5.52,6.22c.12-.21.46-.46.7-.41.02,0,.03,0,.04.01.56-.83.78-.88,1.5-.9.05-.33.38-2.99,1.25-1.8.5.68-.37,2.19-1.25,1.8-.28.89-.37.96-1.3.98,0,0,0,0,0,0,.29.26-.57.82-.83.92.12-.19.22-.36.32-.52-.63.43-.42-.09-.42-.1Zm-51.37,68.35c.39-.24.37-.02.59.27.17.51-.67,1-.81.27-.04-.23-.01-.41.21-.54Zm-30.64,35.59c.11-.19.4-.41.64-.41.53-1.25.88-2.61,1.54-1.7.5.68-.37,2.19-1.25,1.8,0,0,0,0,0,0,.29.26-.57.82-.83.92.1-.15.2-.32.29-.5-.6.39-.4-.11-.4-.11Zm-1.31,1.9c.51-.17,1,.67.27.81-.23.04-.41.01-.54-.21-.24-.39-.02-.37.27-.59Zm-2.76,3.11c.51-.17,1,.67.27.81-.23.04-.41.01-.54-.21-.24-.39-.02-.37.27-.59Zm-13.69,32.85c.71.88.61,1.64-.32,2.29-.71-.88-.61-1.64.32-2.29Zm-2.89-29.52c.56.08,2.01.59,2.52.19.64-.49-.15-1.12-.47-1.54.56-.71,1.24-1.26,2.09-1.56.61.02,1.11.21,1.39.76-.44.35-.88.71-1.3,1.05-.03.41-.06.78-.09,1.11.3.47.58.9.85,1.33-.91.69-2.37.18-3.48.03-.83-.11-2.92-.31-1.51-1.37Zm-1.6,7.35c-.88.71-1.64.61-2.29-.32.88-.71,1.64-.61,2.29.32Zm-39.99,82.4c-.24-.22-.63-1.11.09-1.11.89,0,.12.94-.09,1.11Zm25.43-69.84c-.14,1.22-1.31,1.03-1.14-.2-.18-1.11,1.3-1.14,1.14.2Zm-25.44,46.54c1.4.41,1.95-.88,2.87-1.44.03-.38.06-.75.09-1.08-.33-.49-.64-.96-.91-1.37.06-.65.14-1.21.75-1.5.35.41.7.83,1.05,1.24,1.07-.81,2.14-1.62,3.22-2.44l.16-1.13c-.31-.45-.62-.9-.93-1.35.45-.51,1-.46,1.84-.25.86-.78,1.84-1.68,3.35-3.07-.04.08-.06-.7.68-1.16,1.13-.7,2.18-1.55,3.19-2.29l.33-2.38c.78-.59,1.54-1.16,2.3-1.74.73-1.15.36-2.58.93-3.77q.68-.33,1.59-.22c.92-.66,1.84-1.32,2.71-1.95,1.36.2,1.69.33,1.88-1.42.42-.34.85-.7,1.31-1.07l.31-2.24c.45-.36.89-.72,1.29-1.04l.15-1.1c-.32-.5-.61-.94-.88-1.35.67-.52,1.27-.99,1.86-1.44,1.16.16,2.3.32,3.44.48.39.33.48.64.22.85-.75.59-1.52,1.16-2.31,1.76l-.31,2.23c-.9.72-1.79,1.42-2.69,2.13l-.31,2.23c-.81.61-1.57,1.19-2.34,1.77-.2.5-.41.99-.61,1.49-.76.58-1.53,1.16-2.29,1.73-.07.37-.15.74-.23,1.14-.42.34-.86.69-1.31,1.06l-.2,1.45c-.78.46-1.76,1.04-2.61,1.53l-.34,2.45c-.83.63-1.6,1.21-2.36,1.78-.1.35-.2.7-.33,1.13-1.56,1.57-3.61,2.63-5.29,4.26l-.31,2.22c-2.16,1.62-4.31,3.22-6.45,4.82l-.16,1.14c-1.08.82-2.15,1.63-3.22,2.43-.49-.41-.38-.95-.44-1.5-.06-.51-.48-.98-.76-1.52.5-.66,1.19-1.19,2.06-1.5Zm-6.96,7.46c.16.09.35.32.4.53.91.24,1.26-.19,1.72-.57,1.3,1.37-.61,3.46-2.13,3.25,0,0,0,0,0,0,.29.26-.57.82-.83.92.09-.17.18-.33.25-.48-.55.35-.36-.13-.36-.14.11-.19.39-.41.63-.41.46-1.01.54-1.6.62-2.18,0,0,0,0,0,0-.26.29-.82-.57-.92-.83.17.09.32.16.46.23-.31-.51.15-.33.15-.33Zm-4.23,8.46l.24-1.72c.6-.45,1.22-.9,1.84-1.36.88.44.54,1.13.32,1.79-.84.37-1.28,1.47-2.4,1.31l-.22,1.6c-1.04.8-1.15.78-2.18-.04,1.32-1.31,1.31-1.31,2.4-1.56Zm-3.06,3.84c-.31.62-1.02-.02-.7-.48.3-.22.34-.44.65-.1.17.18.16.37.06.58Zm2.64-24.53c.18-.17.37-.16.58-.06.62.31-.02,1.02-.48.7-.22-.3-.44-.34-.1-.65Zm-7.2,29c.89,0,.12.94-.09,1.11-.24-.22-.63-1.11.09-1.11Zm-11.27,10.62c1.53-1.17,3.02-2.32,4.53-3.44.11-.08.36.04.55.06l.24-1.72c.6-.45,1.22-.9,1.84-1.36.88.44.54,1.13.32,1.79-.84.37-1.28,1.47-2.4,1.31l-.23,1.67c-.44.35-.87.7-1.31,1.05-.05.37-.1.75-.15,1.11-.43.46-.97.37-1.52.42-.5.05-.96.46-1.5.75-.92-.32-.44-1.06-.36-1.63Zm-1.2,2.9c1.09.28.44,1.08.55,1.64-.93.76-1.67.55-2.36-.27.62-.47,1.21-.92,1.81-1.37Zm-7.01,7.46c.11-.19.4-.41.64-.41.53-1.25.88-2.61,1.54-1.7.5.68-.37,2.19-1.25,1.8,0,0,0,0,0,0,.29.26-.57.82-.83.92.1-.15.2-.32.29-.5-.6.39-.4-.11-.4-.11Zm-12.43,24.63c.71.88.61,1.64-.32,2.29-.71-.88-.61-1.64.32-2.29Zm-4.91,6.01c.46-.84,1.35-1.18,2.04-1.75.5.15,1.16-.08,1.43.6.1.26-.1.5-.51.72-.16.09-.4.2-.43.33-.24,1.38-1.25,2.08-2.34,2.71-.83-.82-.14-1.74-.18-2.61Zm-21.69,45.8c-.2.36-.83.47-.98.19.41-1.02,1.34-.86.98-.19Zm-.99.16c-.04-.09-.03-.22.06-.39-.02.11-.04.24-.06.39Zm3.62-19.51c-.49.77-1.86.07-1.8-.7.46-.71,2.36-.16,1.8.7Zm-3.65,19.62s0-.01,0-.02c-.17,1.07-.52,2.83-1.26,1.82-.5-.68.37-2.19,1.25-1.8Zm2.19-33.9c-.2.36-.83.47-.98.19.41-1.02,1.34-.86.98-.19Zm-.93-.23c-.02.14-.04.28-.06.4-.04-.09-.04-.23.06-.4Zm-2.48,2.94c.11-.2.43-.44.67-.41.34-.72.37-1.1.5-1.43.19-.47.62-.8,1.22-.59,0-.02.01-.03.02-.05-.09.74-.1,1.19-.26,1.59-.19.47-.62.8-1.22.59,0,0,0,0,0,0,.29.26-.57.82-.83.92.11-.18.21-.35.3-.51-.61.4-.41-.11-.41-.11Z"/><path class="cls-1" d="m91.39,381.44s.08-.12.1-.23c.01-.05,0-.11,0-.17-.16-.04-.35-.11-.55-.2.09.14.23.33.46.6Z"/><path class="cls-1" d="m60.69,417.95s-.12-.08-.23-.1c-.02,0-.04,0-.06,0-.08.18-.16.36-.24.53.13-.09.31-.22.54-.42Z"/><path class="cls-1" d="m161.24,297.94s-.12-.08-.23-.1c-.02,0-.04,0-.06,0-.08.18-.16.36-.24.53.13-.09.31-.22.54-.42Z"/><path class="cls-1" d="m19.41,463.48s-.12-.08-.23-.1c0,0-.02,0-.03,0-.07.16-.16.33-.27.52.13-.09.31-.22.53-.42Z"/><path class="cls-1" d="m90.77,383.62c-.08.17-.17.35-.27.55.14-.09.32-.23.57-.44-.05-.04-.12-.08-.23-.1-.02,0-.05,0-.07,0Z"/><path class="cls-1" d="m260.14,173.05c.09.01.17.02.26.04-.11-.08-.2-.08-.26-.04Z"/><path class="cls-1" d="m400.39,27.42c.13-.16.16-.35-.21-.43,0,0-.02,0-.02,0-.07.16-.12.34-.16.56.13-.05.26-.09.39-.13Z"/><path class="cls-1" d="m240.47,197.07c.02-.07.04-.14.06-.21-.06.09-.08.16-.06.21Z"/><path class="cls-1" d="m197.04,240.44c-.24-.31-.47-.62-.71-.93.23-1.14,1.09-.46,1.7-.58.59-.45,1.2-.91,1.84-1.39-.3-.44-.6-.89-.93-1.37.6-.42,1.22-.85,1.92-1.34.48-.05,1.34.07,1.69-.32.45-.49.37-1.83.45-2.45,1.44-.31,1.05-1.97,2.09-2.55l1.09.15c.47-.33.93-.66,1.4-.99l1.69.23c-.18.4-.11.75.25,1,.37.26.67-.03.9-.84l-1.14-.16c.02-1.48.72-2.92.37-4.39-1.18-.31-2.22-1.03-3.27-.05l-.17,1.25c-.67.13-1.38.14-2.02.43-.65.3-1.13.84-1.69,1.27-.12.5-.21.85-.3,1.21-.76.58-1.52,1.15-2.3,1.74-.34.64-.34,1.21-.89,1.73-.56.53-1.35.99-1.98,1.46-.07.37-.14.74-.22,1.14-.42.34-.86.69-1.31,1.05l-.15,1.1c-.45.36-.89.71-1.29,1.04l-.16,1.14c.48.63.94,1.24,1.4,1.86.63.1,1.36.59,1.72-.43Z"/><path class="cls-1" d="m183.31,256.1c.41-.58.2-1.08.85-1.57.65-.5.49-.93.87-1.57.92-.72,2.6-2.62,3.78-2.45l.39-2.83c1.75-1.41,3.61-2.68,5.25-4.05q-.06-1.64-1.49-1.86c-.35-.43-.7-.86-.99-1.21-1.55,1.13-3.08,2.25-4.58,3.34l-.32,2.3c-.9.68-1.77,1.41-2.71,2.06-.98.67-.99,1.2-1.52,2.16-.78.59-1.53,1.16-2.3,1.74-.09,1-.62,1.7-1.51,2.16-.15.65-.57,1.35.39,1.75.41-.31.9-.99,1.42-.55.46.39.06,1.53-.01,2.04.95.13,1.75-.88,2.48-1.45Z"/><path class="cls-1" d="m286.45,176.12l.33-2.39c.84-.5,1.82-1.08,2.82-1.66-.63-.81-1.09-1.41-1.56-2.03-.82.35-1.54.85-2.07,1.59l-.28,2.02c-1.69,1.38-1.71,1.45-.89,2.8.54.04,1.13.32,1.65-.35Z"/><path class="cls-1" d="m126.47,318.71c.71.18,1.46.23,2.17.33.7-1.24,2.12-.54,3-1.29-.3-.43-.6-.87-.9-1.3-.22-.31-.39-.73-.69-.87-.51-.25.14-1.25-.84-1.11-.57.44-1.16.9-1.78,1.38-.14.93-.57,1.69-1.5,2.13.18.26.31.67.54.73Z"/><path class="cls-1" d="m191.97,248.63c-.87.65-1.74,1.3-3.25,2.44l-.16,1.13c1.01,1.75,2.59.09,3.61-.7-.07-.97.66-1.9-.2-2.88Z"/><path class="cls-1" d="m407.17,24.54c.59-.45,1.18-.89,1.78-1.34.03-1.1-.88-.76-1.45-.95-.59.45-1.18.89-1.78,1.34-.03,1.1.88.76,1.45.95Z"/><path class="cls-1" d="m203.49,266.57c-.44.3-.88.61-1.96,1.36-.06.46-.46,1.51.27,1.69.6.15,1.59-1.04,2.02-1.39.1-.63.22-1.19-.32-1.65Z"/><path class="cls-1" d="m217.92,221.84c.59-.44,1.16-.88,1.75-1.32-.61-.9-1.02-.82-2.1-.97-.15,1.08-.34,1.46.36,2.29Z"/><path class="cls-1" d="m212.82,227.48c-1.03-.81-1.14-.84-2.18-.04l-.22,1.6c1.08-.25,1.08-.26,2.4-1.56Z"/><path class="cls-1" d="m224.56,213.7c-1.18.86,1.47,1.2,1.8,1.25.39-.88-1.12-1.75-1.8-1.25Z"/><path class="cls-1" d="m167.97,275.97c-.05.77,1.31,1.46,1.8.7.56-.86-1.34-1.41-1.8-.7Z"/><path class="cls-1" d="m129.81,314.55c.88.39,1.75-1.12,1.25-1.8-.86-1.18-1.2,1.47-1.25,1.8Z"/><path class="cls-1" d="m322.3,76.42c.4-.86-1.44-1.3-1.87-.63-.05.81,1.46,1.49,1.87.63Z"/><path class="cls-1" d="m78.69,426.32c-.72,0-.34.89-.09,1.11.22-.17.99-1.1.09-1.11Z"/><path class="cls-1" d="m81.57,424.15c.3-.23.51-.2.27-.59-.14-.22-.31-.26-.54-.21-.73.14-.24.98.27.81Z"/><path class="cls-1" d="m90.23,413.51c.1-.21.11-.4-.06-.58-.31-.34-.35-.12-.65.1-.32.46.39,1.1.7.48Z"/><path class="cls-1" d="m55.66,392.59c.73-.14.23-.98-.27-.81-.3.22-.51.2-.27.59.14.22.31.26.54.21Z"/><path class="cls-1" d="m128.24,361.37s-.3.77.11.61c.3-.11,1.41-.86.59-1.02-.24-.05-.58.2-.7.41Z"/><path class="cls-1" d="m130.19,360.78c.37-.69-.62-.83-.93-.23-.38.74.67.72.93.23Z"/><path class="cls-1" d="m200.48,270.82c-.72,0-.34.89-.09,1.11.22-.17.99-1.1.09-1.11Z"/><path class="cls-1" d="m176.44,266.46c-.22.14-.26.31-.21.54.14.73.98.23.81-.27-.22-.3-.2-.51-.59-.27Z"/><path class="cls-1" d="m204.63,265.33c.69.37.83-.62.23-.93-.74-.38-.72.67-.23.93Z"/><path class="cls-1" d="m197.07,242.72c-.32.46.39,1.1.7.48.1-.21.11-.4-.06-.58-.31-.34-.35-.12-.65.1Z"/><path class="cls-1" d="m201.13,238.63c-.32.46.39,1.11.7.48.1-.21.11-.4-.06-.58-.31-.34-.35-.12-.65.1Z"/><path class="cls-1" d="m205.19,234.53c-.32.46.39,1.11.7.48.1-.21.11-.4-.06-.58-.31-.34-.35-.12-.65.1Z"/><path class="cls-1" d="m222.31,217.49c.1-.21.11-.4-.06-.58-.31-.34-.35-.12-.65.1-.32.46.39,1.11.7.48Z"/><path class="cls-1" d="m273.94,189.71c.1-.21.11-.4-.06-.58-.31-.34-.35-.12-.65.1-.32.46.39,1.11.7.48Z"/><path class="cls-1" d="m401.55,32.87c.73-.14.23-.98-.27-.81-.3.22-.51.2-.27.59.14.22.31.26.54.21Z"/><path class="cls-1" d="m402.89,29.78c-.74-.38-.72.67-.23.93.69.37.83-.62.23-.93Z"/><path class="cls-1" d="m411.99,17.82c.1-.21.11-.4-.06-.58-.31-.34-.35-.12-.65.1-.32.46.39,1.11.7.48Z"/></g></svg>